<svg width="38" height="38" viewBox="0 0 38 38" fill="none" xmlns="http://www.w3.org/2000/svg">
<g clip-path="url(#clip0_72_424)">
<path d="M21.1673 0.890625C21.2075 0.899978 21.2477 0.909292 21.288 0.918573C21.5211 0.973377 21.7461 1.03976 21.9688 1.12812C22.004 1.1416 22.0391 1.15507 22.0753 1.16895C22.3961 1.2931 22.7014 1.43707 22.9946 1.6182C23.0501 1.65201 23.1065 1.68429 23.1633 1.71584C23.2944 1.79046 23.4172 1.87627 23.5404 1.96309C23.5635 1.97904 23.5867 1.995 23.6105 2.01144C23.6323 2.02679 23.6542 2.04214 23.6767 2.05795C23.7064 2.07873 23.7064 2.07873 23.7367 2.09994C23.758 2.11853 23.758 2.11853 23.7798 2.1375C23.7798 2.15709 23.7798 2.17669 23.7798 2.19687C23.7969 2.20461 23.8141 2.21234 23.8318 2.2203C23.903 2.25868 23.9556 2.30218 24.0154 2.35645C24.0798 2.41431 24.143 2.46933 24.2121 2.52158C24.2989 2.59506 24.3699 2.67722 24.4433 2.76384C24.4909 2.82056 24.4909 2.82056 24.5431 2.86844C24.5813 2.90937 24.5813 2.90937 24.5813 2.96875C24.6009 2.96875 24.6205 2.96875 24.6407 2.96875C24.7988 3.13826 24.9238 3.34175 25.0544 3.53293C25.1001 3.59922 25.1468 3.66359 25.1955 3.72764C25.2776 3.84152 25.3354 3.96749 25.3965 4.09351C25.4399 4.18122 25.4867 4.26597 25.535 4.35107C25.6082 4.48373 25.6626 4.61654 25.7115 4.75974C25.7378 4.83526 25.7675 4.90827 25.7985 4.98193C25.8734 5.16732 25.9246 5.35873 25.9766 5.55156C25.9846 5.57889 25.9926 5.60621 26.0008 5.63436C26.0537 5.82589 26.0857 6.0194 26.1139 6.21582C26.118 6.24359 26.1221 6.27136 26.1263 6.29997C26.1463 6.44829 26.1564 6.59031 26.1513 6.73999C26.1288 7.01591 26.1288 7.01591 26.2239 7.26257C26.3291 7.34475 26.4481 7.38957 26.5737 7.43191C26.6484 7.4581 26.715 7.49414 26.7838 7.5332C26.8091 7.54702 26.8344 7.56083 26.8604 7.57507C27.0718 7.69543 27.2796 7.82192 27.4874 7.94829C27.5385 7.97896 27.5902 8.00843 27.6422 8.03754C27.6608 8.0499 27.6794 8.06226 27.6985 8.075C27.6985 8.09459 27.6985 8.11419 27.6985 8.13437C27.7204 8.14248 27.7423 8.15059 27.7648 8.15895C27.8422 8.19174 27.9044 8.22801 27.9734 8.27562C27.9967 8.29165 28.02 8.30767 28.0441 8.32418C28.0684 8.34114 28.0928 8.35811 28.1179 8.37559C28.1553 8.40152 28.1553 8.40152 28.1936 8.42798C28.2662 8.47837 28.3386 8.529 28.411 8.57969C28.4302 8.59301 28.4494 8.60633 28.4691 8.62006C28.6732 8.76204 28.6732 8.76204 28.7376 8.81719C28.7376 8.83678 28.7376 8.85637 28.7376 8.87656C28.7619 8.88712 28.7619 8.88712 28.7866 8.8979C28.8742 8.94571 28.945 9.00545 29.0215 9.06953C29.1036 9.13818 29.1829 9.2031 29.272 9.2625C29.272 9.28209 29.272 9.30169 29.272 9.32187C29.2891 9.32961 29.3063 9.33734 29.324 9.3453C29.3952 9.38368 29.4478 9.42718 29.5076 9.48145C29.5762 9.54314 29.6441 9.60129 29.7173 9.65771C29.7369 9.67425 29.7565 9.69078 29.7766 9.70781C29.7766 9.72741 29.7766 9.747 29.7766 9.76719C29.806 9.77698 29.8354 9.78678 29.8657 9.79688C29.8657 9.81647 29.8657 9.83606 29.8657 9.85625C29.8853 9.85625 29.9049 9.85625 29.9251 9.85625C29.9251 9.87584 29.9251 9.89544 29.9251 9.91562C29.9492 9.92527 29.9492 9.92527 29.9738 9.93511C30.0681 9.9888 30.139 10.0616 30.2145 10.1383C30.2296 10.1531 30.2446 10.1679 30.2601 10.1832C30.3704 10.294 30.3704 10.294 30.3704 10.3609C30.3998 10.3707 30.4292 10.3805 30.4595 10.3906C30.4595 10.4102 30.4595 10.4298 30.4595 10.45C30.479 10.45 30.4986 10.45 30.5188 10.45C30.5188 10.4696 30.5188 10.4892 30.5188 10.5094C30.5482 10.5192 30.5776 10.529 30.6079 10.5391C30.6079 10.5587 30.6079 10.5782 30.6079 10.5984C30.6275 10.5984 30.6471 10.5984 30.6673 10.5984C30.7123 10.6431 30.7123 10.6431 30.7638 10.7042C30.782 10.7257 30.8003 10.7473 30.8191 10.7695C30.8376 10.7914 30.856 10.8133 30.8751 10.8359C30.8926 10.8557 30.9102 10.8755 30.9283 10.8959C30.9525 10.9232 30.9525 10.9232 30.9771 10.951C30.9918 10.9674 31.0064 10.9839 31.0215 11.0008C31.0532 11.0437 31.0532 11.0437 31.0532 11.1031C31.0728 11.1031 31.0924 11.1031 31.1126 11.1031C31.1681 11.1682 31.2205 11.2336 31.2722 11.3017C31.3008 11.3389 31.3295 11.3761 31.3582 11.4133C31.3787 11.4403 31.3787 11.4403 31.3997 11.4678C31.4351 11.5136 31.472 11.5583 31.509 11.6028C31.5579 11.6672 31.5579 11.6672 31.5579 11.7266C31.5775 11.7266 31.5971 11.7266 31.6173 11.7266C31.6271 11.7657 31.6369 11.8049 31.647 11.8453C31.6665 11.8453 31.6861 11.8453 31.7063 11.8453C31.7629 11.9178 31.8157 11.9905 31.8678 12.0661C31.8834 12.0886 31.899 12.111 31.9151 12.1341C32.0284 12.298 32.1392 12.4634 32.2481 12.6302C32.2694 12.6625 32.2694 12.6625 32.2911 12.6956C32.3891 12.8475 32.3891 12.8475 32.3891 12.9141C32.4087 12.9141 32.4283 12.9141 32.4485 12.9141C32.4647 12.9443 32.4647 12.9443 32.4812 12.9751C32.5711 13.1415 32.6644 13.305 32.7624 13.4669C32.829 13.5779 32.8914 13.6909 32.9532 13.8047C32.9706 13.8363 32.988 13.868 33.0059 13.9006C33.1455 14.1571 33.2727 14.4185 33.3962 14.6831C33.4367 14.7699 33.4785 14.8557 33.5217 14.9412C33.5624 15.0219 33.5997 15.1026 33.6323 15.187C33.6674 15.2769 33.7028 15.3666 33.7393 15.4559C33.8158 15.6429 33.8868 15.8285 33.9414 16.0232C33.9712 16.118 34.0128 16.206 34.0544 16.296C34.0925 16.3835 34.116 16.4735 34.1407 16.5656C34.1553 16.6096 34.1702 16.6535 34.1852 16.6974C34.2137 16.7816 34.2388 16.8651 34.2595 16.9516C34.2642 16.9706 34.269 16.9897 34.274 17.0093C34.285 17.0535 34.2953 17.098 34.3053 17.1424C34.3239 17.2131 34.3429 17.2736 34.3782 17.3375C34.4709 17.3829 34.5455 17.3941 34.6478 17.4012C35.5097 17.4643 36.2934 17.9754 36.8942 18.5658C36.9119 18.5831 36.9297 18.6004 36.9479 18.6183C37.0385 18.7098 37.1021 18.7843 37.1391 18.9109C37.1587 18.9109 37.1783 18.9109 37.1985 18.9109C37.2475 18.9743 37.292 19.0371 37.3358 19.1039C37.349 19.1239 37.3622 19.1438 37.3757 19.1644C37.6405 19.5745 37.8996 20.0655 37.9574 20.5549C37.9585 20.6567 37.9585 20.6567 38.0001 20.6922C38.0031 20.7325 38.0042 20.773 38.0044 20.8135C38.0047 20.8522 38.0047 20.8522 38.005 20.8916C38.005 20.9198 38.005 20.9479 38.0051 20.9769C38.0052 21.0058 38.0053 21.0347 38.0054 21.0645C38.0055 21.1259 38.0056 21.1874 38.0056 21.2489C38.0056 21.3421 38.0062 21.4354 38.0067 21.5286C38.0068 21.5884 38.0069 21.6482 38.0069 21.7079C38.0071 21.7355 38.0074 21.7631 38.0076 21.7916C38.0051 22.5081 37.6548 23.1751 37.2579 23.75C37.2383 23.7794 37.2187 23.8088 37.1985 23.8391C37.1789 23.8391 37.1593 23.8391 37.1391 23.8391C37.1311 23.8565 37.1231 23.8739 37.1148 23.8918C36.7977 24.4893 35.9714 24.9446 35.3579 25.1453C35.3247 25.1571 35.3247 25.1571 35.2907 25.1691C34.9849 25.2762 34.7039 25.339 34.3782 25.3234C34.3735 25.3433 34.3688 25.3632 34.3639 25.3836C34.2367 25.9074 34.0811 26.4287 33.8735 26.9266C33.8947 26.9221 33.916 26.9176 33.9378 26.913C34.1701 26.8685 34.3824 26.8642 34.6176 26.8839C34.6524 26.8867 34.6873 26.8895 34.7232 26.8924C35.178 26.934 35.5745 27.0478 35.9813 27.2531C36.0338 27.277 36.0863 27.3005 36.139 27.3236C36.1604 27.333 36.1817 27.3425 36.2036 27.3522C36.2184 27.3587 36.2333 27.3652 36.2485 27.3719C36.2485 27.3915 36.2485 27.4111 36.2485 27.4312C36.2655 27.4347 36.2825 27.4381 36.3 27.4416C36.3736 27.4628 36.4285 27.4928 36.4934 27.5333C36.5144 27.5461 36.5354 27.5589 36.557 27.5721C36.5728 27.5844 36.5885 27.5967 36.6048 27.6094C36.6048 27.629 36.6048 27.6486 36.6048 27.6687C36.625 27.6749 36.6452 27.681 36.666 27.6873C36.7804 27.7409 36.8743 27.8142 36.961 27.9062C36.961 27.9258 36.961 27.9454 36.961 27.9656C36.9904 27.9754 37.0198 27.9852 37.0501 27.9953C37.0501 28.0149 37.0501 28.0345 37.0501 28.0547C37.0697 28.0547 37.0893 28.0547 37.1095 28.0547C37.1672 28.1175 37.1672 28.1175 37.2319 28.1994C37.2534 28.2263 37.2749 28.2531 37.2971 28.2808C37.347 28.3516 37.347 28.3516 37.347 28.4109C37.3666 28.4109 37.3861 28.4109 37.4063 28.4109C37.4938 28.5342 37.5684 28.666 37.6438 28.7969C37.6658 28.835 37.6658 28.835 37.6882 28.874C37.7828 29.0505 37.8367 29.2332 37.8874 29.426C37.9027 29.5059 37.9027 29.5059 37.9407 29.5391C37.9975 29.7245 38.0086 29.9049 38.0069 30.0976C38.0069 30.1374 38.0069 30.1374 38.0069 30.1781C38.0068 30.2337 38.0066 30.2892 38.0062 30.3448C38.0056 30.4303 38.0056 30.5157 38.0056 30.6012C38.0054 30.6554 38.0053 30.7095 38.0051 30.7637C38.005 30.7893 38.005 30.8149 38.005 30.8413C38.0035 31.02 38.0035 31.02 37.9704 31.0531C37.9667 31.0874 37.963 31.1217 37.9593 31.157C37.9427 31.2991 37.9 31.4238 37.8516 31.5578C37.8416 31.5884 37.8315 31.619 37.8211 31.6505C37.6255 32.2308 37.3099 32.7785 36.961 33.2797C36.9465 33.3009 36.9319 33.3221 36.9169 33.344C36.8688 33.4143 36.8203 33.4843 36.7718 33.5543C36.7562 33.577 36.7406 33.5997 36.7246 33.6231C36.7099 33.644 36.6953 33.6649 36.6801 33.6865C36.667 33.7054 36.6539 33.7243 36.6404 33.7437C36.6287 33.7571 36.6169 33.7705 36.6048 33.7844C36.5852 33.7844 36.5656 33.7844 36.5454 33.7844C36.538 33.8058 36.5307 33.8272 36.5231 33.8493C36.4824 33.941 36.4348 34.0073 36.3673 34.0812C36.3477 34.0812 36.3281 34.0812 36.3079 34.0812C36.2998 34.0988 36.2917 34.1163 36.2834 34.1343C36.2494 34.1983 36.2135 34.2462 36.1658 34.3004C36.1501 34.3185 36.1343 34.3366 36.1181 34.3553C36.0936 34.3831 36.0936 34.3831 36.0685 34.4115C36.036 34.4487 36.0035 34.4858 35.971 34.5231C35.9566 34.5394 35.9422 34.5558 35.9274 34.5726C35.8894 34.6159 35.8894 34.6159 35.8626 34.675C35.843 34.675 35.8234 34.675 35.8032 34.675C35.7934 34.7044 35.7836 34.7338 35.7735 34.7641C35.7539 34.7641 35.7343 34.7641 35.7141 34.7641C35.7141 34.7837 35.7141 34.8032 35.7141 34.8234C35.6945 34.8234 35.675 34.8234 35.6548 34.8234C35.645 34.8528 35.6352 34.8822 35.6251 34.9125C35.6055 34.9125 35.5859 34.9125 35.5657 34.9125C35.5657 34.9321 35.5657 34.9517 35.5657 34.9719C35.5461 34.9719 35.5265 34.9719 35.5063 34.9719C35.4985 34.9894 35.4906 35.0068 35.4826 35.0248C35.4457 35.093 35.4069 35.1384 35.3523 35.1931C35.334 35.2115 35.3157 35.2299 35.2969 35.2488C35.2778 35.2676 35.2588 35.2865 35.2391 35.3059C35.2201 35.3251 35.201 35.3444 35.1814 35.3643C35.1631 35.3825 35.1448 35.4007 35.126 35.4195C35.1092 35.4362 35.0925 35.4528 35.0753 35.47C35.0313 35.5062 35.0313 35.5062 34.972 35.5062C34.972 35.5258 34.972 35.5454 34.972 35.5656C34.9524 35.5656 34.9328 35.5656 34.9126 35.5656C34.9028 35.595 34.893 35.6244 34.8829 35.6547C34.8633 35.6547 34.8437 35.6547 34.8235 35.6547C34.8235 35.6743 34.8235 35.6939 34.8235 35.7141C34.8039 35.7141 34.7843 35.7141 34.7641 35.7141C34.7543 35.7435 34.7445 35.7728 34.7345 35.8031C34.7149 35.8031 34.6953 35.8031 34.6751 35.8031C34.6751 35.8227 34.6751 35.8423 34.6751 35.8625C34.6246 35.9075 34.5723 35.9505 34.5192 35.9924C34.436 36.0582 34.3563 36.1217 34.2822 36.1976C34.2298 36.2484 34.2298 36.2484 34.1704 36.2484C34.1704 36.268 34.1704 36.2876 34.1704 36.3078C34.0078 36.4562 34.0078 36.4562 33.9329 36.4562C33.9329 36.4758 33.9329 36.4954 33.9329 36.5156C33.87 36.5734 33.87 36.5734 33.7882 36.6381C33.7613 36.6596 33.7344 36.6811 33.7068 36.7033C33.636 36.7531 33.636 36.7531 33.5766 36.7531C33.5766 36.7727 33.5766 36.7923 33.5766 36.8125C33.4739 36.9016 33.4739 36.9016 33.3985 36.9016C33.3985 36.9212 33.3985 36.9408 33.3985 36.9609C33.3593 36.9707 33.3201 36.9805 33.2798 36.9906C33.2798 37.0102 33.2798 37.0298 33.2798 37.05C33.177 37.1391 33.177 37.1391 33.1016 37.1391C33.1016 37.1587 33.1016 37.1782 33.1016 37.1984C33.0438 37.2458 33.0438 37.2458 32.9625 37.3023C32.8634 37.3722 32.7657 37.4425 32.6706 37.5176C32.6448 37.5379 32.6448 37.5379 32.6184 37.5587C32.5847 37.5854 32.5511 37.6123 32.5177 37.6393C32.3989 37.7328 32.3989 37.7328 32.3001 37.7328C32.3001 37.7524 32.3001 37.772 32.3001 37.7922C32.224 37.8604 32.1968 37.8812 32.0923 37.8812C32.0923 37.9008 32.0923 37.9204 32.0923 37.9406C31.8885 38.0553 31.6057 38.0325 31.3798 38C31.2456 37.9577 31.1281 37.8862 31.0235 37.7922C31.0235 37.7726 31.0235 37.753 31.0235 37.7328C30.9977 37.7204 30.9977 37.7204 30.9714 37.7078C30.8615 37.6511 30.7618 37.5798 30.6598 37.5102C30.6377 37.4953 30.6156 37.4805 30.5928 37.4653C30.5719 37.451 30.551 37.4367 30.5295 37.422C30.5104 37.409 30.4912 37.396 30.4715 37.3827C30.4577 37.3708 30.444 37.359 30.4298 37.3469C30.4298 37.3273 30.4298 37.3077 30.4298 37.2875C30.4047 37.2756 30.4047 37.2756 30.3792 37.2634C30.3064 37.2257 30.2386 37.1839 30.17 37.1391C30.1463 37.1238 30.1225 37.1084 30.0981 37.0927C30.0712 37.0716 30.0712 37.0716 30.0438 37.05C30.0438 37.0304 30.0438 37.0108 30.0438 36.9906C30.0276 36.9836 30.0115 36.9765 29.9948 36.9693C29.9072 36.9215 29.8364 36.8617 29.7599 36.7977C29.6778 36.729 29.5986 36.6641 29.5095 36.6047C29.5095 36.5851 29.5095 36.5655 29.5095 36.5453C29.4925 36.5374 29.4755 36.5294 29.458 36.5212C29.3884 36.4847 29.3276 36.4436 29.2645 36.3969C29.2331 36.3739 29.2331 36.3739 29.201 36.3505C29.1852 36.3364 29.1694 36.3223 29.1532 36.3078C29.1532 36.2882 29.1532 36.2686 29.1532 36.2484C29.1238 36.2386 29.0944 36.2288 29.0641 36.2188C29.0641 36.1992 29.0641 36.1796 29.0641 36.1594C29.0485 36.1532 29.0328 36.147 29.0167 36.1406C28.9156 36.0831 28.8382 36.0055 28.7543 35.9256C28.721 35.8941 28.6876 35.8626 28.6542 35.8312C28.6383 35.8162 28.6224 35.8012 28.606 35.7858C28.5634 35.7474 28.5183 35.7118 28.4731 35.6767C28.4526 35.6597 28.4321 35.6426 28.411 35.625C28.411 35.6054 28.411 35.5858 28.411 35.5656C28.3914 35.5656 28.3718 35.5656 28.3516 35.5656C28.3034 35.5248 28.3034 35.5248 28.2626 35.4766C28.2626 35.457 28.2626 35.4374 28.2626 35.4172C28.2341 35.4052 28.2341 35.4052 28.2051 35.3931C28.1438 35.3578 28.1438 35.3578 28.1141 35.2687C28.0945 35.259 28.075 35.2492 28.0548 35.2391C27.9954 35.2094 27.9954 35.2094 27.9657 35.1203C27.9363 35.1105 27.9069 35.1007 27.8766 35.0906C27.8766 35.071 27.8766 35.0514 27.8766 35.0312C27.857 35.0312 27.8375 35.0312 27.8173 35.0312C27.8173 35.0117 27.8173 34.9921 27.8173 34.9719C27.7977 34.9719 27.7781 34.9719 27.7579 34.9719C27.707 34.9137 27.6574 34.8543 27.6095 34.7938C27.4598 34.809 27.3588 34.8819 27.2365 34.9626C27.0618 35.0752 26.8876 35.1749 26.6997 35.2641C26.6246 35.2991 26.6246 35.2991 26.5407 35.3578C26.5113 35.3578 26.4819 35.3578 26.4516 35.3578C26.4516 35.3774 26.4516 35.397 26.4516 35.4172C26.4364 35.4244 26.4212 35.4315 26.4055 35.4389C26.3343 35.4724 26.2631 35.506 26.1919 35.5396C26.1661 35.5518 26.1403 35.564 26.1137 35.5765C25.9724 35.6435 25.8321 35.7117 25.6928 35.7827C25.5678 35.8459 25.442 35.8999 25.3113 35.9501C25.2257 35.9848 25.1433 36.0245 25.06 36.0647C24.8233 36.1752 24.5779 36.2583 24.3306 36.3416C24.2571 36.3664 24.1837 36.3916 24.1104 36.4168C23.888 36.4928 23.6673 36.5637 23.4378 36.6154C23.3635 36.6327 23.3635 36.6327 23.2933 36.6636C23.1664 36.7129 23.0335 36.7332 22.9003 36.7596C22.8033 36.7792 22.8033 36.7792 22.7284 36.8125C22.6223 36.8535 22.5151 36.8689 22.403 36.8867C22.2444 36.9122 22.0935 36.945 21.9391 36.9906C21.7489 37.0327 21.5595 37.056 21.3655 37.0713C21.2889 37.0794 21.2164 37.0929 21.1413 37.1094C20.9912 37.1419 20.8419 37.1524 20.6888 37.1614C20.6073 37.166 20.6073 37.166 20.5465 37.1835C20.4818 37.1991 20.4227 37.2043 20.3562 37.2073C20.3312 37.2084 20.3061 37.2096 20.2802 37.2109C20.2533 37.212 20.2263 37.2131 20.1986 37.2143C20.1565 37.2162 20.1565 37.2162 20.1136 37.2182C20.0542 37.2209 19.9948 37.2235 19.9353 37.226C19.8454 37.2299 19.7554 37.234 19.6654 37.2382C19.6075 37.2407 19.5496 37.2433 19.4917 37.2459C19.4519 37.2477 19.4519 37.2477 19.4113 37.2495C19.1197 37.2619 18.8297 37.2591 18.5382 37.2459C18.5099 37.2446 18.4817 37.2434 18.4526 37.2421C18.3935 37.2395 18.3345 37.2368 18.2754 37.2341C18.185 37.23 18.0946 37.2261 18.0042 37.2222C17.9466 37.2196 17.8889 37.2169 17.8312 37.2143C17.8043 37.2132 17.7774 37.212 17.7496 37.2109C17.7245 37.2097 17.6994 37.2085 17.6736 37.2073C17.6407 37.2058 17.6407 37.2058 17.6071 37.2043C17.5443 37.1983 17.4874 37.185 17.4266 37.1688C17.3806 37.163 17.3345 37.1581 17.2883 37.1539C17.2493 37.1502 17.2493 37.1502 17.2095 37.1465C17.155 37.1415 17.1005 37.1366 17.046 37.1316C17.02 37.1292 16.994 37.1267 16.9673 37.1242C16.9436 37.1221 16.92 37.1199 16.8956 37.1177C16.8329 37.1094 16.8329 37.1094 16.7438 37.0797C16.6987 37.0759 16.6536 37.0729 16.6084 37.0704C16.4314 37.0557 16.2631 37.0184 16.0906 36.9784C15.8981 36.9338 15.705 36.8973 15.5104 36.8633C15.4131 36.8433 15.3238 36.8146 15.2298 36.7828C15.1644 36.7684 15.0988 36.7548 15.0331 36.742C14.8667 36.7073 14.7093 36.6619 14.549 36.6057C14.449 36.572 14.3482 36.5437 14.2464 36.5156C14.0975 36.4739 13.9559 36.425 13.8135 36.3652C13.7469 36.3381 13.6802 36.315 13.6118 36.293C13.4916 36.254 13.3752 36.208 13.2582 36.1602C13.1806 36.1294 13.1024 36.1016 13.0236 36.074C12.853 36.0124 12.6899 35.9379 12.5262 35.86C12.4625 35.8298 12.3985 35.8 12.3345 35.7703C11.9573 35.5943 11.5875 35.4096 11.2324 35.1916C11.1621 35.1497 11.0905 35.1118 11.0179 35.0739C10.772 34.9415 10.5418 34.7826 10.3087 34.6292C10.2304 34.5782 10.1511 34.5291 10.0716 34.4802C9.89239 34.3669 9.72521 34.2377 9.55667 34.1094C9.42966 34.0129 9.29976 33.9208 9.16888 33.8296C9.15082 33.8147 9.13275 33.7998 9.11414 33.7844C9.11414 33.7648 9.11414 33.7452 9.11414 33.725C9.09795 33.718 9.08177 33.7109 9.06509 33.7037C8.97749 33.6559 8.90671 33.5961 8.83025 33.532C8.74812 33.4634 8.66887 33.3985 8.57977 33.3391C8.57977 33.3195 8.57977 33.2999 8.57977 33.2797C8.56323 33.2723 8.5467 33.265 8.52967 33.2574C8.44843 33.2135 8.38156 33.1629 8.31258 33.1016C8.31258 33.082 8.31258 33.0624 8.31258 33.0422C8.2868 33.0309 8.2868 33.0309 8.2605 33.0194C8.18593 32.9785 8.13669 32.9324 8.07705 32.8718C8.04447 32.839 8.04447 32.839 8.01124 32.8054C7.97763 32.7711 7.97763 32.7711 7.94334 32.736C7.92105 32.7135 7.89876 32.6909 7.87579 32.6677C7.83256 32.6239 7.78939 32.5801 7.74628 32.5362C7.65629 32.4447 7.56548 32.3541 7.47402 32.2641C7.34095 32.1326 7.21194 32.0011 7.09539 31.8547C7.09539 31.8351 7.09539 31.8155 7.09539 31.7953C7.0758 31.7953 7.0562 31.7953 7.03602 31.7953C6.88758 31.6327 6.88758 31.6327 6.88758 31.5578C6.86799 31.5578 6.84839 31.5578 6.8282 31.5578C6.77448 31.4952 6.72404 31.4323 6.6742 31.3667C6.65967 31.3478 6.64513 31.3289 6.63015 31.3095C6.6009 31.2715 6.57171 31.2335 6.54258 31.1954C6.47231 31.1041 6.39991 31.0145 6.32781 30.9246C6.29383 30.875 6.29383 30.875 6.29383 30.8156C6.27424 30.8156 6.25464 30.8156 6.23445 30.8156C6.19468 30.7598 6.19468 30.7598 6.14725 30.6802C6.04527 30.5146 5.93335 30.3589 5.81611 30.2038C5.7275 30.0854 5.65334 29.9651 5.58133 29.8359C5.55157 29.7898 5.52133 29.744 5.49041 29.6986C5.31414 29.4362 5.31414 29.4362 5.31414 29.3312C5.29455 29.3312 5.27495 29.3312 5.25477 29.3312C5.24432 29.3097 5.23387 29.2881 5.22311 29.2658C5.1453 29.1074 5.06496 28.9523 4.97459 28.8006C4.82088 28.5412 4.69048 28.2725 4.57195 27.9953C4.54683 27.9419 4.52171 27.8885 4.49626 27.8353C4.41188 27.6585 4.33612 27.4824 4.27206 27.2971C4.24609 27.2254 4.21627 27.1571 4.18416 27.088C4.13134 26.9725 4.09533 26.8562 4.06066 26.7342C4.03776 26.6599 4.01017 26.5899 3.98006 26.5184C3.91417 26.3595 3.86956 26.196 3.82478 26.0303C3.80834 25.9504 3.80834 25.9504 3.77039 25.9172C3.76672 25.8878 3.76304 25.8584 3.75926 25.8281C3.74476 25.7147 3.71115 25.6124 3.67298 25.5049C3.65257 25.4449 3.63644 25.3851 3.62195 25.3234C3.60037 25.3245 3.57879 25.3255 3.55655 25.3266C3.32556 25.3328 3.13021 25.2998 2.90945 25.2344C2.8796 25.2265 2.84975 25.2185 2.819 25.2104C2.40446 25.0944 1.98002 24.8978 1.63289 24.6406C1.63289 24.621 1.63289 24.6014 1.63289 24.5812C1.61295 24.5755 1.59302 24.5698 1.57247 24.564C1.44875 24.5048 1.36206 24.4176 1.26365 24.3233C1.24458 24.3055 1.2255 24.2877 1.20584 24.2694C1.08377 24.154 0.958783 24.0357 0.861016 23.8984C0.861016 23.8788 0.861016 23.8592 0.861016 23.8391C0.841423 23.8391 0.821829 23.8391 0.801641 23.8391C0.7527 23.7757 0.708159 23.7129 0.664337 23.6461C0.644579 23.6161 0.644579 23.6161 0.624422 23.5856C0.263048 23.026 -0.0119695 22.3815 -0.00676324 21.7079C-0.00674963 21.6788 -0.00673558 21.6496 -0.00672156 21.6196C-0.00663257 21.5586 -0.00640115 21.4976 -0.0060312 21.4366C-0.00548367 21.3428 -0.00542236 21.249 -0.00542962 21.1552C-0.00528388 21.0958 -0.00511093 21.0363 -0.00490777 20.9769C-0.00487473 20.9487 -0.00484215 20.9206 -0.00480811 20.8916C-0.00461871 20.8658 -0.00442885 20.84 -0.00423371 20.8135C-0.00412055 20.7907 -0.00400784 20.7679 -0.00389125 20.7445C7.83512e-05 20.6922 7.88025e-05 20.6922 0.0297663 20.6625C0.0388377 20.6213 0.046629 20.5798 0.0538874 20.5382C0.187069 19.8588 0.494748 19.3252 0.912433 18.7824C0.943091 18.742 0.972571 18.7008 1.00168 18.6593C1.01405 18.6444 1.02641 18.6294 1.03914 18.6141C1.05874 18.6141 1.07833 18.6141 1.09852 18.6141C1.09852 18.5945 1.09852 18.5749 1.09852 18.5547C1.13934 18.5064 1.13934 18.5064 1.18758 18.4656C1.20717 18.4656 1.22677 18.4656 1.24695 18.4656C1.24695 18.446 1.24695 18.4264 1.24695 18.4062C1.28998 18.3664 1.28998 18.3664 1.35005 18.3212C1.37188 18.3047 1.39371 18.2881 1.41621 18.2711C1.43934 18.2538 1.46247 18.2366 1.48631 18.2188C1.50864 18.202 1.53097 18.1851 1.55398 18.1676C1.6196 18.1182 1.68558 18.0692 1.75164 18.0203C1.76964 18.0067 1.78764 17.993 1.80618 17.979C1.93029 17.8868 2.05845 17.8175 2.19881 17.7531C2.22068 17.743 2.24255 17.7328 2.26508 17.7224C2.63816 17.5522 3.00663 17.4383 3.41263 17.3839C3.50251 17.3673 3.57076 17.3503 3.65164 17.3078C3.68717 17.2425 3.68717 17.2425 3.70301 17.1633C3.7103 17.1346 3.7176 17.1058 3.72511 17.0762C3.73209 17.0461 3.73907 17.016 3.74627 16.985C3.76082 16.9256 3.77546 16.8663 3.79022 16.8071C3.79643 16.7807 3.80264 16.7543 3.80903 16.7272C3.82896 16.6575 3.85574 16.6 3.88914 16.5359C3.90312 16.489 3.91696 16.442 3.92996 16.3948C3.9923 16.1708 4.05768 15.9519 4.15656 15.7411C4.18904 15.6682 4.21541 15.5945 4.24168 15.5191C4.32917 15.2738 4.44272 15.0403 4.56082 14.8085C4.60728 14.717 4.64739 14.6262 4.68328 14.5302C4.74898 14.3578 4.83953 14.1987 4.9309 14.0389C4.94245 14.018 4.954 13.9971 4.96589 13.9756C4.97649 13.957 4.98708 13.9384 4.99799 13.9192C5.02236 13.8495 5.01324 13.8136 4.98758 13.7453C4.94653 13.702 4.94653 13.702 4.89666 13.6674C4.86788 13.6441 4.8391 13.6208 4.80945 13.5969C4.80945 13.5773 4.80945 13.5577 4.80945 13.5375C4.78006 13.5277 4.75067 13.5179 4.72039 13.5078C4.72039 13.4882 4.72039 13.4686 4.72039 13.4484C4.7008 13.4484 4.6812 13.4484 4.66102 13.4484C4.66102 13.4288 4.66102 13.4092 4.66102 13.3891C4.63163 13.3793 4.60223 13.3695 4.57195 13.3594C4.57195 13.3398 4.57195 13.3202 4.57195 13.3C4.54784 13.2904 4.54784 13.2904 4.52325 13.2805C4.42897 13.2268 4.35799 13.154 4.2825 13.0773C4.26746 13.0625 4.25242 13.0477 4.23693 13.0325C4.12664 12.9216 4.12664 12.9216 4.12664 12.8547C4.10705 12.8547 4.08745 12.8547 4.06727 12.8547C4.06727 12.8351 4.06727 12.8155 4.06727 12.7953C4.03788 12.7855 4.00848 12.7757 3.9782 12.7656C3.9782 12.746 3.9782 12.7264 3.9782 12.7062C3.95861 12.7062 3.93902 12.7062 3.91883 12.7062C3.91883 12.6867 3.91883 12.6671 3.91883 12.6469C3.88944 12.6371 3.86005 12.6273 3.82977 12.6172C3.82977 12.5976 3.82977 12.578 3.82977 12.5578C3.81017 12.5578 3.79058 12.5578 3.77039 12.5578C3.62195 12.3952 3.62195 12.3952 3.62195 12.3203C3.60236 12.3203 3.58277 12.3203 3.56258 12.3203C3.51614 12.2701 3.47193 12.2177 3.42899 12.1645C3.40541 12.1355 3.38184 12.1066 3.35755 12.0768C3.30764 12.0101 3.26923 11.9508 3.23602 11.875C3.21642 11.875 3.19683 11.875 3.17664 11.875C3.13837 11.8316 3.13837 11.8316 3.09871 11.7748C3.08547 11.7562 3.07223 11.7376 3.05859 11.7184C3.0282 11.6672 3.0282 11.6672 3.0282 11.6078C3.00861 11.6078 2.98902 11.6078 2.96883 11.6078C2.90658 11.5409 2.85537 11.4647 2.80184 11.3907C2.78653 11.3702 2.77122 11.3497 2.75545 11.3286C2.74098 11.3088 2.72652 11.289 2.71161 11.2686C2.69831 11.2504 2.68501 11.2322 2.6713 11.2135C2.64227 11.1625 2.64227 11.1625 2.64227 11.0734C2.62267 11.0734 2.60308 11.0734 2.58289 11.0734C2.53292 11.0026 2.48692 10.9321 2.44188 10.8582C2.42851 10.8365 2.41514 10.8149 2.40137 10.7925C2.30946 10.6417 2.2266 10.4883 2.15034 10.3289C2.10407 10.2344 2.05338 10.143 2.00213 10.0511C1.81174 9.69792 1.69984 9.3234 1.6032 8.93594C1.59578 8.90647 1.58836 8.877 1.58071 8.84664C1.46748 8.29965 1.51777 7.67398 1.72195 7.15469C1.73585 7.11879 1.74974 7.08289 1.76405 7.04591C1.83266 6.8708 1.90275 6.69863 1.98914 6.53125C2.00874 6.53125 2.02833 6.53125 2.04852 6.53125C2.05206 6.51377 2.0556 6.49629 2.05925 6.47828C2.09054 6.3697 2.1591 6.28792 2.22479 6.19727C2.23831 6.17798 2.25184 6.15869 2.26578 6.13882C2.30059 6.0903 2.33768 6.04343 2.37508 5.99687C2.39467 5.99687 2.41427 5.99687 2.43445 5.99687C2.44241 5.97789 2.45037 5.95891 2.45858 5.93936C2.49383 5.87812 2.49383 5.87812 2.58289 5.84844C2.59269 5.82884 2.60249 5.80925 2.61258 5.78906C2.64227 5.72969 2.64227 5.72969 2.73133 5.7C2.73133 5.68041 2.73133 5.66081 2.73133 5.64062C2.78119 5.59586 2.78119 5.59586 2.84637 5.54785C2.86772 5.53186 2.88908 5.51586 2.91108 5.49938C2.96883 5.4625 2.96883 5.4625 3.0282 5.4625C3.0282 5.44291 3.0282 5.42331 3.0282 5.40312C3.40102 5.12964 3.82915 4.95054 4.27508 4.83906C4.30738 4.83053 4.33968 4.82199 4.37295 4.8132C4.96087 4.66037 5.615 4.66159 6.20477 4.80937C6.2324 4.81615 6.26003 4.82292 6.28849 4.8299C6.71236 4.94617 7.14834 5.15573 7.51102 5.40312C7.51102 5.42272 7.51102 5.44231 7.51102 5.4625C7.5349 5.47352 7.5349 5.47352 7.55926 5.48477C7.64706 5.53097 7.72765 5.58227 7.80789 5.64062C7.80789 5.66022 7.80789 5.67981 7.80789 5.7C7.87596 5.72552 7.87596 5.72552 7.95633 5.72969C8.0219 5.67402 8.0219 5.67402 8.07508 5.61094C8.09467 5.61094 8.11427 5.61094 8.13445 5.61094C8.13445 5.59134 8.13445 5.57175 8.13445 5.55156C8.19715 5.50117 8.25967 5.45456 8.32557 5.40869C8.34462 5.39531 8.36366 5.38193 8.38329 5.36815C8.61615 5.20641 8.84965 5.08872 9.11414 4.9875C9.13533 4.97854 9.15653 4.96958 9.17837 4.96035C9.99769 4.61815 11.0201 4.59312 11.8454 4.92812C11.8892 4.94202 11.9331 4.95563 11.9771 4.96895C12.3226 5.08452 12.6169 5.28738 12.9141 5.49219C12.9435 5.51178 12.9729 5.53137 13.0032 5.55156C13.0032 5.57116 13.0032 5.59075 13.0032 5.61094C13.0326 5.62073 13.062 5.63053 13.0923 5.64062C13.0923 5.66022 13.0923 5.67981 13.0923 5.7C13.1093 5.70735 13.1262 5.71469 13.1438 5.72227C13.2214 5.76511 13.2748 5.81525 13.3372 5.87812C13.3686 5.90935 13.3686 5.90935 13.4007 5.94121C13.4485 5.99687 13.4485 5.99687 13.4485 6.05625C13.4681 6.05625 13.4877 6.05625 13.5079 6.05625C13.5111 6.0346 13.5142 6.01295 13.5175 5.99065C13.5515 5.77147 13.6004 5.56176 13.6638 5.34932C13.6729 5.31839 13.682 5.28746 13.6915 5.2556C13.7973 4.90434 13.9279 4.56902 14.1016 4.24531C14.1113 4.22685 14.1209 4.20839 14.1308 4.18937C14.3193 3.82878 14.5379 3.49999 14.7845 3.17656C14.8066 3.14706 14.8287 3.11755 14.8515 3.08715C14.8686 3.06767 14.8856 3.04819 14.9032 3.02812C14.9228 3.02812 14.9424 3.02812 14.9626 3.02812C14.9705 3.01079 14.9784 2.99345 14.9866 2.97559C15.1247 2.71703 15.4073 2.45191 15.6454 2.28594C15.665 2.28594 15.6846 2.28594 15.7048 2.28594C15.7146 2.25655 15.7244 2.22716 15.7345 2.19687C15.8105 2.16162 15.8105 2.16162 15.8829 2.1375C15.8829 2.11791 15.8829 2.09831 15.8829 2.07812C16.0482 1.94006 16.2289 1.82529 16.4173 1.72187C16.4491 1.69983 16.4809 1.67779 16.5138 1.65508C16.5954 1.60312 16.5954 1.60312 16.6845 1.60312C16.6845 1.58353 16.6845 1.56394 16.6845 1.54375C16.761 1.50387 16.8377 1.46434 16.9145 1.425C16.9362 1.41367 16.9579 1.40234 16.9802 1.39067C17.0012 1.37996 17.0223 1.36924 17.044 1.3582C17.0632 1.34825 17.0825 1.3383 17.1024 1.32805C17.1595 1.30625 17.1595 1.30625 17.2782 1.30625C17.2782 1.28666 17.2782 1.26706 17.2782 1.24687C17.3033 1.23891 17.3284 1.23095 17.3543 1.22275C17.4564 1.18914 17.4564 1.18914 17.552 1.14471C17.6647 1.09592 17.7789 1.06475 17.8979 1.03535C18.029 1.01219 18.029 1.01219 18.1391 0.95C18.1843 0.939482 18.2297 0.930476 18.2753 0.922168C18.3029 0.91704 18.3305 0.911912 18.359 0.906628C18.3881 0.901347 18.4172 0.896066 18.4471 0.890625C18.5043 0.880166 18.5614 0.869654 18.6185 0.859082C18.644 0.854451 18.6695 0.849821 18.6957 0.84505C18.7671 0.831686 18.7671 0.831686 18.8516 0.801562C18.9097 0.795112 18.968 0.790002 19.0263 0.785675C19.061 0.783092 19.0956 0.780508 19.1314 0.777847C19.1676 0.775264 19.2039 0.772681 19.2413 0.770019C19.2769 0.767321 19.3125 0.764623 19.3491 0.761844C19.9532 0.7178 20.578 0.744161 21.1673 0.890625ZM18.4954 2.58281C18.4631 2.592 18.4307 2.60118 18.3974 2.61064C18.1609 2.67862 17.9442 2.77149 17.7235 2.87969C17.6775 2.90133 17.6775 2.90133 17.6305 2.92341C17.4511 3.00943 17.2891 3.10588 17.1286 3.22353C17.0704 3.26562 17.0704 3.26562 17.011 3.29531C17.011 3.31491 17.011 3.3345 17.011 3.35469C16.9896 3.36204 16.9682 3.36938 16.9461 3.37695C16.8544 3.4177 16.7881 3.46523 16.7141 3.53281C16.7141 3.55241 16.7141 3.572 16.7141 3.59219C16.6982 3.59892 16.6823 3.60566 16.6659 3.6126C16.5017 3.70333 16.3807 3.83003 16.2688 3.97812C16.2688 3.99772 16.2688 4.01731 16.2688 4.0375C16.2492 4.0375 16.2296 4.0375 16.2095 4.0375C16.1604 4.09396 16.1151 4.15031 16.0703 4.21006C16.057 4.22767 16.0437 4.24528 16.03 4.26342C15.7295 4.66521 15.4613 5.11755 15.3151 5.5998C15.3052 5.63203 15.2954 5.66425 15.2852 5.69745C15.2628 5.77724 15.2446 5.85601 15.2298 5.9375C15.4426 5.92655 15.6394 5.89836 15.8452 5.84333C16.1161 5.77473 16.3909 5.72763 16.6696 5.70731C16.7444 5.69994 16.8152 5.68642 16.8886 5.67031C17.0387 5.63783 17.1879 5.62728 17.3411 5.61824C17.4224 5.61378 17.4224 5.61378 17.4823 5.59622C17.6117 5.56551 17.7469 5.56927 17.8794 5.56455C17.9141 5.56331 17.9488 5.56207 17.9845 5.5608C20.5923 5.47866 20.5923 5.47866 21.2563 5.7C21.3076 5.70459 21.359 5.70816 21.4103 5.71113C21.7327 5.73608 22.0473 5.80557 22.3596 5.88729C22.475 5.91542 22.5914 5.93532 22.7086 5.95443C22.7704 5.96719 22.7704 5.96719 22.8001 5.99687C22.8582 6.00377 22.9163 6.01064 22.9745 6.01728C23.0855 6.03361 23.1857 6.07285 23.2881 6.11748C23.3656 6.14919 23.3656 6.14919 23.4588 6.15645C23.5781 6.17601 23.6719 6.2138 23.7826 6.26058C23.9192 6.31309 24.0599 6.34966 24.2011 6.3878C24.2845 6.4125 24.2845 6.4125 24.3141 6.44219C24.3636 6.44339 24.4131 6.44346 24.4626 6.44219C24.4321 6.17069 24.3783 5.92655 24.2845 5.67031C24.2695 5.62397 24.2546 5.57758 24.2399 5.53115C24.1089 5.1409 23.9132 4.71975 23.661 4.39375C23.6414 4.39375 23.6218 4.39375 23.6016 4.39375C23.5939 4.37687 23.5862 4.36 23.5782 4.34261C23.5392 4.26916 23.4938 4.20839 23.4421 4.14326C23.4237 4.12007 23.4053 4.09688 23.3863 4.07299C23.3692 4.05148 23.3521 4.02997 23.3345 4.00781C23.3118 3.97781 23.2891 3.94781 23.2658 3.91689C23.241 3.88842 23.241 3.88842 23.2157 3.85937C23.1961 3.85937 23.1765 3.85937 23.1563 3.85937C23.1493 3.84238 23.1422 3.82539 23.135 3.80789C23.0888 3.72614 23.0339 3.67626 22.9634 3.61445C22.928 3.583 22.928 3.583 22.8919 3.5509C22.835 3.49709 22.835 3.49709 22.7704 3.50312C22.7704 3.48353 22.7704 3.46394 22.7704 3.44375C22.7298 3.40698 22.7298 3.40698 22.6759 3.37173C22.6558 3.35795 22.6358 3.34416 22.6151 3.32996C22.5935 3.31546 22.5719 3.30097 22.5496 3.28604C22.5277 3.2712 22.5058 3.25636 22.4832 3.24107C22.3354 3.14179 22.1862 3.05101 22.0282 2.96875C21.984 2.94366 21.984 2.94366 21.9389 2.91807C21.7263 2.79867 21.5191 2.71232 21.286 2.64219C21.2414 2.62685 21.1969 2.6114 21.1524 2.5958C20.3084 2.31849 19.3407 2.31327 18.4954 2.58281ZM4.03758 6.70937C4.03758 6.72897 4.03758 6.74856 4.03758 6.76875C4.00819 6.76875 3.9788 6.76875 3.94852 6.76875C3.94852 6.78834 3.94852 6.80794 3.94852 6.82812C3.93156 6.83551 3.91461 6.8429 3.89714 6.85051C3.55702 7.03725 3.34297 7.44034 3.23242 7.7968C3.11665 8.29106 3.21631 8.75825 3.43188 9.20475C3.47352 9.29219 3.47352 9.29219 3.50042 9.36293C3.54643 9.47303 3.60551 9.5746 3.66463 9.67812C3.68222 9.70924 3.68222 9.70924 3.70017 9.74098C3.72294 9.78114 3.74584 9.82123 3.76887 9.86124C3.79616 9.90879 3.82282 9.95671 3.84936 10.0047C3.86905 10.0341 3.86905 10.0341 3.88914 10.0641C3.90874 10.0641 3.92833 10.0641 3.94852 10.0641C3.94852 10.0935 3.94852 10.1228 3.94852 10.1531C3.96811 10.1531 3.9877 10.1531 4.00789 10.1531C4.01459 10.1735 4.02129 10.1939 4.02819 10.2149C4.07715 10.3235 4.14348 10.4076 4.21756 10.5001C4.36119 10.6816 4.36119 10.6816 4.39383 10.7469C4.41342 10.7469 4.43302 10.7469 4.4532 10.7469C4.46532 10.7726 4.46532 10.7726 4.47767 10.7989C4.56866 10.9728 4.69953 11.1155 4.83914 11.2516C4.86602 11.2841 4.89261 11.3169 4.91893 11.3499C4.95291 11.3894 4.95291 11.3894 4.98758 11.4297C5.00717 11.4297 5.02677 11.4297 5.04695 11.4297C5.055 11.4474 5.06304 11.4651 5.07133 11.4834C5.10587 11.5476 5.13956 11.5885 5.19133 11.6392C5.20788 11.6556 5.22444 11.672 5.24149 11.6888C5.25873 11.7056 5.27597 11.7223 5.29373 11.7396C5.31063 11.7562 5.32752 11.7728 5.34493 11.7899C5.37841 11.8229 5.41194 11.8558 5.44552 11.8886C5.54178 11.9829 5.63657 12.0786 5.73127 12.1744C5.88887 12.3336 6.04565 12.4915 6.21706 12.636C6.26414 12.6766 6.26414 12.6766 6.31122 12.7264C6.35086 12.7724 6.35086 12.7724 6.41258 12.7656C6.41258 12.7852 6.41258 12.8048 6.41258 12.825C6.47708 12.8857 6.47708 12.8857 6.55731 12.9475C6.58417 12.969 6.61104 12.9905 6.63871 13.0126C6.70312 13.0682 6.70312 13.0682 6.76883 13.0625C6.76883 13.0821 6.76883 13.1017 6.76883 13.1219C6.78842 13.1219 6.80802 13.1219 6.8282 13.1219C6.8282 13.1415 6.8282 13.1611 6.8282 13.1812C6.90649 13.2524 6.90649 13.2524 7.00633 13.2703C7.00633 13.2899 7.00633 13.3095 7.00633 13.3297C7.07083 13.3904 7.07083 13.3904 7.15106 13.4521C7.17792 13.4737 7.20479 13.4952 7.23246 13.5173C7.29687 13.5729 7.29687 13.5729 7.36258 13.5672C7.36258 13.5868 7.36258 13.6064 7.36258 13.6266C7.4141 13.6695 7.46767 13.7099 7.52215 13.749C7.56658 13.7813 7.56658 13.7813 7.61191 13.8142C7.68213 13.8694 7.68213 13.8694 7.74852 13.8641C7.74852 13.8837 7.74852 13.9032 7.74852 13.9234C7.79936 13.9764 7.79936 13.9764 7.86727 14.0125C7.98385 14.0086 8.07363 13.9319 8.16414 13.8641C8.16414 13.8445 8.16414 13.8249 8.16414 13.8047C8.20333 13.7949 8.24252 13.7851 8.28289 13.775C8.28289 13.7554 8.28289 13.7358 8.28289 13.7156C8.29896 13.7083 8.31504 13.7009 8.3316 13.6934C8.41733 13.6479 8.49361 13.5942 8.57234 13.5375C8.60158 13.5167 8.63082 13.4959 8.66094 13.4744C8.68314 13.456 8.70534 13.4377 8.7282 13.4187C8.7282 13.3992 8.7282 13.3796 8.7282 13.3594C8.74559 13.3514 8.76298 13.3435 8.7809 13.3353C8.84767 13.2996 8.89738 13.261 8.95388 13.2108C8.97332 13.1937 8.99276 13.1766 9.01279 13.159C9.03276 13.1413 9.05274 13.1235 9.07332 13.1052C9.11324 13.0698 9.15321 13.0345 9.19323 12.9993C9.21961 12.9758 9.21961 12.9758 9.24653 12.9519C9.29227 12.9141 9.29227 12.9141 9.35164 12.8844C9.35164 12.8648 9.35164 12.8452 9.35164 12.825C9.37512 12.8157 9.37512 12.8157 9.39907 12.8062C9.50016 12.7487 9.57762 12.6712 9.6615 12.5912C9.69482 12.5597 9.72818 12.5282 9.76158 12.4968C9.7775 12.4818 9.79341 12.4668 9.80981 12.4514C9.85234 12.413 9.89745 12.3775 9.94272 12.3423C9.9632 12.3253 9.98367 12.3082 10.0048 12.2906C10.0048 12.271 10.0048 12.2514 10.0048 12.2312C10.0244 12.2312 10.044 12.2312 10.0641 12.2312C10.1136 12.1917 10.1136 12.1917 10.1532 12.1422C10.1532 12.1226 10.1532 12.103 10.1532 12.0828C10.1728 12.0828 10.1924 12.0828 10.2126 12.0828C10.2621 12.0432 10.2621 12.0432 10.3016 11.9937C10.3016 11.9742 10.3016 11.9546 10.3016 11.9344C10.3212 11.9344 10.3408 11.9344 10.361 11.9344C10.4105 11.8948 10.4105 11.8948 10.4501 11.8453C10.4501 11.8257 10.4501 11.8061 10.4501 11.7859C10.4697 11.7859 10.4893 11.7859 10.5095 11.7859C10.5589 11.7464 10.5589 11.7464 10.5985 11.6969C10.5985 11.6773 10.5985 11.6577 10.5985 11.6375C10.6181 11.6375 10.6377 11.6375 10.6579 11.6375C10.7025 11.5945 10.7025 11.5945 10.7488 11.5373C10.8564 11.4101 10.9685 11.2877 11.0817 11.1655C11.1392 11.1089 11.1392 11.1089 11.1329 11.0437C11.1525 11.0437 11.1721 11.0437 11.1923 11.0437C11.2456 10.9817 11.2953 10.9197 11.3444 10.8545C11.3583 10.8366 11.3722 10.8187 11.3865 10.8002C11.4635 10.7095 11.4635 10.7095 11.4891 10.5984C11.5087 10.5984 11.5283 10.5984 11.5485 10.5984C11.605 10.5259 11.6579 10.4533 11.7099 10.3776C11.7257 10.355 11.7414 10.3324 11.7576 10.3091C12.0372 9.90457 12.3089 9.51026 12.4715 9.04286C12.4955 8.97422 12.5216 8.90696 12.5486 8.83945C12.689 8.43848 12.6622 7.89534 12.4878 7.51105C12.4052 7.35398 12.3126 7.20427 12.2016 7.06562C12.182 7.06562 12.1625 7.06562 12.1423 7.06562C12.1343 7.04664 12.1263 7.02766 12.1181 7.00811C12.0863 6.93704 12.0863 6.93704 11.9938 6.91719C11.9938 6.89759 11.9938 6.878 11.9938 6.85781C11.4366 6.4173 10.8148 6.32573 10.126 6.39441C9.76868 6.45855 9.42863 6.63511 9.14383 6.85781C9.14383 6.87741 9.14383 6.897 9.14383 6.91719C9.12485 6.92515 9.10587 6.93311 9.08631 6.94131C9.01524 6.9732 9.01524 6.9732 8.99539 7.06562C8.9758 7.06562 8.9562 7.06562 8.93602 7.06562C8.8024 7.22296 8.69281 7.39278 8.60482 7.57901C8.52266 7.74521 8.39338 7.85695 8.22352 7.92656C7.98093 7.97404 7.729 7.9835 7.50754 7.86255C7.34662 7.75324 7.25349 7.61635 7.15477 7.45156C7.11787 7.39144 7.08076 7.33145 7.04344 7.27158C7.02645 7.24368 7.00946 7.21579 6.99195 7.18704C6.9771 7.16657 6.96225 7.14609 6.94695 7.125C6.92736 7.125 6.90777 7.125 6.88758 7.125C6.87839 7.10112 6.87839 7.10112 6.86902 7.07676C6.8124 6.97894 6.73771 6.89956 6.65008 6.82812C6.63049 6.82812 6.61089 6.82812 6.5907 6.82812C6.5907 6.80853 6.5907 6.78894 6.5907 6.76875C6.56131 6.76875 6.53192 6.76875 6.50164 6.76875C6.50164 6.74916 6.50164 6.72956 6.50164 6.70937C6.09606 6.49364 5.73513 6.37758 5.27518 6.37725C5.24887 6.37688 5.22256 6.37652 5.19545 6.37614C4.76688 6.37521 4.41292 6.51313 4.03758 6.70937ZM18.1688 7.18437C18.1187 7.18769 18.0684 7.19019 18.0182 7.19168C17.9912 7.19261 17.9643 7.19355 17.9365 7.19451C17.9085 7.19545 17.8804 7.19639 17.8515 7.19736C17.6516 7.20535 17.4581 7.21698 17.2614 7.25581C17.1425 7.27638 17.0234 7.28973 16.9035 7.30339C16.6252 7.33532 16.3615 7.3768 16.0929 7.4562C16.0105 7.47883 15.9344 7.49205 15.8495 7.4998C15.74 7.50493 15.74 7.50493 15.6655 7.53877C15.5736 7.57525 15.4846 7.59265 15.3875 7.61113C15.2328 7.64314 15.0946 7.68483 14.9498 7.74716C14.7334 7.83498 14.5043 7.89243 14.2798 7.95625C14.2793 7.97339 14.2789 7.99053 14.2785 8.0082C14.2654 8.47344 14.2459 8.92979 14.071 9.36687C14.0417 9.44198 14.0194 9.517 13.9977 9.59463C13.9651 9.70549 13.9249 9.80416 13.8709 9.90612C13.8327 9.97827 13.7968 10.0514 13.761 10.1247C13.6757 10.2983 13.5849 10.4657 13.4802 10.6285C13.4415 10.6894 13.4415 10.6894 13.4485 10.7766C13.4289 10.7766 13.4093 10.7766 13.3891 10.7766C13.372 10.8072 13.3549 10.8378 13.3372 10.8693C13.2955 10.9428 13.2516 11.0132 13.2036 11.0827C13.1462 11.1549 13.1462 11.1549 13.1516 11.2219C13.132 11.2219 13.1125 11.2219 13.0923 11.2219C13.0235 11.3175 13.0235 11.3175 13.0032 11.4297C12.9836 11.4297 12.964 11.4297 12.9438 11.4297C12.9009 11.4812 12.8604 11.5348 12.8214 11.5893C12.7999 11.6189 12.7784 11.6485 12.7562 11.679C12.701 11.7492 12.701 11.7492 12.7063 11.8156C12.6867 11.8156 12.6671 11.8156 12.647 11.8156C12.6005 11.8659 12.5563 11.9182 12.5134 11.9715C12.4898 12.0004 12.4662 12.0293 12.4419 12.0592C12.392 12.1258 12.3536 12.1851 12.3204 12.2609C12.3008 12.2609 12.2812 12.2609 12.261 12.2609C12.1531 12.3642 12.1531 12.3642 12.1126 12.4984C12.093 12.4984 12.0734 12.4984 12.0532 12.4984C12.0036 12.5475 12.0036 12.5475 11.953 12.6098C11.8947 12.6786 11.8377 12.7434 11.773 12.8064C11.7198 12.8507 11.7198 12.8507 11.7266 12.9141C11.707 12.9141 11.6875 12.9141 11.6673 12.9141C11.6178 12.9536 11.6178 12.9536 11.5782 13.0031C11.5782 13.0227 11.5782 13.0423 11.5782 13.0625C11.5586 13.0625 11.539 13.0625 11.5188 13.0625C11.4693 13.1021 11.4693 13.1021 11.4298 13.1516C11.4298 13.1712 11.4298 13.1908 11.4298 13.2109C11.4121 13.2189 11.3945 13.2269 11.3763 13.2351C11.3105 13.2706 11.2688 13.306 11.2171 13.3595C11.2003 13.3766 11.1836 13.3937 11.1663 13.4113C11.1491 13.429 11.132 13.4468 11.1143 13.4651C11.08 13.5005 11.0456 13.5358 11.0111 13.571C10.996 13.5866 10.9809 13.6023 10.9654 13.6184C10.9251 13.6562 10.9251 13.6562 10.8657 13.6859C10.8657 13.7055 10.8657 13.7251 10.8657 13.7453C10.8484 13.7533 10.8311 13.7612 10.8133 13.7694C10.7461 13.8051 10.6933 13.8444 10.6356 13.8937C10.6083 13.9167 10.6083 13.9167 10.5804 13.9401C10.5323 13.98 10.5323 13.98 10.5391 14.0422C10.5228 14.0495 10.5064 14.0569 10.4895 14.0645C10.407 14.1088 10.3378 14.162 10.2645 14.2203C10.2381 14.2411 10.2116 14.2619 10.1843 14.2834C10.1642 14.3018 10.1442 14.3201 10.1235 14.3391C10.1235 14.3587 10.1235 14.3783 10.1235 14.3984C10.1073 14.4055 10.0911 14.4125 10.0745 14.4198C9.98686 14.4676 9.91609 14.5273 9.83963 14.5914C9.7575 14.6601 9.67824 14.725 9.58914 14.7844C9.58914 14.804 9.58914 14.8236 9.58914 14.8438C9.57299 14.8511 9.55684 14.8584 9.5402 14.8659C9.45503 14.9113 9.38088 14.9662 9.3034 15.0237C9.1496 15.1377 9.1496 15.1377 9.08445 15.1703C9.08445 15.1899 9.08445 15.2095 9.08445 15.2297C9.06777 15.2376 9.05108 15.2456 9.03389 15.2538C8.96109 15.2914 8.89329 15.3333 8.82469 15.3781C8.80096 15.3934 8.77724 15.4087 8.75279 15.4245C8.72592 15.4456 8.72592 15.4456 8.69852 15.4672C8.69852 15.4868 8.69852 15.5064 8.69852 15.5266C8.66362 15.5403 8.66362 15.5403 8.62801 15.5544C8.55236 15.5838 8.55236 15.5838 8.4907 15.6156C8.4907 15.6352 8.4907 15.6548 8.4907 15.675C8.46131 15.675 8.43192 15.675 8.40164 15.675C8.40164 15.6946 8.40164 15.7142 8.40164 15.7344C7.81426 15.9033 7.81426 15.9033 7.52818 15.757C7.18195 15.5456 6.86324 15.2787 6.54814 15.0241C6.50288 14.9866 6.50288 14.9866 6.44227 14.9922C6.44227 14.9726 6.44227 14.953 6.44227 14.9328C6.40308 14.9328 6.36389 14.9328 6.32352 14.9328C6.11664 15.3419 5.92759 15.7531 5.75945 16.1797C5.73846 16.2323 5.71744 16.2848 5.69637 16.3374C5.68711 16.3607 5.67785 16.384 5.6683 16.408C5.64971 16.4542 5.63068 16.5002 5.61125 16.546C5.53746 16.7225 5.48368 16.901 5.43289 17.0853C5.40614 17.1788 5.37604 17.2699 5.34383 17.3616C5.28516 17.533 5.24393 17.7069 5.20449 17.8834C5.16836 18.0447 5.16836 18.0447 5.13602 18.1094C5.13295 18.1449 5.12989 18.1804 5.12674 18.217C5.11336 18.351 5.08268 18.4785 5.04881 18.6085C4.9674 18.9239 4.92221 19.2386 4.88951 19.5625C4.87979 19.6566 4.86917 19.7412 4.83914 19.8312C4.8351 19.8785 4.83249 19.926 4.83079 19.9734C4.82968 20.0014 4.82857 20.0294 4.82743 20.0582C4.8264 20.0874 4.82536 20.1166 4.8243 20.1467C4.82222 20.204 4.82006 20.2613 4.8178 20.3185C4.81645 20.3566 4.81645 20.3566 4.81508 20.3955C4.8105 20.4678 4.80315 20.5384 4.79433 20.6102C4.77785 20.7542 4.77548 20.8963 4.77582 21.041C4.77579 21.0677 4.77577 21.0943 4.77574 21.1218C4.77572 21.1778 4.77577 21.2338 4.7759 21.2898C4.77605 21.3748 4.7759 21.4598 4.77571 21.5448C4.77573 21.5995 4.77576 21.6542 4.77582 21.709C4.77576 21.734 4.7757 21.7591 4.77564 21.7849C4.77619 21.9271 4.78522 22.0653 4.80252 22.2064C4.81102 22.279 4.8146 22.3511 4.81676 22.4242C4.81774 22.4514 4.81871 22.4787 4.81972 22.5068C4.82153 22.5624 4.82323 22.6179 4.82482 22.6735C4.83091 22.8376 4.85009 22.9911 4.88509 23.1515C4.90033 23.2243 4.9074 23.2954 4.9115 23.3696C4.9339 23.6482 5.00085 23.9203 5.06551 24.1916C5.0906 24.2974 5.11085 24.3987 5.11932 24.507C5.13251 24.6563 5.17991 24.7932 5.22577 24.9353C5.24876 25.0076 5.26893 25.0789 5.28631 25.1527C5.3126 25.2579 5.34444 25.3586 5.38001 25.4609C5.42142 25.5865 5.45589 25.7141 5.49018 25.8419C5.53767 26.0164 5.58553 26.1784 5.67236 26.3372C5.71359 26.419 5.73854 26.5048 5.76618 26.5919C5.79698 26.6824 5.83597 26.7681 5.87577 26.855C5.91004 26.9314 5.94144 27.0086 5.97283 27.0861C6.12214 27.4454 6.28698 27.7969 6.48854 28.1298C6.54177 28.221 6.58239 28.3126 6.62039 28.4109C6.63999 28.4109 6.65958 28.4109 6.67977 28.4109C6.68711 28.4305 6.69446 28.4501 6.70203 28.4703C6.74859 28.582 6.80282 28.6891 6.85789 28.7969C6.87749 28.7969 6.89708 28.7969 6.91727 28.7969C6.92048 28.8136 6.9237 28.8304 6.92701 28.8477C7.00579 29.1161 7.24491 29.3701 7.40876 29.5927C7.42494 29.6147 7.44112 29.6368 7.45779 29.6595C7.47232 29.6792 7.48686 29.6989 7.50183 29.7192C7.54034 29.776 7.57088 29.8333 7.60008 29.8953C7.61967 29.8953 7.63927 29.8953 7.65945 29.8953C7.67048 29.9194 7.67048 29.9194 7.68172 29.944C7.72714 30.0297 7.78092 30.106 7.83758 30.1848C7.8584 30.214 7.87922 30.2432 7.90066 30.2734C7.91903 30.2956 7.9374 30.3178 7.95633 30.3406C7.97592 30.3406 7.99552 30.3406 8.0157 30.3406C8.0237 30.3577 8.0317 30.3748 8.03994 30.3925C8.07569 30.4605 8.1159 30.5187 8.16229 30.58C8.18473 30.6099 8.18473 30.6099 8.20763 30.6404C8.25013 30.6931 8.29132 30.7414 8.34227 30.7859C8.36186 30.7859 8.38145 30.7859 8.40164 30.7859C8.40949 30.8035 8.41733 30.8211 8.42542 30.8393C8.46231 30.9071 8.49973 30.9485 8.55564 31.0012C8.63379 31.0769 8.70716 31.1545 8.7783 31.2368C8.88184 31.3576 8.88184 31.3576 8.99539 31.4688C9.01499 31.4688 9.03458 31.4688 9.05477 31.4688C9.06273 31.4877 9.07069 31.5067 9.07889 31.5263C9.11078 31.5973 9.11078 31.5973 9.2032 31.6172C9.2032 31.6368 9.2032 31.6564 9.2032 31.6766C9.25323 31.7272 9.25323 31.7272 9.31639 31.7786C9.43631 31.8797 9.43631 31.8797 9.48929 31.9355C9.52774 31.9802 9.52774 31.9802 9.58914 31.9734C9.58914 31.993 9.58914 32.0126 9.58914 32.0328C9.63766 32.0767 9.68814 32.1184 9.73943 32.159C9.83602 32.2362 9.9322 32.3131 10.0252 32.3946C10.2038 32.5707 10.2038 32.5707 10.4204 32.6562C10.4204 32.6758 10.4204 32.6954 10.4204 32.7156C10.4731 32.7597 10.4731 32.7597 10.5417 32.8038C10.5795 32.8292 10.5795 32.8292 10.618 32.8551C10.658 32.8816 10.658 32.8816 10.6987 32.9086C10.7509 32.9435 10.8031 32.9784 10.8553 33.0134C10.8786 33.0289 10.9019 33.0444 10.9259 33.0603C10.9845 33.1016 10.9845 33.1016 11.0438 33.1609C11.0732 33.1609 11.1026 33.1609 11.1329 33.1609C11.1329 33.1805 11.1329 33.2001 11.1329 33.2203C11.1851 33.2597 11.1851 33.2597 11.2534 33.2978C11.279 33.3129 11.3045 33.3279 11.3309 33.3435C11.358 33.3592 11.3851 33.3749 11.4131 33.391C11.5909 33.4949 11.766 33.6003 11.9359 33.7168C12.0078 33.7638 12.0821 33.8011 12.1595 33.8381C12.2572 33.8862 12.3526 33.9385 12.4484 33.9903C12.6072 34.0759 12.7672 34.155 12.9329 34.2266C13.0032 34.2594 13.0032 34.2594 13.0771 34.3045C13.1512 34.3482 13.2206 34.3764 13.3019 34.4041C13.4531 34.4573 13.6005 34.5171 13.7482 34.5793C13.9573 34.6673 14.1681 34.7491 14.3817 34.8254C14.4441 34.8481 14.5059 34.8726 14.5674 34.8977C14.706 34.9504 14.8504 34.9821 14.9943 35.0169C15.1251 35.0487 15.2515 35.0862 15.3784 35.1307C15.4619 35.1579 15.5465 35.1757 15.6324 35.1936C15.7147 35.2115 15.7958 35.2327 15.8773 35.2539C16.0326 35.2934 16.1877 35.3214 16.3461 35.3451C16.4173 35.3578 16.4173 35.3578 16.4766 35.3875C16.531 35.3935 16.5854 35.3983 16.6399 35.4023C16.7966 35.4139 16.7966 35.4139 16.8626 35.4469C16.9019 35.453 16.9415 35.4577 16.9811 35.4617C17.0045 35.4642 17.0279 35.4666 17.052 35.4691C17.0886 35.4728 17.0886 35.4728 17.1261 35.4766C17.1742 35.4814 17.2224 35.4864 17.2705 35.4914C17.2919 35.4935 17.3133 35.4957 17.3354 35.4979C17.397 35.5062 17.397 35.5062 17.4554 35.5215C17.5234 35.5378 17.5865 35.5417 17.6564 35.5443C17.6832 35.5454 17.71 35.5465 17.7376 35.5476C17.7793 35.5492 17.7793 35.5492 17.8219 35.5508C17.8768 35.5528 17.9317 35.555 17.9866 35.5573C18.0109 35.5582 18.0352 35.5591 18.0602 35.56C18.1391 35.5656 18.1391 35.5656 18.2339 35.5807C18.3719 35.5985 18.5067 35.5996 18.6457 35.5993C18.688 35.5993 18.688 35.5993 18.7312 35.5993C18.7905 35.5994 18.8499 35.5993 18.9093 35.5992C18.9998 35.599 19.0903 35.5992 19.1808 35.5994C19.2387 35.5994 19.2966 35.5993 19.3545 35.5993C19.3813 35.5993 19.4082 35.5994 19.4358 35.5994C19.5806 35.5989 19.7177 35.5884 19.861 35.5656C19.9112 35.5623 19.9614 35.5598 20.0117 35.5583C20.0386 35.5574 20.0656 35.5565 20.0933 35.5555C20.1354 35.5541 20.1354 35.5541 20.1783 35.5526C20.3789 35.5446 20.5732 35.533 20.7705 35.4942C20.8847 35.474 20.9991 35.4604 21.1142 35.4466C21.3918 35.4131 21.6582 35.3686 21.928 35.2957C22.0138 35.2726 22.0986 35.2536 22.1859 35.2372C22.317 35.2124 22.4443 35.1778 22.5727 35.1417C22.6445 35.1222 22.7161 35.1058 22.7889 35.0906C22.9013 35.0665 23.0083 35.0333 23.1167 34.9951C23.2082 34.9645 23.301 34.939 23.3938 34.9125C23.6969 34.8175 23.9907 34.7062 24.2845 34.5859C24.3364 34.5655 24.3883 34.5451 24.4403 34.5247C24.5706 34.4726 24.6981 34.4154 24.8256 34.3567C24.8791 34.332 24.9327 34.3077 24.9865 34.2836C25.2908 34.1475 25.5891 34.0038 25.8725 33.828C25.9572 33.7784 26.0441 33.736 26.1325 33.6935C26.2667 33.6279 26.3729 33.5602 26.4813 33.4578C26.4398 33.3526 26.4398 33.3526 26.3923 33.25C26.3727 33.25 26.3531 33.25 26.3329 33.25C26.3303 33.2338 26.3276 33.2175 26.3249 33.2008C26.2966 33.1099 26.2486 33.0457 26.1937 32.968C26.0904 32.8165 26.0056 32.6633 25.9263 32.4982C25.8948 32.4336 25.8616 32.3726 25.8245 32.3111C25.7534 32.1831 25.7025 32.0506 25.6501 31.9141C25.6291 31.8615 25.6081 31.8089 25.587 31.7563C25.5684 31.71 25.5499 31.6636 25.5313 31.6172C25.5158 31.5797 25.5158 31.5797 25.4999 31.5415C25.4674 31.4568 25.4477 31.3714 25.4296 31.2826C25.4175 31.2249 25.4038 31.1674 25.389 31.1103C25.2716 30.6178 25.2788 30.0867 25.4126 29.5984C25.4205 29.5671 25.4284 29.5358 25.4366 29.5035C25.4904 29.3091 25.5654 29.1278 25.6501 28.9453C25.6599 28.924 25.6698 28.9027 25.68 28.8807C25.7378 28.76 25.8037 28.6642 25.8876 28.5594C25.8876 28.53 25.8876 28.5006 25.8876 28.4703C25.9072 28.4703 25.9268 28.4703 25.947 28.4703C25.973 28.4308 25.9989 28.3911 26.0242 28.3511C26.1337 28.1956 26.2659 28.0478 26.4156 27.9306C26.4373 27.9128 26.459 27.8949 26.4813 27.8766C26.4813 27.857 26.4813 27.8374 26.4813 27.8172C26.5009 27.8172 26.5205 27.8172 26.5407 27.8172C26.5407 27.7976 26.5407 27.778 26.5407 27.7578C26.5635 27.7475 26.5635 27.7475 26.5867 27.7371C26.6871 27.6837 26.779 27.6195 26.8728 27.5556C27.165 27.3589 27.4516 27.1964 27.7927 27.0994C27.8509 27.0825 27.9087 27.0643 27.9662 27.0451C28.4212 26.8995 28.8883 26.8785 29.361 26.9266C29.4272 26.9303 29.4934 26.934 29.5596 26.9377C29.8747 26.9625 30.1652 27.0553 30.452 27.1845C30.5495 27.2308 30.5495 27.2308 30.6673 27.2234C30.6673 27.243 30.6673 27.2626 30.6673 27.2828C30.6931 27.2947 30.719 27.3066 30.7457 27.3189C30.9748 27.4283 31.1718 27.5479 31.37 27.7067C31.4328 27.7637 31.4328 27.7637 31.4985 27.7578C31.4985 27.7774 31.4985 27.797 31.4985 27.8172C31.5181 27.8172 31.5377 27.8172 31.5579 27.8172C31.5579 27.8368 31.5579 27.8564 31.5579 27.8766C31.5971 27.8766 31.6363 27.8766 31.6766 27.8766C31.7518 27.7317 31.8239 27.5874 31.8826 27.435C31.9262 27.322 31.9771 27.2158 32.0329 27.1084C32.1083 26.9607 32.1634 26.8135 32.2131 26.6555C32.247 26.5507 32.2879 26.4497 32.3297 26.3478C32.3726 26.2407 32.4115 26.1322 32.4504 26.0235C32.474 25.9585 32.499 25.8943 32.5246 25.83C32.5732 25.7021 32.6033 25.5703 32.6342 25.4372C32.6563 25.3531 32.6563 25.3531 32.6849 25.2842C32.7275 25.1743 32.7513 25.0617 32.7769 24.9468C32.8307 24.7075 32.8307 24.7075 32.8641 24.6406C32.8734 24.5637 32.8793 24.4867 32.8855 24.4095C32.8938 24.3437 32.8938 24.3437 32.9235 24.3141C33.0161 23.9431 33.0723 23.5674 33.1106 23.1875C33.1204 23.0934 33.131 23.0088 33.161 22.9187C33.1651 22.8689 33.1677 22.819 33.1694 22.769C33.171 22.7249 33.171 22.7249 33.1727 22.6798C33.1743 22.6337 33.1743 22.6337 33.1759 22.5866C33.1779 22.5262 33.1801 22.4658 33.1824 22.4054C33.1837 22.3652 33.1837 22.3652 33.1851 22.3242C33.1893 22.2574 33.1968 22.1908 33.2058 22.1245C33.2237 21.9868 33.2247 21.8506 33.2243 21.7119C33.2244 21.6852 33.2244 21.6585 33.2244 21.631C33.2244 21.5748 33.2244 21.5186 33.2243 21.4625C33.2241 21.3772 33.2243 21.2919 33.2245 21.2067C33.2244 21.1518 33.2244 21.0969 33.2243 21.0421C33.2244 21.0169 33.2245 20.9918 33.2245 20.9658C33.224 20.8234 33.215 20.6849 33.1976 20.5435C33.1891 20.471 33.1856 20.3989 33.1834 20.3258C33.1824 20.2986 33.1814 20.2713 33.1804 20.2432C33.1786 20.1876 33.1769 20.1321 33.1753 20.0765C33.1693 19.9136 33.1514 19.7608 33.1151 19.6019C33.1009 19.5308 33.0948 19.4619 33.0905 19.3896C33.0666 19.0856 32.9966 18.7799 32.9204 18.4849C32.9005 18.4039 32.8871 18.3346 32.8827 18.2522C32.8682 18.0994 32.8211 17.9596 32.7743 17.814C32.7467 17.7277 32.7237 17.6417 32.7025 17.5537C32.6415 17.3027 32.5795 17.0564 32.478 16.8183C32.444 16.7322 32.4186 16.6452 32.3929 16.5563C32.3413 16.3838 32.272 16.2262 32.1941 16.0641C32.1561 15.9815 32.125 15.9002 32.096 15.8142C32.0409 15.657 31.9684 15.5106 31.8927 15.3626C31.8232 15.2266 31.7569 15.0894 31.6924 14.9509C31.5892 14.7291 31.4824 14.5156 31.3501 14.3094C31.3182 14.2583 31.2863 14.2072 31.2546 14.1561C31.2236 14.106 31.1924 14.056 31.1612 14.0061C31.1126 13.9234 31.1126 13.9234 31.0829 13.8344C31.0633 13.8344 31.0437 13.8344 31.0235 13.8344C31.0154 13.8128 31.0074 13.7911 30.999 13.7689C30.8649 13.4501 30.6206 13.1662 30.4173 12.8891C30.3741 12.83 30.3311 12.7708 30.2882 12.7115C30.2643 12.6788 30.2403 12.6461 30.2164 12.6135C30.1854 12.5711 30.1854 12.5711 30.1539 12.5279C30.1372 12.5084 30.1204 12.4889 30.1032 12.4688C30.0836 12.4688 30.064 12.4688 30.0438 12.4688C30.0359 12.4522 30.0279 12.4357 30.0197 12.4187C29.9337 12.25 29.9337 12.25 29.8063 12.1125C29.7867 12.1125 29.7671 12.1125 29.747 12.1125C29.739 12.0954 29.731 12.0782 29.7228 12.0605C29.6867 11.9921 29.6489 11.9338 29.5985 11.875C29.5789 11.875 29.5593 11.875 29.5391 11.875C29.5318 11.8585 29.5244 11.8419 29.5169 11.8249C29.473 11.7437 29.4223 11.6768 29.361 11.6078C29.3414 11.6078 29.3218 11.6078 29.3016 11.6078C29.2918 11.5784 29.282 11.549 29.272 11.5188C29.2524 11.5188 29.2328 11.5188 29.2126 11.5188C29.2126 11.4992 29.2126 11.4796 29.2126 11.4594C29.193 11.4594 29.1734 11.4594 29.1532 11.4594C29.1434 11.43 29.1336 11.4006 29.1235 11.3703C29.1039 11.3703 29.0843 11.3703 29.0641 11.3703C29.0641 11.3507 29.0641 11.3311 29.0641 11.3109C29.0445 11.3109 29.025 11.3109 29.0048 11.3109C28.995 11.2815 28.9852 11.2522 28.9751 11.2219C28.9555 11.2219 28.9359 11.2219 28.9157 11.2219C28.9157 11.2023 28.9157 11.1827 28.9157 11.1625C28.8961 11.1625 28.8765 11.1625 28.8563 11.1625C28.8465 11.1331 28.8367 11.1037 28.8266 11.0734C28.807 11.0734 28.7875 11.0734 28.7673 11.0734C28.7673 11.0538 28.7673 11.0342 28.7673 11.0141C28.7232 10.9671 28.7232 10.9671 28.6671 10.9213C28.6485 10.9053 28.6299 10.8893 28.6107 10.8728C28.5619 10.8302 28.5619 10.8302 28.5001 10.8359C28.5001 10.8163 28.5001 10.7968 28.5001 10.7766C28.3968 10.6686 28.3968 10.6686 28.2626 10.6281C28.2626 10.6085 28.2626 10.5889 28.2626 10.5687C28.2128 10.5236 28.1611 10.4807 28.1086 10.4389C28.08 10.416 28.0514 10.3931 28.0219 10.3695C27.9936 10.3471 27.9652 10.3247 27.936 10.3016C27.9092 10.2791 27.8824 10.2567 27.8547 10.2336C27.7937 10.1768 27.7937 10.1768 27.7282 10.1828C27.7282 10.1632 27.7282 10.1436 27.7282 10.1234C27.689 10.1136 27.6498 10.1038 27.6095 10.0938C27.6095 10.0742 27.6095 10.0546 27.6095 10.0344C27.5592 9.99177 27.5592 9.99177 27.4934 9.94937C27.4689 9.93282 27.4443 9.91627 27.4191 9.89922C27.3801 9.87335 27.3801 9.87335 27.3404 9.84697C27.29 9.81309 27.2395 9.77919 27.1891 9.74527C27.1647 9.72898 27.1403 9.71269 27.1152 9.69591C27.0513 9.65248 26.989 9.60756 26.9268 9.56181C26.8475 9.49436 26.8475 9.49436 26.7782 9.5C26.7782 9.48041 26.7782 9.46081 26.7782 9.44063C26.7352 9.41646 26.7352 9.41646 26.6912 9.3918C26.6057 9.34299 26.5218 9.29215 26.4384 9.23989C26.4043 9.21856 26.4043 9.21856 26.3694 9.19681C26.3225 9.16742 26.2756 9.13788 26.2289 9.10821C26.2062 9.0941 26.1835 9.08 26.1601 9.06547C26.1398 9.0527 26.1195 9.03993 26.0986 9.02678C26.0287 8.99162 25.9646 8.97775 25.8876 8.96562C25.812 9.12454 25.751 9.28048 25.7067 9.45095C25.676 9.54061 25.6357 9.62147 25.5925 9.70566C25.5634 9.76257 25.5354 9.81988 25.5079 9.87759C25.3921 10.1171 25.2654 10.3442 25.1202 10.5672C25.0505 10.6639 25.0505 10.6639 25.0266 10.7766C25.007 10.7766 24.9875 10.7766 24.9673 10.7766C24.8985 10.8722 24.8985 10.8722 24.8782 10.9844C24.8586 10.9844 24.839 10.9844 24.8188 10.9844C24.7741 11.0343 24.7741 11.0343 24.7279 11.0994C24.3062 11.6559 23.7917 12.0833 23.2157 12.4688C23.1903 12.4864 23.165 12.504 23.1388 12.5221C22.8836 12.6935 22.6043 12.8171 22.3251 12.9437C22.3024 12.9542 22.2796 12.9646 22.2562 12.9754C22.116 13.0392 21.9763 13.0929 21.8297 13.1404C21.7744 13.1585 21.7744 13.1585 21.718 13.1768C21.6832 13.1881 21.6484 13.1993 21.6126 13.2109C21.5828 13.2213 21.553 13.2316 21.5224 13.2422C21.3578 13.2948 21.1879 13.325 21.0188 13.3594C20.9918 13.3653 20.9648 13.3712 20.937 13.3772C20.1523 13.538 19.2136 13.5145 18.436 13.3297C18.416 13.325 18.396 13.3202 18.3754 13.3154C17.7289 13.1616 17.7289 13.1616 17.4874 13.0336C17.4214 13.0005 17.3546 12.9739 17.2856 12.9475C17.1347 12.889 16.9928 12.8164 16.8497 12.741C16.774 12.7001 16.774 12.7001 16.6845 12.7062C16.6845 12.6867 16.6845 12.6671 16.6845 12.6469C16.6643 12.6364 16.6442 12.626 16.6235 12.6152C16.4014 12.4974 16.1942 12.3662 15.9969 12.2103C15.9453 12.1662 15.9453 12.1662 15.8829 12.1719C15.8829 12.1523 15.8829 12.1327 15.8829 12.1125C15.8615 12.0996 15.84 12.0868 15.818 12.0735C15.7235 12.0169 15.6612 11.9556 15.586 11.875C15.5687 11.8575 15.5514 11.84 15.5336 11.822C15.3682 11.6472 15.3026 11.4915 15.2762 11.2534C15.283 11.0817 15.3537 10.9078 15.4565 10.7715C15.5029 10.7205 15.5029 10.7205 15.497 10.6578C15.5165 10.6578 15.5361 10.6578 15.5563 10.6578C15.5563 10.6382 15.5563 10.6186 15.5563 10.5984C15.5784 10.5899 15.6004 10.5813 15.6231 10.5725C15.7018 10.542 15.7018 10.542 15.7615 10.5081C15.94 10.4264 16.1972 10.4522 16.3876 10.4797C16.5086 10.5284 16.5892 10.5998 16.6845 10.6875C16.7485 10.7375 16.8127 10.7869 16.8774 10.8359C16.9105 10.8614 16.9435 10.8869 16.9766 10.9125C17.2154 11.0955 17.4518 11.2405 17.7235 11.3703C17.7631 11.3913 17.8027 11.4123 17.8423 11.4334C17.9673 11.4962 18.0986 11.5373 18.2317 11.5799C18.3024 11.603 18.3708 11.6283 18.4397 11.6561C18.5528 11.6997 18.6673 11.7222 18.7864 11.7435C18.8516 11.7562 18.8516 11.7562 18.9407 11.7859C19.6537 11.8963 20.3885 11.89 21.0782 11.6672C21.1108 11.6577 21.1435 11.6481 21.1771 11.6383C21.6613 11.4964 22.0937 11.2798 22.504 10.9877C22.5663 10.9435 22.6282 10.9021 22.6926 10.8613C22.7183 10.8432 22.7439 10.825 22.7704 10.8062C22.7704 10.7867 22.7704 10.7671 22.7704 10.7469C22.7954 10.7359 22.7954 10.7359 22.821 10.7246C22.9007 10.6812 22.9623 10.6291 23.0302 10.5687C23.0657 10.5375 23.0657 10.5375 23.1021 10.5057C23.1632 10.4559 23.1632 10.4559 23.1563 10.3906C23.1759 10.3906 23.1955 10.3906 23.2157 10.3906C23.2608 10.3409 23.3038 10.2892 23.3456 10.2366C23.3799 10.1937 23.3799 10.1937 23.4149 10.15C23.4374 10.1216 23.4598 10.0933 23.4829 10.0641C23.5165 10.0238 23.5165 10.0238 23.5508 9.98277C23.6076 9.92176 23.6076 9.92176 23.6016 9.85625C23.6212 9.85625 23.6408 9.85625 23.661 9.85625C23.7115 9.78417 23.7582 9.71239 23.8039 9.6373C23.824 9.60463 23.824 9.60463 23.8444 9.5713C23.989 9.33363 24.1066 9.09754 24.1983 8.83458C24.2213 8.76871 24.2459 8.70395 24.2715 8.63906C24.3265 8.49393 24.3643 8.34384 24.4032 8.19375C24.3724 8.18227 24.3415 8.17079 24.3097 8.15896C23.9332 8.01847 23.9332 8.01847 23.7668 7.95068C23.5453 7.8615 23.3235 7.79534 23.0909 7.7409C23.0104 7.71942 22.9367 7.6903 22.8595 7.65937C22.7902 7.64912 22.721 7.63925 22.6516 7.62969C22.554 7.60399 22.459 7.5758 22.364 7.54144C22.2486 7.50564 22.1343 7.48557 22.0152 7.46641C21.8913 7.44635 21.7716 7.42491 21.6507 7.39033C21.5643 7.36568 21.4902 7.35325 21.4011 7.34766C21.1856 7.33086 20.972 7.29947 20.76 7.25743C20.5294 7.21304 20.3005 7.20244 20.0663 7.19451C20.0395 7.19358 20.0126 7.19264 19.9849 7.19168C19.961 7.19097 19.9372 7.19026 19.9126 7.18953C19.8484 7.18546 19.7844 7.17799 19.7206 7.16932C19.5841 7.15162 19.4492 7.15041 19.3117 7.15074C19.2855 7.15072 19.2593 7.15069 19.2323 7.15066C19.1773 7.15064 19.1223 7.15069 19.0673 7.15082C18.9835 7.15098 18.8998 7.15082 18.816 7.15063C18.7623 7.15065 18.7086 7.15069 18.6548 7.15074C18.6176 7.15065 18.6176 7.15065 18.5797 7.15056C18.4398 7.15112 18.3074 7.16264 18.1688 7.18437ZM3.14811 19.1642C2.93993 19.2478 2.73761 19.3464 2.5532 19.475C2.5532 19.4946 2.5532 19.5142 2.5532 19.5344C2.52381 19.5344 2.49442 19.5344 2.46414 19.5344C2.4128 19.5733 2.4128 19.5733 2.37508 19.6234C2.37508 19.643 2.37508 19.6626 2.37508 19.6828C2.35549 19.6828 2.33589 19.6828 2.3157 19.6828C2.3157 19.7024 2.3157 19.722 2.3157 19.7422C2.28631 19.752 2.25692 19.7618 2.22664 19.7719C2.22664 19.7915 2.22664 19.8111 2.22664 19.8312C2.20705 19.8312 2.18745 19.8312 2.16727 19.8312C2.11661 19.8977 2.07005 19.9637 2.0244 20.0335C2.01104 20.0539 1.99768 20.0743 1.98392 20.0953C1.62989 20.6454 1.54613 21.2852 1.66629 21.9261C1.71768 22.1304 1.80443 22.3161 1.90008 22.5031C1.91987 22.5427 1.93966 22.5823 1.95945 22.6219C1.97905 22.6219 1.99864 22.6219 2.01883 22.6219C2.03261 22.6568 2.03261 22.6568 2.04666 22.6924C2.07609 22.768 2.07609 22.768 2.10789 22.8297C2.12749 22.8297 2.14708 22.8297 2.16727 22.8297C2.17461 22.8468 2.18196 22.864 2.18953 22.8816C2.23207 22.9582 2.27961 23.0096 2.34539 23.0672C2.36499 23.0672 2.38458 23.0672 2.40477 23.0672C2.40477 23.0868 2.40477 23.1064 2.40477 23.1266C2.6325 23.3194 2.95533 23.5719 3.2657 23.5719C3.2615 23.4816 3.25715 23.3913 3.25272 23.301C3.25155 23.2756 3.25038 23.2502 3.24918 23.224C3.24794 23.1991 3.24669 23.1742 3.24541 23.1486C3.24378 23.1145 3.24378 23.1145 3.24211 23.0798C3.2369 23.0057 3.2369 23.0057 3.22158 22.925C3.20367 22.813 3.19642 22.7016 3.19044 22.5885C3.18916 22.5655 3.18788 22.5425 3.18656 22.5188C3.18248 22.4443 3.1786 22.3698 3.17479 22.2953C3.17282 22.2569 3.17282 22.2569 3.17081 22.2178C3.14134 21.6345 3.1437 21.0602 3.17293 20.477C3.17409 20.4533 3.17525 20.4297 3.17645 20.4053C3.19057 20.1242 3.21136 19.8452 3.24629 19.5659C3.26224 19.4351 3.26826 19.3095 3.2657 19.1781C3.20802 19.141 3.20802 19.141 3.14811 19.1642ZM34.7345 19.1781C34.7387 19.2684 34.743 19.3587 34.7474 19.449C34.7486 19.4744 34.7498 19.4998 34.751 19.526C34.7522 19.5509 34.7535 19.5758 34.7547 19.6014C34.7558 19.6241 34.7569 19.6468 34.758 19.6702C34.7632 19.7442 34.7632 19.7442 34.7786 19.8244C34.7969 19.9394 34.8038 20.054 34.8097 20.1701C34.811 20.1939 34.8123 20.2178 34.8136 20.2423C34.8177 20.3193 34.8216 20.3963 34.8254 20.4732C34.8267 20.4996 34.828 20.526 34.8293 20.5532C34.8332 20.6327 34.8371 20.7122 34.8408 20.7917C34.8419 20.8159 34.8431 20.8401 34.8443 20.865C34.8654 21.33 34.8498 21.7898 34.8272 22.2545C34.8261 22.279 34.8249 22.3034 34.8237 22.3286C34.8098 22.6154 34.7896 22.9001 34.7539 23.1851C34.7379 23.3155 34.7319 23.4408 34.7345 23.5719C35.0448 23.5578 35.3043 23.3729 35.5343 23.1781C35.5954 23.1266 35.5954 23.1266 35.6845 23.0672C35.6845 23.0476 35.6845 23.028 35.6845 23.0078C35.704 23.0078 35.7236 23.0078 35.7438 23.0078C36.186 22.5483 36.3737 21.986 36.371 21.3602C36.3711 21.3335 36.3712 21.3068 36.3713 21.2793C36.3726 20.9817 36.3726 20.9817 36.2986 20.6959C36.2731 20.6336 36.2481 20.5721 36.2267 20.5081C36.1337 20.2427 35.9571 19.9295 35.7438 19.7422C35.7242 19.7422 35.7046 19.7422 35.6845 19.7422C35.6845 19.7226 35.6845 19.703 35.6845 19.6828C35.6268 19.6324 35.5692 19.5859 35.5082 19.5399C35.4906 19.5266 35.4731 19.5133 35.455 19.4995C35.2403 19.3389 35.0103 19.1731 34.7345 19.1781ZM27.6688 28.975C27.6344 28.9988 27.6344 28.9988 27.5994 29.023C27.5831 29.0366 27.5668 29.0501 27.5501 29.0641C27.5501 29.0837 27.5501 29.1032 27.5501 29.1234C27.5305 29.1234 27.5109 29.1234 27.4907 29.1234C27.4907 29.143 27.4907 29.1626 27.4907 29.1828C27.4613 29.1926 27.4319 29.2024 27.4016 29.2125C27.4016 29.2321 27.4016 29.2517 27.4016 29.2719C27.382 29.2719 27.3625 29.2719 27.3423 29.2719C27.3325 29.3111 27.3227 29.3502 27.3126 29.3906C27.293 29.3906 27.2734 29.3906 27.2532 29.3906C27.2532 29.42 27.2532 29.4494 27.2532 29.4797C27.2336 29.4797 27.214 29.4797 27.1938 29.4797C27.1706 29.5228 27.1478 29.5661 27.1252 29.6096C27.1124 29.6337 27.0997 29.6578 27.0866 29.6826C26.9843 29.916 26.9397 30.1325 26.9415 30.387C26.9417 30.4153 26.9418 30.4437 26.942 30.4729C26.9528 30.9073 27.1068 31.2706 27.3126 31.6469C27.3276 31.6755 27.3427 31.7042 27.3582 31.7337C27.5724 32.1377 27.8393 32.4999 28.1141 32.8641C28.1367 32.8941 28.1592 32.9242 28.1824 32.9552C28.1991 32.9741 28.2157 32.993 28.2329 33.0125C28.2525 33.0125 28.2721 33.0125 28.2923 33.0125C28.3002 33.0295 28.3082 33.0465 28.3164 33.064C28.3529 33.1336 28.394 33.1943 28.4407 33.2574C28.456 33.2784 28.4713 33.2994 28.4871 33.321C28.5012 33.3367 28.5153 33.3525 28.5298 33.3688C28.5494 33.3688 28.569 33.3688 28.5891 33.3688C28.5959 33.3853 28.6026 33.4018 28.6096 33.4188C28.6593 33.5064 28.7251 33.5658 28.797 33.6359C28.8135 33.6586 28.83 33.6812 28.8471 33.7046C28.8599 33.7211 28.8728 33.7377 28.886 33.7547C28.9056 33.7547 28.9252 33.7547 28.9454 33.7547C28.9552 33.7841 28.965 33.8135 28.9751 33.8438C28.9947 33.8438 29.0143 33.8438 29.0345 33.8438C29.0345 33.8633 29.0345 33.8829 29.0345 33.9031C29.054 33.9031 29.0736 33.9031 29.0938 33.9031C29.1009 33.9198 29.1079 33.9365 29.1152 33.9537C29.1618 34.0373 29.219 34.0955 29.2868 34.1629C29.3222 34.1985 29.3222 34.1985 29.3582 34.2348C29.4141 34.2956 29.4141 34.2956 29.4798 34.2891C29.4798 34.3087 29.4798 34.3283 29.4798 34.3484C29.4994 34.3484 29.519 34.3484 29.5391 34.3484C29.5489 34.3778 29.5587 34.4072 29.5688 34.4375C29.5884 34.4375 29.608 34.4375 29.6282 34.4375C29.6282 34.4571 29.6282 34.4767 29.6282 34.4969C29.6478 34.4969 29.6674 34.4969 29.6876 34.4969C29.6876 34.5165 29.6876 34.5361 29.6876 34.5563C29.7374 34.609 29.7374 34.609 29.8008 34.662C29.8218 34.6804 29.8428 34.6988 29.8644 34.7178C29.9255 34.7695 29.9255 34.7695 30.0141 34.7938C30.0141 34.8133 30.0141 34.8329 30.0141 34.8531C30.0337 34.8531 30.0533 34.8531 30.0735 34.8531C30.0735 34.8727 30.0735 34.8923 30.0735 34.9125C30.1642 35.0023 30.1642 35.0023 30.2813 35.0312C30.2813 35.0508 30.2813 35.0704 30.2813 35.0906C30.3846 35.1986 30.3846 35.1986 30.5188 35.2391C30.5188 35.2587 30.5188 35.2783 30.5188 35.2984C30.5833 35.3591 30.5833 35.3591 30.6636 35.4209C30.6904 35.4424 30.7173 35.4639 30.745 35.4861C30.8094 35.5416 30.8094 35.5416 30.8751 35.5359C30.8751 35.5555 30.8751 35.5751 30.8751 35.5953C30.9534 35.6665 30.9534 35.6665 31.0532 35.6844C31.0532 35.704 31.0532 35.7236 31.0532 35.7438C31.1041 35.7909 31.1041 35.7909 31.1682 35.8365C31.1896 35.8525 31.211 35.8685 31.233 35.885C31.2876 35.9272 31.2876 35.9272 31.3501 35.9219C31.3501 35.9415 31.3501 35.9611 31.3501 35.9813C31.403 36.0193 31.4578 36.0548 31.5134 36.0889C31.5437 36.1076 31.574 36.1264 31.6052 36.1457C31.6288 36.16 31.6524 36.1743 31.6766 36.1891C31.7263 36.1559 31.7757 36.1225 31.8251 36.0889C31.8526 36.0703 31.8802 36.0517 31.9086 36.0325C31.93 36.0156 31.9514 35.9987 31.9735 35.9813C31.9735 35.9617 31.9735 35.9421 31.9735 35.9219C31.9894 35.9145 32.0054 35.9072 32.0218 35.8996C32.1096 35.8534 32.1902 35.8021 32.2704 35.7438C32.2704 35.7242 32.2704 35.7046 32.2704 35.6844C32.2918 35.677 32.3133 35.6697 32.3353 35.6621C32.427 35.6214 32.4934 35.5738 32.5673 35.5062C32.5673 35.4867 32.5673 35.4671 32.5673 35.4469C32.6407 35.4175 32.6407 35.4175 32.7157 35.3875C32.7157 35.3679 32.7157 35.3483 32.7157 35.3281C32.7318 35.3211 32.7479 35.314 32.7644 35.3068C32.8532 35.2586 32.9268 35.199 33.0052 35.1352C33.0344 35.1116 33.0636 35.088 33.0938 35.0637C33.116 35.0432 33.1381 35.0227 33.161 35.0016C33.161 34.982 33.161 34.9624 33.161 34.9422C33.1871 34.9308 33.1871 34.9308 33.2137 34.9191C33.2855 34.8797 33.3312 34.8363 33.3874 34.7771C33.4818 34.6779 33.4818 34.6779 33.547 34.6453C33.547 34.6257 33.547 34.6061 33.547 34.5859C33.5647 34.5779 33.5823 34.5698 33.6006 34.5615C33.6648 34.527 33.7064 34.4932 33.7576 34.4418C33.7748 34.4248 33.792 34.4077 33.8096 34.3901C33.8278 34.3717 33.8461 34.3533 33.8648 34.3343C33.8839 34.3152 33.903 34.296 33.9227 34.2763C33.9631 34.2358 34.0035 34.1953 34.0438 34.1546C34.1048 34.0931 34.166 34.0318 34.2273 33.9705C34.2667 33.931 34.306 33.8914 34.3454 33.8519C34.3724 33.8248 34.3724 33.8248 34.4 33.7971C34.6355 33.5785 34.6355 33.5785 34.7938 33.3094C34.8134 33.3094 34.833 33.3094 34.8532 33.3094C34.8983 33.2596 34.9413 33.2079 34.9831 33.1554C35.006 33.1268 35.0289 33.0982 35.0524 33.0687C35.0749 33.0404 35.0973 33.012 35.1204 32.9828C35.1428 32.956 35.1652 32.9292 35.1884 32.9015C35.2451 32.8405 35.2451 32.8405 35.2391 32.775C35.2587 32.775 35.2783 32.775 35.2985 32.775C35.3083 32.7358 35.3181 32.6966 35.3282 32.6562C35.3478 32.6562 35.3674 32.6562 35.3876 32.6562C35.4385 32.5923 35.4857 32.5284 35.5323 32.4614C35.5452 32.4433 35.5581 32.4253 35.5714 32.4066C35.7398 32.1774 35.7398 32.1774 35.8329 31.9141C35.8525 31.9141 35.8721 31.9141 35.8923 31.9141C36.2247 31.2664 36.5236 30.5944 36.3075 29.8562C36.259 29.7245 36.1984 29.6019 36.1298 29.4797C36.105 29.4338 36.105 29.4338 36.0797 29.3869C36.0668 29.3685 36.054 29.3502 36.0407 29.3312C36.0211 29.3312 36.0015 29.3312 35.9813 29.3312C35.9752 29.3153 35.9691 29.2994 35.9628 29.283C35.9061 29.1852 35.8315 29.1058 35.7438 29.0344C35.7242 29.0344 35.7046 29.0344 35.6845 29.0344C35.6845 29.0148 35.6845 28.9952 35.6845 28.975C35.1552 28.5826 34.5411 28.4604 33.8958 28.5501C33.5446 28.6189 33.2477 28.7787 32.9532 28.975C32.9532 28.9946 32.9532 29.0142 32.9532 29.0344C32.9336 29.0344 32.914 29.0344 32.8938 29.0344C32.8147 29.1036 32.8147 29.1036 32.7454 29.1828C32.7454 29.2024 32.7454 29.222 32.7454 29.2422C32.716 29.252 32.6866 29.2618 32.6563 29.2719C32.6563 29.2915 32.6563 29.3111 32.6563 29.3312C32.6367 29.3312 32.6171 29.3312 32.597 29.3312C32.5812 29.3595 32.5654 29.3878 32.5492 29.4169C32.528 29.4546 32.5068 29.4922 32.4856 29.5298C32.4753 29.5484 32.465 29.5669 32.4543 29.5861C32.3394 29.7894 32.2216 29.9482 32.0032 30.0437C31.7582 30.1101 31.4952 30.1397 31.2646 30.0131C31.2229 29.985 31.1825 29.9552 31.1423 29.925C31.1227 29.925 31.1031 29.925 31.0829 29.925C31.0829 29.9054 31.0829 29.8858 31.0829 29.8656C31.0633 29.8656 31.0437 29.8656 31.0235 29.8656C31.0113 29.8411 31.0113 29.8411 30.9989 29.816C30.8337 29.4796 30.8337 29.4796 30.6079 29.1828C30.5883 29.1828 30.5687 29.1828 30.5485 29.1828C30.5485 29.1632 30.5485 29.1436 30.5485 29.1234C30.4915 29.0729 30.4347 29.0265 30.3741 28.9806C30.3478 28.9605 30.3478 28.9605 30.3209 28.9401C29.5253 28.3477 28.4535 28.4024 27.6688 28.975Z" fill="#ECB955"/>
<path d="M14.8764 25.4741C15.0295 25.5609 15.1518 25.6809 15.2711 25.8092C15.3161 25.8607 15.3161 25.8607 15.3778 25.8875C15.3778 25.9071 15.3778 25.9267 15.3778 25.9469C15.3937 25.9542 15.4097 25.9616 15.4261 25.9692C15.5139 26.0154 15.5945 26.0667 15.6747 26.125C15.6747 26.1446 15.6747 26.1642 15.6747 26.1844C15.6959 26.1923 15.7172 26.2003 15.7391 26.2085C15.8244 26.2443 15.9013 26.2857 15.9808 26.3328C16.0202 26.3558 16.0202 26.3558 16.0603 26.3792C16.0898 26.4003 16.0898 26.4003 16.12 26.4219C16.12 26.4415 16.12 26.4611 16.12 26.4813C16.1462 26.487 16.1462 26.487 16.1729 26.4929C16.2761 26.5212 16.3671 26.5748 16.4614 26.6241C16.6597 26.7258 16.8568 26.8019 17.07 26.8672C17.111 26.8823 17.1518 26.8977 17.1925 26.9136C17.4139 26.9979 17.6402 27.0554 17.8716 27.1047C17.8913 27.109 17.9111 27.1133 17.9315 27.1178C18.7929 27.2974 19.7343 27.2365 20.5731 26.986C20.6063 26.9765 20.6396 26.967 20.6738 26.9572C21.0103 26.8583 21.3216 26.7205 21.6317 26.5582C21.7809 26.4813 21.7809 26.4813 21.8794 26.4813C21.8794 26.4617 21.8794 26.4421 21.8794 26.4219C21.9422 26.3771 21.9422 26.3771 22.0241 26.3291C22.051 26.3131 22.0778 26.2971 22.1055 26.2806C22.1763 26.2438 22.1763 26.2438 22.2356 26.2438C22.2356 26.2242 22.2356 26.2046 22.2356 26.1844C22.265 26.1844 22.2944 26.1844 22.3247 26.1844C22.3247 26.1648 22.3247 26.1452 22.3247 26.125C22.3746 26.0802 22.3746 26.0802 22.4397 26.0322C22.4718 26.0082 22.4718 26.0082 22.5044 25.9838C22.5622 25.9469 22.5622 25.9469 22.6216 25.9469C22.6216 25.9273 22.6216 25.9077 22.6216 25.8875C22.8339 25.6684 23.0888 25.4383 23.4022 25.4279C23.7939 25.425 23.7939 25.425 23.9626 25.5655C23.9805 25.5836 23.9984 25.6017 24.0169 25.6203C24.0465 25.6498 24.0465 25.6498 24.0767 25.6798C24.2405 25.8552 24.2958 25.9965 24.2952 26.2382C24.2952 26.2593 24.2951 26.2805 24.2951 26.3022C24.2912 26.4685 24.2638 26.5858 24.1653 26.7188C24.1445 26.7482 24.1237 26.7775 24.1022 26.8078C24.0839 26.8274 24.0655 26.847 24.0466 26.8672C24.027 26.8672 24.0074 26.8672 23.9872 26.8672C23.9774 26.8966 23.9676 26.926 23.9575 26.9563C23.9379 26.9563 23.9183 26.9563 23.8981 26.9563C23.8981 26.9759 23.8981 26.9955 23.8981 27.0156C23.8479 27.0621 23.7955 27.1063 23.7423 27.1492C23.7133 27.1728 23.6844 27.1964 23.6546 27.2207C23.5879 27.2706 23.5286 27.309 23.4528 27.3422C23.4528 27.3618 23.4528 27.3814 23.4528 27.4016C23.4062 27.4404 23.4062 27.4404 23.3409 27.4845C23.3052 27.5087 23.3052 27.5087 23.2688 27.5335C23.2432 27.5506 23.2176 27.5677 23.1912 27.5853C23.1653 27.6027 23.1394 27.6202 23.1127 27.6382C23.0382 27.6882 22.9635 27.7379 22.8888 27.7875C22.8565 27.8091 22.8243 27.8307 22.7911 27.8529C22.6285 27.9594 22.4613 28.049 22.2863 28.1337C22.2219 28.1655 22.1613 28.199 22.1002 28.2365C21.9877 28.2979 21.8749 28.3389 21.7541 28.381C21.6346 28.4243 21.5199 28.477 21.4044 28.5297C21.2996 28.5757 21.196 28.6051 21.0847 28.6316C21.0135 28.6497 20.9438 28.6711 20.8737 28.693C20.7253 28.7379 20.5772 28.769 20.4247 28.7969C20.388 28.8043 20.3514 28.8117 20.3136 28.8193C19.31 29.0163 18.2044 28.9721 17.2184 28.7078C17.1638 28.694 17.1638 28.694 17.108 28.68C16.9156 28.6311 16.7294 28.5775 16.5465 28.4995C16.4733 28.4691 16.3993 28.4438 16.3241 28.4184C16.0981 28.3367 15.8869 28.2259 15.6747 28.1141C15.6554 28.1039 15.636 28.0938 15.6161 28.0833C15.2176 27.8724 14.8448 27.6205 14.4852 27.3489C14.4629 27.332 14.4405 27.3151 14.4174 27.2977C14.3932 27.2757 14.3932 27.2757 14.3684 27.2531C14.3684 27.2335 14.3684 27.214 14.3684 27.1938C14.3519 27.1864 14.3354 27.1791 14.3183 27.1715C14.2371 27.1276 14.1702 27.077 14.1013 27.0156C14.1013 26.996 14.1013 26.9765 14.1013 26.9563C14.0839 26.9491 14.0665 26.942 14.0486 26.9346C13.9698 26.8897 13.9298 26.8408 13.8749 26.7689C13.8574 26.7463 13.8398 26.7238 13.8218 26.7006C13.7226 26.5513 13.7052 26.4225 13.706 26.2456C13.7056 26.2251 13.7051 26.2046 13.7046 26.1835C13.7044 25.9541 13.8043 25.809 13.9554 25.6471C13.9741 25.6285 13.9929 25.6098 14.0122 25.5906C14.0279 25.5748 14.0436 25.5589 14.0597 25.5425C14.2698 25.3732 14.6323 25.3898 14.8764 25.4741Z" fill="#ECB955"/>
<path d="M14.0123 17.664C14.0488 17.6799 14.0488 17.6799 14.0861 17.6961C14.2471 17.7707 14.3909 17.8645 14.5355 17.9665C14.5635 17.9861 14.5635 17.9861 14.5921 18.0061C14.6375 18.0389 14.6813 18.074 14.7248 18.1093C14.7248 18.1289 14.7248 18.1485 14.7248 18.1687C14.7418 18.1761 14.7587 18.1834 14.7763 18.191C14.8539 18.2338 14.9073 18.284 14.9697 18.3468C14.9907 18.3677 15.0116 18.3885 15.0332 18.4099C15.081 18.4656 15.081 18.4656 15.081 18.525C15.1006 18.525 15.1202 18.525 15.1404 18.525C15.1863 18.5847 15.2286 18.6442 15.2703 18.7068C15.2818 18.7237 15.2932 18.7406 15.3051 18.7581C15.3281 18.7921 15.3511 18.8263 15.3739 18.8606C15.4061 18.9087 15.4389 18.9564 15.4718 19.004C15.5196 19.0786 15.5544 19.1458 15.5857 19.2282C15.6003 19.2663 15.6003 19.2663 15.6152 19.3052C15.63 19.3451 15.63 19.3451 15.6451 19.3859C15.6556 19.4138 15.666 19.4416 15.6768 19.4703C15.7743 19.733 15.8357 19.9769 15.8603 20.2561C15.8634 20.2853 15.8664 20.3144 15.8696 20.3444C15.8922 20.5955 15.886 20.8402 15.7341 21.0521C15.7188 21.0742 15.7035 21.0963 15.6878 21.1191C15.6737 21.135 15.6596 21.1508 15.6451 21.1671C15.6255 21.1671 15.6059 21.1671 15.5857 21.1671C15.5857 21.1867 15.5857 21.2063 15.5857 21.2265C15.5437 21.2508 15.5017 21.2749 15.4595 21.2989C15.4361 21.3123 15.4127 21.3258 15.3886 21.3396C15.2095 21.43 14.9935 21.4367 14.8008 21.3854C14.5491 21.2831 14.3598 21.1141 14.2464 20.8663C14.2057 20.7348 14.2027 20.6051 14.1971 20.4682C14.1729 20.099 13.9973 19.7076 13.7228 19.4583C13.6084 19.362 13.489 19.2816 13.3591 19.2078C13.3304 19.1912 13.3016 19.1747 13.2719 19.1577C12.8774 18.9886 12.4288 19.0244 12.0368 19.178C11.8142 19.2777 11.6135 19.4337 11.4692 19.6316C11.4561 19.6485 11.443 19.6654 11.4295 19.6828C11.4099 19.6828 11.3903 19.6828 11.3701 19.6828C11.3666 19.6996 11.3632 19.7164 11.3596 19.7338C11.3385 19.8082 11.3064 19.867 11.2699 19.9351C11.1724 20.143 11.1512 20.3578 11.1229 20.5831C11.1001 20.7557 11.064 20.9133 10.9693 21.0614C10.9567 21.0816 10.9442 21.1017 10.9313 21.1225C10.9193 21.1372 10.9074 21.152 10.8951 21.1671C10.8755 21.1671 10.8559 21.1671 10.8357 21.1671C10.8357 21.1867 10.8357 21.2063 10.8357 21.2265C10.7937 21.2508 10.7517 21.2749 10.7095 21.2989C10.6861 21.3123 10.6627 21.3258 10.6386 21.3396C10.4595 21.43 10.2435 21.4367 10.0508 21.3854C9.8093 21.2873 9.60337 21.1178 9.49512 20.8776C9.38549 20.4558 9.455 19.8917 9.64901 19.5051C9.68044 19.44 9.70249 19.375 9.72427 19.3061C9.75872 19.1982 9.8022 19.0999 9.85601 19C9.87561 19 9.8952 19 9.91539 19C9.91906 18.9828 9.92274 18.9657 9.92652 18.948C9.94527 18.8805 9.97146 18.8241 10.0045 18.7625C10.024 18.7625 10.0436 18.7625 10.0638 18.7625C10.0712 18.7465 10.0785 18.7306 10.0861 18.7142C10.1323 18.6264 10.1836 18.5458 10.242 18.4656C10.2615 18.4656 10.2811 18.4656 10.3013 18.4656C10.3093 18.4466 10.3172 18.4276 10.3254 18.4081C10.3607 18.3468 10.3607 18.3468 10.4498 18.3171C10.4596 18.2976 10.4694 18.278 10.4795 18.2578C10.5091 18.1984 10.5091 18.1984 10.5982 18.1687C10.5982 18.1491 10.5982 18.1295 10.5982 18.1093C10.8031 17.9302 11.0367 17.8091 11.281 17.6937C11.3181 17.6733 11.3553 17.6529 11.3923 17.6325C12.2063 17.2322 13.2036 17.3006 14.0123 17.664Z" fill="#ECB955"/>
<path d="M26.9562 17.8125C26.9852 17.8304 27.0141 17.8482 27.044 17.8667C27.313 18.0349 27.313 18.0349 27.4015 18.1094C27.4015 18.129 27.4015 18.1486 27.4015 18.1687C27.4254 18.1779 27.4254 18.1779 27.4497 18.1873C27.5476 18.2439 27.6269 18.3186 27.6984 18.4062C27.6984 18.4258 27.6984 18.4454 27.6984 18.4656C27.718 18.4656 27.7376 18.4656 27.7577 18.4656C27.8025 18.5155 27.8025 18.5155 27.8505 18.5807C27.8665 18.602 27.8825 18.6234 27.899 18.6454C27.9359 18.7031 27.9359 18.7031 27.9359 18.7625C27.9555 18.7625 27.9751 18.7625 27.9952 18.7625C28.0559 18.8488 28.0843 18.8932 28.0843 19C28.1039 19 28.1235 19 28.1437 19C28.1649 19.0512 28.1862 19.1024 28.2075 19.1537C28.2348 19.2157 28.2348 19.2157 28.2921 19.2969C28.4261 19.6786 28.5345 20.0602 28.537 20.4658C28.538 20.502 28.538 20.502 28.5389 20.5389C28.5407 20.8163 28.4568 20.9955 28.2682 21.1973C28.0836 21.3643 27.8775 21.4135 27.6347 21.4113C27.4613 21.3978 27.3051 21.328 27.164 21.2266C27.164 21.207 27.164 21.1874 27.164 21.1672C27.1346 21.1574 27.1052 21.1476 27.0749 21.1375C26.9171 20.9539 26.8776 20.7507 26.8568 20.5161C26.834 20.2612 26.7982 20.067 26.6665 19.8408C26.6296 19.7719 26.6296 19.7719 26.6296 19.6828C26.61 19.6828 26.5904 19.6828 26.5702 19.6828C26.5263 19.6371 26.5263 19.6371 26.4756 19.5752C26.2338 19.2937 25.9389 19.099 25.5609 19.0594C25.054 19.0349 24.6883 19.1201 24.2862 19.4482C23.9625 19.7467 23.8226 20.1301 23.7963 20.5604C23.7744 20.8648 23.6825 21.0489 23.4531 21.2562C23.2421 21.3929 23.0461 21.4239 22.7999 21.4047C22.6608 21.3708 22.5303 21.3102 22.414 21.2266C22.414 21.207 22.414 21.1874 22.414 21.1672C22.3846 21.1574 22.3552 21.1476 22.3249 21.1375C22.2859 21.0931 22.2859 21.0931 22.2489 21.0354C22.2366 21.0171 22.2243 20.9988 22.2116 20.9799C22.1122 20.7539 22.1079 20.5244 22.1301 20.2821C22.1341 20.2381 22.1341 20.2381 22.1381 20.1932C22.1723 19.8781 22.2663 19.5898 22.3843 19.2969C22.4017 19.2532 22.4017 19.2532 22.4194 19.2087C22.4948 19.0432 22.6001 18.8943 22.7016 18.7439C22.7161 18.7224 22.7306 18.7009 22.7455 18.6787C22.7818 18.6263 22.8204 18.5755 22.8593 18.525C22.8789 18.525 22.8985 18.525 22.9187 18.525C22.926 18.508 22.9334 18.491 22.9409 18.4735C22.9838 18.3959 23.0339 18.3425 23.0968 18.2801C23.128 18.2486 23.128 18.2486 23.1599 18.2165C23.2156 18.1687 23.2156 18.1687 23.2749 18.1687C23.2896 18.1247 23.2896 18.1247 23.3046 18.0797C23.3724 18.0281 23.4393 17.9811 23.5106 17.935C23.5309 17.9217 23.5512 17.9084 23.5721 17.8948C23.9883 17.6262 24.4415 17.4449 24.9356 17.3932C24.9688 17.3893 24.9688 17.3893 25.0028 17.3854C25.6784 17.3119 26.3787 17.4452 26.9562 17.8125Z" fill="#ECB955"/>
</g>
<defs>
<clipPath id="clip0_72_424">
<rect width="38" height="38" fill="white"/>
</clipPath>
</defs>
</svg>
