<svg width="38" height="38" viewBox="0 0 38 38" fill="none" xmlns="http://www.w3.org/2000/svg">
<g clip-path="url(#clip0_26_25)">
<path d="M21.1674 0.890625C21.2077 0.899978 21.2479 0.909292 21.2882 0.918573C21.5213 0.973377 21.7463 1.03976 21.969 1.12812C22.0041 1.1416 22.0393 1.15507 22.0755 1.16895C22.3963 1.2931 22.7015 1.43707 22.9947 1.6182C23.0502 1.65201 23.1067 1.68429 23.1635 1.71584C23.2946 1.79046 23.4173 1.87627 23.5406 1.96309C23.5637 1.97904 23.5869 1.995 23.6107 2.01144C23.6325 2.02679 23.6544 2.04214 23.6769 2.05795C23.7066 2.07873 23.7066 2.07873 23.7369 2.09994C23.7582 2.11853 23.7582 2.11853 23.78 2.1375C23.78 2.15709 23.78 2.17669 23.78 2.19687C23.7971 2.20461 23.8143 2.21234 23.832 2.2203C23.9032 2.25868 23.9558 2.30218 24.0156 2.35645C24.08 2.41431 24.1432 2.46933 24.2123 2.52158C24.2991 2.59506 24.37 2.67722 24.4435 2.76384C24.491 2.82056 24.491 2.82056 24.5432 2.86844C24.5815 2.90937 24.5815 2.90937 24.5815 2.96875C24.6011 2.96875 24.6207 2.96875 24.6409 2.96875C24.799 3.13826 24.924 3.34175 25.0545 3.53293C25.1003 3.59922 25.147 3.66359 25.1957 3.72764C25.2778 3.84152 25.3356 3.96749 25.3966 4.09351C25.4401 4.18122 25.4869 4.26597 25.5352 4.35107C25.6084 4.48373 25.6628 4.61654 25.7117 4.75974C25.738 4.83526 25.7676 4.90827 25.7987 4.98193C25.8736 5.16732 25.9248 5.35873 25.9768 5.55156C25.9848 5.57889 25.9927 5.60621 26.0009 5.63436C26.0539 5.82589 26.0859 6.0194 26.1141 6.21582C26.1182 6.24359 26.1223 6.27136 26.1265 6.29997C26.1464 6.44829 26.1566 6.59031 26.1515 6.73999C26.129 7.01591 26.129 7.01591 26.2241 7.26257C26.3293 7.34475 26.4483 7.38957 26.5739 7.43191C26.6486 7.4581 26.7152 7.49414 26.784 7.5332C26.8092 7.54702 26.8345 7.56083 26.8606 7.57507C27.072 7.69543 27.2798 7.82192 27.4876 7.94829C27.5386 7.97896 27.5904 8.00843 27.6423 8.03754C27.6609 8.0499 27.6795 8.06226 27.6987 8.075C27.6987 8.09459 27.6987 8.11419 27.6987 8.13437C27.7206 8.14248 27.7425 8.15059 27.765 8.15895C27.8424 8.19174 27.9046 8.22801 27.9735 8.27562C27.9969 8.29165 28.0202 8.30767 28.0442 8.32418C28.0686 8.34114 28.0929 8.35811 28.118 8.37559C28.1555 8.40152 28.1555 8.40152 28.1937 8.42798C28.2664 8.47837 28.3388 8.529 28.4112 8.57969C28.4304 8.59301 28.4496 8.60633 28.4693 8.62006C28.6734 8.76204 28.6734 8.76204 28.7378 8.81719C28.7378 8.83678 28.7378 8.85637 28.7378 8.87656C28.762 8.88712 28.762 8.88712 28.7868 8.8979C28.8744 8.94571 28.9452 9.00545 29.0217 9.06953C29.1038 9.13818 29.183 9.2031 29.2721 9.2625C29.2721 9.28209 29.2721 9.30169 29.2721 9.32187C29.2893 9.32961 29.3065 9.33734 29.3242 9.3453C29.3954 9.38368 29.448 9.42718 29.5078 9.48145C29.5764 9.54314 29.6443 9.60129 29.7175 9.65771C29.737 9.67425 29.7566 9.69078 29.7768 9.70781C29.7768 9.72741 29.7768 9.747 29.7768 9.76719C29.8062 9.77698 29.8356 9.78678 29.8659 9.79688C29.8659 9.81647 29.8659 9.83606 29.8659 9.85625C29.8855 9.85625 29.9051 9.85625 29.9253 9.85625C29.9253 9.87584 29.9253 9.89544 29.9253 9.91562C29.9494 9.92527 29.9494 9.92527 29.974 9.93511C30.0683 9.9888 30.1392 10.0616 30.2147 10.1383C30.2298 10.1531 30.2448 10.1679 30.2603 10.1832C30.3706 10.294 30.3706 10.294 30.3706 10.3609C30.4 10.3707 30.4294 10.3805 30.4596 10.3906C30.4596 10.4102 30.4596 10.4298 30.4596 10.45C30.4792 10.45 30.4988 10.45 30.519 10.45C30.519 10.4696 30.519 10.4892 30.519 10.5094C30.5484 10.5192 30.5778 10.529 30.6081 10.5391C30.6081 10.5587 30.6081 10.5782 30.6081 10.5984C30.6277 10.5984 30.6473 10.5984 30.6674 10.5984C30.7124 10.6431 30.7124 10.6431 30.7639 10.7042C30.7822 10.7257 30.8004 10.7473 30.8193 10.7695C30.8377 10.7914 30.8562 10.8133 30.8753 10.8359C30.8928 10.8557 30.9104 10.8755 30.9285 10.8959C30.9527 10.9232 30.9527 10.9232 30.9773 10.951C30.992 10.9674 31.0066 10.9839 31.0217 11.0008C31.0534 11.0437 31.0534 11.0437 31.0534 11.1031C31.073 11.1031 31.0926 11.1031 31.1128 11.1031C31.1683 11.1682 31.2207 11.2336 31.2723 11.3017C31.301 11.3389 31.3297 11.3761 31.3584 11.4133C31.3789 11.4403 31.3789 11.4403 31.3999 11.4678C31.4353 11.5136 31.4721 11.5583 31.5091 11.6028C31.5581 11.6672 31.5581 11.6672 31.5581 11.7266C31.5777 11.7266 31.5973 11.7266 31.6175 11.7266C31.6272 11.7657 31.637 11.8049 31.6471 11.8453C31.6667 11.8453 31.6863 11.8453 31.7065 11.8453C31.763 11.9178 31.8159 11.9905 31.8679 12.0661C31.8836 12.0886 31.8992 12.111 31.9153 12.1341C32.0286 12.298 32.1394 12.4634 32.2483 12.6302C32.2696 12.6625 32.2696 12.6625 32.2913 12.6956C32.3893 12.8475 32.3893 12.8475 32.3893 12.9141C32.4089 12.9141 32.4285 12.9141 32.4487 12.9141C32.4649 12.9443 32.4649 12.9443 32.4814 12.9751C32.5713 13.1415 32.6646 13.305 32.7626 13.4669C32.8292 13.5779 32.8916 13.6909 32.9534 13.8047C32.9708 13.8363 32.9881 13.868 33.006 13.9006C33.1457 14.1571 33.2729 14.4185 33.3964 14.6831C33.4369 14.7699 33.4787 14.8557 33.5219 14.9412C33.5625 15.0219 33.5998 15.1026 33.6325 15.187C33.6675 15.2769 33.703 15.3666 33.7395 15.4559C33.816 15.6429 33.887 15.8285 33.9415 16.0232C33.9714 16.118 34.013 16.206 34.0546 16.296C34.0927 16.3835 34.1162 16.4735 34.1409 16.5656C34.1555 16.6096 34.1704 16.6535 34.1854 16.6974C34.2139 16.7816 34.239 16.8651 34.2596 16.9516C34.2644 16.9706 34.2692 16.9897 34.2741 17.0093C34.2852 17.0535 34.2955 17.098 34.3054 17.1424C34.3241 17.2131 34.343 17.2736 34.3784 17.3375C34.4711 17.3829 34.5457 17.3941 34.648 17.4012C35.5099 17.4643 36.2935 17.9754 36.8944 18.5658C36.9121 18.5831 36.9299 18.6004 36.9481 18.6183C37.0386 18.7098 37.1023 18.7843 37.1393 18.9109C37.1589 18.9109 37.1785 18.9109 37.1987 18.9109C37.2476 18.9743 37.2922 19.0371 37.336 19.1039C37.3492 19.1239 37.3624 19.1438 37.3759 19.1644C37.6407 19.5745 37.8998 20.0655 37.9576 20.5549C37.9586 20.6567 37.9586 20.6567 38.0003 20.6922C38.0033 20.7325 38.0044 20.773 38.0046 20.8135C38.0049 20.8522 38.0049 20.8522 38.0052 20.8916C38.0052 20.9198 38.0052 20.9479 38.0052 20.9769C38.0053 21.0058 38.0054 21.0347 38.0056 21.0645C38.0057 21.1259 38.0058 21.1874 38.0058 21.2489C38.0058 21.3421 38.0064 21.4354 38.0069 21.5286C38.007 21.5884 38.0071 21.6482 38.0071 21.7079C38.0073 21.7355 38.0075 21.7631 38.0078 21.7916C38.0053 22.5081 37.655 23.1751 37.2581 23.75C37.2385 23.7794 37.2189 23.8088 37.1987 23.8391C37.1791 23.8391 37.1595 23.8391 37.1393 23.8391C37.1313 23.8565 37.1233 23.8739 37.115 23.8918C36.7979 24.4893 35.9716 24.9446 35.3581 25.1453C35.3248 25.1571 35.3248 25.1571 35.2909 25.1691C34.9851 25.2762 34.7041 25.339 34.3784 25.3234C34.3737 25.3433 34.369 25.3632 34.3641 25.3836C34.2369 25.9074 34.0813 26.4287 33.8737 26.9266C33.8949 26.9221 33.9161 26.9176 33.938 26.913C34.1703 26.8685 34.3826 26.8642 34.6177 26.8839C34.6526 26.8867 34.6875 26.8895 34.7234 26.8924C35.1781 26.934 35.5747 27.0478 35.9815 27.2531C36.0339 27.277 36.0865 27.3005 36.1392 27.3236C36.1605 27.333 36.1819 27.3425 36.2038 27.3522C36.2186 27.3587 36.2334 27.3652 36.2487 27.3719C36.2487 27.3915 36.2487 27.4111 36.2487 27.4312C36.2657 27.4347 36.2827 27.4381 36.3002 27.4416C36.3738 27.4628 36.4287 27.4928 36.4936 27.5333C36.5146 27.5461 36.5356 27.5589 36.5572 27.5721C36.5729 27.5844 36.5887 27.5967 36.6049 27.6094C36.6049 27.629 36.6049 27.6486 36.6049 27.6687C36.6252 27.6749 36.6454 27.681 36.6662 27.6873C36.7806 27.7409 36.8745 27.8142 36.9612 27.9062C36.9612 27.9258 36.9612 27.9454 36.9612 27.9656C36.9906 27.9754 37.02 27.9852 37.0503 27.9953C37.0503 28.0149 37.0503 28.0345 37.0503 28.0547C37.0699 28.0547 37.0895 28.0547 37.1096 28.0547C37.1674 28.1175 37.1674 28.1175 37.2321 28.1994C37.2536 28.2263 37.2751 28.2531 37.2973 28.2808C37.3471 28.3516 37.3471 28.3516 37.3471 28.4109C37.3667 28.4109 37.3863 28.4109 37.4065 28.4109C37.494 28.5342 37.5686 28.666 37.644 28.7969C37.666 28.835 37.666 28.835 37.6884 28.874C37.783 29.0505 37.8369 29.2332 37.8875 29.426C37.9029 29.5059 37.9029 29.5059 37.9409 29.5391C37.9977 29.7245 38.0087 29.9049 38.0071 30.0976C38.0071 30.1374 38.0071 30.1374 38.0071 30.1781C38.007 30.2337 38.0067 30.2892 38.0064 30.3448C38.0058 30.4303 38.0058 30.5157 38.0058 30.6012C38.0056 30.6554 38.0055 30.7095 38.0052 30.7637C38.0052 30.7893 38.0052 30.8149 38.0052 30.8413C38.0037 31.02 38.0037 31.02 37.9706 31.0531C37.9669 31.0874 37.9632 31.1217 37.9594 31.157C37.9429 31.2991 37.9001 31.4238 37.8518 31.5578C37.8418 31.5884 37.8317 31.619 37.8213 31.6505C37.6257 32.2308 37.31 32.7785 36.9612 33.2797C36.9467 33.3009 36.9321 33.3221 36.9171 33.344C36.869 33.4143 36.8205 33.4843 36.7719 33.5543C36.7564 33.577 36.7408 33.5997 36.7248 33.6231C36.7101 33.644 36.6954 33.6649 36.6803 33.6865C36.6672 33.7054 36.6541 33.7243 36.6406 33.7437C36.6289 33.7571 36.6171 33.7705 36.6049 33.7844C36.5854 33.7844 36.5658 33.7844 36.5456 33.7844C36.5382 33.8058 36.5309 33.8272 36.5233 33.8493C36.4826 33.941 36.435 34.0073 36.3675 34.0812C36.3479 34.0812 36.3283 34.0812 36.3081 34.0812C36.3 34.0988 36.2919 34.1163 36.2836 34.1343C36.2496 34.1983 36.2137 34.2462 36.166 34.3004C36.1503 34.3185 36.1345 34.3366 36.1183 34.3553C36.0938 34.3831 36.0938 34.3831 36.0687 34.4115C36.0362 34.4487 36.0036 34.4858 35.9712 34.5231C35.9568 34.5394 35.9424 34.5558 35.9276 34.5726C35.8896 34.6159 35.8896 34.6159 35.8628 34.675C35.8432 34.675 35.8236 34.675 35.8034 34.675C35.7936 34.7044 35.7838 34.7338 35.7737 34.7641C35.7541 34.7641 35.7345 34.7641 35.7143 34.7641C35.7143 34.7837 35.7143 34.8032 35.7143 34.8234C35.6947 34.8234 35.6751 34.8234 35.6549 34.8234C35.6452 34.8528 35.6354 34.8822 35.6253 34.9125C35.6057 34.9125 35.5861 34.9125 35.5659 34.9125C35.5659 34.9321 35.5659 34.9517 35.5659 34.9719C35.5463 34.9719 35.5267 34.9719 35.5065 34.9719C35.4987 34.9894 35.4908 35.0068 35.4827 35.0248C35.4458 35.093 35.4071 35.1384 35.3525 35.1931C35.3342 35.2115 35.3159 35.2299 35.2971 35.2488C35.278 35.2676 35.259 35.2865 35.2393 35.3059C35.2203 35.3251 35.2012 35.3444 35.1816 35.3643C35.1633 35.3825 35.145 35.4007 35.1261 35.4195C35.1094 35.4362 35.0927 35.4528 35.0755 35.47C35.0315 35.5062 35.0315 35.5062 34.9721 35.5062C34.9721 35.5258 34.9721 35.5454 34.9721 35.5656C34.9525 35.5656 34.9329 35.5656 34.9128 35.5656C34.903 35.595 34.8932 35.6244 34.8831 35.6547C34.8635 35.6547 34.8439 35.6547 34.8237 35.6547C34.8237 35.6743 34.8237 35.6939 34.8237 35.7141C34.8041 35.7141 34.7845 35.7141 34.7643 35.7141C34.7545 35.7435 34.7447 35.7728 34.7346 35.8031C34.715 35.8031 34.6954 35.8031 34.6753 35.8031C34.6753 35.8227 34.6753 35.8423 34.6753 35.8625C34.6248 35.9075 34.5725 35.9505 34.5194 35.9924C34.4362 36.0582 34.3565 36.1217 34.2824 36.1976C34.2299 36.2484 34.2299 36.2484 34.1706 36.2484C34.1706 36.268 34.1706 36.2876 34.1706 36.3078C34.008 36.4562 34.008 36.4562 33.9331 36.4562C33.9331 36.4758 33.9331 36.4954 33.9331 36.5156C33.8702 36.5734 33.8702 36.5734 33.7883 36.6381C33.7615 36.6596 33.7346 36.6811 33.7069 36.7033C33.6362 36.7531 33.6362 36.7531 33.5768 36.7531C33.5768 36.7727 33.5768 36.7923 33.5768 36.8125C33.4741 36.9016 33.4741 36.9016 33.3987 36.9016C33.3987 36.9212 33.3987 36.9408 33.3987 36.9609C33.3595 36.9707 33.3203 36.9805 33.2799 36.9906C33.2799 37.0102 33.2799 37.0298 33.2799 37.05C33.1772 37.1391 33.1772 37.1391 33.1018 37.1391C33.1018 37.1587 33.1018 37.1782 33.1018 37.1984C33.044 37.2458 33.044 37.2458 32.9627 37.3023C32.8636 37.3722 32.7659 37.4425 32.6708 37.5176C32.645 37.5379 32.645 37.5379 32.6186 37.5587C32.5849 37.5854 32.5513 37.6123 32.5179 37.6393C32.3991 37.7328 32.3991 37.7328 32.3003 37.7328C32.3003 37.7524 32.3003 37.772 32.3003 37.7922C32.2242 37.8604 32.197 37.8812 32.0924 37.8812C32.0924 37.9008 32.0924 37.9204 32.0924 37.9406C31.8887 38.0553 31.6059 38.0325 31.38 38C31.2457 37.9577 31.1283 37.8862 31.0237 37.7922C31.0237 37.7726 31.0237 37.753 31.0237 37.7328C30.9979 37.7204 30.9979 37.7204 30.9715 37.7078C30.8617 37.6511 30.762 37.5798 30.66 37.5102C30.6379 37.4953 30.6158 37.4805 30.593 37.4653C30.5721 37.451 30.5512 37.4367 30.5297 37.422C30.5105 37.409 30.4914 37.396 30.4717 37.3827C30.4579 37.3708 30.4441 37.359 30.43 37.3469C30.43 37.3273 30.43 37.3077 30.43 37.2875C30.4049 37.2756 30.4049 37.2756 30.3794 37.2634C30.3066 37.2257 30.2388 37.1839 30.1702 37.1391C30.1465 37.1238 30.1227 37.1084 30.0983 37.0927C30.0714 37.0716 30.0714 37.0716 30.044 37.05C30.044 37.0304 30.044 37.0108 30.044 36.9906C30.0278 36.9836 30.0116 36.9765 29.995 36.9693C29.9074 36.9215 29.8366 36.8617 29.7601 36.7977C29.678 36.729 29.5987 36.6641 29.5096 36.6047C29.5096 36.5851 29.5096 36.5655 29.5096 36.5453C29.4926 36.5374 29.4757 36.5294 29.4581 36.5212C29.3885 36.4847 29.3278 36.4436 29.2647 36.3969C29.2333 36.3739 29.2333 36.3739 29.2012 36.3505C29.1854 36.3364 29.1696 36.3223 29.1534 36.3078C29.1534 36.2882 29.1534 36.2686 29.1534 36.2484C29.124 36.2386 29.0946 36.2288 29.0643 36.2188C29.0643 36.1992 29.0643 36.1796 29.0643 36.1594C29.0487 36.1532 29.033 36.147 29.0169 36.1406C28.9158 36.0831 28.8383 36.0055 28.7545 35.9256C28.7211 35.8941 28.6878 35.8626 28.6544 35.8312C28.6385 35.8162 28.6226 35.8012 28.6062 35.7858C28.5636 35.7474 28.5185 35.7118 28.4732 35.6767C28.4528 35.6597 28.4323 35.6426 28.4112 35.625C28.4112 35.6054 28.4112 35.5858 28.4112 35.5656C28.3916 35.5656 28.372 35.5656 28.3518 35.5656C28.3036 35.5248 28.3036 35.5248 28.2628 35.4766C28.2628 35.457 28.2628 35.4374 28.2628 35.4172C28.2343 35.4052 28.2343 35.4052 28.2052 35.3931C28.144 35.3578 28.144 35.3578 28.1143 35.2687C28.0947 35.259 28.0751 35.2492 28.055 35.2391C27.9956 35.2094 27.9956 35.2094 27.9659 35.1203C27.9365 35.1105 27.9071 35.1007 27.8768 35.0906C27.8768 35.071 27.8768 35.0514 27.8768 35.0312C27.8572 35.0312 27.8376 35.0312 27.8175 35.0312C27.8175 35.0117 27.8175 34.9921 27.8175 34.9719C27.7979 34.9719 27.7783 34.9719 27.7581 34.9719C27.7072 34.9137 27.6576 34.8543 27.6096 34.7938C27.46 34.809 27.359 34.8819 27.2367 34.9626C27.062 35.0752 26.8878 35.1749 26.6999 35.2641C26.6247 35.2991 26.6247 35.2991 26.5409 35.3578C26.5115 35.3578 26.4821 35.3578 26.4518 35.3578C26.4518 35.3774 26.4518 35.397 26.4518 35.4172C26.4366 35.4244 26.4214 35.4315 26.4057 35.4389C26.3345 35.4724 26.2633 35.506 26.1921 35.5396C26.1663 35.5518 26.1405 35.564 26.1139 35.5765C25.9726 35.6435 25.8322 35.7117 25.6929 35.7827C25.568 35.8459 25.4422 35.8999 25.3115 35.9501C25.2258 35.9848 25.1435 36.0245 25.0602 36.0647C24.8235 36.1752 24.5781 36.2583 24.3307 36.3416C24.2573 36.3664 24.1839 36.3916 24.1106 36.4168C23.8882 36.4928 23.6675 36.5637 23.438 36.6154C23.3637 36.6327 23.3637 36.6327 23.2935 36.6636C23.1666 36.7129 23.0336 36.7332 22.9005 36.7596C22.8035 36.7792 22.8035 36.7792 22.7286 36.8125C22.6225 36.8535 22.5152 36.8689 22.4032 36.8867C22.2446 36.9122 22.0937 36.945 21.9393 36.9906C21.749 37.0327 21.5597 37.056 21.3656 37.0713C21.2891 37.0794 21.2166 37.0929 21.1415 37.1094C20.9913 37.1419 20.8421 37.1524 20.689 37.1614C20.6075 37.166 20.6075 37.166 20.5467 37.1835C20.482 37.1991 20.4228 37.2043 20.3564 37.2073C20.3313 37.2084 20.3063 37.2096 20.2804 37.2109C20.2535 37.212 20.2265 37.2131 20.1988 37.2143C20.1567 37.2162 20.1567 37.2162 20.1138 37.2182C20.0544 37.2209 19.9949 37.2235 19.9355 37.226C19.8456 37.2299 19.7556 37.234 19.6656 37.2382C19.6077 37.2407 19.5498 37.2433 19.4918 37.2459C19.4521 37.2477 19.4521 37.2477 19.4115 37.2495C19.1199 37.2619 18.8299 37.2591 18.5384 37.2459C18.5101 37.2446 18.4819 37.2434 18.4528 37.2421C18.3937 37.2395 18.3347 37.2368 18.2756 37.2341C18.1852 37.23 18.0948 37.2261 18.0044 37.2222C17.9467 37.2196 17.8891 37.2169 17.8314 37.2143C17.8045 37.2132 17.7776 37.212 17.7498 37.2109C17.7247 37.2097 17.6996 37.2085 17.6738 37.2073C17.6408 37.2058 17.6408 37.2058 17.6072 37.2043C17.5445 37.1983 17.4876 37.185 17.4268 37.1688C17.3808 37.163 17.3347 37.1581 17.2885 37.1539C17.2495 37.1502 17.2495 37.1502 17.2097 37.1465C17.1552 37.1415 17.1007 37.1366 17.0462 37.1316C17.0202 37.1292 16.9942 37.1267 16.9675 37.1242C16.9438 37.1221 16.9202 37.1199 16.8958 37.1177C16.8331 37.1094 16.8331 37.1094 16.744 37.0797C16.6989 37.0759 16.6538 37.0729 16.6086 37.0704C16.4316 37.0557 16.2633 37.0184 16.0907 36.9784C15.8983 36.9338 15.7052 36.8973 15.5106 36.8633C15.4133 36.8433 15.324 36.8146 15.2299 36.7828C15.1646 36.7684 15.099 36.7548 15.0333 36.742C14.8668 36.7073 14.7095 36.6619 14.5492 36.6057C14.4492 36.572 14.3483 36.5437 14.2466 36.5156C14.0977 36.4739 13.9561 36.425 13.8136 36.3652C13.7471 36.3381 13.6804 36.315 13.612 36.293C13.4918 36.254 13.3754 36.208 13.2584 36.1602C13.1808 36.1294 13.1026 36.1016 13.0238 36.074C12.8532 36.0124 12.6901 35.9379 12.5264 35.86C12.4626 35.8298 12.3987 35.8 12.3347 35.7703C11.9575 35.5943 11.5876 35.4096 11.2326 35.1916C11.1622 35.1497 11.0906 35.1118 11.018 35.0739C10.7721 34.9415 10.5419 34.7826 10.3088 34.6292C10.2306 34.5782 10.1513 34.5291 10.0717 34.4802C9.89257 34.3669 9.72539 34.2377 9.55685 34.1094C9.42984 34.0129 9.29994 33.9208 9.16906 33.8296C9.151 33.8147 9.13293 33.7998 9.11432 33.7844C9.11432 33.7648 9.11432 33.7452 9.11432 33.725C9.09814 33.718 9.08195 33.7109 9.06527 33.7037C8.97767 33.6559 8.9069 33.5961 8.83044 33.532C8.7483 33.4634 8.66905 33.3985 8.57995 33.3391C8.57995 33.3195 8.57995 33.2999 8.57995 33.2797C8.56342 33.2723 8.54689 33.265 8.52985 33.2574C8.44861 33.2135 8.38174 33.1629 8.31276 33.1016C8.31276 33.082 8.31276 33.0624 8.31276 33.0422C8.28698 33.0309 8.28698 33.0309 8.26069 33.0194C8.18611 32.9785 8.13687 32.9324 8.07723 32.8718C8.04466 32.839 8.04466 32.839 8.01142 32.8054C7.97781 32.7711 7.97781 32.7711 7.94352 32.736C7.92123 32.7135 7.89894 32.6909 7.87597 32.6677C7.83275 32.6239 7.78957 32.5801 7.74646 32.5362C7.65647 32.4447 7.56567 32.3541 7.47421 32.2641C7.34113 32.1326 7.21212 32.0011 7.09557 31.8547C7.09557 31.8351 7.09557 31.8155 7.09557 31.7953C7.07598 31.7953 7.05639 31.7953 7.0362 31.7953C6.88776 31.6327 6.88776 31.6327 6.88776 31.5578C6.86817 31.5578 6.84857 31.5578 6.82839 31.5578C6.77466 31.4952 6.72422 31.4323 6.67438 31.3667C6.65985 31.3478 6.64531 31.3289 6.63034 31.3095C6.60108 31.2715 6.57189 31.2335 6.54276 31.1954C6.4725 31.1041 6.4001 31.0145 6.32799 30.9246C6.29401 30.875 6.29401 30.875 6.29401 30.8156C6.27442 30.8156 6.25482 30.8156 6.23464 30.8156C6.19486 30.7598 6.19486 30.7598 6.14743 30.6802C6.04546 30.5146 5.93353 30.3589 5.81629 30.2038C5.72768 30.0854 5.65352 29.9651 5.58151 29.8359C5.55175 29.7898 5.52152 29.744 5.49059 29.6986C5.31432 29.4362 5.31432 29.4362 5.31432 29.3312C5.29473 29.3312 5.27514 29.3312 5.25495 29.3312C5.2445 29.3097 5.23405 29.2881 5.22329 29.2658C5.14548 29.1074 5.06514 28.9523 4.97477 28.8006C4.82106 28.5412 4.69067 28.2725 4.57214 27.9953C4.54702 27.9419 4.52189 27.8885 4.49645 27.8353C4.41206 27.6585 4.33631 27.4824 4.27225 27.2971C4.24627 27.2254 4.21645 27.1571 4.18434 27.088C4.13152 26.9725 4.09551 26.8562 4.06084 26.7342C4.03794 26.6599 4.01035 26.5899 3.98024 26.5184C3.91436 26.3595 3.86974 26.196 3.82496 26.0303C3.80852 25.9504 3.80852 25.9504 3.77057 25.9172C3.7669 25.8878 3.76323 25.8584 3.75944 25.8281C3.74495 25.7147 3.71133 25.6124 3.67316 25.5049C3.65275 25.4449 3.63662 25.3851 3.62214 25.3234C3.60055 25.3245 3.57897 25.3255 3.55673 25.3266C3.32575 25.3328 3.13039 25.2998 2.90964 25.2344C2.87979 25.2265 2.84994 25.2185 2.81918 25.2104C2.40464 25.0944 1.98021 24.8978 1.63307 24.6406C1.63307 24.621 1.63307 24.6014 1.63307 24.5812C1.61314 24.5755 1.5932 24.5698 1.57266 24.564C1.44893 24.5048 1.36224 24.4176 1.26384 24.3233C1.24476 24.3055 1.22568 24.2877 1.20603 24.2694C1.08396 24.154 0.958966 24.0357 0.861199 23.8984C0.861199 23.8788 0.861199 23.8592 0.861199 23.8391C0.841606 23.8391 0.822012 23.8391 0.801824 23.8391C0.752883 23.7757 0.708342 23.7129 0.66452 23.6461C0.644762 23.6161 0.644762 23.6161 0.624605 23.5856C0.263231 23.026 -0.0117864 22.3815 -0.00658013 21.7079C-0.00656653 21.6788 -0.00655247 21.6496 -0.00653846 21.6196C-0.00644946 21.5586 -0.00621805 21.4976 -0.00584809 21.4366C-0.00530056 21.3428 -0.00523926 21.249 -0.00524651 21.1552C-0.00510077 21.0958 -0.00492782 21.0363 -0.00472466 20.9769C-0.00469163 20.9487 -0.00465904 20.9206 -0.004625 20.8916C-0.0044356 20.8658 -0.00424575 20.84 -0.00405061 20.8135C-0.00393744 20.7907 -0.00382473 20.7679 -0.00370814 20.7445C0.000261457 20.6922 0.000261908 20.6922 0.0299494 20.6625C0.0390208 20.6213 0.0468122 20.5798 0.0540705 20.5382C0.187253 19.8588 0.494932 19.3252 0.912616 18.7824C0.943274 18.742 0.972754 18.7008 1.00187 18.6593C1.01423 18.6444 1.02659 18.6294 1.03932 18.6141C1.05892 18.6141 1.07851 18.6141 1.0987 18.6141C1.0987 18.5945 1.0987 18.5749 1.0987 18.5547C1.13952 18.5064 1.13952 18.5064 1.18776 18.4656C1.20736 18.4656 1.22695 18.4656 1.24714 18.4656C1.24714 18.446 1.24714 18.4264 1.24714 18.4062C1.29017 18.3664 1.29017 18.3664 1.35023 18.3212C1.37206 18.3047 1.3939 18.2881 1.41639 18.2711C1.43952 18.2538 1.46266 18.2366 1.48649 18.2188C1.50882 18.202 1.53115 18.1851 1.55416 18.1676C1.61978 18.1182 1.68576 18.0692 1.75182 18.0203C1.76982 18.0067 1.78782 17.993 1.80637 17.979C1.93047 17.8868 2.05863 17.8175 2.19899 17.7531C2.22086 17.743 2.24273 17.7328 2.26526 17.7224C2.63834 17.5522 3.00681 17.4383 3.41282 17.3839C3.50269 17.3673 3.57095 17.3503 3.65182 17.3078C3.68736 17.2425 3.68736 17.2425 3.7032 17.1633C3.71049 17.1346 3.71778 17.1058 3.72529 17.0762C3.73227 17.0461 3.73926 17.016 3.74645 16.985C3.761 16.9256 3.77565 16.8663 3.79041 16.8071C3.79661 16.7807 3.80282 16.7543 3.80921 16.7272C3.82915 16.6575 3.85593 16.6 3.88932 16.5359C3.9033 16.489 3.91715 16.442 3.93014 16.3948C3.99249 16.1708 4.05786 15.9519 4.15674 15.7411C4.18922 15.6682 4.2156 15.5945 4.24186 15.5191C4.32935 15.2738 4.4429 15.0403 4.561 14.8085C4.60746 14.717 4.64757 14.6262 4.68347 14.5302C4.74916 14.3578 4.83972 14.1987 4.93108 14.0389C4.94263 14.018 4.95418 13.9971 4.96608 13.9756C4.97667 13.957 4.98726 13.9384 4.99818 13.9192C5.02254 13.8495 5.01342 13.8136 4.98776 13.7453C4.94671 13.702 4.94671 13.702 4.89684 13.6674C4.86807 13.6441 4.83929 13.6208 4.80964 13.5969C4.80964 13.5773 4.80964 13.5577 4.80964 13.5375C4.78025 13.5277 4.75086 13.5179 4.72057 13.5078C4.72057 13.4882 4.72057 13.4686 4.72057 13.4484C4.70098 13.4484 4.68139 13.4484 4.6612 13.4484C4.6612 13.4288 4.6612 13.4092 4.6612 13.3891C4.63181 13.3793 4.60242 13.3695 4.57214 13.3594C4.57214 13.3398 4.57214 13.3202 4.57214 13.3C4.54803 13.2904 4.54803 13.2904 4.52343 13.2805C4.42915 13.2268 4.35817 13.154 4.28268 13.0773C4.26764 13.0625 4.2526 13.0477 4.23711 13.0325C4.12682 12.9216 4.12682 12.9216 4.12682 12.8547C4.10723 12.8547 4.08764 12.8547 4.06745 12.8547C4.06745 12.8351 4.06745 12.8155 4.06745 12.7953C4.03806 12.7855 4.00867 12.7757 3.97839 12.7656C3.97839 12.746 3.97839 12.7264 3.97839 12.7062C3.95879 12.7062 3.9392 12.7062 3.91901 12.7062C3.91901 12.6867 3.91901 12.6671 3.91901 12.6469C3.88962 12.6371 3.86023 12.6273 3.82995 12.6172C3.82995 12.5976 3.82995 12.578 3.82995 12.5578C3.81036 12.5578 3.79076 12.5578 3.77057 12.5578C3.62214 12.3952 3.62214 12.3952 3.62214 12.3203C3.60254 12.3203 3.58295 12.3203 3.56276 12.3203C3.51632 12.2701 3.47212 12.2177 3.42917 12.1645C3.40559 12.1355 3.38202 12.1066 3.35773 12.0768C3.30782 12.0101 3.26941 11.9508 3.2362 11.875C3.21661 11.875 3.19701 11.875 3.17682 11.875C3.13856 11.8316 3.13856 11.8316 3.09889 11.7748C3.08565 11.7562 3.07241 11.7376 3.05877 11.7184C3.02839 11.6672 3.02839 11.6672 3.02839 11.6078C3.00879 11.6078 2.9892 11.6078 2.96901 11.6078C2.90676 11.5409 2.85555 11.4647 2.80202 11.3907C2.78671 11.3702 2.7714 11.3497 2.75563 11.3286C2.74117 11.3088 2.7267 11.289 2.7118 11.2686C2.69849 11.2504 2.68519 11.2322 2.67148 11.2135C2.64245 11.1625 2.64245 11.1625 2.64245 11.0734C2.62286 11.0734 2.60326 11.0734 2.58307 11.0734C2.5331 11.0026 2.4871 10.9321 2.44206 10.8582C2.42869 10.8365 2.41532 10.8149 2.40155 10.7925C2.30964 10.6417 2.22678 10.4883 2.15052 10.3289C2.10425 10.2344 2.05356 10.143 2.00231 10.0511C1.81193 9.69792 1.70002 9.3234 1.60339 8.93594C1.59596 8.90647 1.58854 8.877 1.58089 8.84664C1.46766 8.29965 1.51795 7.67398 1.72214 7.15469C1.73603 7.11879 1.74992 7.08289 1.76423 7.04591C1.83285 6.8708 1.90293 6.69863 1.98932 6.53125C2.00892 6.53125 2.02851 6.53125 2.0487 6.53125C2.05224 6.51377 2.05578 6.49629 2.05943 6.47828C2.09072 6.3697 2.15928 6.28792 2.22497 6.19727C2.2385 6.17798 2.25203 6.15869 2.26596 6.13882C2.30077 6.0903 2.33786 6.04343 2.37526 5.99687C2.39486 5.99687 2.41445 5.99687 2.43464 5.99687C2.4426 5.97789 2.45056 5.95891 2.45876 5.93936C2.49401 5.87812 2.49401 5.87812 2.58307 5.84844C2.59287 5.82884 2.60267 5.80925 2.61276 5.78906C2.64245 5.72969 2.64245 5.72969 2.73151 5.7C2.73151 5.68041 2.73151 5.66081 2.73151 5.64062C2.78138 5.59586 2.78138 5.59586 2.84655 5.54785C2.86791 5.53186 2.88926 5.51586 2.91126 5.49938C2.96901 5.4625 2.96901 5.4625 3.02839 5.4625C3.02839 5.44291 3.02839 5.42331 3.02839 5.40312C3.40121 5.12964 3.82933 4.95054 4.27526 4.83906C4.30756 4.83053 4.33986 4.82199 4.37314 4.8132C4.96105 4.66037 5.61519 4.66159 6.20495 4.80937C6.23258 4.81615 6.26021 4.82292 6.28868 4.8299C6.71255 4.94617 7.14852 5.15573 7.5112 5.40312C7.5112 5.42272 7.5112 5.44231 7.5112 5.4625C7.53508 5.47352 7.53508 5.47352 7.55944 5.48477C7.64724 5.53097 7.72784 5.58227 7.80807 5.64062C7.80807 5.66022 7.80807 5.67981 7.80807 5.7C7.87615 5.72552 7.87615 5.72552 7.95651 5.72969C8.02208 5.67402 8.02208 5.67402 8.07526 5.61094C8.09486 5.61094 8.11445 5.61094 8.13464 5.61094C8.13464 5.59134 8.13464 5.57175 8.13464 5.55156C8.19734 5.50117 8.25985 5.45456 8.32575 5.40869C8.3448 5.39531 8.36385 5.38193 8.38347 5.36815C8.61633 5.20641 8.84984 5.08872 9.11432 4.9875C9.13552 4.97854 9.15671 4.96958 9.17855 4.96035C9.99787 4.61815 11.0203 4.59312 11.8456 4.92812C11.8894 4.94202 11.9333 4.95563 11.9773 4.96895C12.3228 5.08452 12.6171 5.28738 12.9143 5.49219C12.9437 5.51178 12.9731 5.53137 13.0034 5.55156C13.0034 5.57116 13.0034 5.59075 13.0034 5.61094C13.0328 5.62073 13.0622 5.63053 13.0925 5.64062C13.0925 5.66022 13.0925 5.67981 13.0925 5.7C13.1094 5.70735 13.1264 5.71469 13.1439 5.72227C13.2216 5.76511 13.275 5.81525 13.3374 5.87812C13.3688 5.90935 13.3688 5.90935 13.4009 5.94121C13.4487 5.99687 13.4487 5.99687 13.4487 6.05625C13.4683 6.05625 13.4879 6.05625 13.5081 6.05625C13.5112 6.0346 13.5144 6.01295 13.5177 5.99065C13.5517 5.77147 13.6006 5.56176 13.6639 5.34932C13.6731 5.31839 13.6822 5.28746 13.6916 5.2556C13.7975 4.90434 13.9281 4.56902 14.1018 4.24531C14.1114 4.22685 14.1211 4.20839 14.131 4.18937C14.3195 3.82878 14.5381 3.49999 14.7846 3.17656C14.8068 3.14706 14.8289 3.11755 14.8517 3.08715C14.8687 3.06767 14.8858 3.04819 14.9034 3.02812C14.923 3.02812 14.9426 3.02812 14.9628 3.02812C14.9707 3.01079 14.9786 2.99345 14.9868 2.97559C15.1249 2.71703 15.4074 2.45191 15.6456 2.28594C15.6652 2.28594 15.6848 2.28594 15.705 2.28594C15.7147 2.25655 15.7245 2.22716 15.7346 2.19687C15.8107 2.16162 15.8107 2.16162 15.8831 2.1375C15.8831 2.11791 15.8831 2.09831 15.8831 2.07812C16.0483 1.94006 16.2291 1.82529 16.4174 1.72187C16.4493 1.69983 16.4811 1.67779 16.5139 1.65508C16.5956 1.60312 16.5956 1.60312 16.6846 1.60312C16.6846 1.58353 16.6846 1.56394 16.6846 1.54375C16.7612 1.50387 16.8379 1.46434 16.9147 1.425C16.9364 1.41367 16.958 1.40234 16.9804 1.39067C17.0014 1.37996 17.0224 1.36924 17.0441 1.3582C17.0634 1.34825 17.0827 1.3383 17.1026 1.32805C17.1596 1.30625 17.1596 1.30625 17.2784 1.30625C17.2784 1.28666 17.2784 1.26706 17.2784 1.24687C17.3035 1.23891 17.3286 1.23095 17.3545 1.22275C17.4566 1.18914 17.4566 1.18914 17.5522 1.14471C17.6649 1.09592 17.7791 1.06475 17.8981 1.03535C18.0292 1.01219 18.0292 1.01219 18.1393 0.95C18.1844 0.939482 18.2299 0.930476 18.2755 0.922168C18.3031 0.91704 18.3307 0.911912 18.3592 0.906628C18.3883 0.901347 18.4174 0.896066 18.4473 0.890625C18.5045 0.880166 18.5616 0.869654 18.6187 0.859082C18.6442 0.854451 18.6697 0.849821 18.6959 0.84505C18.7673 0.831686 18.7673 0.831686 18.8518 0.801562C18.9099 0.795112 18.9682 0.790002 19.0265 0.785675C19.0611 0.783092 19.0958 0.780508 19.1315 0.777847C19.1678 0.775264 19.2041 0.772681 19.2415 0.770019C19.2771 0.767321 19.3127 0.764623 19.3493 0.761844C19.9533 0.7178 20.5782 0.744161 21.1674 0.890625ZM18.4956 2.58281C18.4632 2.592 18.4309 2.60118 18.3976 2.61064C18.1611 2.67862 17.9444 2.77149 17.7237 2.87969C17.6777 2.90133 17.6777 2.90133 17.6307 2.92341C17.4513 3.00943 17.2893 3.10588 17.1288 3.22353C17.0706 3.26562 17.0706 3.26562 17.0112 3.29531C17.0112 3.31491 17.0112 3.3345 17.0112 3.35469C16.9898 3.36204 16.9683 3.36938 16.9463 3.37695C16.8546 3.4177 16.7882 3.46523 16.7143 3.53281C16.7143 3.55241 16.7143 3.572 16.7143 3.59219C16.6984 3.59892 16.6825 3.60566 16.6661 3.6126C16.5019 3.70333 16.3809 3.83003 16.269 3.97812C16.269 3.99772 16.269 4.01731 16.269 4.0375C16.2494 4.0375 16.2298 4.0375 16.2096 4.0375C16.1605 4.09396 16.1153 4.15031 16.0705 4.21006C16.0572 4.22767 16.0439 4.24528 16.0301 4.26342C15.7297 4.66521 15.4615 5.11755 15.3153 5.5998C15.3054 5.63203 15.2956 5.66425 15.2854 5.69745C15.263 5.77724 15.2448 5.85601 15.2299 5.9375C15.4428 5.92655 15.6396 5.89836 15.8454 5.84333C16.1163 5.77473 16.3911 5.72763 16.6698 5.70731C16.7446 5.69994 16.8153 5.68642 16.8887 5.67031C17.0389 5.63783 17.1881 5.62728 17.3412 5.61824C17.4225 5.61378 17.4225 5.61378 17.4825 5.59622C17.6119 5.56551 17.7471 5.56927 17.8796 5.56455C17.9143 5.56331 17.949 5.56207 17.9847 5.5608C20.5925 5.47866 20.5925 5.47866 21.2565 5.7C21.3078 5.70459 21.3591 5.70816 21.4105 5.71113C21.7329 5.73608 22.0475 5.80557 22.3598 5.88729C22.4752 5.91542 22.5916 5.93532 22.7088 5.95443C22.7706 5.96719 22.7706 5.96719 22.8003 5.99687C22.8584 6.00377 22.9165 6.01064 22.9747 6.01728C23.0857 6.03361 23.1859 6.07285 23.2883 6.11748C23.3658 6.14919 23.3658 6.14919 23.459 6.15645C23.5783 6.17601 23.6721 6.2138 23.7827 6.26058C23.9193 6.31309 24.0601 6.34966 24.2013 6.3878C24.2846 6.4125 24.2846 6.4125 24.3143 6.44219C24.3638 6.44339 24.4133 6.44346 24.4628 6.44219C24.4322 6.17069 24.3784 5.92655 24.2846 5.67031C24.2697 5.62397 24.2548 5.57758 24.2401 5.53115C24.1091 5.1409 23.9133 4.71975 23.6612 4.39375C23.6416 4.39375 23.622 4.39375 23.6018 4.39375C23.5941 4.37687 23.5864 4.36 23.5784 4.34261C23.5393 4.26916 23.4939 4.20839 23.4423 4.14326C23.4238 4.12007 23.4054 4.09688 23.3865 4.07299C23.3694 4.05148 23.3523 4.02997 23.3346 4.00781C23.312 3.97781 23.2893 3.94781 23.266 3.91689C23.2412 3.88842 23.2412 3.88842 23.2159 3.85937C23.1963 3.85937 23.1767 3.85937 23.1565 3.85937C23.1495 3.84238 23.1424 3.82539 23.1352 3.80789C23.0889 3.72614 23.0341 3.67626 22.9635 3.61445C22.9282 3.583 22.9282 3.583 22.8921 3.5509C22.8352 3.49709 22.8352 3.49709 22.7706 3.50312C22.7706 3.48353 22.7706 3.46394 22.7706 3.44375C22.73 3.40698 22.73 3.40698 22.6761 3.37173C22.656 3.35795 22.6359 3.34416 22.6153 3.32996C22.5937 3.31546 22.572 3.30097 22.5498 3.28604C22.5279 3.2712 22.506 3.25636 22.4834 3.24107C22.3356 3.14179 22.1863 3.05101 22.0284 2.96875C21.9842 2.94366 21.9842 2.94366 21.9391 2.91807C21.7264 2.79867 21.5193 2.71232 21.2862 2.64219C21.2416 2.62685 21.1971 2.6114 21.1526 2.5958C20.3086 2.31849 19.3409 2.31327 18.4956 2.58281ZM4.03776 6.70937C4.03776 6.72897 4.03776 6.74856 4.03776 6.76875C4.00837 6.76875 3.97898 6.76875 3.9487 6.76875C3.9487 6.78834 3.9487 6.80794 3.9487 6.82812C3.93175 6.83551 3.91479 6.8429 3.89733 6.85051C3.5572 7.03725 3.34315 7.44034 3.2326 7.7968C3.11683 8.29106 3.2165 8.75825 3.43207 9.20475C3.4737 9.29219 3.4737 9.29219 3.5006 9.36293C3.54662 9.47303 3.6057 9.5746 3.66481 9.67812C3.68241 9.70924 3.68241 9.70924 3.70036 9.74098C3.72313 9.78114 3.74602 9.82123 3.76905 9.86124C3.79634 9.90879 3.823 9.95671 3.84955 10.0047C3.86924 10.0341 3.86924 10.0341 3.88932 10.0641C3.90892 10.0641 3.92851 10.0641 3.9487 10.0641C3.9487 10.0935 3.9487 10.1228 3.9487 10.1531C3.96829 10.1531 3.98789 10.1531 4.00807 10.1531C4.01477 10.1735 4.02147 10.1939 4.02837 10.2149C4.07734 10.3235 4.14367 10.4076 4.21774 10.5001C4.36138 10.6816 4.36138 10.6816 4.39401 10.7469C4.41361 10.7469 4.4332 10.7469 4.45339 10.7469C4.4655 10.7726 4.4655 10.7726 4.47786 10.7989C4.56884 10.9728 4.69971 11.1155 4.83932 11.2516C4.8662 11.2841 4.8928 11.3169 4.91911 11.3499C4.95309 11.3894 4.95309 11.3894 4.98776 11.4297C5.00736 11.4297 5.02695 11.4297 5.04714 11.4297C5.05518 11.4474 5.06322 11.4651 5.07151 11.4834C5.10605 11.5476 5.13974 11.5885 5.19152 11.6392C5.20807 11.6556 5.22462 11.672 5.24167 11.6888C5.25891 11.7056 5.27615 11.7223 5.29391 11.7396C5.31081 11.7562 5.32771 11.7728 5.34511 11.7899C5.37859 11.8229 5.41212 11.8558 5.44571 11.8886C5.54197 11.9829 5.63675 12.0786 5.73146 12.1744C5.88905 12.3336 6.04583 12.4915 6.21724 12.636C6.26432 12.6766 6.26432 12.6766 6.31141 12.7264C6.35105 12.7724 6.35105 12.7724 6.41276 12.7656C6.41276 12.7852 6.41276 12.8048 6.41276 12.825C6.47726 12.8857 6.47726 12.8857 6.55749 12.9475C6.58435 12.969 6.61122 12.9905 6.6389 13.0126C6.7033 13.0682 6.7033 13.0682 6.76901 13.0625C6.76901 13.0821 6.76901 13.1017 6.76901 13.1219C6.78861 13.1219 6.8082 13.1219 6.82839 13.1219C6.82839 13.1415 6.82839 13.1611 6.82839 13.1812C6.90667 13.2524 6.90667 13.2524 7.00651 13.2703C7.00651 13.2899 7.00651 13.3095 7.00651 13.3297C7.07101 13.3904 7.07101 13.3904 7.15124 13.4521C7.1781 13.4737 7.20497 13.4952 7.23265 13.5173C7.29705 13.5729 7.29705 13.5729 7.36276 13.5672C7.36276 13.5868 7.36276 13.6064 7.36276 13.6266C7.41428 13.6695 7.46785 13.7099 7.52233 13.749C7.56676 13.7813 7.56676 13.7813 7.61209 13.8142C7.68232 13.8694 7.68232 13.8694 7.7487 13.8641C7.7487 13.8837 7.7487 13.9032 7.7487 13.9234C7.79954 13.9764 7.79954 13.9764 7.86745 14.0125C7.98403 14.0086 8.07381 13.9319 8.16432 13.8641C8.16432 13.8445 8.16432 13.8249 8.16432 13.8047C8.20351 13.7949 8.2427 13.7851 8.28307 13.775C8.28307 13.7554 8.28307 13.7358 8.28307 13.7156C8.29915 13.7083 8.31522 13.7009 8.33178 13.6934C8.41751 13.6479 8.49379 13.5942 8.57253 13.5375C8.60177 13.5167 8.631 13.4959 8.66113 13.4744C8.68332 13.456 8.70552 13.4377 8.72839 13.4187C8.72839 13.3992 8.72839 13.3796 8.72839 13.3594C8.74578 13.3514 8.76316 13.3435 8.78108 13.3353C8.84785 13.2996 8.89757 13.261 8.95406 13.2108C8.9735 13.1937 8.99294 13.1766 9.01297 13.159C9.03295 13.1413 9.05292 13.1235 9.0735 13.1052C9.11343 13.0698 9.15339 13.0345 9.19341 12.9993C9.2198 12.9758 9.2198 12.9758 9.24672 12.9519C9.29245 12.9141 9.29245 12.9141 9.35182 12.8844C9.35182 12.8648 9.35182 12.8452 9.35182 12.825C9.3753 12.8157 9.3753 12.8157 9.39925 12.8062C9.50035 12.7487 9.57781 12.6712 9.66169 12.5912C9.695 12.5597 9.72836 12.5282 9.76177 12.4968C9.77768 12.4818 9.7936 12.4668 9.80999 12.4514C9.85252 12.413 9.89763 12.3775 9.94291 12.3423C9.96338 12.3253 9.98386 12.3082 10.0049 12.2906C10.0049 12.271 10.0049 12.2514 10.0049 12.2312C10.0245 12.2312 10.0441 12.2312 10.0643 12.2312C10.1138 12.1917 10.1138 12.1917 10.1534 12.1422C10.1534 12.1226 10.1534 12.103 10.1534 12.0828C10.173 12.0828 10.1926 12.0828 10.2128 12.0828C10.2622 12.0432 10.2622 12.0432 10.3018 11.9937C10.3018 11.9742 10.3018 11.9546 10.3018 11.9344C10.3214 11.9344 10.341 11.9344 10.3612 11.9344C10.4107 11.8948 10.4107 11.8948 10.4503 11.8453C10.4503 11.8257 10.4503 11.8061 10.4503 11.7859C10.4699 11.7859 10.4894 11.7859 10.5096 11.7859C10.5591 11.7464 10.5591 11.7464 10.5987 11.6969C10.5987 11.6773 10.5987 11.6577 10.5987 11.6375C10.6183 11.6375 10.6379 11.6375 10.6581 11.6375C10.7027 11.5945 10.7027 11.5945 10.749 11.5373C10.8566 11.4101 10.9687 11.2877 11.0819 11.1655C11.1393 11.1089 11.1393 11.1089 11.1331 11.0437C11.1527 11.0437 11.1723 11.0437 11.1924 11.0437C11.2458 10.9817 11.2955 10.9197 11.3446 10.8545C11.3585 10.8366 11.3724 10.8187 11.3867 10.8002C11.4637 10.7095 11.4637 10.7095 11.4893 10.5984C11.5089 10.5984 11.5285 10.5984 11.5487 10.5984C11.6052 10.5259 11.6581 10.4533 11.7101 10.3776C11.7259 10.355 11.7416 10.3324 11.7578 10.3091C12.0374 9.90457 12.3091 9.51026 12.4717 9.04286C12.4957 8.97422 12.5218 8.90696 12.5488 8.83945C12.6891 8.43848 12.6624 7.89534 12.488 7.51105C12.4053 7.35398 12.3127 7.20427 12.2018 7.06562C12.1822 7.06562 12.1626 7.06562 12.1424 7.06562C12.1345 7.04664 12.1265 7.02766 12.1183 7.00811C12.0864 6.93704 12.0864 6.93704 11.994 6.91719C11.994 6.89759 11.994 6.878 11.994 6.85781C11.4368 6.4173 10.815 6.32573 10.1261 6.39441C9.76886 6.45855 9.42882 6.63511 9.14401 6.85781C9.14401 6.87741 9.14401 6.897 9.14401 6.91719C9.12503 6.92515 9.10605 6.93311 9.08649 6.94131C9.01543 6.9732 9.01543 6.9732 8.99557 7.06562C8.97598 7.06562 8.95639 7.06562 8.9362 7.06562C8.80258 7.22296 8.69299 7.39278 8.605 7.57901C8.52285 7.74521 8.39357 7.85695 8.2237 7.92656C7.98111 7.97404 7.72919 7.9835 7.50772 7.86255C7.3468 7.75324 7.25367 7.61635 7.15495 7.45156C7.11805 7.39144 7.08094 7.33145 7.04362 7.27158C7.02663 7.24368 7.00964 7.21579 6.99213 7.18704C6.97728 7.16657 6.96244 7.14609 6.94714 7.125C6.92754 7.125 6.90795 7.125 6.88776 7.125C6.87858 7.10112 6.87858 7.10112 6.86921 7.07676C6.81258 6.97894 6.73789 6.89956 6.65026 6.82812C6.63067 6.82812 6.61107 6.82812 6.59089 6.82812C6.59089 6.80853 6.59089 6.78894 6.59089 6.76875C6.5615 6.76875 6.53211 6.76875 6.50182 6.76875C6.50182 6.74916 6.50182 6.72956 6.50182 6.70937C6.09624 6.49364 5.73531 6.37758 5.27536 6.37725C5.24905 6.37688 5.22274 6.37652 5.19563 6.37614C4.76706 6.37521 4.4131 6.51313 4.03776 6.70937ZM18.169 7.18437C18.1188 7.18769 18.0686 7.19019 18.0184 7.19168C17.9914 7.19261 17.9645 7.19355 17.9367 7.19451C17.9087 7.19545 17.8806 7.19639 17.8517 7.19736C17.6517 7.20535 17.4583 7.21698 17.2616 7.25581C17.1426 7.27638 17.0236 7.28973 16.9037 7.30339C16.6254 7.33532 16.3617 7.3768 16.0931 7.4562C16.0107 7.47883 15.9346 7.49205 15.8497 7.4998C15.7402 7.50493 15.7402 7.50493 15.6656 7.53877C15.5738 7.57525 15.4847 7.59265 15.3877 7.61113C15.2329 7.64314 15.0947 7.68483 14.95 7.74716C14.7336 7.83498 14.5044 7.89243 14.28 7.95625C14.2795 7.97339 14.2791 7.99053 14.2786 8.0082C14.2656 8.47344 14.246 8.92979 14.0712 9.36687C14.0419 9.44198 14.0196 9.517 13.9979 9.59463C13.9653 9.70549 13.9251 9.80416 13.8711 9.90612C13.8329 9.97827 13.797 10.0514 13.7612 10.1247C13.6759 10.2983 13.5851 10.4657 13.4804 10.6285C13.4417 10.6894 13.4417 10.6894 13.4487 10.7766C13.4291 10.7766 13.4095 10.7766 13.3893 10.7766C13.3722 10.8072 13.355 10.8378 13.3374 10.8693C13.2957 10.9428 13.2518 11.0132 13.2038 11.0827C13.1464 11.1549 13.1464 11.1549 13.1518 11.2219C13.1322 11.2219 13.1126 11.2219 13.0925 11.2219C13.0237 11.3175 13.0237 11.3175 13.0034 11.4297C12.9838 11.4297 12.9642 11.4297 12.944 11.4297C12.9011 11.4812 12.8606 11.5348 12.8216 11.5893C12.8 11.6189 12.7785 11.6485 12.7564 11.679C12.7011 11.7492 12.7011 11.7492 12.7065 11.8156C12.6869 11.8156 12.6673 11.8156 12.6471 11.8156C12.6007 11.8659 12.5565 11.9182 12.5135 11.9715C12.49 12.0004 12.4664 12.0293 12.4421 12.0592C12.3922 12.1258 12.3538 12.1851 12.3206 12.2609C12.301 12.2609 12.2814 12.2609 12.2612 12.2609C12.1532 12.3642 12.1532 12.3642 12.1128 12.4984C12.0932 12.4984 12.0736 12.4984 12.0534 12.4984C12.0038 12.5475 12.0038 12.5475 11.9532 12.6098C11.8949 12.6786 11.8379 12.7434 11.7732 12.8064C11.72 12.8507 11.72 12.8507 11.7268 12.9141C11.7072 12.9141 11.6876 12.9141 11.6674 12.9141C11.618 12.9536 11.618 12.9536 11.5784 13.0031C11.5784 13.0227 11.5784 13.0423 11.5784 13.0625C11.5588 13.0625 11.5392 13.0625 11.519 13.0625C11.4695 13.1021 11.4695 13.1021 11.4299 13.1516C11.4299 13.1712 11.4299 13.1908 11.4299 13.2109C11.4123 13.2189 11.3946 13.2269 11.3764 13.2351C11.3107 13.2706 11.269 13.306 11.2173 13.3595C11.2005 13.3766 11.1837 13.3937 11.1665 13.4113C11.1493 13.429 11.1322 13.4468 11.1145 13.4651C11.0802 13.5005 11.0458 13.5358 11.0113 13.571C10.9962 13.5866 10.9811 13.6023 10.9655 13.6184C10.9253 13.6562 10.9253 13.6562 10.8659 13.6859C10.8659 13.7055 10.8659 13.7251 10.8659 13.7453C10.8486 13.7533 10.8313 13.7612 10.8135 13.7694C10.7463 13.8051 10.6935 13.8444 10.6358 13.8937C10.6085 13.9167 10.6085 13.9167 10.5806 13.9401C10.5324 13.98 10.5324 13.98 10.5393 14.0422C10.5229 14.0495 10.5066 14.0569 10.4897 14.0645C10.4072 14.1088 10.338 14.162 10.2647 14.2203C10.2382 14.2411 10.2118 14.2619 10.1845 14.2834C10.1644 14.3018 10.1444 14.3201 10.1237 14.3391C10.1237 14.3587 10.1237 14.3783 10.1237 14.3984C10.1075 14.4055 10.0913 14.4125 10.0746 14.4198C9.98704 14.4676 9.91627 14.5273 9.83981 14.5914C9.75768 14.6601 9.67842 14.725 9.58932 14.7844C9.58932 14.804 9.58932 14.8236 9.58932 14.8438C9.57318 14.8511 9.55703 14.8584 9.54039 14.8659C9.45521 14.9113 9.38106 14.9662 9.30358 15.0237C9.14979 15.1377 9.14979 15.1377 9.08464 15.1703C9.08464 15.1899 9.08464 15.2095 9.08464 15.2297C9.06795 15.2376 9.05127 15.2456 9.03408 15.2538C8.96127 15.2914 8.89347 15.3333 8.82487 15.3781C8.80114 15.3934 8.77742 15.4087 8.75297 15.4245C8.72611 15.4456 8.72611 15.4456 8.6987 15.4672C8.6987 15.4868 8.6987 15.5064 8.6987 15.5266C8.6638 15.5403 8.6638 15.5403 8.62819 15.5544C8.55254 15.5838 8.55254 15.5838 8.49089 15.6156C8.49089 15.6352 8.49089 15.6548 8.49089 15.675C8.4615 15.675 8.43211 15.675 8.40182 15.675C8.40182 15.6946 8.40182 15.7142 8.40182 15.7344C7.81445 15.9033 7.81445 15.9033 7.52836 15.757C7.18213 15.5456 6.86343 15.2787 6.54833 15.0241C6.50306 14.9866 6.50306 14.9866 6.44245 14.9922C6.44245 14.9726 6.44245 14.953 6.44245 14.9328C6.40326 14.9328 6.36407 14.9328 6.3237 14.9328C6.11683 15.3419 5.92777 15.7531 5.75964 16.1797C5.73865 16.2323 5.71762 16.2848 5.69655 16.3374C5.68729 16.3607 5.67803 16.384 5.66849 16.408C5.64989 16.4542 5.63086 16.5002 5.61143 16.546C5.53765 16.7225 5.48387 16.901 5.43307 17.0853C5.40633 17.1788 5.37623 17.2699 5.34401 17.3616C5.28534 17.533 5.24412 17.7069 5.20468 17.8834C5.16855 18.0447 5.16855 18.0447 5.1362 18.1094C5.13314 18.1449 5.13008 18.1804 5.12692 18.217C5.11355 18.351 5.08287 18.4785 5.04899 18.6085C4.96759 18.9239 4.92239 19.2386 4.8897 19.5625C4.87997 19.6566 4.86935 19.7412 4.83932 19.8312C4.83528 19.8785 4.83267 19.926 4.83098 19.9734C4.82986 20.0014 4.82876 20.0294 4.82761 20.0582C4.82658 20.0874 4.82555 20.1166 4.82448 20.1467C4.8224 20.204 4.82024 20.2613 4.81799 20.3185C4.81664 20.3566 4.81664 20.3566 4.81526 20.3955C4.81068 20.4678 4.80333 20.5384 4.79452 20.6102C4.77803 20.7542 4.77566 20.8963 4.77601 21.041C4.77598 21.0677 4.77595 21.0943 4.77592 21.1218C4.7759 21.1778 4.77595 21.2338 4.77608 21.2898C4.77624 21.3748 4.77608 21.4598 4.77589 21.5448C4.77591 21.5995 4.77595 21.6542 4.77601 21.709C4.77595 21.734 4.77589 21.7591 4.77583 21.7849C4.77638 21.9271 4.7854 22.0653 4.8027 22.2064C4.8112 22.279 4.81479 22.3511 4.81694 22.4242C4.81792 22.4514 4.81889 22.4787 4.8199 22.5068C4.82171 22.5624 4.82341 22.6179 4.825 22.6735C4.83109 22.8376 4.85027 22.9911 4.88527 23.1515C4.90052 23.2243 4.90759 23.2954 4.91169 23.3696C4.93409 23.6482 5.00103 23.9203 5.06569 24.1916C5.09078 24.2974 5.11103 24.3987 5.1195 24.507C5.1327 24.6563 5.18009 24.7932 5.22596 24.9353C5.24894 25.0076 5.26911 25.0789 5.28649 25.1527C5.31278 25.2579 5.34463 25.3586 5.38019 25.4609C5.42161 25.5865 5.45608 25.7141 5.49036 25.8419C5.53786 26.0164 5.58571 26.1784 5.67255 26.3372C5.71377 26.419 5.73872 26.5048 5.76636 26.5919C5.79717 26.6824 5.83615 26.7681 5.87595 26.855C5.91023 26.9314 5.94162 27.0086 5.97302 27.0861C6.12233 27.4454 6.28717 27.7969 6.48872 28.1298C6.54195 28.221 6.58257 28.3126 6.62057 28.4109C6.64017 28.4109 6.65976 28.4109 6.67995 28.4109C6.6873 28.4305 6.69464 28.4501 6.70222 28.4703C6.74877 28.582 6.80301 28.6891 6.85807 28.7969C6.87767 28.7969 6.89726 28.7969 6.91745 28.7969C6.92066 28.8136 6.92388 28.8304 6.92719 28.8477C7.00597 29.1161 7.24509 29.3701 7.40895 29.5927C7.42512 29.6147 7.4413 29.6368 7.45797 29.6595C7.47251 29.6792 7.48704 29.6989 7.50202 29.7192C7.54053 29.776 7.57106 29.8333 7.60026 29.8953C7.61986 29.8953 7.63945 29.8953 7.65964 29.8953C7.67066 29.9194 7.67066 29.9194 7.6819 29.944C7.72732 30.0297 7.7811 30.106 7.83776 30.1848C7.85858 30.214 7.8794 30.2432 7.90085 30.2734C7.91922 30.2956 7.93759 30.3178 7.95651 30.3406C7.97611 30.3406 7.9957 30.3406 8.01589 30.3406C8.02389 30.3577 8.03188 30.3748 8.04012 30.3925C8.07587 30.4605 8.11609 30.5187 8.16247 30.58C8.18491 30.6099 8.18491 30.6099 8.20781 30.6404C8.25031 30.6931 8.2915 30.7414 8.34245 30.7859C8.36204 30.7859 8.38164 30.7859 8.40182 30.7859C8.40967 30.8035 8.41751 30.8211 8.4256 30.8393C8.4625 30.9071 8.49991 30.9485 8.55583 31.0012C8.63398 31.0769 8.70734 31.1545 8.77848 31.2368C8.88202 31.3576 8.88202 31.3576 8.99557 31.4688C9.01517 31.4688 9.03476 31.4688 9.05495 31.4688C9.06291 31.4877 9.07087 31.5067 9.07907 31.5263C9.11096 31.5973 9.11096 31.5973 9.20339 31.6172C9.20339 31.6368 9.20339 31.6564 9.20339 31.6766C9.25342 31.7272 9.25342 31.7272 9.31657 31.7786C9.43649 31.8797 9.43649 31.8797 9.48948 31.9355C9.52793 31.9802 9.52793 31.9802 9.58932 31.9734C9.58932 31.993 9.58932 32.0126 9.58932 32.0328C9.63784 32.0767 9.68833 32.1184 9.73962 32.159C9.8362 32.2362 9.93238 32.3131 10.0254 32.3946C10.2039 32.5707 10.2039 32.5707 10.4206 32.6562C10.4206 32.6758 10.4206 32.6954 10.4206 32.7156C10.4733 32.7597 10.4733 32.7597 10.5419 32.8038C10.5796 32.8292 10.5796 32.8292 10.6182 32.8551C10.6581 32.8816 10.6581 32.8816 10.6989 32.9086C10.7511 32.9435 10.8033 32.9784 10.8555 33.0134C10.8788 33.0289 10.9021 33.0444 10.9261 33.0603C10.9846 33.1016 10.9846 33.1016 11.044 33.1609C11.0734 33.1609 11.1028 33.1609 11.1331 33.1609C11.1331 33.1805 11.1331 33.2001 11.1331 33.2203C11.1853 33.2597 11.1853 33.2597 11.2536 33.2978C11.2791 33.3129 11.3047 33.3279 11.3311 33.3435C11.3582 33.3592 11.3853 33.3749 11.4133 33.391C11.5911 33.4949 11.7662 33.6003 11.9361 33.7168C12.008 33.7638 12.0823 33.8011 12.1597 33.8381C12.2574 33.8862 12.3528 33.9385 12.4486 33.9903C12.6074 34.0759 12.7674 34.155 12.9331 34.2266C13.0034 34.2594 13.0034 34.2594 13.0773 34.3045C13.1514 34.3482 13.2208 34.3764 13.3021 34.4041C13.4533 34.4573 13.6007 34.5171 13.7484 34.5793C13.9575 34.6673 14.1683 34.7491 14.3819 34.8254C14.4443 34.8481 14.506 34.8726 14.5675 34.8977C14.7062 34.9504 14.8506 34.9821 14.9945 35.0169C15.1253 35.0487 15.2517 35.0862 15.3786 35.1307C15.4621 35.1579 15.5467 35.1757 15.6326 35.1936C15.7149 35.2115 15.796 35.2327 15.8775 35.2539C16.0327 35.2934 16.1879 35.3214 16.3462 35.3451C16.4174 35.3578 16.4174 35.3578 16.4768 35.3875C16.5311 35.3935 16.5856 35.3983 16.6401 35.4023C16.7968 35.4139 16.7968 35.4139 16.8628 35.4469C16.9021 35.453 16.9417 35.4577 16.9813 35.4617C17.0047 35.4642 17.028 35.4666 17.0521 35.4691C17.0888 35.4728 17.0888 35.4728 17.1262 35.4766C17.1744 35.4814 17.2226 35.4864 17.2707 35.4914C17.2921 35.4935 17.3135 35.4957 17.3355 35.4979C17.3971 35.5062 17.3971 35.5062 17.4556 35.5215C17.5236 35.5378 17.5867 35.5417 17.6566 35.5443C17.6834 35.5454 17.7102 35.5465 17.7378 35.5476C17.7795 35.5492 17.7795 35.5492 17.822 35.5508C17.877 35.5528 17.9319 35.555 17.9868 35.5573C18.0111 35.5582 18.0354 35.5591 18.0604 35.56C18.1393 35.5656 18.1393 35.5656 18.2341 35.5807C18.3721 35.5985 18.5069 35.5996 18.6459 35.5993C18.6882 35.5993 18.6882 35.5993 18.7313 35.5993C18.7907 35.5994 18.8501 35.5993 18.9095 35.5992C19 35.599 19.0905 35.5992 19.1809 35.5994C19.2388 35.5994 19.2968 35.5993 19.3547 35.5993C19.3815 35.5993 19.4084 35.5994 19.436 35.5994C19.5808 35.5989 19.7178 35.5884 19.8612 35.5656C19.9114 35.5623 19.9616 35.5598 20.0118 35.5583C20.0388 35.5574 20.0658 35.5565 20.0935 35.5555C20.1356 35.5541 20.1356 35.5541 20.1785 35.5526C20.3791 35.5446 20.5734 35.533 20.7707 35.4942C20.8849 35.474 20.9993 35.4604 21.1144 35.4466C21.3919 35.4131 21.6584 35.3686 21.9282 35.2957C22.014 35.2726 22.0988 35.2536 22.1861 35.2372C22.3172 35.2124 22.4445 35.1778 22.5729 35.1417C22.6447 35.1222 22.7163 35.1058 22.7891 35.0906C22.9015 35.0665 23.0085 35.0333 23.1169 34.9951C23.2084 34.9645 23.3012 34.939 23.394 34.9125C23.6971 34.8175 23.9909 34.7062 24.2846 34.5859C24.3366 34.5655 24.3885 34.5451 24.4405 34.5247C24.5708 34.4726 24.6983 34.4154 24.8257 34.3567C24.8793 34.332 24.9329 34.3077 24.9867 34.2836C25.291 34.1475 25.5893 34.0038 25.8727 33.828C25.9574 33.7784 26.0443 33.736 26.1327 33.6935C26.2669 33.6279 26.3731 33.5602 26.4815 33.4578C26.44 33.3526 26.44 33.3526 26.3925 33.25C26.3729 33.25 26.3533 33.25 26.3331 33.25C26.3304 33.2338 26.3278 33.2175 26.3251 33.2008C26.2967 33.1099 26.2488 33.0457 26.1939 32.968C26.0905 32.8165 26.0057 32.6633 25.9265 32.4982C25.895 32.4336 25.8618 32.3726 25.8247 32.3111C25.7535 32.1831 25.7027 32.0506 25.6503 31.9141C25.6293 31.8615 25.6083 31.8089 25.5872 31.7563C25.5686 31.71 25.5501 31.6636 25.5315 31.6172C25.516 31.5797 25.516 31.5797 25.5001 31.5415C25.4675 31.4568 25.4479 31.3714 25.4298 31.2826C25.4177 31.2249 25.404 31.1674 25.3892 31.1103C25.2717 30.6178 25.279 30.0867 25.4128 29.5984C25.4207 29.5671 25.4286 29.5358 25.4368 29.5035C25.4905 29.3091 25.5656 29.1278 25.6503 28.9453C25.6601 28.924 25.67 28.9027 25.6801 28.8807C25.738 28.76 25.8039 28.6642 25.8878 28.5594C25.8878 28.53 25.8878 28.5006 25.8878 28.4703C25.9074 28.4703 25.927 28.4703 25.9471 28.4703C25.9732 28.4308 25.999 28.3911 26.0244 28.3511C26.1339 28.1956 26.266 28.0478 26.4158 27.9306C26.4375 27.9128 26.4592 27.8949 26.4815 27.8766C26.4815 27.857 26.4815 27.8374 26.4815 27.8172C26.5011 27.8172 26.5207 27.8172 26.5409 27.8172C26.5409 27.7976 26.5409 27.778 26.5409 27.7578C26.5637 27.7475 26.5637 27.7475 26.5869 27.7371C26.6873 27.6837 26.7792 27.6195 26.873 27.5556C27.1652 27.3589 27.4518 27.1964 27.7929 27.0994C27.8511 27.0825 27.9089 27.0643 27.9664 27.0451C28.4214 26.8995 28.8885 26.8785 29.3612 26.9266C29.4274 26.9303 29.4936 26.934 29.5597 26.9377C29.8749 26.9625 30.1654 27.0553 30.4522 27.1845C30.5497 27.2308 30.5497 27.2308 30.6674 27.2234C30.6674 27.243 30.6674 27.2626 30.6674 27.2828C30.6933 27.2947 30.7192 27.3066 30.7458 27.3189C30.975 27.4283 31.172 27.5479 31.3702 27.7067C31.433 27.7637 31.433 27.7637 31.4987 27.7578C31.4987 27.7774 31.4987 27.797 31.4987 27.8172C31.5183 27.8172 31.5379 27.8172 31.5581 27.8172C31.5581 27.8368 31.5581 27.8564 31.5581 27.8766C31.5973 27.8766 31.6365 27.8766 31.6768 27.8766C31.752 27.7317 31.8241 27.5874 31.8828 27.435C31.9264 27.322 31.9773 27.2158 32.0331 27.1084C32.1085 26.9607 32.1636 26.8135 32.2133 26.6555C32.2472 26.5507 32.2881 26.4497 32.3298 26.3478C32.3728 26.2407 32.4117 26.1322 32.4506 26.0235C32.4742 25.9585 32.4992 25.8943 32.5248 25.83C32.5734 25.7021 32.6035 25.5703 32.6344 25.4372C32.6565 25.3531 32.6565 25.3531 32.685 25.2842C32.7277 25.1743 32.7515 25.0617 32.7771 24.9468C32.8309 24.7075 32.8309 24.7075 32.8643 24.6406C32.8735 24.5637 32.8795 24.4867 32.8857 24.4095C32.894 24.3437 32.894 24.3437 32.9237 24.3141C33.0163 23.9431 33.0725 23.5674 33.1108 23.1875C33.1206 23.0934 33.1312 23.0088 33.1612 22.9187C33.1653 22.8689 33.1679 22.819 33.1696 22.769C33.1712 22.7249 33.1712 22.7249 33.1729 22.6798C33.1745 22.6337 33.1745 22.6337 33.176 22.5866C33.1781 22.5262 33.1803 22.4658 33.1825 22.4054C33.1839 22.3652 33.1839 22.3652 33.1853 22.3242C33.1895 22.2574 33.197 22.1908 33.206 22.1245C33.2239 21.9868 33.2248 21.8506 33.2245 21.7119C33.2245 21.6852 33.2246 21.6585 33.2246 21.631C33.2246 21.5748 33.2246 21.5186 33.2244 21.4625C33.2243 21.3772 33.2244 21.2919 33.2246 21.2067C33.2246 21.1518 33.2246 21.0969 33.2245 21.0421C33.2246 21.0169 33.2246 20.9918 33.2247 20.9658C33.2241 20.8234 33.2152 20.6849 33.1978 20.5435C33.1893 20.471 33.1857 20.3989 33.1836 20.3258C33.1826 20.2986 33.1816 20.2713 33.1806 20.2432C33.1788 20.1876 33.1771 20.1321 33.1755 20.0765C33.1695 19.9136 33.1516 19.7608 33.1153 19.6019C33.1011 19.5308 33.095 19.4619 33.0907 19.3896C33.0668 19.0856 32.9968 18.7799 32.9206 18.4849C32.9007 18.4039 32.8873 18.3346 32.8829 18.2522C32.8683 18.0994 32.8213 17.9596 32.7745 17.814C32.7469 17.7277 32.7239 17.6417 32.7027 17.5537C32.6416 17.3027 32.5797 17.0564 32.4782 16.8183C32.4442 16.7322 32.4187 16.6452 32.393 16.5563C32.3415 16.3838 32.2721 16.2262 32.1943 16.0641C32.1563 15.9815 32.1252 15.9002 32.0962 15.8142C32.0411 15.657 31.9686 15.5106 31.8929 15.3626C31.8234 15.2266 31.7571 15.0894 31.6926 14.9509C31.5893 14.7291 31.4826 14.5156 31.3503 14.3094C31.3184 14.2583 31.2865 14.2072 31.2548 14.1561C31.2238 14.106 31.1926 14.056 31.1614 14.0061C31.1128 13.9234 31.1128 13.9234 31.0831 13.8344C31.0635 13.8344 31.0439 13.8344 31.0237 13.8344C31.0156 13.8128 31.0076 13.7911 30.9992 13.7689C30.865 13.4501 30.6208 13.1662 30.4175 12.8891C30.3742 12.83 30.3313 12.7708 30.2884 12.7115C30.2644 12.6788 30.2405 12.6461 30.2166 12.6135C30.1856 12.5711 30.1856 12.5711 30.1541 12.5279C30.1373 12.5084 30.1206 12.4889 30.1034 12.4688C30.0838 12.4688 30.0642 12.4688 30.044 12.4688C30.0361 12.4522 30.0281 12.4357 30.0199 12.4187C29.9339 12.25 29.9339 12.25 29.8065 12.1125C29.7869 12.1125 29.7673 12.1125 29.7471 12.1125C29.7392 12.0954 29.7312 12.0782 29.723 12.0605C29.6869 11.9921 29.6491 11.9338 29.5987 11.875C29.5791 11.875 29.5595 11.875 29.5393 11.875C29.532 11.8585 29.5246 11.8419 29.5171 11.8249C29.4731 11.7437 29.4225 11.6768 29.3612 11.6078C29.3416 11.6078 29.322 11.6078 29.3018 11.6078C29.292 11.5784 29.2822 11.549 29.2721 11.5188C29.2525 11.5188 29.233 11.5188 29.2128 11.5188C29.2128 11.4992 29.2128 11.4796 29.2128 11.4594C29.1932 11.4594 29.1736 11.4594 29.1534 11.4594C29.1436 11.43 29.1338 11.4006 29.1237 11.3703C29.1041 11.3703 29.0845 11.3703 29.0643 11.3703C29.0643 11.3507 29.0643 11.3311 29.0643 11.3109C29.0447 11.3109 29.0251 11.3109 29.005 11.3109C28.9952 11.2815 28.9854 11.2522 28.9753 11.2219C28.9557 11.2219 28.9361 11.2219 28.9159 11.2219C28.9159 11.2023 28.9159 11.1827 28.9159 11.1625C28.8963 11.1625 28.8767 11.1625 28.8565 11.1625C28.8467 11.1331 28.8369 11.1037 28.8268 11.0734C28.8072 11.0734 28.7876 11.0734 28.7675 11.0734C28.7675 11.0538 28.7675 11.0342 28.7675 11.0141C28.7234 10.9671 28.7234 10.9671 28.6673 10.9213C28.6487 10.9053 28.6301 10.8893 28.6109 10.8728C28.5621 10.8302 28.5621 10.8302 28.5003 10.8359C28.5003 10.8163 28.5003 10.7968 28.5003 10.7766C28.397 10.6686 28.397 10.6686 28.2628 10.6281C28.2628 10.6085 28.2628 10.5889 28.2628 10.5687C28.213 10.5236 28.1613 10.4807 28.1088 10.4389C28.0802 10.416 28.0516 10.3931 28.0221 10.3695C27.9938 10.3471 27.9654 10.3247 27.9362 10.3016C27.9094 10.2791 27.8825 10.2567 27.8549 10.2336C27.7939 10.1768 27.7939 10.1768 27.7284 10.1828C27.7284 10.1632 27.7284 10.1436 27.7284 10.1234C27.6892 10.1136 27.65 10.1038 27.6096 10.0938C27.6096 10.0742 27.6096 10.0546 27.6096 10.0344C27.5594 9.99177 27.5594 9.99177 27.4936 9.94937C27.469 9.93282 27.4445 9.91627 27.4193 9.89922C27.3803 9.87335 27.3803 9.87335 27.3406 9.84697C27.2901 9.81309 27.2397 9.77919 27.1893 9.74527C27.1649 9.72898 27.1405 9.71269 27.1154 9.69591C27.0515 9.65248 26.9891 9.60756 26.9269 9.56181C26.8477 9.49436 26.8477 9.49436 26.7784 9.5C26.7784 9.48041 26.7784 9.46081 26.7784 9.44063C26.7353 9.41646 26.7353 9.41646 26.6914 9.3918C26.6059 9.34299 26.522 9.29215 26.4386 9.23989C26.4044 9.21856 26.4044 9.21856 26.3696 9.19681C26.3227 9.16742 26.2758 9.13788 26.2291 9.10821C26.2064 9.0941 26.1837 9.08 26.1603 9.06547C26.14 9.0527 26.1197 9.03993 26.0988 9.02678C26.0289 8.99162 25.9648 8.97775 25.8878 8.96562C25.8121 9.12454 25.7511 9.28048 25.7069 9.45095C25.6762 9.54061 25.6359 9.62147 25.5927 9.70566C25.5636 9.76257 25.5356 9.81988 25.5081 9.87759C25.3923 10.1171 25.2656 10.3442 25.1203 10.5672C25.0507 10.6639 25.0507 10.6639 25.0268 10.7766C25.0072 10.7766 24.9876 10.7766 24.9675 10.7766C24.8987 10.8722 24.8987 10.8722 24.8784 10.9844C24.8588 10.9844 24.8392 10.9844 24.819 10.9844C24.7743 11.0343 24.7743 11.0343 24.7281 11.0994C24.3064 11.6559 23.7918 12.0833 23.2159 12.4688C23.1905 12.4864 23.1651 12.504 23.139 12.5221C22.8838 12.6935 22.6045 12.8171 22.3253 12.9437C22.3025 12.9542 22.2798 12.9646 22.2564 12.9754C22.1161 13.0392 21.9765 13.0929 21.8299 13.1404C21.7746 13.1585 21.7746 13.1585 21.7182 13.1768C21.6834 13.1881 21.6486 13.1993 21.6128 13.2109C21.583 13.2213 21.5532 13.2316 21.5225 13.2422C21.358 13.2948 21.1881 13.325 21.019 13.3594C20.992 13.3653 20.965 13.3712 20.9371 13.3772C20.1525 13.538 19.2138 13.5145 18.4362 13.3297C18.4162 13.325 18.3962 13.3202 18.3756 13.3154C17.7291 13.1616 17.7291 13.1616 17.4876 13.0336C17.4216 13.0005 17.3548 12.9739 17.2858 12.9475C17.1349 12.889 16.993 12.8164 16.8499 12.741C16.7742 12.7001 16.7742 12.7001 16.6846 12.7062C16.6846 12.6867 16.6846 12.6671 16.6846 12.6469C16.6645 12.6364 16.6444 12.626 16.6236 12.6152C16.4016 12.4974 16.1944 12.3662 15.9971 12.2103C15.9455 12.1662 15.9455 12.1662 15.8831 12.1719C15.8831 12.1523 15.8831 12.1327 15.8831 12.1125C15.8616 12.0996 15.8402 12.0868 15.8181 12.0735C15.7237 12.0169 15.6614 11.9556 15.5862 11.875C15.5689 11.8575 15.5516 11.84 15.5338 11.822C15.3684 11.6472 15.3028 11.4915 15.2763 11.2534C15.2832 11.0817 15.3539 10.9078 15.4567 10.7715C15.5031 10.7205 15.5031 10.7205 15.4971 10.6578C15.5167 10.6578 15.5363 10.6578 15.5565 10.6578C15.5565 10.6382 15.5565 10.6186 15.5565 10.5984C15.5786 10.5899 15.6006 10.5813 15.6233 10.5725C15.702 10.542 15.702 10.542 15.7616 10.5081C15.9402 10.4264 16.1974 10.4522 16.3878 10.4797C16.5088 10.5284 16.5894 10.5998 16.6846 10.6875C16.7487 10.7375 16.8129 10.7869 16.8776 10.8359C16.9107 10.8614 16.9437 10.8869 16.9768 10.9125C17.2156 11.0955 17.452 11.2405 17.7237 11.3703C17.7633 11.3913 17.8029 11.4123 17.8424 11.4334C17.9675 11.4962 18.0988 11.5373 18.2319 11.5799C18.3026 11.603 18.371 11.6283 18.4399 11.6561C18.5529 11.6997 18.6675 11.7222 18.7865 11.7435C18.8518 11.7562 18.8518 11.7562 18.9409 11.7859C19.6539 11.8963 20.3887 11.89 21.0784 11.6672C21.111 11.6577 21.1437 11.6481 21.1773 11.6383C21.6615 11.4964 22.0939 11.2798 22.5042 10.9877C22.5664 10.9435 22.6284 10.9021 22.6928 10.8613C22.7184 10.8432 22.7441 10.825 22.7706 10.8062C22.7706 10.7867 22.7706 10.7671 22.7706 10.7469C22.7956 10.7359 22.7956 10.7359 22.8211 10.7246C22.9009 10.6812 22.9625 10.6291 23.0303 10.5687C23.0659 10.5375 23.0659 10.5375 23.1022 10.5057C23.1634 10.4559 23.1634 10.4559 23.1565 10.3906C23.1761 10.3906 23.1957 10.3906 23.2159 10.3906C23.261 10.3409 23.304 10.2892 23.3458 10.2366C23.3801 10.1937 23.3801 10.1937 23.4151 10.15C23.4375 10.1216 23.46 10.0933 23.4831 10.0641C23.5167 10.0238 23.5167 10.0238 23.551 9.98277C23.6078 9.92176 23.6078 9.92176 23.6018 9.85625C23.6214 9.85625 23.641 9.85625 23.6612 9.85625C23.7117 9.78417 23.7584 9.71239 23.8041 9.6373C23.8241 9.60463 23.8241 9.60463 23.8446 9.5713C23.9892 9.33363 24.1068 9.09754 24.1985 8.83458C24.2215 8.76871 24.2461 8.70395 24.2717 8.63906C24.3267 8.49393 24.3645 8.34384 24.4034 8.19375C24.3725 8.18227 24.3417 8.17079 24.3099 8.15896C23.9334 8.01847 23.9334 8.01847 23.767 7.95068C23.5455 7.8615 23.3236 7.79534 23.0911 7.7409C23.0106 7.71942 22.9369 7.6903 22.8596 7.65937C22.7904 7.64912 22.7211 7.63925 22.6518 7.62969C22.5542 7.60399 22.4592 7.5758 22.3642 7.54144C22.2488 7.50564 22.1345 7.48557 22.0154 7.46641C21.8915 7.44635 21.7718 7.42491 21.6509 7.39033C21.5645 7.36568 21.4904 7.35325 21.4012 7.34766C21.1858 7.33086 20.9722 7.29947 20.7602 7.25743C20.5296 7.21304 20.3007 7.20244 20.0665 7.19451C20.0396 7.19358 20.0128 7.19264 19.9851 7.19168C19.9612 7.19097 19.9374 7.19026 19.9128 7.18953C19.8486 7.18546 19.7846 7.17799 19.7208 7.16932C19.5843 7.15162 19.4494 7.15041 19.3119 7.15074C19.2857 7.15072 19.2595 7.15069 19.2325 7.15066C19.1775 7.15064 19.1225 7.15069 19.0675 7.15082C18.9837 7.15098 18.8999 7.15082 18.8162 7.15063C18.7625 7.15065 18.7087 7.15069 18.655 7.15074C18.6178 7.15065 18.6178 7.15065 18.5799 7.15056C18.44 7.15112 18.3075 7.16264 18.169 7.18437ZM3.1483 19.1642C2.94011 19.2478 2.7378 19.3464 2.55339 19.475C2.55339 19.4946 2.55339 19.5142 2.55339 19.5344C2.524 19.5344 2.49461 19.5344 2.46432 19.5344C2.41298 19.5733 2.41298 19.5733 2.37526 19.6234C2.37526 19.643 2.37526 19.6626 2.37526 19.6828C2.35567 19.6828 2.33607 19.6828 2.31589 19.6828C2.31589 19.7024 2.31589 19.722 2.31589 19.7422C2.2865 19.752 2.25711 19.7618 2.22682 19.7719C2.22682 19.7915 2.22682 19.8111 2.22682 19.8312C2.20723 19.8312 2.18764 19.8312 2.16745 19.8312C2.1168 19.8977 2.07023 19.9637 2.02458 20.0335C2.01122 20.0539 1.99786 20.0743 1.9841 20.0953C1.63008 20.6454 1.54631 21.2852 1.66647 21.9261C1.71787 22.1304 1.80462 22.3161 1.90026 22.5031C1.92005 22.5427 1.93985 22.5823 1.95964 22.6219C1.97923 22.6219 1.99882 22.6219 2.01901 22.6219C2.03279 22.6568 2.03279 22.6568 2.04684 22.6924C2.07627 22.768 2.07627 22.768 2.10807 22.8297C2.12767 22.8297 2.14726 22.8297 2.16745 22.8297C2.1748 22.8468 2.18214 22.864 2.18972 22.8816C2.23226 22.9582 2.27979 23.0096 2.34557 23.0672C2.36517 23.0672 2.38476 23.0672 2.40495 23.0672C2.40495 23.0868 2.40495 23.1064 2.40495 23.1266C2.63269 23.3194 2.95552 23.5719 3.26589 23.5719C3.26168 23.4816 3.25733 23.3913 3.2529 23.301C3.25173 23.2756 3.25056 23.2502 3.24936 23.224C3.24812 23.1991 3.24687 23.1742 3.24559 23.1486C3.24396 23.1145 3.24396 23.1145 3.2423 23.0798C3.23709 23.0057 3.23709 23.0057 3.22176 22.925C3.20385 22.813 3.1966 22.7016 3.19062 22.5885C3.18934 22.5655 3.18806 22.5425 3.18674 22.5188C3.18266 22.4443 3.17878 22.3698 3.17497 22.2953C3.173 22.2569 3.173 22.2569 3.17099 22.2178C3.14153 21.6345 3.14389 21.0602 3.17311 20.477C3.17427 20.4533 3.17544 20.4297 3.17663 20.4053C3.19076 20.1242 3.21154 19.8452 3.24647 19.5659C3.26242 19.4351 3.26845 19.3095 3.26589 19.1781C3.2082 19.141 3.2082 19.141 3.1483 19.1642ZM34.7346 19.1781C34.7388 19.2684 34.7432 19.3587 34.7476 19.449C34.7488 19.4744 34.75 19.4998 34.7512 19.526C34.7524 19.5509 34.7537 19.5758 34.7549 19.6014C34.756 19.6241 34.7571 19.6468 34.7582 19.6702C34.7634 19.7442 34.7634 19.7442 34.7788 19.8244C34.7971 19.9394 34.804 20.054 34.8099 20.1701C34.8112 20.1939 34.8125 20.2178 34.8138 20.2423C34.8179 20.3193 34.8217 20.3963 34.8256 20.4732C34.8269 20.4996 34.8282 20.526 34.8295 20.5532C34.8334 20.6327 34.8372 20.7122 34.841 20.7917C34.8421 20.8159 34.8433 20.8401 34.8444 20.865C34.8656 21.33 34.85 21.7898 34.8274 22.2545C34.8263 22.279 34.8251 22.3034 34.8239 22.3286C34.81 22.6154 34.7898 22.9001 34.7541 23.1851C34.7381 23.3155 34.7321 23.4408 34.7346 23.5719C35.045 23.5578 35.3045 23.3729 35.5345 23.1781C35.5956 23.1266 35.5956 23.1266 35.6846 23.0672C35.6846 23.0476 35.6846 23.028 35.6846 23.0078C35.7042 23.0078 35.7238 23.0078 35.744 23.0078C36.1862 22.5483 36.3739 21.986 36.3712 21.3602C36.3713 21.3335 36.3714 21.3068 36.3715 21.2793C36.3728 20.9817 36.3728 20.9817 36.2988 20.6959C36.2732 20.6336 36.2482 20.5721 36.2269 20.5081C36.1339 20.2427 35.9573 19.9295 35.744 19.7422C35.7244 19.7422 35.7048 19.7422 35.6846 19.7422C35.6846 19.7226 35.6846 19.703 35.6846 19.6828C35.627 19.6324 35.5694 19.5859 35.5084 19.5399C35.4908 19.5266 35.4733 19.5133 35.4552 19.4995C35.2405 19.3389 35.0105 19.1731 34.7346 19.1781ZM27.669 28.975C27.6346 28.9988 27.6346 28.9988 27.5995 29.023C27.5833 29.0366 27.567 29.0501 27.5503 29.0641C27.5503 29.0837 27.5503 29.1032 27.5503 29.1234C27.5307 29.1234 27.5111 29.1234 27.4909 29.1234C27.4909 29.143 27.4909 29.1626 27.4909 29.1828C27.4615 29.1926 27.4321 29.2024 27.4018 29.2125C27.4018 29.2321 27.4018 29.2517 27.4018 29.2719C27.3822 29.2719 27.3626 29.2719 27.3425 29.2719C27.3327 29.3111 27.3229 29.3502 27.3128 29.3906C27.2932 29.3906 27.2736 29.3906 27.2534 29.3906C27.2534 29.42 27.2534 29.4494 27.2534 29.4797C27.2338 29.4797 27.2142 29.4797 27.194 29.4797C27.1708 29.5228 27.148 29.5661 27.1254 29.6096C27.1126 29.6337 27.0999 29.6578 27.0867 29.6826C26.9845 29.916 26.9399 30.1325 26.9417 30.387C26.9418 30.4153 26.942 30.4437 26.9422 30.4729C26.953 30.9073 27.107 31.2706 27.3128 31.6469C27.3278 31.6755 27.3428 31.7042 27.3583 31.7337C27.5726 32.1377 27.8395 32.4999 28.1143 32.8641C28.1369 32.8941 28.1594 32.9242 28.1826 32.9552C28.1993 32.9741 28.2159 32.993 28.2331 33.0125C28.2527 33.0125 28.2723 33.0125 28.2924 33.0125C28.3004 33.0295 28.3084 33.0465 28.3166 33.064C28.3531 33.1336 28.3941 33.1943 28.4409 33.2574C28.4562 33.2784 28.4715 33.2994 28.4873 33.321C28.5014 33.3367 28.5154 33.3525 28.53 33.3688C28.5495 33.3688 28.5691 33.3688 28.5893 33.3688C28.5961 33.3853 28.6028 33.4018 28.6097 33.4188C28.6594 33.5064 28.7252 33.5658 28.7971 33.6359C28.8137 33.6586 28.8302 33.6812 28.8472 33.7046C28.8601 33.7211 28.873 33.7377 28.8862 33.7547C28.9058 33.7547 28.9254 33.7547 28.9456 33.7547C28.9554 33.7841 28.9652 33.8135 28.9753 33.8438C28.9949 33.8438 29.0145 33.8438 29.0346 33.8438C29.0346 33.8633 29.0346 33.8829 29.0346 33.9031C29.0542 33.9031 29.0738 33.9031 29.094 33.9031C29.1011 33.9198 29.1081 33.9365 29.1154 33.9537C29.162 34.0373 29.2191 34.0955 29.287 34.1629C29.3223 34.1985 29.3223 34.1985 29.3584 34.2348C29.4143 34.2956 29.4143 34.2956 29.4799 34.2891C29.4799 34.3087 29.4799 34.3283 29.4799 34.3484C29.4995 34.3484 29.5191 34.3484 29.5393 34.3484C29.5491 34.3778 29.5589 34.4072 29.569 34.4375C29.5886 34.4375 29.6082 34.4375 29.6284 34.4375C29.6284 34.4571 29.6284 34.4767 29.6284 34.4969C29.648 34.4969 29.6676 34.4969 29.6878 34.4969C29.6878 34.5165 29.6878 34.5361 29.6878 34.5563C29.7376 34.609 29.7376 34.609 29.8009 34.662C29.822 34.6804 29.843 34.6988 29.8646 34.7178C29.9256 34.7695 29.9256 34.7695 30.0143 34.7938C30.0143 34.8133 30.0143 34.8329 30.0143 34.8531C30.0339 34.8531 30.0535 34.8531 30.0737 34.8531C30.0737 34.8727 30.0737 34.8923 30.0737 34.9125C30.1644 35.0023 30.1644 35.0023 30.2815 35.0312C30.2815 35.0508 30.2815 35.0704 30.2815 35.0906C30.3848 35.1986 30.3848 35.1986 30.519 35.2391C30.519 35.2587 30.519 35.2783 30.519 35.2984C30.5835 35.3591 30.5835 35.3591 30.6637 35.4209C30.6906 35.4424 30.7175 35.4639 30.7451 35.4861C30.8096 35.5416 30.8096 35.5416 30.8753 35.5359C30.8753 35.5555 30.8753 35.5751 30.8753 35.5953C30.9535 35.6665 30.9535 35.6665 31.0534 35.6844C31.0534 35.704 31.0534 35.7236 31.0534 35.7438C31.1043 35.7909 31.1043 35.7909 31.1684 35.8365C31.1898 35.8525 31.2111 35.8685 31.2331 35.885C31.2878 35.9272 31.2878 35.9272 31.3503 35.9219C31.3503 35.9415 31.3503 35.9611 31.3503 35.9813C31.4032 36.0193 31.458 36.0548 31.5135 36.0889C31.5439 36.1076 31.5742 36.1264 31.6054 36.1457C31.629 36.16 31.6525 36.1743 31.6768 36.1891C31.7265 36.1559 31.7759 36.1225 31.8253 36.0889C31.8528 36.0703 31.8804 36.0517 31.9088 36.0325C31.9302 36.0156 31.9516 35.9987 31.9737 35.9813C31.9737 35.9617 31.9737 35.9421 31.9737 35.9219C31.9896 35.9145 32.0055 35.9072 32.0219 35.8996C32.1097 35.8534 32.1903 35.8021 32.2706 35.7438C32.2706 35.7242 32.2706 35.7046 32.2706 35.6844C32.292 35.677 32.3134 35.6697 32.3355 35.6621C32.4272 35.6214 32.4935 35.5738 32.5675 35.5062C32.5675 35.4867 32.5675 35.4671 32.5675 35.4469C32.6409 35.4175 32.6409 35.4175 32.7159 35.3875C32.7159 35.3679 32.7159 35.3483 32.7159 35.3281C32.732 35.3211 32.748 35.314 32.7646 35.3068C32.8534 35.2586 32.927 35.199 33.0053 35.1352C33.0346 35.1116 33.0638 35.088 33.0939 35.0637C33.1161 35.0432 33.1383 35.0227 33.1612 35.0016C33.1612 34.982 33.1612 34.9624 33.1612 34.9422C33.1873 34.9308 33.1873 34.9308 33.2138 34.9191C33.2857 34.8797 33.3314 34.8363 33.3876 34.7771C33.482 34.6779 33.482 34.6779 33.5471 34.6453C33.5471 34.6257 33.5471 34.6061 33.5471 34.5859C33.5648 34.5779 33.5825 34.5698 33.6008 34.5615C33.665 34.527 33.7066 34.4932 33.7578 34.4418C33.775 34.4248 33.7921 34.4077 33.8098 34.3901C33.828 34.3717 33.8462 34.3533 33.865 34.3343C33.8841 34.3152 33.9032 34.296 33.9229 34.2763C33.9633 34.2358 34.0037 34.1953 34.0439 34.1546C34.1049 34.0931 34.1662 34.0318 34.2275 33.9705C34.2668 33.931 34.3062 33.8914 34.3456 33.8519C34.3726 33.8248 34.3726 33.8248 34.4002 33.7971C34.6357 33.5785 34.6357 33.5785 34.794 33.3094C34.8136 33.3094 34.8332 33.3094 34.8534 33.3094C34.8985 33.2596 34.9415 33.2079 34.9833 33.1554C35.0062 33.1268 35.029 33.0982 35.0526 33.0687C35.075 33.0404 35.0975 33.012 35.1206 32.9828C35.143 32.956 35.1654 32.9292 35.1885 32.9015C35.2453 32.8405 35.2453 32.8405 35.2393 32.775C35.2589 32.775 35.2785 32.775 35.2987 32.775C35.3085 32.7358 35.3183 32.6966 35.3284 32.6562C35.348 32.6562 35.3676 32.6562 35.3878 32.6562C35.4387 32.5923 35.4859 32.5284 35.5325 32.4614C35.5454 32.4433 35.5583 32.4253 35.5716 32.4066C35.74 32.1774 35.74 32.1774 35.8331 31.9141C35.8527 31.9141 35.8723 31.9141 35.8925 31.9141C36.2249 31.2664 36.5238 30.5944 36.3077 29.8562C36.2592 29.7245 36.1986 29.6019 36.13 29.4797C36.1052 29.4338 36.1052 29.4338 36.0799 29.3869C36.067 29.3685 36.0541 29.3502 36.0409 29.3312C36.0213 29.3312 36.0017 29.3312 35.9815 29.3312C35.9754 29.3153 35.9693 29.2994 35.963 29.283C35.9063 29.1852 35.8316 29.1058 35.744 29.0344C35.7244 29.0344 35.7048 29.0344 35.6846 29.0344C35.6846 29.0148 35.6846 28.9952 35.6846 28.975C35.1554 28.5826 34.5413 28.4604 33.896 28.5501C33.5448 28.6189 33.2479 28.7787 32.9534 28.975C32.9534 28.9946 32.9534 29.0142 32.9534 29.0344C32.9338 29.0344 32.9142 29.0344 32.894 29.0344C32.8148 29.1036 32.8148 29.1036 32.7456 29.1828C32.7456 29.2024 32.7456 29.222 32.7456 29.2422C32.7162 29.252 32.6868 29.2618 32.6565 29.2719C32.6565 29.2915 32.6565 29.3111 32.6565 29.3312C32.6369 29.3312 32.6173 29.3312 32.5971 29.3312C32.5814 29.3595 32.5656 29.3878 32.5494 29.4169C32.5282 29.4546 32.507 29.4922 32.4858 29.5298C32.4755 29.5484 32.4651 29.5669 32.4545 29.5861C32.3396 29.7894 32.2218 29.9482 32.0034 30.0437C31.7584 30.1101 31.4954 30.1397 31.2648 30.0131C31.2231 29.985 31.1827 29.9552 31.1425 29.925C31.1229 29.925 31.1033 29.925 31.0831 29.925C31.0831 29.9054 31.0831 29.8858 31.0831 29.8656C31.0635 29.8656 31.0439 29.8656 31.0237 29.8656C31.0115 29.8411 31.0115 29.8411 30.9991 29.816C30.8339 29.4796 30.8339 29.4796 30.6081 29.1828C30.5885 29.1828 30.5689 29.1828 30.5487 29.1828C30.5487 29.1632 30.5487 29.1436 30.5487 29.1234C30.4917 29.0729 30.4349 29.0265 30.3743 28.9806C30.348 28.9605 30.348 28.9605 30.3211 28.9401C29.5254 28.3477 28.4536 28.4024 27.669 28.975Z" fill="#DDF6FE"/>
<path d="M14.8766 25.4741C15.0298 25.5609 15.1521 25.6809 15.2714 25.8092C15.3163 25.8607 15.3163 25.8607 15.3781 25.8875C15.3781 25.9071 15.3781 25.9267 15.3781 25.9469C15.394 25.9542 15.4099 25.9616 15.4263 25.9692C15.5141 26.0154 15.5947 26.0667 15.6749 26.125C15.6749 26.1446 15.6749 26.1642 15.6749 26.1844C15.6962 26.1923 15.7174 26.2003 15.7393 26.2085C15.8246 26.2443 15.9016 26.2857 15.9811 26.3328C16.0204 26.3558 16.0204 26.3558 16.0605 26.3792C16.0901 26.4003 16.0901 26.4003 16.1202 26.4219C16.1202 26.4415 16.1202 26.4611 16.1202 26.4813C16.1465 26.487 16.1465 26.487 16.1732 26.4929C16.2763 26.5212 16.3673 26.5748 16.4617 26.6241C16.6599 26.7258 16.8571 26.8019 17.0702 26.8672C17.1112 26.8823 17.152 26.8977 17.1927 26.9136C17.4141 26.9979 17.6405 27.0554 17.8718 27.1047C17.8916 27.109 17.9113 27.1133 17.9317 27.1178C18.7931 27.2974 19.7345 27.2365 20.5734 26.986C20.6066 26.9765 20.6398 26.967 20.674 26.9572C21.0105 26.8583 21.3219 26.7205 21.632 26.5582C21.7811 26.4813 21.7811 26.4813 21.8796 26.4813C21.8796 26.4617 21.8796 26.4421 21.8796 26.4219C21.9425 26.3771 21.9425 26.3771 22.0244 26.3291C22.0512 26.3131 22.0781 26.2971 22.1058 26.2806C22.1765 26.2438 22.1765 26.2438 22.2359 26.2438C22.2359 26.2242 22.2359 26.2046 22.2359 26.1844C22.2653 26.1844 22.2947 26.1844 22.3249 26.1844C22.3249 26.1648 22.3249 26.1452 22.3249 26.125C22.3748 26.0802 22.3748 26.0802 22.44 26.0322C22.472 26.0082 22.472 26.0082 22.5047 25.9838C22.5624 25.9469 22.5624 25.9469 22.6218 25.9469C22.6218 25.9273 22.6218 25.9077 22.6218 25.8875C22.8342 25.6684 23.0891 25.4383 23.4025 25.4279C23.7942 25.425 23.7942 25.425 23.9629 25.5655C23.9808 25.5836 23.9987 25.6017 24.0171 25.6203C24.0467 25.6498 24.0467 25.6498 24.077 25.6798C24.2407 25.8552 24.296 25.9965 24.2954 26.2382C24.2954 26.2593 24.2953 26.2805 24.2953 26.3022C24.2914 26.4685 24.2641 26.5858 24.1656 26.7188C24.1447 26.7482 24.1239 26.7775 24.1025 26.8078C24.0841 26.8274 24.0657 26.847 24.0468 26.8672C24.0272 26.8672 24.0076 26.8672 23.9874 26.8672C23.9776 26.8966 23.9678 26.926 23.9577 26.9563C23.9382 26.9563 23.9186 26.9563 23.8984 26.9563C23.8984 26.9759 23.8984 26.9955 23.8984 27.0156C23.8481 27.0621 23.7958 27.1063 23.7425 27.1492C23.7136 27.1728 23.6847 27.1964 23.6548 27.2207C23.5882 27.2706 23.5289 27.309 23.4531 27.3422C23.4531 27.3618 23.4531 27.3814 23.4531 27.4016C23.4065 27.4404 23.4065 27.4404 23.3412 27.4845C23.3055 27.5087 23.3055 27.5087 23.2691 27.5335C23.2435 27.5506 23.2178 27.5677 23.1914 27.5853C23.1655 27.6027 23.1396 27.6202 23.1129 27.6382C23.0384 27.6882 22.9637 27.7379 22.889 27.7875C22.8568 27.8091 22.8246 27.8307 22.7914 27.8529C22.6287 27.9594 22.4615 28.049 22.2866 28.1337C22.2222 28.1655 22.1616 28.199 22.1004 28.2365C21.9879 28.2979 21.8751 28.3389 21.7544 28.381C21.6349 28.4243 21.5202 28.477 21.4046 28.5297C21.2998 28.5757 21.1962 28.6051 21.0849 28.6316C21.0137 28.6497 20.9441 28.6711 20.874 28.693C20.7255 28.7379 20.5774 28.769 20.4249 28.7969C20.3883 28.8043 20.3516 28.8117 20.3138 28.8193C19.3103 29.0163 18.2047 28.9721 17.2187 28.7078C17.164 28.694 17.164 28.694 17.1083 28.68C16.9158 28.6311 16.7296 28.5775 16.5468 28.4995C16.4735 28.4691 16.3995 28.4438 16.3244 28.4184C16.0984 28.3367 15.8871 28.2259 15.6749 28.1141C15.6556 28.1039 15.6363 28.0938 15.6163 28.0833C15.2178 27.8724 14.8451 27.6205 14.4855 27.3489C14.4631 27.332 14.4407 27.3151 14.4177 27.2977C14.3934 27.2757 14.3934 27.2757 14.3687 27.2531C14.3687 27.2335 14.3687 27.214 14.3687 27.1938C14.3522 27.1864 14.3356 27.1791 14.3186 27.1715C14.2373 27.1276 14.1705 27.077 14.1015 27.0156C14.1015 26.996 14.1015 26.9765 14.1015 26.9563C14.0841 26.9491 14.0668 26.942 14.0488 26.9346C13.9701 26.8897 13.93 26.8408 13.8751 26.7689C13.8576 26.7463 13.8401 26.7238 13.822 26.7006C13.7228 26.5513 13.7055 26.4225 13.7063 26.2456C13.7058 26.2251 13.7053 26.2046 13.7048 26.1835C13.7046 25.9541 13.8046 25.809 13.9556 25.6471C13.9744 25.6285 13.9931 25.6098 14.0124 25.5906C14.0281 25.5748 14.0438 25.5589 14.06 25.5425C14.2701 25.3732 14.6325 25.3898 14.8766 25.4741Z" fill="#DDF6FE"/>
<path d="M14.0124 17.664C14.049 17.6799 14.049 17.6799 14.0863 17.6961C14.2473 17.7707 14.391 17.8645 14.5357 17.9665C14.5637 17.9861 14.5637 17.9861 14.5923 18.0061C14.6377 18.0389 14.6815 18.074 14.7249 18.1093C14.7249 18.1289 14.7249 18.1485 14.7249 18.1687C14.7419 18.1761 14.7589 18.1834 14.7764 18.191C14.8541 18.2338 14.9075 18.284 14.9699 18.3468C14.9908 18.3677 15.0118 18.3885 15.0334 18.4099C15.0812 18.4656 15.0812 18.4656 15.0812 18.525C15.1008 18.525 15.1204 18.525 15.1406 18.525C15.1865 18.5847 15.2288 18.6442 15.2705 18.7068C15.2819 18.7237 15.2934 18.7406 15.3052 18.7581C15.3283 18.7921 15.3513 18.8263 15.3741 18.8606C15.4063 18.9087 15.4391 18.9564 15.472 19.004C15.5198 19.0786 15.5545 19.1458 15.5859 19.2282C15.6005 19.2663 15.6005 19.2663 15.6153 19.3052C15.6301 19.3451 15.6301 19.3451 15.6453 19.3859C15.6557 19.4138 15.6662 19.4416 15.677 19.4703C15.7745 19.733 15.8358 19.9769 15.8605 20.2561C15.8636 20.2853 15.8666 20.3144 15.8698 20.3444C15.8924 20.5955 15.8862 20.8402 15.7343 21.0521C15.719 21.0742 15.7037 21.0963 15.6879 21.1191C15.6739 21.135 15.6598 21.1508 15.6453 21.1671C15.6257 21.1671 15.6061 21.1671 15.5859 21.1671C15.5859 21.1867 15.5859 21.2063 15.5859 21.2265C15.5439 21.2508 15.5018 21.2749 15.4597 21.2989C15.4363 21.3123 15.4129 21.3258 15.3887 21.3396C15.2097 21.43 14.9937 21.4367 14.801 21.3854C14.5493 21.2831 14.3599 21.1141 14.2466 20.8663C14.2059 20.7348 14.2029 20.6051 14.1973 20.4682C14.1731 20.099 13.9975 19.7076 13.723 19.4583C13.6086 19.362 13.4892 19.2816 13.3593 19.2078C13.3305 19.1912 13.3018 19.1747 13.2721 19.1577C12.8776 18.9886 12.429 19.0244 12.037 19.178C11.8144 19.2777 11.6137 19.4337 11.4694 19.6316C11.4563 19.6485 11.4432 19.6654 11.4296 19.6828C11.41 19.6828 11.3904 19.6828 11.3703 19.6828C11.3668 19.6996 11.3634 19.7164 11.3598 19.7338C11.3387 19.8082 11.3066 19.867 11.2701 19.9351C11.1726 20.143 11.1514 20.3578 11.1231 20.5831C11.1003 20.7557 11.0642 20.9133 10.9695 21.0614C10.9569 21.0816 10.9444 21.1017 10.9314 21.1225C10.9195 21.1372 10.9076 21.152 10.8953 21.1671C10.8757 21.1671 10.8561 21.1671 10.8359 21.1671C10.8359 21.1867 10.8359 21.2063 10.8359 21.2265C10.7939 21.2508 10.7518 21.2749 10.7097 21.2989C10.6863 21.3123 10.6629 21.3258 10.6387 21.3396C10.4597 21.43 10.2437 21.4367 10.051 21.3854C9.80948 21.2873 9.60355 21.1178 9.49531 20.8776C9.38567 20.4558 9.45518 19.8917 9.6492 19.5051C9.68062 19.44 9.70267 19.375 9.72446 19.3061C9.7589 19.1982 9.80238 19.0999 9.8562 19C9.87579 19 9.89538 19 9.91557 19C9.91924 18.9828 9.92292 18.9657 9.9267 18.948C9.94545 18.8805 9.97164 18.8241 10.0046 18.7625C10.0242 18.7625 10.0438 18.7625 10.064 18.7625C10.0714 18.7465 10.0787 18.7306 10.0863 18.7142C10.1325 18.6264 10.1838 18.5458 10.2421 18.4656C10.2617 18.4656 10.2813 18.4656 10.3015 18.4656C10.3095 18.4466 10.3174 18.4276 10.3256 18.4081C10.3609 18.3468 10.3609 18.3468 10.4499 18.3171C10.4597 18.2976 10.4695 18.278 10.4796 18.2578C10.5093 18.1984 10.5093 18.1984 10.5984 18.1687C10.5984 18.1491 10.5984 18.1295 10.5984 18.1093C10.8033 17.9302 11.0369 17.8091 11.2812 17.6937C11.3183 17.6733 11.3554 17.6529 11.3925 17.6325C12.2065 17.2322 13.2038 17.3006 14.0124 17.664Z" fill="#DDF6FE"/>
<path d="M26.9564 17.8125C26.9854 17.8304 27.0144 17.8482 27.0442 17.8667C27.3133 18.0349 27.3133 18.0349 27.4017 18.1094C27.4017 18.129 27.4017 18.1486 27.4017 18.1687C27.4256 18.1779 27.4256 18.1779 27.45 18.1873C27.5478 18.2439 27.6272 18.3186 27.6986 18.4062C27.6986 18.4258 27.6986 18.4454 27.6986 18.4656C27.7182 18.4656 27.7378 18.4656 27.758 18.4656C27.8028 18.5155 27.8028 18.5155 27.8508 18.5807C27.8668 18.602 27.8828 18.6234 27.8992 18.6454C27.9361 18.7031 27.9361 18.7031 27.9361 18.7625C27.9557 18.7625 27.9753 18.7625 27.9955 18.7625C28.0561 18.8488 28.0846 18.8932 28.0846 19C28.1041 19 28.1237 19 28.1439 19C28.1652 19.0512 28.1864 19.1024 28.2077 19.1537C28.235 19.2157 28.235 19.2157 28.2924 19.2969C28.4263 19.6786 28.5347 20.0602 28.5373 20.4658C28.5382 20.502 28.5382 20.502 28.5391 20.5389C28.5409 20.8163 28.4571 20.9955 28.2685 21.1973C28.0838 21.3643 27.8777 21.4135 27.635 21.4113C27.4616 21.3978 27.3053 21.328 27.1642 21.2266C27.1642 21.207 27.1642 21.1874 27.1642 21.1672C27.1349 21.1574 27.1055 21.1476 27.0752 21.1375C26.9173 20.9539 26.8778 20.7507 26.857 20.5161C26.8342 20.2612 26.7985 20.067 26.6667 19.8408C26.6299 19.7719 26.6299 19.7719 26.6299 19.6828C26.6103 19.6828 26.5907 19.6828 26.5705 19.6828C26.5265 19.6371 26.5265 19.6371 26.4759 19.5752C26.234 19.2937 25.9391 19.099 25.5611 19.0594C25.0542 19.0349 24.6885 19.1201 24.2864 19.4482C23.9627 19.7467 23.8228 20.1301 23.7966 20.5604C23.7746 20.8648 23.6827 21.0489 23.4533 21.2562C23.2424 21.3929 23.0463 21.4239 22.8002 21.4047C22.6611 21.3708 22.5306 21.3102 22.4142 21.2266C22.4142 21.207 22.4142 21.1874 22.4142 21.1672C22.3849 21.1574 22.3555 21.1476 22.3252 21.1375C22.2861 21.0931 22.2861 21.0931 22.2491 21.0354C22.2368 21.0171 22.2245 20.9988 22.2119 20.9799C22.1125 20.7539 22.1082 20.5244 22.1304 20.2821C22.1343 20.2381 22.1343 20.2381 22.1383 20.1932C22.1726 19.8781 22.2666 19.5898 22.3846 19.2969C22.4019 19.2532 22.4019 19.2532 22.4197 19.2087C22.495 19.0432 22.6004 18.8943 22.7018 18.7439C22.7163 18.7224 22.7308 18.7009 22.7458 18.6787C22.7821 18.6263 22.8206 18.5755 22.8596 18.525C22.8791 18.525 22.8987 18.525 22.9189 18.525C22.9263 18.508 22.9336 18.491 22.9412 18.4735C22.984 18.3959 23.0342 18.3425 23.0971 18.2801C23.1283 18.2486 23.1283 18.2486 23.1601 18.2165C23.2158 18.1687 23.2158 18.1687 23.2752 18.1687C23.2899 18.1247 23.2899 18.1247 23.3049 18.0797C23.3726 18.0281 23.4395 17.9811 23.5108 17.935C23.5311 17.9217 23.5514 17.9084 23.5723 17.8948C23.9886 17.6262 24.4418 17.4449 24.9358 17.3932C24.9691 17.3893 24.9691 17.3893 25.003 17.3854C25.6787 17.3119 26.3789 17.4452 26.9564 17.8125Z" fill="#DDF6FE"/>
</g>
<defs>
<clipPath id="clip0_26_25">
<rect width="38" height="38" fill="white"/>
</clipPath>
</defs>
</svg>
