<svg width="48" height="48" viewBox="0 0 48 48" fill="none" xmlns="http://www.w3.org/2000/svg">
<path d="M3.69231 35.0769C3.69231 36.0965 2.86576 36.9231 1.84615 36.9231C0.826551 36.9231 0 36.0965 0 35.0769C0 34.0573 0.826551 33.2308 1.84615 33.2308C2.86576 33.2308 3.69231 34.0573 3.69231 35.0769Z" fill="#D37832"/>
<path d="M3.69231 46.1538C3.69231 47.1735 2.86576 48 1.84615 48C0.826551 48 0 47.1735 0 46.1538C0 45.1342 0.826551 44.3077 1.84615 44.3077C2.86576 44.3077 3.69231 45.1342 3.69231 46.1538Z" fill="#D37832"/>
<path d="M14.7692 12.9231C14.7692 13.9427 13.9427 14.7692 12.9231 14.7692C11.9035 14.7692 11.0769 13.9427 11.0769 12.9231C11.0769 11.9035 11.9035 11.0769 12.9231 11.0769C13.9427 11.0769 14.7692 11.9035 14.7692 12.9231Z" fill="#D37832"/>
<path d="M14.7692 24C14.7692 25.0196 13.9427 25.8462 12.9231 25.8462C11.9035 25.8462 11.0769 25.0196 11.0769 24C11.0769 22.9804 11.9035 22.1538 12.9231 22.1538C13.9427 22.1538 14.7692 22.9804 14.7692 24Z" fill="#D37832"/>
<path d="M14.7692 35.0769C14.7692 36.0965 13.9427 36.9231 12.9231 36.9231C11.9035 36.9231 11.0769 36.0965 11.0769 35.0769C11.0769 34.0573 11.9035 33.2308 12.9231 33.2308C13.9427 33.2308 14.7692 34.0573 14.7692 35.0769Z" fill="#D37832"/>
<path d="M14.7692 46.1538C14.7692 47.1735 13.9427 48 12.9231 48C11.9035 48 11.0769 47.1735 11.0769 46.1538C11.0769 45.1342 11.9035 44.3077 12.9231 44.3077C13.9427 44.3077 14.7692 45.1342 14.7692 46.1538Z" fill="#D37832"/>
<path d="M25.8462 12.9231C25.8462 13.9427 25.0196 14.7692 24 14.7692C22.9804 14.7692 22.1538 13.9427 22.1538 12.9231C22.1538 11.9035 22.9804 11.0769 24 11.0769C25.0196 11.0769 25.8462 11.9035 25.8462 12.9231Z" fill="#D37832"/>
<path d="M25.8462 24C25.8462 25.0196 25.0196 25.8462 24 25.8462C22.9804 25.8462 22.1538 25.0196 22.1538 24C22.1538 22.9804 22.9804 22.1538 24 22.1538C25.0196 22.1538 25.8462 22.9804 25.8462 24Z" fill="#D37832"/>
<path d="M25.8462 35.0769C25.8462 36.0965 25.0196 36.9231 24 36.9231C22.9804 36.9231 22.1538 36.0965 22.1538 35.0769C22.1538 34.0573 22.9804 33.2308 24 33.2308C25.0196 33.2308 25.8462 34.0573 25.8462 35.0769Z" fill="#D37832"/>
<path d="M25.8462 46.1538C25.8462 47.1735 25.0196 48 24 48C22.9804 48 22.1538 47.1735 22.1538 46.1538C22.1538 45.1342 22.9804 44.3077 24 44.3077C25.0196 44.3077 25.8462 45.1342 25.8462 46.1538Z" fill="#D37832"/>
<path d="M36.9231 1.84615C36.9231 2.86576 36.0965 3.69231 35.0769 3.69231C34.0573 3.69231 33.2308 2.86576 33.2308 1.84615C33.2308 0.826551 34.0573 0 35.0769 0C36.0965 0 36.9231 0.826551 36.9231 1.84615Z" fill="#D37832"/>
<path d="M36.9231 12.9231C36.9231 13.9427 36.0965 14.7692 35.0769 14.7692C34.0573 14.7692 33.2308 13.9427 33.2308 12.9231C33.2308 11.9035 34.0573 11.0769 35.0769 11.0769C36.0965 11.0769 36.9231 11.9035 36.9231 12.9231Z" fill="#D37832"/>
<path d="M36.9231 24C36.9231 25.0196 36.0965 25.8462 35.0769 25.8462C34.0573 25.8462 33.2308 25.0196 33.2308 24C33.2308 22.9804 34.0573 22.1538 35.0769 22.1538C36.0965 22.1538 36.9231 22.9804 36.9231 24Z" fill="#D37832"/>
<path d="M36.9231 35.0769C36.9231 36.0965 36.0965 36.9231 35.0769 36.9231C34.0573 36.9231 33.2308 36.0965 33.2308 35.0769C33.2308 34.0573 34.0573 33.2308 35.0769 33.2308C36.0965 33.2308 36.9231 34.0573 36.9231 35.0769Z" fill="#D37832"/>
<path d="M36.9231 46.1538C36.9231 47.1735 36.0965 48 35.0769 48C34.0573 48 33.2308 47.1735 33.2308 46.1538C33.2308 45.1342 34.0573 44.3077 35.0769 44.3077C36.0965 44.3077 36.9231 45.1342 36.9231 46.1538Z" fill="#D37832"/>
<path d="M48 1.84615C48 2.86576 47.1735 3.69231 46.1538 3.69231C45.1342 3.69231 44.3077 2.86576 44.3077 1.84615C44.3077 0.826551 45.1342 0 46.1538 0C47.1735 0 48 0.826551 48 1.84615Z" fill="#D37832"/>
<path d="M48 12.9231C48 13.9427 47.1735 14.7692 46.1538 14.7692C45.1342 14.7692 44.3077 13.9427 44.3077 12.9231C44.3077 11.9035 45.1342 11.0769 46.1538 11.0769C47.1735 11.0769 48 11.9035 48 12.9231Z" fill="#D37832"/>
<path d="M48 24C48 25.0196 47.1735 25.8462 46.1538 25.8462C45.1342 25.8462 44.3077 25.0196 44.3077 24C44.3077 22.9804 45.1342 22.1538 46.1538 22.1538C47.1735 22.1538 48 22.9804 48 24Z" fill="#D37832"/>
<path d="M48 35.0769C48 36.0965 47.1735 36.9231 46.1538 36.9231C45.1342 36.9231 44.3077 36.0965 44.3077 35.0769C44.3077 34.0573 45.1342 33.2308 46.1538 33.2308C47.1735 33.2308 48 34.0573 48 35.0769Z" fill="#D37832"/>
<path d="M48 46.1538C48 47.1735 47.1735 48 46.1538 48C45.1342 48 44.3077 47.1735 44.3077 46.1538C44.3077 45.1342 45.1342 44.3077 46.1538 44.3077C47.1735 44.3077 48 45.1342 48 46.1538Z" fill="#D37832"/>
</svg>
