<svg width="25" height="25" viewBox="0 0 25 25" fill="none" xmlns="http://www.w3.org/2000/svg">
<path d="M20.2838 4.49036H4.05611C2.94132 4.49036 2.0383 5.40312 2.0383 6.51912L2.02856 18.6893C2.02856 19.8053 2.94132 20.718 4.05611 20.718H20.2838C21.3986 20.718 22.3113 19.8053 22.3113 18.6893V6.51912C22.3113 5.40312 21.3986 4.49036 20.2838 4.49036ZM19.8773 8.80102L12.7079 13.2845C12.5461 13.3841 12.3599 13.4368 12.1699 13.4368C11.98 13.4368 11.7938 13.3841 11.632 13.2845L4.46259 8.80102C4.36232 8.74322 4.27471 8.66581 4.20501 8.57341C4.13531 8.48101 4.08493 8.37551 4.0569 8.26321C4.02886 8.15092 4.02374 8.03413 4.04183 7.91981C4.05993 7.80549 4.10087 7.69598 4.16221 7.59783C4.22355 7.49968 4.30404 7.4149 4.39887 7.34854C4.4937 7.28218 4.60093 7.23561 4.71416 7.2116C4.82738 7.18759 4.94428 7.18664 5.05788 7.20881C5.17149 7.23097 5.27946 7.27579 5.37535 7.3406L12.1699 11.5904L18.9645 7.3406C19.0604 7.27579 19.1684 7.23097 19.282 7.20881C19.3956 7.18664 19.5125 7.18759 19.6257 7.2116C19.739 7.23561 19.8462 7.28218 19.941 7.34854C20.0358 7.4149 20.1163 7.49968 20.1777 7.59783C20.239 7.69598 20.28 7.80549 20.2981 7.91981C20.3161 8.03413 20.311 8.15092 20.283 8.26321C20.255 8.37551 20.2046 8.48101 20.1349 8.57341C20.0652 8.66581 19.9776 8.74322 19.8773 8.80102Z" fill="#005D79"/>
</svg>
