<svg width="25" height="25" viewBox="0 0 25 25" fill="none" xmlns="http://www.w3.org/2000/svg">
<path d="M12.17 2.02878C7.91043 2.02878 4.05615 5.29403 4.05615 10.3446C4.05615 13.5697 6.54129 17.3632 11.5006 21.7334C11.688 21.8952 11.9273 21.9841 12.1749 21.9841C12.4224 21.9841 12.6617 21.8952 12.8491 21.7334C17.7987 17.3632 20.2838 13.5697 20.2838 10.3446C20.2838 5.29403 16.4295 2.02878 12.17 2.02878ZM12.17 12.1702C11.054 12.1702 10.1412 11.2574 10.1412 10.1414C10.1412 9.02539 11.054 8.11263 12.17 8.11263C13.286 8.11263 14.1987 9.02539 14.1987 10.1414C14.1987 11.2574 13.286 12.1702 12.17 12.1702Z" fill="#005D79"/>
</svg>
