<svg width="100" height="77" viewBox="0 0 100 77" fill="none" xmlns="http://www.w3.org/2000/svg">
<g clip-path="url(#clip0_72_367)">
<path fill-rule="evenodd" clip-rule="evenodd" d="M0 0H100V76.2857H0V0ZM0.571429 0.571429H99.4286V75.7143H0.571429V0.571429ZM1.71429 1.71429H98.2857V74.5714H1.71429V1.71429ZM2.28571 2.28571H97.7143V74H1.71429H2.28571V2.28571Z" fill="#59470E"/>
<path d="M39.4711 27.0227C39.3475 26.4869 39.1826 25.9098 39.0177 25.3739C38.9765 25.2503 38.8528 25.1678 38.8116 25.0854C38.7704 24.9617 38.8116 24.8381 38.8528 24.7144C39.1826 24.7144 39.265 25.0029 39.3887 25.1678C39.5948 25.4564 39.7184 25.8274 39.8009 26.1571C40.0894 27.1052 40.6253 27.8059 41.4497 28.3418C41.8619 28.5891 42.2329 28.8777 42.6451 29.1662C42.7275 29.2486 42.8512 29.2899 43.0161 29.3723C42.81 29.0013 42.7275 28.5891 42.2741 28.5067C42.1504 28.4655 42.068 28.3418 41.9856 28.2181C42.0268 28.1769 42.0268 28.1769 42.068 28.1357C42.439 28.2594 42.81 28.383 43.181 28.5067C43.181 28.4655 43.2222 28.4655 43.2222 28.4242C42.6863 28.1769 41.9856 28.1357 41.7382 27.4762C41.7382 27.4349 41.7795 27.4349 41.7795 27.3937C41.8619 27.4349 41.9031 27.4762 41.9856 27.5174C42.1917 27.641 42.439 27.8059 42.6863 27.9296C43.0573 28.0945 43.1397 28.012 43.2634 27.641C43.3046 27.4762 43.3458 27.3113 43.3871 27.064C43.0985 27.2288 42.8512 27.5174 42.4802 27.3525C42.5214 27.3113 42.5214 27.2288 42.5626 27.1876C42.7275 26.9403 42.8924 26.7342 43.0573 26.4869C43.2222 26.1983 43.2222 25.9922 43.0161 25.7037C42.7687 25.4151 42.5214 25.1266 42.2741 24.7968C42.2329 24.7556 42.1504 24.6732 42.068 24.6732C41.0787 24.6732 40.2543 24.261 39.5948 23.5602C39.1001 23.0244 38.8116 22.3648 38.6055 21.7053C38.5643 21.5404 38.4818 21.3343 38.3994 21.1694C38.8116 20.8397 39.2238 21.0458 39.5948 21.1694C40.1306 21.2931 40.6253 21.4168 41.1199 21.7465C41.8619 22.2412 42.439 22.9007 42.6863 23.7663C42.7687 24.0137 42.6863 24.3022 42.6863 24.5495C42.6863 24.6732 42.7275 24.7968 42.7687 24.8793C42.9748 25.1266 43.181 25.3739 43.3458 25.6625C43.3871 25.7449 43.4283 25.8274 43.4283 25.8686C43.7993 25.58 44.2115 25.2915 44.5824 25.0442C44.3351 24.7556 44.0466 24.4671 43.7993 24.1785C43.5519 23.89 43.5932 23.8488 43.8405 23.4778C43.9229 23.6427 43.9641 23.8488 44.0878 23.9724C44.2527 24.1785 44.4588 24.3846 44.7061 24.5907C44.7473 24.632 44.871 24.632 44.871 24.5907C44.9122 24.5495 44.9122 24.4671 44.9122 24.4259C44.871 24.2198 44.7473 23.9724 44.7061 23.7663C44.6237 23.519 44.5412 23.2717 44.7061 23.0244C44.7473 23.1892 44.7885 23.3953 44.871 23.5602C44.9946 23.8488 45.1183 24.0961 45.242 24.3846C45.3244 24.5907 45.5305 24.5907 45.6954 24.5907C46.2725 24.5083 46.8496 24.4671 47.4266 24.3846C47.6328 24.3434 47.7976 24.3022 47.9625 24.2198C47.1793 24.1785 46.3549 24.1785 45.5717 24.1373C45.5717 24.0961 45.5717 24.0549 45.5717 24.0137C46.1076 23.6427 46.7671 23.8076 47.3854 23.6014C47.9625 23.4366 48.5808 23.3129 49.1991 23.1892C49.0755 23.1068 48.9518 22.9831 48.8281 22.8595C48.7457 22.777 48.7045 22.6122 48.7045 22.4885C48.7045 22.3236 48.7869 22.2412 48.993 22.3236C49.5701 22.5709 50.1472 22.8595 50.7655 23.0244C51.1365 23.148 51.5075 23.1068 51.8785 23.148C51.8785 23.1068 51.8785 23.1068 51.8785 23.0656C51.7136 22.9419 51.5487 22.8595 51.3838 22.7358C51.3426 22.6946 51.3014 22.6122 51.2601 22.5297C51.3426 22.5297 51.425 22.5297 51.5075 22.5297C51.8785 22.7358 52.2082 22.9419 52.5792 23.148C52.6616 23.1892 52.7441 23.2305 52.8265 23.2305C53.3212 23.2717 53.8158 23.3953 54.228 23.6427C54.3105 23.6839 54.3929 23.6839 54.4753 23.7251C54.4341 23.1892 54.1868 22.777 53.8983 22.4061C53.7746 22.2412 53.6097 22.2 53.4036 22.2C52.5792 22.2824 51.7548 22.2412 50.9716 21.8702C50.5182 21.6229 50.0648 21.3756 49.6113 21.087C49.4877 21.0046 49.4464 20.8397 49.4464 20.716C50.0235 20.9633 50.5594 21.2519 51.1777 21.458C51.796 21.6229 52.4143 21.5817 53.1151 21.458C52.9502 21.2931 52.8265 21.1694 52.6616 21.0458C52.0846 20.5924 51.4662 20.1802 50.8067 19.9328C50.5182 19.8092 50.2296 19.5619 49.9823 19.3558C49.6526 19.1084 49.2403 19.1909 49.0755 19.5619C48.7457 20.5099 48.0037 20.716 47.0969 20.8397C46.4786 20.9221 45.9015 20.716 45.2832 20.6336C45.0771 20.5924 44.871 20.5924 44.6649 20.5924C44.4176 20.5924 44.2527 20.5099 44.0878 20.3038C44.2115 20.2626 44.3351 20.2626 44.4176 20.2214C44.7473 20.0977 45.0771 20.0153 45.3656 19.8504C45.9839 19.5619 46.561 19.1909 47.1793 18.9435C47.7152 18.7374 48.3335 18.655 48.9106 18.9435C48.993 18.9848 49.0755 18.9435 49.2403 18.9848C49.1167 18.8199 49.0755 18.7374 49.0342 18.655C48.7869 18.3665 48.5396 18.0367 48.3335 17.7482C48.2098 17.5833 48.045 17.5008 47.7976 17.5833C47.3442 17.7069 46.8908 17.7069 46.4786 17.5421C45.7366 17.2535 45.1595 16.8001 44.7473 16.1406C44.4588 15.7284 44.2115 15.2749 43.758 15.0276C43.6756 14.9864 43.6344 14.904 43.5519 14.8215C44.2527 14.6978 44.871 14.6566 45.5305 14.8215C45.9839 14.9452 46.3961 15.1513 46.8083 15.3574C47.1381 15.5223 47.5091 15.7284 47.7564 16.0169C48.0862 16.3467 48.3747 16.7176 48.622 17.1711C48.9518 17.8306 49.4877 18.3665 50.2296 18.7374C49.4877 17.2123 49.364 15.7284 50.3533 14.2856C50.3945 14.3269 50.4357 14.3681 50.4357 14.4505C50.6831 15.0688 50.9716 15.6459 51.2189 16.2642C51.425 16.8413 51.4662 17.4184 51.2189 17.9543C51.1365 18.2016 50.9304 18.3665 50.8067 18.6138C50.7655 18.6962 50.6831 18.7787 50.6006 18.9023C52.0846 19.5619 53.486 20.3038 54.6402 21.458C54.97 20.9633 55.2997 20.5099 55.0936 19.9328C54.6814 18.9023 54.8463 17.913 55.1349 16.8825C55.2997 16.3054 55.7119 15.8932 56.1242 15.5223C56.289 15.3986 56.4539 15.2337 56.6188 15.0688C56.6188 15.4398 56.5364 15.7696 56.5776 16.0993C56.66 16.8001 56.8249 17.4596 56.8661 18.1604C56.9073 18.5313 56.7837 18.9023 56.66 19.2733C56.5776 19.5619 56.3715 19.768 56.289 20.0565C56.1241 20.5099 55.7119 20.7572 55.3822 21.087C55.0936 21.3343 55.0112 21.829 55.2173 22.1587C55.5471 22.6534 55.8768 23.1892 56.2066 23.6839C56.5776 23.6015 56.7425 23.4366 56.7837 23.0656C56.8661 22.6122 56.9898 22.2 57.1134 21.7465C57.402 20.9221 58.0615 20.3863 58.6798 19.8916C59.0508 19.6031 59.4218 19.2733 59.7515 18.9435C59.7928 18.9023 59.8752 18.9435 59.9164 18.9023C59.9164 18.9848 59.9576 19.0672 59.9576 19.1496C59.8752 19.6443 59.7515 20.1389 59.7103 20.6336C59.6691 21.1694 59.5867 21.6641 59.3806 22.1175C59.1332 22.6946 58.721 23.1068 58.1852 23.3541C58.0615 23.4366 57.9378 23.519 57.8142 23.6014C57.6081 23.7251 57.402 23.8488 57.1547 23.8076C56.9486 23.8076 56.7425 23.9312 56.5776 24.0549C56.4127 24.1373 56.4951 24.3022 56.66 24.3434C56.7837 24.3846 56.9073 24.3846 56.9898 24.3434C57.5669 24.1785 58.1439 24.4259 58.6798 24.3846C58.7623 24.3846 58.8447 24.4671 58.9271 24.4671C58.9271 24.5083 58.9271 24.5083 58.9271 24.5495C58.3913 24.6732 57.8554 24.7968 57.2783 24.8793C57.2783 24.9205 57.2783 24.9205 57.2783 24.9617C57.4844 25.0854 57.6493 25.1678 57.8554 25.2915C57.8966 25.2915 57.9791 25.2503 58.0203 25.209C58.1027 25.1266 58.1852 25.0442 58.3088 24.8793C58.4325 25.2503 58.0615 25.4151 58.1439 25.7861C58.6798 25.9098 59.1332 25.5388 59.6279 25.4151C59.6691 25.4151 59.6691 25.4564 59.7103 25.4564C59.6279 25.6625 59.5042 25.8274 59.3806 26.0335C59.5042 26.1983 59.463 26.2396 59.2569 26.3632C58.9271 26.5281 58.4737 26.5693 58.3088 26.9403C58.2676 27.064 58.2676 27.1876 58.2676 27.3113C58.3913 27.2701 58.4737 27.2701 58.5974 27.2288C59.0508 26.9815 59.5042 26.693 59.9989 26.4457C60.0401 26.4044 60.1225 26.4044 60.205 26.4044C60.2462 26.6105 60.1225 26.7342 59.9576 26.8166C59.4218 26.9815 59.0096 27.3525 58.6386 27.8471C59.1332 27.5174 59.6279 27.2288 60.0813 26.8991C60.2874 27.1876 60.0813 27.2288 59.9576 27.3113C59.6279 27.5586 59.2981 27.7647 58.9271 28.012C58.8859 28.0533 58.8859 28.0945 58.8447 28.1357C59.2157 28.0533 59.5454 27.9708 59.8752 27.9296C59.8752 27.9708 59.9164 28.012 59.9164 28.0533C59.5454 28.2594 59.2157 28.4655 58.7623 28.7128C59.092 29.0425 59.4218 29.3723 59.7515 29.6608C60.1225 29.9906 60.5347 30.2792 60.9469 30.5677C61.1943 30.7326 61.4416 30.7738 61.6889 30.8975C62.266 31.186 62.8019 31.4745 63.3789 31.8043C63.4614 31.8455 63.5438 31.9692 63.6263 32.0516C63.7499 32.1753 63.9148 32.2577 64.0797 32.3814C64.1621 32.4638 64.2446 32.5051 64.2858 32.5875C64.2858 32.6287 64.2446 32.6287 64.2446 32.6699C63.7499 32.6699 63.2965 32.6699 62.7606 32.6699C62.8431 32.7524 62.9255 32.8348 63.0492 32.9173C63.008 32.9997 62.9667 33.1234 62.9255 33.247C62.8843 33.3707 62.7606 33.4531 62.9255 33.5768C62.9255 33.5768 62.8431 33.7829 62.8019 33.7829C62.637 33.7829 62.4721 33.7829 62.3484 33.7417C62.0187 33.618 61.7301 33.4531 61.4004 33.3707C61.3591 33.3707 61.1943 33.4531 61.1943 33.5356C61.153 33.6592 61.1943 33.7829 61.1943 33.9478C61.0706 33.8653 60.9882 33.8241 60.8645 33.7829C60.8645 34.1539 60.6996 34.1126 60.4935 34.0302C59.9164 33.8241 59.3806 33.5356 58.8859 33.1646C58.1439 32.6287 57.3608 32.1341 56.4127 32.0928C55.7532 32.0516 55.1761 32.0928 54.5578 32.3814C53.6509 32.7936 52.6616 33.0821 51.6723 33.2058C51.4662 33.247 51.2189 33.2882 51.0128 33.5356C50.8067 33.7417 50.477 33.9065 50.1884 33.9478C49.8174 33.989 49.4052 33.9478 49.0755 33.8241C48.8694 33.7417 48.6633 33.5356 48.4984 33.3707C48.4159 33.3295 48.4159 33.247 48.3335 33.1646C48.0037 32.6699 47.3854 32.5463 46.8908 32.3402C46.19 32.0516 45.4481 31.8455 44.7061 31.557C44.6649 31.557 44.6237 31.557 44.5824 31.5158C44.0878 31.0623 43.5519 31.2684 43.0573 31.5158C42.8924 31.5982 42.7687 31.8043 42.7275 31.9692C42.5626 32.7112 41.9856 33.0409 41.3673 33.2882C40.6665 33.5768 39.9658 33.618 39.2238 33.5768C39.0589 33.5768 38.9353 33.6592 38.7704 33.7004C38.5643 33.7417 38.3994 33.8241 38.1933 33.8241C38.1108 33.8241 37.946 33.7829 37.9047 33.7004C37.8635 33.6592 37.946 33.4943 37.9872 33.4119C38.1933 33.1646 38.3994 32.9173 38.6467 32.6699C39.1414 32.1753 39.5948 31.6806 40.2131 31.3509C40.8726 30.9799 41.5734 30.8562 42.2741 31.186C42.7275 31.3921 43.0161 31.2272 43.3458 31.0211C43.3458 30.9799 43.3458 30.9799 43.3458 30.9387C42.7275 30.7738 42.068 30.6089 41.4085 30.4853C40.9138 30.4028 40.378 30.2792 39.8833 30.2792C39.3062 30.2792 38.7291 30.3204 38.2345 30.6914C38.0284 30.815 37.7811 30.9387 37.575 30.6914C37.4513 30.5677 37.4513 30.5265 37.575 30.444C37.4101 30.4853 37.4513 30.444 37.5338 30.4028C37.8635 30.2792 38.1933 30.1555 38.4818 29.9494C38.8528 29.7021 39.3887 29.7021 39.8833 29.6196C40.1719 29.5784 40.4604 29.6196 40.7902 29.6196C40.7902 29.5784 40.8314 29.5784 40.8314 29.5372C40.5428 29.2074 40.2543 28.8777 39.9245 28.5891C39.5123 28.1769 39.0589 27.8059 38.6467 27.3937C38.3994 27.1464 38.1108 26.9403 37.8635 26.6518C37.6162 26.3632 37.4101 26.0335 37.1628 25.7449C37.0391 25.58 36.8742 25.4564 36.7094 25.3327C36.4208 25.1266 36.1323 24.9617 35.8437 24.7968C35.6788 24.6732 35.6788 24.5083 35.8025 24.3434C35.9262 24.1785 36.0498 24.1785 36.2147 24.261C37.0391 24.632 37.6986 25.209 38.1521 25.951C38.4406 26.4457 38.9353 26.7342 39.3475 27.064C39.4711 27.064 39.4711 27.0227 39.4711 27.0227ZM57.1134 26.5281C57.1547 26.6105 57.1959 26.693 57.2371 26.7342C57.402 26.9403 57.3608 27.1052 57.1134 27.1876C57.1959 27.5586 57.1134 27.9296 56.9486 28.2594C56.7837 28.5479 56.4951 28.754 56.2478 29.0425C56.289 29.0425 56.3715 29.0425 56.4127 29.0013C56.6188 28.8777 56.8249 28.754 56.9898 28.5479C57.2783 28.1357 57.9791 28.0533 57.773 27.3113C57.773 27.2701 57.8142 27.2288 57.8142 27.1876C57.8142 27.1464 57.8554 27.064 57.8142 27.0227C57.6493 26.7754 57.8142 26.6105 57.8966 26.4457C57.9378 26.3632 57.9791 26.2808 58.0203 26.2396C57.8554 25.951 57.7317 26.1983 57.5669 26.2808C57.5256 25.8686 57.4432 25.4976 56.9898 25.3739C56.9486 25.3739 56.9073 25.2503 56.8661 25.209C56.7837 25.1266 56.7012 25.0854 56.6188 25.0442C56.289 24.9205 56.0005 24.7968 55.6707 24.6732C55.4646 24.5907 55.2585 24.4259 55.0524 24.3434C54.97 24.2198 54.8875 24.0137 54.8463 23.9312C54.6402 24.0137 54.4753 24.1373 54.3105 24.1373C53.8158 24.0549 53.3212 23.9312 52.8265 23.8488C52.3731 23.7663 51.8785 23.7251 51.3838 23.6427C51.3014 23.6427 51.2601 23.6427 51.1365 23.6839C51.1365 23.8076 51.1777 23.89 51.1777 23.9312C50.8479 23.9312 50.5182 23.9724 50.1884 23.9724C50.1884 24.0137 50.1884 24.0549 50.1884 24.0961C50.5594 24.1373 50.9716 24.1373 51.3426 24.0961C52.0433 24.0137 52.7029 23.9312 53.2799 24.4671C53.3624 24.5495 53.486 24.5907 53.6097 24.5907C53.857 24.5907 53.8982 24.7556 53.9395 24.9617C53.8158 24.9617 53.7334 24.9617 53.5685 24.9617C54.0219 25.3327 54.4753 25.6625 54.8875 25.9922L54.9288 25.951C54.8463 25.8686 54.7639 25.7861 54.6402 25.7037C54.7227 25.6625 54.8051 25.58 54.8463 25.58C55.1349 25.6212 55.4234 25.7037 55.7532 25.7861C55.5471 25.4564 55.2585 25.3327 54.9288 25.2503C54.6402 25.1678 54.3105 25.1266 54.0219 25.0854C54.0631 24.9617 54.1456 24.8381 54.1868 24.7144C54.3517 24.7556 54.5166 24.7968 54.7227 24.8381C55.5058 25.0029 56.0829 25.3739 56.4951 26.1159C56.5776 26.2396 56.7012 26.322 56.8249 26.4457C57.031 26.4044 57.0722 26.4457 57.1134 26.5281ZM48.2511 28.7952V28.754C48.4572 28.754 48.7045 28.7128 48.9106 28.7128C49.1579 28.7128 49.364 28.6716 49.6113 28.6716C49.6938 28.6716 49.7762 28.5891 49.8174 28.5479C50.0648 28.2181 50.106 27.3113 49.9411 26.9815C49.6938 26.4869 49.1579 26.322 48.622 26.4869C48.4572 26.5281 48.3335 26.6105 48.1686 26.6105C47.3854 26.693 46.9732 27.2701 46.6022 27.8884C46.4374 28.1769 46.5198 28.383 46.8496 28.5067C47.3442 28.6303 47.7976 28.6716 48.2511 28.7952ZM56.2478 28.6303C56.2066 28.5891 56.2066 28.5891 56.1654 28.5479C56.1242 28.5479 56.0829 28.5479 56.0417 28.5479C55.7532 28.6716 55.5058 28.8364 55.2173 28.9189C54.5578 29.1662 53.857 29.2074 53.1563 29.2486C52.9914 29.2486 52.8677 29.3311 52.7029 29.3311C52.3319 29.2899 52.0021 29.125 51.6311 29.1662C50.8479 29.1662 50.0648 29.0013 49.3228 29.2074C49.1579 29.2486 48.993 29.3311 48.8281 29.3311C48.1686 29.3311 47.5503 29.3311 46.8908 29.3311C46.6847 29.3311 46.4374 29.2074 46.2313 29.125C46.0252 29.0425 45.8191 28.9601 45.613 28.8777C45.2007 28.754 45.0771 28.4655 45.3244 28.2181C45.2007 28.0945 45.1183 27.9296 44.9946 27.8471C44.7061 27.5998 44.5412 27.064 44.7061 26.7342C44.871 26.4044 45.0359 26.1159 45.242 25.7861C45.2007 25.7861 45.2007 25.7449 45.1595 25.7449C44.871 26.1159 44.6237 26.4457 44.3351 26.8166C44.2939 26.8166 44.2939 26.8166 44.2527 26.7754C44.3351 26.5281 44.3763 26.322 44.4588 26.0747C44.2527 26.1983 44.0878 26.3632 43.9641 26.5281C43.758 26.7342 43.7168 26.8991 43.8817 27.1464C44.0878 27.4349 44.2527 27.6823 44.4588 27.9708C44.6649 28.3006 44.8298 28.7128 45.2832 28.8364C45.3656 28.8364 45.4893 28.9189 45.5717 29.0013C46.2725 29.5372 47.0969 29.7021 47.9625 29.8257C48.1686 29.8669 48.3335 29.9494 48.5396 29.9906C48.6633 30.0318 48.8281 30.0318 48.9518 30.0731V30.0318C48.8694 29.9906 48.7869 29.9494 48.7045 29.9082C50.2296 29.2486 51.8372 29.5784 53.4036 29.6608C53.3212 29.7021 53.2387 29.7433 53.1563 29.7433C53.6921 29.9906 53.7334 30.0318 54.1044 29.7021C54.3929 29.4547 54.6814 29.4547 55.0112 29.3723C55.0936 29.3311 55.2173 29.2899 55.2997 29.2486C55.5058 29.125 55.6707 29.0013 55.8356 28.8777C56.0005 28.8364 56.1242 28.7128 56.2478 28.6303ZM54.5166 28.6303C54.3105 28.1357 54.0631 27.6823 53.5685 27.4349C53.1151 27.2288 52.7029 27.0227 52.167 26.9815C51.425 26.8991 50.8892 27.1876 50.7655 27.9296C50.7243 28.1769 50.8067 28.4655 50.9304 28.7128C50.9716 28.7952 51.2189 28.7952 51.3838 28.8364C51.796 28.8777 52.2082 28.8364 52.5792 28.9189C53.3212 29.0425 53.8983 28.754 54.5166 28.6303ZM50.5594 27.0227C50.8892 26.8991 51.1777 26.8166 51.5075 26.7342C51.7136 26.693 51.9197 26.693 52.1258 26.6105C52.4143 26.5281 52.6204 26.6105 52.8677 26.693C52.9502 26.7342 53.0326 26.7754 53.0738 26.8166C53.3212 26.9403 53.6097 27.0227 53.8158 27.1464C54.1044 27.3113 54.3929 27.2288 54.4753 26.8991C54.599 26.3632 54.4753 26.0747 54.0219 25.7861C53.7746 25.6212 53.4448 25.4976 53.1563 25.3739C52.6204 25.1678 52.0433 25.209 51.5075 25.3327C51.054 25.4151 50.7655 25.7449 50.477 26.0335C50.3533 26.1571 50.2709 26.3632 50.3945 26.5693C50.4357 26.7342 50.5182 26.8991 50.5594 27.0227ZM50.2296 15.0688C49.5701 15.6459 49.6526 17.7894 50.3121 18.4077C51.0953 17.7069 51.2189 16.594 50.2296 15.0688ZM42.1092 24.5907C42.1504 24.5907 42.1504 24.5495 42.1917 24.5495C42.3565 23.4778 41.697 22.8183 41.0375 22.3236C40.5841 21.9526 39.9658 21.829 39.3887 21.6641C39.3062 21.6641 39.265 21.6229 39.1826 21.6229C39.6772 22.1587 40.2543 22.5709 40.7489 23.0656C41.2848 23.4778 41.697 24.0549 42.1092 24.5907ZM55.3822 20.5099C55.8768 19.8916 56.3303 19.3145 56.3715 18.5726C56.3715 17.6657 56.2478 16.8001 56.2066 15.852C56.0417 16.0169 55.9593 16.1406 55.8356 16.223C55.7944 16.2642 55.7944 16.3054 55.7944 16.3467C55.7944 16.4291 55.8356 16.5115 55.8356 16.594C55.8356 16.7589 55.7532 16.9237 55.7532 17.0886C55.7119 17.8306 55.6707 18.5313 55.5883 19.2733C55.5471 19.6855 55.4646 20.0565 55.3822 20.5099ZM44.5412 15.3162C45.1183 16.5528 46.4374 17.4596 47.674 17.2123C46.7259 16.3054 45.6542 15.8108 44.5412 15.3162ZM38.894 21.6641C39.0589 22.9007 40.5428 24.3434 41.5734 24.261C40.8726 23.148 39.7597 22.5297 38.894 21.6641ZM57.2783 23.2305C58.3501 23.3541 59.5454 21.3755 59.3393 19.8916C58.8859 21.1694 57.9791 22.1175 57.2783 23.2305ZM42.1917 31.8455C40.9963 31.8867 40.2131 32.6699 39.3062 33.247C40.5016 33.3707 41.7795 32.7936 42.1917 31.8455ZM45.2007 20.3863C46.3961 20.3038 47.4266 19.8092 48.4572 19.1909C47.7564 18.8199 46.0252 19.4794 45.2007 20.3863ZM41.8619 31.557C41.4085 31.186 40.9551 31.3509 40.5428 31.5158C39.8421 31.8043 39.265 32.299 38.7704 32.876C38.6055 33.0409 38.4818 33.2058 38.3169 33.3707C38.3582 33.4119 38.3582 33.4119 38.3994 33.4531C39.4711 32.7524 40.4604 31.8043 41.8619 31.557ZM44.6237 15.0688C45.0771 15.3162 45.4481 15.481 45.8603 15.6871C46.5198 16.0169 47.1793 16.3879 47.674 16.9237C47.7976 17.0474 47.9213 17.1299 48.0862 17.2123C47.7976 16.0993 45.7366 15.0276 44.6237 15.0688ZM57.0722 22.8595C57.1959 22.7358 57.2783 22.6946 57.3608 22.6122C57.5256 22.3648 57.6905 22.1175 57.8554 21.829C58.1852 21.3343 58.5149 20.8397 58.8859 20.345C58.9684 20.2626 59.0096 20.1389 59.092 20.0153C57.6905 21.0046 57.1547 21.7878 57.0722 22.8595ZM53.7746 30.3616C53.7746 30.3204 53.7746 30.2792 53.7746 30.2379C53.5273 30.2379 53.2387 30.2379 52.9914 30.1967C52.6204 30.1143 52.2907 29.9906 51.8372 29.8669C51.9609 29.9906 52.0433 30.0731 52.167 30.1555C51.425 30.2792 50.6831 30.4028 49.8999 30.5265C50.0648 30.5677 50.3121 30.5265 50.3945 30.6089C50.5594 30.7326 50.6831 30.6914 50.8067 30.6501C51.425 30.444 52.0433 30.444 52.6616 30.5677C53.0738 30.6914 53.486 30.6501 53.7746 30.3616ZM51.9197 30.9387C51.8372 31.0623 51.796 31.186 51.7548 31.186C51.3426 31.2684 50.9716 31.3509 50.5594 31.4333C50.3121 31.4745 50.0235 31.557 49.7762 31.6394C49.7762 31.6806 49.7762 31.7219 49.8174 31.7219C49.8999 31.7219 50.0235 31.6806 50.106 31.6806C50.6418 31.557 51.2189 31.3509 51.796 31.557C51.8372 31.557 51.9197 31.557 52.0021 31.5158C52.4143 31.3921 52.8265 31.3097 53.2387 31.186C53.486 31.1448 53.6921 31.0211 53.8158 30.7738C53.486 30.815 53.1975 30.9387 52.8677 30.9799C52.4968 31.0623 52.167 30.9799 51.9197 30.9387ZM55.0112 30.3616C55.9593 30.1967 56.0417 30.1555 56.6188 29.6608C56.66 29.6608 56.66 29.6608 56.7012 29.6196C56.7837 29.5372 56.8661 29.4135 56.9486 29.2899C56.9898 29.2486 56.9898 29.1662 57.031 29.1662C57.4844 29.0013 57.6493 28.5067 57.9791 28.2181C57.9791 28.2181 57.9791 28.1769 57.9791 28.0945C57.8142 28.1357 57.6493 28.1357 57.6081 28.2594C57.3195 28.6716 57.1134 29.1662 56.5364 29.3311C56.289 29.4135 56.0417 29.6196 55.8356 29.7433C55.9593 29.9082 55.8768 30.0318 55.7532 30.1143C55.6295 30.1967 55.4234 30.1967 55.2997 30.2379C55.1349 30.2379 55.0936 30.3204 55.0112 30.3616ZM55.2997 19.8092C55.3822 18.7374 55.5058 17.6657 55.5883 16.594C55.1349 17.0474 54.8051 19.1909 55.2997 19.8092ZM46.3137 20.4687C46.8908 20.5924 47.4679 20.5511 47.9625 20.1802C48.1686 20.0153 48.4159 19.8916 48.3747 19.5206C48.0037 19.7267 47.674 19.8916 47.3442 20.0565C47.0144 20.2214 46.6435 20.345 46.3137 20.4687ZM45.8191 29.6608C45.5717 29.2486 43.9229 28.7128 43.4283 28.8777C43.5519 29.0838 45.3244 29.6608 45.8191 29.6608ZM46.6435 30.0731C47.1381 30.9387 49.0342 31.5158 49.6938 31.0211C49.1579 30.9387 48.5808 30.9387 48.0862 30.7738C47.5915 30.6089 47.0969 30.2792 46.6435 30.0731ZM47.9213 25.1266C48.3335 24.9617 48.7045 24.8381 49.0755 24.7144C48.2511 24.7144 47.3854 24.5907 46.6435 25.1678C47.0144 25.0442 47.3854 24.9617 47.8389 24.7968C47.7564 25.0442 47.674 25.209 47.5915 25.4151C47.7976 25.3327 47.9625 25.2915 48.2511 25.209C48.0862 25.1678 48.0037 25.1266 47.9213 25.1266ZM47.8389 23.7251C48.5396 23.9724 49.1991 23.9312 49.8587 23.7251C49.1991 23.3953 48.5396 23.5602 47.8389 23.7251ZM46.0252 24.9205C45.0359 25.2915 44.0466 25.6213 43.4283 26.5281C43.6344 26.4044 43.758 26.2396 43.9641 26.1159C44.2939 25.9098 44.7061 25.7861 45.0359 25.58C45.3656 25.3739 45.6954 25.1266 46.0252 24.9205ZM49.5701 24.0137C49.2816 24.0137 48.993 23.89 48.8281 24.2198C48.8281 24.261 48.7045 24.261 48.6633 24.261C48.5396 24.261 48.4159 24.3022 48.2511 24.3434C48.993 24.3846 49.6526 24.4671 50.3121 24.5083C50.4357 24.5083 50.5594 24.4671 50.6831 24.4671C50.6831 24.4259 50.6831 24.3846 50.6831 24.3846C50.3945 24.3846 50.106 24.3434 49.7762 24.3434C49.6526 24.3022 49.5289 24.261 49.5701 24.0137ZM56.1654 26.693C55.7532 26.5693 55.3822 26.4869 54.9288 26.3632C55.1349 26.5281 55.2997 26.6518 55.4646 26.8166C55.4646 26.8166 55.4234 26.8991 55.4234 26.9815C55.5883 27.0227 55.7532 27.064 55.8768 27.064V27.0227C55.8356 26.9815 55.7532 26.8991 55.7119 26.8579C55.8768 26.8166 56.0417 26.8579 56.1654 26.8166C56.2478 26.8166 56.289 26.6518 56.3715 26.6105C56.3715 26.6105 56.3715 26.6105 56.3303 26.5693C56.289 26.6518 56.2478 26.693 56.1654 26.693ZM49.364 31.5158C49.0342 31.4333 48.7045 31.3097 48.4159 31.3097C48.1274 31.3097 47.8801 30.9387 47.5503 31.186C48.2511 31.5982 49.0755 31.7631 49.364 31.5158ZM47.1793 26.1159C47.1381 26.0747 47.1381 25.9922 47.0969 25.951C46.932 25.9922 46.6847 25.9922 46.6847 26.0335C46.6847 26.322 46.4786 26.3632 46.2725 26.3632C46.2313 26.2808 46.19 26.1983 46.19 26.1159C46.1488 26.1159 46.1488 26.1159 46.1076 26.1159C46.0664 26.2808 46.0664 26.4044 46.0252 26.5693C46.561 26.6518 46.8083 26.2396 47.1793 26.1159ZM60.6584 31.8455C60.6172 31.8455 60.6172 31.8867 60.576 31.8867C60.6172 32.0104 60.6584 32.1341 60.7821 32.2165C60.9057 32.3402 61.0706 32.4226 61.2355 32.5463C61.4416 32.7112 61.524 32.6287 61.524 32.4226C61.1943 32.2165 60.9057 32.0516 60.6584 31.8455ZM51.0128 24.8381C51.3426 24.8381 51.6723 24.7968 51.9609 24.7968C51.8785 24.6732 51.7136 24.6732 51.7136 24.5907C51.6311 24.3022 51.425 24.3846 51.2189 24.3846C51.5487 24.7144 50.9716 24.632 51.0128 24.8381ZM54.0219 30.7326C54.0219 30.7738 54.0219 30.815 54.0219 30.8562C54.3105 30.8562 54.6402 30.8562 54.9288 30.8562C54.97 30.8562 55.0112 30.7738 55.0524 30.7326C55.0524 30.7326 55.0112 30.6501 54.97 30.6501C54.6814 30.6914 54.3517 30.7326 54.0219 30.7326ZM50.1884 23.2717C50.1884 23.4366 50.1472 23.5602 50.1472 23.6839C50.3945 23.6427 50.6831 23.6015 50.9716 23.5602C50.9716 23.519 50.9716 23.519 50.9716 23.4778C50.6831 23.4366 50.4357 23.3541 50.1884 23.2717ZM54.1868 31.5982C54.0631 31.3097 53.857 31.3097 53.6509 31.2684C53.6097 31.3509 53.5685 31.4745 53.486 31.5982C53.7334 31.5982 53.9395 31.5982 54.1868 31.5982ZM44.1702 28.3418L44.2115 28.3006C43.9641 28.1357 43.758 28.012 43.5107 27.8471C43.4283 28.012 43.3871 28.1769 43.5932 28.2181C43.758 28.2181 43.9641 28.2594 44.1702 28.3418ZM59.6691 31.2272C59.7103 31.186 59.7103 31.1448 59.7515 31.1036C59.463 30.8975 59.1745 30.7326 58.8859 30.5265C58.8447 30.5677 58.8447 30.6089 58.8035 30.6089C59.1332 30.8562 59.3806 31.0211 59.6691 31.2272ZM48.7045 25.0029C48.7045 25.1678 48.6633 25.2503 48.6633 25.3739C48.8281 25.3739 48.993 25.3327 49.1579 25.3327C49.1167 25.2503 49.0342 25.1678 48.9518 25.0442C48.9106 25.0442 48.8281 25.0442 48.7045 25.0029ZM61.4828 31.3097C61.4828 31.7219 61.6477 31.8043 62.1011 31.5982C61.8538 31.4745 61.6889 31.3921 61.4828 31.3097ZM50.1472 32.9173C50.1472 32.876 50.106 32.876 50.106 32.8348C49.9411 32.9173 49.735 32.9585 49.5701 33.0409C49.8587 33.2882 49.9823 33.0409 50.1472 32.9173ZM46.6022 30.5265C46.4786 30.1555 46.19 30.1555 45.8191 30.1967C46.1488 30.3204 46.3549 30.444 46.6022 30.5265ZM58.4737 29.9906C58.721 30.1143 58.9271 30.1967 59.1332 30.3204C59.1332 30.2792 59.1745 30.2792 59.1745 30.2379C59.0096 30.1143 58.8035 29.9906 58.6386 29.9082C58.5974 29.8669 58.5149 29.9494 58.4737 29.9906ZM46.2313 30.815C46.2313 30.7738 46.2313 30.7326 46.2725 30.7326C46.0252 30.6501 45.7778 30.5677 45.5305 30.5265C45.5305 30.5677 45.4893 30.6089 45.4893 30.6501C45.7366 30.6914 45.9839 30.7738 46.2313 30.815ZM40.4604 29.9494C40.4604 29.9082 40.4604 29.8669 40.4604 29.8669C40.1306 29.9082 39.8421 29.9082 39.4711 29.9494C39.8421 29.9494 40.1306 29.9494 40.4604 29.9494Z" fill="#59470E"/>
<path d="M56.9896 26.3633C56.9484 26.2396 56.8659 26.116 56.8247 25.9923C56.9896 26.0335 57.1545 26.116 57.2781 26.1984C57.3606 26.2396 57.3606 26.3633 57.4018 26.4457C57.3194 26.487 57.2369 26.5282 57.1132 26.5282C57.072 26.4457 57.0308 26.4045 56.9896 26.3633Z" fill="#59470E"/>
<path d="M8.46773 58.0532C8.20535 58.0532 8.01744 57.9965 7.90398 57.883C7.79052 57.7624 7.73379 57.5391 7.73379 57.2129C7.73379 56.9931 7.75506 56.713 7.79761 56.3726C7.84725 56.0251 7.92525 55.55 8.03162 54.9473C8.21599 53.8339 8.36136 52.8695 8.46773 52.0541C8.53155 51.5435 8.56346 51.118 8.56346 50.7776C8.56346 50.4585 8.44645 50.299 8.21244 50.299C8.02807 50.299 7.8047 50.3947 7.54233 50.5862C7.28705 50.7706 7.0034 51.0684 6.69139 51.4797C6.59211 51.6144 6.4822 51.6818 6.36165 51.6818C6.26237 51.6818 6.17373 51.6357 6.09573 51.5435C6.02482 51.4442 5.98936 51.3343 5.98936 51.2138C5.98936 51.1003 6.01064 50.9868 6.05318 50.8734C6.10282 50.7528 6.18082 50.6181 6.28719 50.4692C6.62757 49.9941 7.00695 49.6289 7.42533 49.3736C7.8437 49.1112 8.26208 48.98 8.68046 48.98C9.07048 48.98 9.36831 49.1041 9.57395 49.3523C9.78668 49.6005 9.89305 49.9622 9.89305 50.4373C9.89305 50.6287 9.87532 50.8556 9.83987 51.118C9.80441 51.3733 9.7725 51.5825 9.74414 51.7456C9.71577 51.9087 9.6945 52.0221 9.68032 52.086C10.0845 50.9301 10.5383 50.1253 11.0418 49.6714C11.5453 49.2105 12.0984 48.98 12.7012 48.98C13.1621 48.98 13.5237 49.1431 13.7861 49.4693C14.0556 49.7955 14.1903 50.2564 14.1903 50.8521C14.1903 51.0861 14.1584 51.3768 14.0946 51.7243C14.4491 50.7457 14.864 50.0437 15.3391 49.6182C15.8142 49.1928 16.3602 48.98 16.9771 48.98C17.4735 48.98 17.8529 49.1396 18.1153 49.4587C18.3847 49.7778 18.5195 50.2245 18.5195 50.7989C18.5195 51.1109 18.4734 51.4903 18.3812 51.937L17.7323 54.9792C17.6614 55.3337 17.626 55.6386 17.626 55.8939C17.626 56.1918 17.6933 56.4151 17.8281 56.564C17.9699 56.713 18.1649 56.7874 18.4131 56.7874C18.6471 56.7874 18.874 56.7094 19.0938 56.5534C19.3208 56.3974 19.5867 56.1386 19.8916 55.7769C19.9767 55.6776 20.0724 55.628 20.1788 55.628C20.271 55.628 20.3419 55.6706 20.3915 55.7556C20.4483 55.8407 20.4766 55.9577 20.4766 56.1067C20.4766 56.3832 20.4093 56.603 20.2745 56.7661C19.9058 57.2129 19.5406 57.5391 19.1789 57.7447C18.8173 57.9504 18.4379 58.0532 18.0408 58.0532C17.4381 58.0532 16.9665 57.8759 16.6261 57.5213C16.2857 57.1597 16.1156 56.6775 16.1156 56.0747C16.1156 55.6564 16.2006 55.0501 16.3708 54.2559L16.7963 52.3093C16.8105 52.2455 16.8353 52.1321 16.8708 51.969C16.9062 51.8059 16.9346 51.6534 16.9559 51.5116C16.9771 51.3627 16.9878 51.2173 16.9878 51.0755C16.9878 50.8273 16.9381 50.6429 16.8389 50.5224C16.7467 50.3947 16.6119 50.3309 16.4347 50.3309C16.1014 50.3309 15.7504 50.5472 15.3816 50.9797C15.02 51.4052 14.6725 52.1143 14.3392 53.1071C14.013 54.0999 13.7471 55.3904 13.5415 56.9789C13.4918 57.4043 13.4032 57.6915 13.2755 57.8404C13.155 57.9823 12.9564 58.0532 12.6799 58.0532C12.4388 58.0532 12.2615 57.9965 12.148 57.883C12.0417 57.7695 11.9885 57.5568 11.9885 57.2448C11.9885 56.9541 12.0275 56.5747 12.1055 56.1067C12.1835 55.6315 12.2828 55.0749 12.4033 54.4367C12.7295 52.7206 12.8926 51.6144 12.8926 51.118C12.8926 50.8486 12.8394 50.65 12.7331 50.5224C12.6338 50.3947 12.4813 50.3309 12.2757 50.3309C11.9282 50.3309 11.5701 50.5295 11.2014 50.9266C10.8326 51.3166 10.471 52.0151 10.1164 53.022C9.76896 54.0219 9.47822 55.3763 9.24421 57.0852C9.19457 57.4469 9.12011 57.6986 9.02084 57.8404C8.92865 57.9823 8.74428 58.0532 8.46773 58.0532ZM20.9279 58.0532C20.4882 58.0532 20.1372 57.8936 19.8748 57.5745C19.6124 57.2554 19.4813 56.837 19.4813 56.3194C19.4813 55.7521 19.6124 55.2167 19.8748 54.7132C20.1372 54.2027 20.4847 53.7949 20.9172 53.49C21.3569 53.178 21.8213 53.022 22.3106 53.022C22.4666 53.022 22.5695 53.0539 22.6191 53.1177C22.6758 53.1745 22.7219 53.2808 22.7574 53.4368C22.9063 53.4085 23.0623 53.3943 23.2254 53.3943C23.5729 53.3943 23.7466 53.5184 23.7466 53.7666C23.7466 53.9155 23.6934 54.27 23.587 54.8302C23.4239 55.6457 23.3424 56.213 23.3424 56.5321C23.3424 56.6385 23.3672 56.7236 23.4169 56.7874C23.4736 56.8512 23.5445 56.8831 23.6296 56.8831C23.7643 56.8831 23.9274 56.798 24.1189 56.6279C24.3103 56.4506 24.5692 56.1669 24.8954 55.7769C24.9805 55.6776 25.0762 55.628 25.1826 55.628C25.2747 55.628 25.3457 55.6706 25.3953 55.7556C25.452 55.8407 25.4804 55.9577 25.4804 56.1067C25.4804 56.3903 25.413 56.6101 25.2783 56.7661C24.9875 57.1278 24.6791 57.4327 24.3529 57.6809C24.0267 57.9291 23.7111 58.0532 23.4062 58.0532C23.1722 58.0532 22.9559 57.9752 22.7574 57.8192C22.5659 57.6561 22.4205 57.4363 22.3213 57.1597C21.9525 57.7554 21.4881 58.0532 20.9279 58.0532ZM21.3108 56.9789C21.4668 56.9789 21.6157 56.8867 21.7575 56.7023C21.8993 56.5179 22.0022 56.2733 22.066 55.9684L22.4595 54.0112C22.1617 54.0183 21.8852 54.1318 21.6299 54.3516C21.3817 54.5643 21.1831 54.848 21.0342 55.2025C20.8853 55.5571 20.8108 55.9329 20.8108 56.33C20.8108 56.5499 20.8534 56.713 20.9385 56.8193C21.0307 56.9257 21.1548 56.9789 21.3108 56.9789ZM25.3711 58.0532C25.1016 58.0532 24.9102 57.9114 24.7967 57.6277C24.6904 57.3441 24.6372 56.8902 24.6372 56.2662C24.6372 55.3444 24.7684 54.4686 25.0307 53.6389C25.0946 53.4333 25.1974 53.2844 25.3392 53.1922C25.4881 53.0929 25.6938 53.0433 25.9561 53.0433C26.098 53.0433 26.1972 53.061 26.254 53.0965C26.3107 53.1319 26.3391 53.1993 26.3391 53.2986C26.3391 53.412 26.2859 53.6673 26.1795 54.0644C26.1086 54.348 26.0519 54.5962 26.0093 54.809C25.9668 55.0217 25.9313 55.2841 25.9029 55.5961C26.137 54.9863 26.3993 54.4899 26.6901 54.1069C26.9808 53.724 27.2645 53.451 27.541 53.2879C27.8247 53.1248 28.0835 53.0433 28.3175 53.0433C28.7784 53.0433 29.0089 53.2737 29.0089 53.7347C29.0089 54.0112 28.9309 54.5111 28.7749 55.2344C28.6401 55.8514 28.5728 56.2591 28.5728 56.4577C28.5728 56.7413 28.6756 56.8831 28.8812 56.8831C29.0231 56.8831 29.1897 56.798 29.3812 56.6279C29.5797 56.4506 29.8421 56.1669 30.1683 55.7769C30.2534 55.6776 30.3491 55.628 30.4555 55.628C30.5477 55.628 30.6186 55.6706 30.6682 55.7556C30.7249 55.8407 30.7533 55.9577 30.7533 56.1067C30.7533 56.3903 30.6859 56.6101 30.5512 56.7661C30.2463 57.142 29.9165 57.4504 29.562 57.6915C29.2145 57.9326 28.8174 58.0532 28.3707 58.0532C28.009 58.0532 27.736 57.9504 27.5516 57.7447C27.3673 57.532 27.2751 57.2271 27.2751 56.83C27.2751 56.6314 27.3247 56.2768 27.424 55.7663C27.5162 55.3195 27.5623 55.0111 27.5623 54.8409C27.5623 54.7274 27.5233 54.6707 27.4453 54.6707C27.3531 54.6707 27.2219 54.7912 27.0517 55.0323C26.8886 55.2664 26.7184 55.5784 26.5412 55.9684C26.371 56.3584 26.2327 56.7697 26.1263 57.2022C26.0483 57.5355 25.9561 57.7624 25.8498 57.883C25.7505 57.9965 25.5909 58.0532 25.3711 58.0532ZM30.9777 58.0532C30.6586 58.0532 30.3962 57.9078 30.1906 57.6171C29.992 57.3192 29.8927 56.9505 29.8927 56.5109C29.8927 55.979 29.9282 55.4933 29.9991 55.0536C30.07 54.6069 30.187 54.1353 30.3501 53.6389C30.421 53.4262 30.5203 53.2737 30.6479 53.1816C30.7756 53.0894 30.9777 53.0433 31.2542 53.0433C31.4102 53.0433 31.5166 53.0681 31.5733 53.1177C31.6372 53.1674 31.6691 53.2418 31.6691 53.3411C31.6691 53.3978 31.6301 53.5893 31.5521 53.9155C31.4811 54.1779 31.4244 54.4154 31.3819 54.6281C31.24 55.3727 31.1691 55.8691 31.1691 56.1173C31.1691 56.2662 31.1869 56.3726 31.2223 56.4364C31.2578 56.4931 31.3145 56.5215 31.3925 56.5215C31.4989 56.5215 31.6301 56.4151 31.7861 56.2024C31.9492 55.9897 32.1194 55.667 32.2966 55.2344C32.481 54.8019 32.6583 54.27 32.8285 53.6389C32.8852 53.4262 32.9703 53.2737 33.0838 53.1816C33.2043 53.0894 33.3816 53.0433 33.6156 53.0433C33.7787 53.0433 33.8921 53.0645 33.956 53.1071C34.0198 53.1425 34.0517 53.2135 34.0517 53.3198C34.0517 53.4971 33.9631 53.9829 33.7858 54.7771C33.5872 55.6847 33.4879 56.2449 33.4879 56.4577C33.4879 56.5924 33.5163 56.6988 33.573 56.7768C33.6298 56.8477 33.7042 56.8831 33.7964 56.8831C33.9382 56.8831 34.1049 56.798 34.2963 56.6279C34.4949 56.4506 34.7573 56.1669 35.0835 55.7769C35.1686 55.6776 35.2643 55.628 35.3707 55.628C35.4628 55.628 35.5338 55.6706 35.5834 55.7556C35.6401 55.8407 35.6685 55.9577 35.6685 56.1067C35.6685 56.3903 35.6011 56.6101 35.4664 56.7661C35.1615 57.142 34.8317 57.4504 34.4772 57.6915C34.1297 57.9326 33.7326 58.0532 33.2859 58.0532C32.9455 58.0532 32.6937 57.922 32.5306 57.6596C32.3746 57.3973 32.2966 57.0285 32.2966 56.5534C32.1761 57.0356 31.9953 57.4079 31.7542 57.6703C31.5131 57.9255 31.2542 58.0532 30.9777 58.0532ZM36.1143 58.0532C35.6747 58.0532 35.3236 57.8936 35.0613 57.5745C34.7989 57.2554 34.6677 56.837 34.6677 56.3194C34.6677 55.7521 34.7989 55.2167 35.0613 54.7132C35.3236 54.2027 35.6711 53.7949 36.1037 53.49C36.5433 53.178 37.0078 53.022 37.4971 53.022C37.6531 53.022 37.7559 53.0539 37.8056 53.1177C37.8623 53.1745 37.9084 53.2808 37.9438 53.4368C38.0928 53.4085 38.2488 53.3943 38.4119 53.3943C38.7593 53.3943 38.9331 53.5184 38.9331 53.7666C38.9331 53.9155 38.8799 54.27 38.7735 54.8302C38.6104 55.6457 38.5289 56.213 38.5289 56.5321C38.5289 56.6385 38.5537 56.7236 38.6033 56.7874C38.66 56.8512 38.731 56.8831 38.816 56.8831C38.9508 56.8831 39.1139 56.798 39.3053 56.6279C39.4968 56.4506 39.7556 56.1669 40.0818 55.7769C40.1669 55.6776 40.2626 55.628 40.369 55.628C40.4612 55.628 40.5321 55.6706 40.5818 55.7556C40.6385 55.8407 40.6668 55.9577 40.6668 56.1067C40.6668 56.3903 40.5995 56.6101 40.4647 56.7661C40.174 57.1278 39.8655 57.4327 39.5393 57.6809C39.2132 57.9291 38.8976 58.0532 38.5927 58.0532C38.3587 58.0532 38.1424 57.9752 37.9438 57.8192C37.7524 57.6561 37.607 57.4363 37.5077 57.1597C37.139 57.7554 36.6745 58.0532 36.1143 58.0532ZM36.4972 56.9789C36.6532 56.9789 36.8022 56.8867 36.944 56.7023C37.0858 56.5179 37.1886 56.2733 37.2524 55.9684L37.646 54.0112C37.3482 54.0183 37.0716 54.1318 36.8163 54.3516C36.5681 54.5643 36.3696 54.848 36.2207 55.2025C36.0718 55.5571 35.9973 55.9329 35.9973 56.33C35.9973 56.5499 36.0399 56.713 36.125 56.8193C36.2171 56.9257 36.3412 56.9789 36.4972 56.9789ZM42.8764 56.5002C42.9544 56.4293 43.0324 56.3939 43.1104 56.3939C43.1955 56.3939 43.2628 56.4435 43.3125 56.5428C43.3692 56.6349 43.3976 56.7484 43.3976 56.8831C43.3976 57.181 43.2912 57.4185 43.0785 57.5958C42.7097 57.9007 42.2914 58.0532 41.8233 58.0532C41.1497 58.0532 40.6568 57.7731 40.3448 57.2129C40.0328 56.6456 39.8768 55.9081 39.8768 55.0004C39.8768 54.1353 39.9867 53.1496 40.2066 52.0434C40.4335 50.9372 40.7632 49.987 41.1958 49.1928C41.6354 48.3986 42.1566 48.0015 42.7594 48.0015C43.0998 48.0015 43.3657 48.161 43.5571 48.4801C43.7557 48.7921 43.855 49.2424 43.855 49.831C43.855 50.6748 43.621 51.6534 43.1529 52.7667C42.692 53.88 42.0609 54.9792 41.2596 56.0641C41.3092 56.3548 41.3979 56.564 41.5255 56.6917C41.6532 56.8193 41.8269 56.8831 42.0467 56.8831C42.1673 56.8831 42.302 56.8477 42.4509 56.7768C42.6069 56.7059 42.7487 56.6137 42.8764 56.5002ZM42.5254 49.0545C42.3623 49.0545 42.1779 49.3488 41.9723 49.9373C41.7666 50.5259 41.5858 51.2563 41.4298 52.1285C41.2738 53.0007 41.1887 53.8375 41.1745 54.6388C41.678 53.8091 42.0786 52.9795 42.3765 52.1498C42.6743 51.313 42.8232 50.5507 42.8232 49.8629C42.8232 49.324 42.7239 49.0545 42.5254 49.0545ZM52.5751 55.628C52.6673 55.628 52.7382 55.6706 52.7878 55.7556C52.8446 55.8407 52.8729 55.9577 52.8729 56.1067C52.8729 56.3903 52.8056 56.6101 52.6708 56.7661C52.3801 57.1207 52.061 57.4256 51.7135 57.6809C51.3661 57.9291 51.0221 58.0532 50.6818 58.0532C50.1428 58.0532 49.7315 57.7376 49.4479 57.1065C49.1501 57.4823 48.8877 57.7341 48.6608 57.8617C48.441 57.9894 48.1821 58.0532 47.8843 58.0532C47.4517 58.0532 47.0936 57.8936 46.81 57.5745C46.5334 57.2483 46.3952 56.8264 46.3952 56.3088C46.3952 55.7415 46.5157 55.2167 46.7568 54.7345C46.9979 54.2452 47.3276 53.8481 47.746 53.5432C48.1715 53.2312 48.6466 53.0468 49.1713 52.9901C49.3061 51.6144 49.5614 50.4408 49.9372 49.4693C50.3201 48.4907 50.82 48.0015 51.437 48.0015C51.7419 48.0015 51.9936 48.1397 52.1922 48.4163C52.3978 48.6928 52.5006 49.1112 52.5006 49.6714C52.5006 50.4656 52.3056 51.3946 51.9156 52.4583C51.5256 53.5219 51.0044 54.614 50.352 55.7344C50.3804 56.1457 50.4407 56.4399 50.5328 56.6172C50.6321 56.7945 50.7562 56.8831 50.9051 56.8831C51.0966 56.8831 51.2916 56.798 51.4902 56.6279C51.6887 56.4577 51.9546 56.174 52.2879 55.7769C52.373 55.6776 52.4687 55.628 52.5751 55.628ZM51.32 49.0439C51.1852 49.0439 51.0505 49.285 50.9158 49.7672C50.781 50.2423 50.664 50.8663 50.5648 51.6392C50.4726 52.4122 50.4052 53.2206 50.3627 54.0644C51.1569 52.3342 51.554 50.9443 51.554 49.8948C51.554 49.6253 51.5292 49.4161 51.4795 49.2672C51.437 49.1183 51.3838 49.0439 51.32 49.0439ZM48.2566 56.9789C48.3913 56.9789 48.526 56.9257 48.6608 56.8193C48.7955 56.7059 48.9657 56.5002 49.1713 56.2024C49.1004 55.8195 49.065 55.3904 49.065 54.9153C49.065 54.7452 49.0721 54.4686 49.0863 54.0857C48.6962 54.2062 48.37 54.4686 48.1077 54.8728C47.8524 55.2699 47.7247 55.7131 47.7247 56.2024C47.7247 56.72 47.902 56.9789 48.2566 56.9789ZM53.8052 58.0532C53.3869 58.0532 53.0287 57.9504 52.7309 57.7447C52.4402 57.532 52.2204 57.2554 52.0714 56.9151C51.9225 56.5747 51.8481 56.2095 51.8481 55.8195C51.8481 55.2805 51.9473 54.8019 52.1459 54.3835C52.3515 53.958 52.6281 53.6283 52.9756 53.3943C53.323 53.1532 53.713 53.0326 54.1456 53.0326C54.564 53.0326 54.9221 53.139 55.2199 53.3517C55.5177 53.5574 55.7411 53.8304 55.89 54.1708C56.0389 54.5111 56.1134 54.8763 56.1134 55.2664C56.1134 55.8053 56.0106 56.2875 55.8049 56.713C55.5993 57.1313 55.3192 57.4611 54.9646 57.7022C54.6172 57.9362 54.2307 58.0532 53.8052 58.0532ZM53.9222 56.9044C54.1633 56.9044 54.3654 56.7732 54.5285 56.5109C54.6987 56.2485 54.7838 55.8656 54.7838 55.3621C54.7838 54.9721 54.7129 54.6778 54.5711 54.4792C54.4293 54.2807 54.2591 54.1814 54.0605 54.1814C53.8052 54.1814 53.5925 54.3126 53.4223 54.575C53.2592 54.8302 53.1777 55.2132 53.1777 55.7237C53.1777 56.1279 53.2486 56.4258 53.3904 56.6172C53.5322 56.8087 53.7095 56.9044 53.9222 56.9044ZM63.9503 58.0532C63.1064 58.0532 62.3725 57.9007 61.7485 57.5958C61.1245 57.2838 60.6458 56.8441 60.3125 56.2768C59.9792 55.7096 59.8126 55.0501 59.8126 54.2984C59.8126 53.256 60.0076 52.3306 60.3976 51.5222C60.7947 50.7138 61.3301 50.0898 62.0038 49.6501C62.6774 49.2034 63.4255 48.98 64.2481 48.98C65.014 48.98 65.5954 49.1786 65.9925 49.5757C66.3896 49.9657 66.5882 50.4834 66.5882 51.1287C66.5882 51.5612 66.5102 51.9087 66.3542 52.1711C66.2053 52.4334 65.989 52.5646 65.7053 52.5646C65.5068 52.5646 65.3508 52.5185 65.2373 52.4263C65.1239 52.3342 65.0671 52.1994 65.0671 52.0221C65.0671 51.9583 65.0813 51.8413 65.1097 51.6711C65.1522 51.4584 65.1735 51.2882 65.1735 51.1606C65.1735 50.5153 64.8296 50.1926 64.1417 50.1926C63.6737 50.1926 63.227 50.3451 62.8015 50.65C62.376 50.9549 62.0321 51.4052 61.7697 52.0009C61.5074 52.5894 61.3762 53.2915 61.3762 54.1069C61.3762 54.9579 61.6137 55.6174 62.0889 56.0854C62.564 56.5463 63.266 56.7768 64.1949 56.7768C64.6559 56.7768 65.1203 56.72 65.5883 56.6066C66.0635 56.486 66.5882 56.3052 67.1626 56.0641C67.2689 56.0216 67.3576 56.0003 67.4285 56.0003C67.542 56.0003 67.6271 56.0428 67.6838 56.1279C67.7405 56.213 67.7689 56.3229 67.7689 56.4577C67.7689 56.8902 67.5349 57.2093 67.0669 57.415C66.5634 57.6348 66.0386 57.7979 65.4926 57.9043C64.9537 58.0035 64.4396 58.0532 63.9503 58.0532ZM67.6896 58.0532C67.4201 58.0532 67.2287 57.9114 67.1152 57.6277C67.0088 57.3441 66.9557 56.8902 66.9557 56.2662C66.9557 55.3444 67.0869 54.4686 67.3492 53.6389C67.413 53.4333 67.5159 53.2844 67.6577 53.1922C67.8066 53.0929 68.0123 53.0433 68.2746 53.0433C68.4164 53.0433 68.5157 53.061 68.5725 53.0965C68.6292 53.1319 68.6575 53.1993 68.6575 53.2986C68.6575 53.412 68.6044 53.6673 68.498 54.0644C68.4271 54.348 68.3704 54.5962 68.3278 54.809C68.2853 55.0217 68.2498 55.2841 68.2214 55.5961C68.4554 54.9863 68.7178 54.4899 69.0086 54.1069C69.2993 53.724 69.5829 53.451 69.8595 53.2879C70.1431 53.1248 70.402 53.0433 70.636 53.0433C71.0969 53.0433 71.3274 53.2737 71.3274 53.7347C71.3274 53.8268 71.2955 54.0502 71.2316 54.4048C71.1749 54.6884 71.1465 54.8657 71.1465 54.9366C71.1465 55.1848 71.2352 55.3089 71.4125 55.3089C71.611 55.3089 71.8663 55.1529 72.1783 54.8409C72.2705 54.7487 72.3662 54.7026 72.4655 54.7026C72.5577 54.7026 72.6286 54.7452 72.6782 54.8302C72.735 54.9083 72.7633 55.0146 72.7633 55.1493C72.7633 55.4117 72.6924 55.6174 72.5506 55.7663C72.352 55.9719 72.118 56.1492 71.8486 56.2981C71.5862 56.4399 71.3061 56.5109 71.0083 56.5109C70.6324 56.5109 70.3452 56.4151 70.1467 56.2237C69.9552 56.0322 69.8595 55.7734 69.8595 55.4472C69.8595 55.3408 69.8701 55.2344 69.8914 55.1281C69.9056 54.9863 69.9127 54.8905 69.9127 54.8409C69.9127 54.7274 69.8737 54.6707 69.7957 54.6707C69.6893 54.6707 69.5475 54.7912 69.3702 55.0323C69.2 55.2664 69.0298 55.5784 68.8596 55.9684C68.6895 56.3584 68.5512 56.7697 68.4448 57.2022C68.3668 57.5355 68.2746 57.7624 68.1683 57.883C68.069 57.9965 67.9094 58.0532 67.6896 58.0532ZM76.5189 55.628C76.6111 55.628 76.682 55.6706 76.7317 55.7556C76.7884 55.8407 76.8168 55.9577 76.8168 56.1067C76.8168 56.3903 76.7494 56.6101 76.6147 56.7661C76.3523 57.0852 75.98 57.3795 75.4978 57.649C75.0227 57.9185 74.5121 58.0532 73.9661 58.0532C73.2215 58.0532 72.6436 57.8511 72.2323 57.4469C71.821 57.0427 71.6154 56.4896 71.6154 55.7876C71.6154 55.2983 71.7182 54.8444 71.9239 54.4261C72.1295 54.0006 72.4132 53.6637 72.7748 53.4156C73.1435 53.1674 73.5584 53.0433 74.0193 53.0433C74.4306 53.0433 74.7603 53.1674 75.0085 53.4156C75.2567 53.6567 75.3808 53.9864 75.3808 54.4048C75.3808 54.8941 75.2035 55.316 74.849 55.6706C74.5015 56.018 73.9094 56.2946 73.0726 56.5002C73.2499 56.8264 73.5867 56.9895 74.0831 56.9895C74.4022 56.9895 74.7639 56.8796 75.1681 56.6598C75.5794 56.4329 75.9339 56.1386 76.2317 55.7769C76.3168 55.6776 76.4126 55.628 76.5189 55.628ZM73.8385 54.0857C73.5761 54.0857 73.3527 54.2381 73.1684 54.5431C72.9911 54.848 72.9024 55.2167 72.9024 55.6493V55.6706C73.3208 55.5713 73.6506 55.4224 73.8917 55.2238C74.1328 55.0253 74.2533 54.7948 74.2533 54.5324C74.2533 54.3977 74.2143 54.2913 74.1363 54.2133C74.0654 54.1282 73.9661 54.0857 73.8385 54.0857ZM77.9291 58.2872C77.5604 58.2872 77.2768 58.2021 77.0782 58.0319C76.8867 57.8617 76.791 57.6703 76.791 57.4575C76.791 57.2732 76.8584 57.1136 76.9931 56.9789C77.1278 56.8441 77.3264 56.7768 77.5888 56.7768C77.6809 56.7768 77.7873 56.7874 77.9079 56.8087C78.0355 56.8229 78.1312 56.8335 78.1951 56.8406C78.188 56.6562 78.1454 56.4825 78.0674 56.3194C77.9965 56.1563 77.9043 56.0003 77.7909 55.8514C77.6774 55.6954 77.571 55.5606 77.4718 55.4472C77.2519 55.8656 77.0321 56.213 76.8123 56.4896C76.5995 56.7661 76.3655 57.0285 76.1103 57.2767C75.9826 57.4043 75.8479 57.4682 75.7061 57.4682C75.5926 57.4682 75.5004 57.4292 75.4295 57.3512C75.3586 57.2661 75.3231 57.1632 75.3231 57.0427C75.3231 56.9009 75.3728 56.7697 75.4721 56.6491L75.6103 56.4789C76.0003 55.9967 76.2946 55.5996 76.4932 55.2876C76.6137 55.082 76.7556 54.809 76.9186 54.4686C77.0817 54.1211 77.2413 53.763 77.3973 53.3943C77.532 53.0823 77.8121 52.9263 78.2376 52.9263C78.4362 52.9263 78.5744 52.944 78.6524 52.9795C78.7304 53.0149 78.7694 53.0716 78.7694 53.1496C78.7694 53.1922 78.7553 53.2596 78.7269 53.3517C78.6985 53.4439 78.6595 53.5361 78.6099 53.6283C78.4823 53.8836 78.4184 54.0999 78.4184 54.2771C78.4184 54.3835 78.4539 54.5005 78.5248 54.6281C78.6028 54.7558 78.7198 54.9153 78.8758 55.1068C79.1027 55.4046 79.2729 55.6599 79.3864 55.8726C79.5069 56.0783 79.5672 56.3052 79.5672 56.5534C79.5672 56.6243 79.5601 56.7236 79.5459 56.8512C79.8934 56.7165 80.3011 56.3584 80.7692 55.7769C80.8542 55.6776 80.95 55.628 81.0563 55.628C81.1485 55.628 81.2194 55.6706 81.2691 55.7556C81.3258 55.8407 81.3542 55.9577 81.3542 56.1067C81.3542 56.3761 81.2868 56.5959 81.1521 56.7661C80.7975 57.2058 80.4571 57.5072 80.1309 57.6703C79.8118 57.8263 79.4147 57.9114 78.9396 57.9255C78.656 58.1666 78.3192 58.2872 77.9291 58.2872ZM82.5216 58.0532C81.8267 58.0532 81.2842 57.8582 80.8942 57.4682C80.5113 57.0711 80.3198 56.5499 80.3198 55.9046C80.3198 55.3302 80.4333 54.8267 80.6602 54.3941C80.8871 53.9616 81.1814 53.6283 81.5431 53.3943C81.9047 53.1603 82.2841 53.0433 82.6812 53.0433C83.0712 53.0433 83.3726 53.1603 83.5853 53.3943C83.8051 53.6212 83.9151 53.9155 83.9151 54.2771C83.9151 54.575 83.8477 54.8267 83.713 55.0323C83.5853 55.238 83.4151 55.3408 83.2024 55.3408C83.0677 55.3408 82.9577 55.3089 82.8727 55.2451C82.7946 55.1813 82.7556 55.0926 82.7556 54.9792C82.7556 54.9295 82.7627 54.8728 82.7769 54.809C82.7911 54.7452 82.8017 54.6991 82.8088 54.6707C82.8443 54.5643 82.862 54.4651 82.862 54.3729C82.862 54.2807 82.8372 54.2098 82.7876 54.1601C82.745 54.1105 82.6812 54.0857 82.5961 54.0857C82.433 54.0857 82.2805 54.1601 82.1387 54.309C81.9969 54.4509 81.8834 54.6459 81.7983 54.8941C81.7132 55.1423 81.6707 55.4153 81.6707 55.7131C81.6707 56.5357 82.0288 56.947 82.745 56.947C83.0357 56.947 83.3478 56.8512 83.681 56.6598C84.0214 56.4612 84.3547 56.1669 84.6809 55.7769C84.766 55.6776 84.8617 55.628 84.9681 55.628C85.0603 55.628 85.1312 55.6706 85.1808 55.7556C85.2376 55.8407 85.2659 55.9577 85.2659 56.1067C85.2659 56.3761 85.1986 56.5959 85.0638 56.7661C84.7305 57.1774 84.3299 57.4965 83.8619 57.7234C83.4009 57.9433 82.9542 58.0532 82.5216 58.0532ZM89.1501 55.628C89.2423 55.628 89.3132 55.6706 89.3628 55.7556C89.4195 55.8407 89.4479 55.9577 89.4479 56.1067C89.4479 56.3903 89.3805 56.6101 89.2458 56.7661C88.9834 57.0852 88.6112 57.3795 88.129 57.649C87.6538 57.9185 87.1433 58.0532 86.5973 58.0532C85.8527 58.0532 85.2748 57.8511 84.8635 57.4469C84.4522 57.0427 84.2465 56.4896 84.2465 55.7876C84.2465 55.2983 84.3494 54.8444 84.555 54.4261C84.7606 54.0006 85.0443 53.6637 85.4059 53.4156C85.7747 53.1674 86.1895 53.0433 86.6504 53.0433C87.0617 53.0433 87.3915 53.1674 87.6397 53.4156C87.8879 53.6567 88.0119 53.9864 88.0119 54.4048C88.0119 54.8941 87.8347 55.316 87.4801 55.6706C87.1326 56.018 86.5405 56.2946 85.7038 56.5002C85.8811 56.8264 86.2179 56.9895 86.7143 56.9895C87.0334 56.9895 87.395 56.8796 87.7992 56.6598C88.2105 56.4329 88.5651 56.1386 88.8629 55.7769C88.948 55.6776 89.0437 55.628 89.1501 55.628ZM86.4696 54.0857C86.2072 54.0857 85.9839 54.2381 85.7995 54.5431C85.6222 54.848 85.5336 55.2167 85.5336 55.6493V55.6706C85.952 55.5713 86.2817 55.4224 86.5228 55.2238C86.7639 55.0253 86.8845 54.7948 86.8845 54.5324C86.8845 54.3977 86.8454 54.2913 86.7674 54.2133C86.6965 54.1282 86.5973 54.0857 86.4696 54.0857ZM92.8791 54.5005C93.0351 54.5005 93.1663 54.5572 93.2727 54.6707C93.3861 54.7771 93.4428 54.9118 93.4428 55.0749C93.4428 55.1671 93.4216 55.2664 93.379 55.3727C93.2656 55.6351 93.106 55.8549 92.9004 56.0322C92.6947 56.2095 92.4678 56.2981 92.2196 56.2981C92.0211 56.2981 91.8509 56.2272 91.7091 56.0854C91.5743 55.9436 91.507 55.7521 91.507 55.511C91.507 55.3763 91.514 55.2309 91.5282 55.0749C91.5424 54.9614 91.5495 54.8834 91.5495 54.8409C91.5495 54.7842 91.5353 54.7416 91.507 54.7132C91.4857 54.6849 91.4573 54.6707 91.4219 54.6707C91.3226 54.6707 91.1879 54.7912 91.0177 55.0323C90.8475 55.2664 90.6773 55.5784 90.5071 55.9684C90.3369 56.3584 90.1986 56.7697 90.0923 57.2022C90.0143 57.5426 89.9256 57.7695 89.8263 57.883C89.7271 57.9965 89.564 58.0532 89.3371 58.0532C89.0676 58.0532 88.8761 57.9114 88.7627 57.6277C88.6563 57.3441 88.6031 56.8902 88.6031 56.2662C88.6031 55.3444 88.7343 54.4686 88.9967 53.6389C89.0605 53.4333 89.1633 53.2844 89.3051 53.1922C89.4541 53.0929 89.6597 53.0433 89.9221 53.0433C90.0639 53.0433 90.1632 53.061 90.2199 53.0965C90.2766 53.1319 90.305 53.1993 90.305 53.2986C90.305 53.412 90.2518 53.6673 90.1454 54.0644C90.0745 54.348 90.0178 54.5962 89.9753 54.809C89.9327 55.0217 89.8973 55.2841 89.8689 55.5961C90.1029 54.9863 90.3653 54.4899 90.656 54.1069C90.9468 53.724 91.2304 53.451 91.507 53.2879C91.7835 53.1248 92.0352 53.0433 92.2622 53.0433C92.4678 53.0433 92.6238 53.1035 92.7302 53.2241C92.8436 53.3376 92.9004 53.5077 92.9004 53.7347C92.9004 53.8694 92.8614 54.1247 92.7834 54.5005H92.8791Z" fill="#59470E"/>
</g>
<defs>
<clipPath id="clip0_72_367">
<rect width="100" height="76.2857" fill="white"/>
</clipPath>
</defs>
</svg>
