<svg width="25" height="25" viewBox="0 0 25 25" fill="none" xmlns="http://www.w3.org/2000/svg">
<path d="M19.5025 15.6938L16.926 15.3993C16.6233 15.3638 16.3164 15.3974 16.0285 15.4975C15.7405 15.5976 15.479 15.7617 15.2636 15.9773L13.3967 17.843C10.5181 16.3788 8.17829 14.039 6.71408 11.1604L8.5895 9.28377C9.02641 8.84808 9.23939 8.23957 9.16758 7.62011L8.87428 5.06438C8.81664 4.56956 8.57905 4.1132 8.20675 3.78219C7.83445 3.45118 7.35343 3.26863 6.85526 3.26929H5.10154C3.95511 3.26929 3.00219 4.22343 3.07278 5.36864C3.6107 14.0301 10.5367 20.9464 19.1885 21.4843C20.3337 21.5549 21.2878 20.602 21.2878 19.4556V17.7019C21.2903 17.2059 21.1094 16.7264 20.7799 16.3558C20.4503 15.9851 19.9953 15.7493 19.5025 15.6938Z" fill="#005D79"/>
</svg>
