<svg width="100" height="77" viewBox="0 0 100 77" fill="none" xmlns="http://www.w3.org/2000/svg">
<g clip-path="url(#clip0_24_150)">
<path fill-rule="evenodd" clip-rule="evenodd" d="M0 0H100V76.2857H0V0ZM0.571429 0.571429H99.4286V75.7143H0.571429V0.571429ZM1.71429 1.71429H98.2857V74.5714H1.71429V1.71429ZM2.28571 2.28571H97.7143V74H1.71429H2.28571V2.28571Z" fill="#6A2C70"/>
<path d="M39.4711 27.0227C39.3475 26.4869 39.1826 25.9098 39.0177 25.3739C38.9765 25.2503 38.8528 25.1678 38.8116 25.0854C38.7704 24.9617 38.8116 24.8381 38.8528 24.7144C39.1826 24.7144 39.265 25.0029 39.3887 25.1678C39.5948 25.4564 39.7184 25.8274 39.8009 26.1571C40.0894 27.1052 40.6253 27.8059 41.4497 28.3418C41.8619 28.5891 42.2329 28.8777 42.6451 29.1662C42.7275 29.2486 42.8512 29.2899 43.0161 29.3723C42.81 29.0013 42.7275 28.5891 42.2741 28.5067C42.1504 28.4655 42.068 28.3418 41.9856 28.2181C42.0268 28.1769 42.0268 28.1769 42.068 28.1357C42.439 28.2594 42.81 28.383 43.181 28.5067C43.181 28.4655 43.2222 28.4655 43.2222 28.4242C42.6863 28.1769 41.9856 28.1357 41.7382 27.4762C41.7382 27.4349 41.7795 27.4349 41.7795 27.3937C41.8619 27.4349 41.9031 27.4762 41.9856 27.5174C42.1917 27.641 42.439 27.8059 42.6863 27.9296C43.0573 28.0945 43.1397 28.012 43.2634 27.641C43.3046 27.4762 43.3458 27.3113 43.3871 27.064C43.0985 27.2288 42.8512 27.5174 42.4802 27.3525C42.5214 27.3113 42.5214 27.2288 42.5626 27.1876C42.7275 26.9403 42.8924 26.7342 43.0573 26.4869C43.2222 26.1983 43.2222 25.9922 43.0161 25.7037C42.7687 25.4151 42.5214 25.1266 42.2741 24.7968C42.2329 24.7556 42.1504 24.6732 42.068 24.6732C41.0787 24.6732 40.2543 24.261 39.5948 23.5602C39.1001 23.0244 38.8116 22.3648 38.6055 21.7053C38.5643 21.5404 38.4818 21.3343 38.3994 21.1694C38.8116 20.8397 39.2238 21.0458 39.5948 21.1694C40.1306 21.2931 40.6253 21.4168 41.1199 21.7465C41.8619 22.2412 42.439 22.9007 42.6863 23.7663C42.7687 24.0137 42.6863 24.3022 42.6863 24.5495C42.6863 24.6732 42.7275 24.7968 42.7687 24.8793C42.9748 25.1266 43.181 25.3739 43.3458 25.6625C43.3871 25.7449 43.4283 25.8274 43.4283 25.8686C43.7993 25.58 44.2115 25.2915 44.5824 25.0442C44.3351 24.7556 44.0466 24.4671 43.7993 24.1785C43.5519 23.89 43.5932 23.8488 43.8405 23.4778C43.9229 23.6427 43.9641 23.8488 44.0878 23.9724C44.2527 24.1785 44.4588 24.3846 44.7061 24.5907C44.7473 24.632 44.871 24.632 44.871 24.5907C44.9122 24.5495 44.9122 24.4671 44.9122 24.4259C44.871 24.2198 44.7473 23.9724 44.7061 23.7663C44.6237 23.519 44.5412 23.2717 44.7061 23.0244C44.7473 23.1892 44.7885 23.3953 44.871 23.5602C44.9946 23.8488 45.1183 24.0961 45.242 24.3846C45.3244 24.5907 45.5305 24.5907 45.6954 24.5907C46.2725 24.5083 46.8496 24.4671 47.4266 24.3846C47.6328 24.3434 47.7976 24.3022 47.9625 24.2198C47.1793 24.1785 46.3549 24.1785 45.5717 24.1373C45.5717 24.0961 45.5717 24.0549 45.5717 24.0137C46.1076 23.6427 46.7671 23.8076 47.3854 23.6014C47.9625 23.4366 48.5808 23.3129 49.1991 23.1892C49.0755 23.1068 48.9518 22.9831 48.8281 22.8595C48.7457 22.777 48.7045 22.6122 48.7045 22.4885C48.7045 22.3236 48.7869 22.2412 48.993 22.3236C49.5701 22.5709 50.1472 22.8595 50.7655 23.0244C51.1365 23.148 51.5075 23.1068 51.8785 23.148C51.8785 23.1068 51.8785 23.1068 51.8785 23.0656C51.7136 22.9419 51.5487 22.8595 51.3838 22.7358C51.3426 22.6946 51.3014 22.6122 51.2601 22.5297C51.3426 22.5297 51.425 22.5297 51.5075 22.5297C51.8785 22.7358 52.2082 22.9419 52.5792 23.148C52.6616 23.1892 52.7441 23.2305 52.8265 23.2305C53.3212 23.2717 53.8158 23.3953 54.228 23.6427C54.3105 23.6839 54.3929 23.6839 54.4753 23.7251C54.4341 23.1892 54.1868 22.777 53.8983 22.4061C53.7746 22.2412 53.6097 22.2 53.4036 22.2C52.5792 22.2824 51.7548 22.2412 50.9716 21.8702C50.5182 21.6229 50.0648 21.3756 49.6113 21.087C49.4877 21.0046 49.4464 20.8397 49.4464 20.716C50.0235 20.9633 50.5594 21.2519 51.1777 21.458C51.796 21.6229 52.4143 21.5817 53.1151 21.458C52.9502 21.2931 52.8265 21.1694 52.6616 21.0458C52.0846 20.5924 51.4662 20.1802 50.8067 19.9328C50.5182 19.8092 50.2296 19.5619 49.9823 19.3558C49.6526 19.1084 49.2403 19.1909 49.0755 19.5619C48.7457 20.5099 48.0037 20.716 47.0969 20.8397C46.4786 20.9221 45.9015 20.716 45.2832 20.6336C45.0771 20.5924 44.871 20.5924 44.6649 20.5924C44.4176 20.5924 44.2527 20.5099 44.0878 20.3038C44.2115 20.2626 44.3351 20.2626 44.4176 20.2214C44.7473 20.0977 45.0771 20.0153 45.3656 19.8504C45.9839 19.5619 46.561 19.1909 47.1793 18.9435C47.7152 18.7374 48.3335 18.655 48.9106 18.9435C48.993 18.9848 49.0755 18.9435 49.2403 18.9848C49.1167 18.8199 49.0755 18.7374 49.0342 18.655C48.7869 18.3665 48.5396 18.0367 48.3335 17.7482C48.2098 17.5833 48.045 17.5008 47.7976 17.5833C47.3442 17.7069 46.8908 17.7069 46.4786 17.5421C45.7366 17.2535 45.1595 16.8001 44.7473 16.1406C44.4588 15.7284 44.2115 15.2749 43.758 15.0276C43.6756 14.9864 43.6344 14.904 43.5519 14.8215C44.2527 14.6978 44.871 14.6566 45.5305 14.8215C45.9839 14.9452 46.3961 15.1513 46.8083 15.3574C47.1381 15.5223 47.5091 15.7284 47.7564 16.0169C48.0862 16.3467 48.3747 16.7176 48.622 17.1711C48.9518 17.8306 49.4877 18.3665 50.2296 18.7374C49.4877 17.2123 49.364 15.7284 50.3533 14.2856C50.3945 14.3269 50.4357 14.3681 50.4357 14.4505C50.6831 15.0688 50.9716 15.6459 51.2189 16.2642C51.425 16.8413 51.4662 17.4184 51.2189 17.9543C51.1365 18.2016 50.9304 18.3665 50.8067 18.6138C50.7655 18.6962 50.6831 18.7787 50.6006 18.9023C52.0846 19.5619 53.486 20.3038 54.6402 21.458C54.97 20.9633 55.2997 20.5099 55.0936 19.9328C54.6814 18.9023 54.8463 17.913 55.1349 16.8825C55.2997 16.3054 55.7119 15.8932 56.1242 15.5223C56.289 15.3986 56.4539 15.2337 56.6188 15.0688C56.6188 15.4398 56.5364 15.7696 56.5776 16.0993C56.66 16.8001 56.8249 17.4596 56.8661 18.1604C56.9073 18.5313 56.7837 18.9023 56.66 19.2733C56.5776 19.5619 56.3715 19.768 56.289 20.0565C56.1241 20.5099 55.7119 20.7572 55.3822 21.087C55.0936 21.3343 55.0112 21.829 55.2173 22.1587C55.5471 22.6534 55.8768 23.1892 56.2066 23.6839C56.5776 23.6015 56.7425 23.4366 56.7837 23.0656C56.8661 22.6122 56.9898 22.2 57.1134 21.7465C57.402 20.9221 58.0615 20.3863 58.6798 19.8916C59.0508 19.6031 59.4218 19.2733 59.7515 18.9435C59.7928 18.9023 59.8752 18.9435 59.9164 18.9023C59.9164 18.9848 59.9576 19.0672 59.9576 19.1496C59.8752 19.6443 59.7515 20.1389 59.7103 20.6336C59.6691 21.1694 59.5867 21.6641 59.3806 22.1175C59.1332 22.6946 58.721 23.1068 58.1852 23.3541C58.0615 23.4366 57.9378 23.519 57.8142 23.6014C57.6081 23.7251 57.402 23.8488 57.1547 23.8076C56.9486 23.8076 56.7425 23.9312 56.5776 24.0549C56.4127 24.1373 56.4951 24.3022 56.66 24.3434C56.7837 24.3846 56.9073 24.3846 56.9898 24.3434C57.5669 24.1785 58.1439 24.4259 58.6798 24.3846C58.7623 24.3846 58.8447 24.4671 58.9271 24.4671C58.9271 24.5083 58.9271 24.5083 58.9271 24.5495C58.3913 24.6732 57.8554 24.7968 57.2783 24.8793C57.2783 24.9205 57.2783 24.9205 57.2783 24.9617C57.4844 25.0854 57.6493 25.1678 57.8554 25.2915C57.8966 25.2915 57.9791 25.2503 58.0203 25.209C58.1027 25.1266 58.1852 25.0442 58.3088 24.8793C58.4325 25.2503 58.0615 25.4151 58.1439 25.7861C58.6798 25.9098 59.1332 25.5388 59.6279 25.4151C59.6691 25.4151 59.6691 25.4564 59.7103 25.4564C59.6279 25.6625 59.5042 25.8274 59.3806 26.0335C59.5042 26.1983 59.463 26.2396 59.2569 26.3632C58.9271 26.5281 58.4737 26.5693 58.3088 26.9403C58.2676 27.064 58.2676 27.1876 58.2676 27.3113C58.3913 27.2701 58.4737 27.2701 58.5974 27.2288C59.0508 26.9815 59.5042 26.693 59.9989 26.4457C60.0401 26.4044 60.1225 26.4044 60.205 26.4044C60.2462 26.6105 60.1225 26.7342 59.9576 26.8166C59.4218 26.9815 59.0096 27.3525 58.6386 27.8471C59.1332 27.5174 59.6279 27.2288 60.0813 26.8991C60.2874 27.1876 60.0813 27.2288 59.9576 27.3113C59.6279 27.5586 59.2981 27.7647 58.9271 28.012C58.8859 28.0533 58.8859 28.0945 58.8447 28.1357C59.2157 28.0533 59.5454 27.9708 59.8752 27.9296C59.8752 27.9708 59.9164 28.012 59.9164 28.0533C59.5454 28.2594 59.2157 28.4655 58.7623 28.7128C59.092 29.0425 59.4218 29.3723 59.7515 29.6608C60.1225 29.9906 60.5347 30.2792 60.9469 30.5677C61.1943 30.7326 61.4416 30.7738 61.6889 30.8975C62.266 31.186 62.8019 31.4745 63.3789 31.8043C63.4614 31.8455 63.5438 31.9692 63.6263 32.0516C63.7499 32.1753 63.9148 32.2577 64.0797 32.3814C64.1621 32.4638 64.2446 32.5051 64.2858 32.5875C64.2858 32.6287 64.2446 32.6287 64.2446 32.6699C63.7499 32.6699 63.2965 32.6699 62.7606 32.6699C62.8431 32.7524 62.9255 32.8348 63.0492 32.9173C63.008 32.9997 62.9667 33.1234 62.9255 33.247C62.8843 33.3707 62.7606 33.4531 62.9255 33.5768C62.9255 33.5768 62.8431 33.7829 62.8019 33.7829C62.637 33.7829 62.4721 33.7829 62.3484 33.7417C62.0187 33.618 61.7301 33.4531 61.4004 33.3707C61.3591 33.3707 61.1943 33.4531 61.1943 33.5356C61.153 33.6592 61.1943 33.7829 61.1943 33.9478C61.0706 33.8653 60.9882 33.8241 60.8645 33.7829C60.8645 34.1539 60.6996 34.1126 60.4935 34.0302C59.9164 33.8241 59.3806 33.5356 58.8859 33.1646C58.1439 32.6287 57.3608 32.1341 56.4127 32.0928C55.7532 32.0516 55.1761 32.0928 54.5578 32.3814C53.6509 32.7936 52.6616 33.0821 51.6723 33.2058C51.4662 33.247 51.2189 33.2882 51.0128 33.5356C50.8067 33.7417 50.477 33.9065 50.1884 33.9478C49.8174 33.989 49.4052 33.9478 49.0755 33.8241C48.8694 33.7417 48.6633 33.5356 48.4984 33.3707C48.4159 33.3295 48.4159 33.247 48.3335 33.1646C48.0037 32.6699 47.3854 32.5463 46.8908 32.3402C46.19 32.0516 45.4481 31.8455 44.7061 31.557C44.6649 31.557 44.6237 31.557 44.5824 31.5158C44.0878 31.0623 43.5519 31.2684 43.0573 31.5158C42.8924 31.5982 42.7687 31.8043 42.7275 31.9692C42.5626 32.7112 41.9856 33.0409 41.3673 33.2882C40.6665 33.5768 39.9658 33.618 39.2238 33.5768C39.0589 33.5768 38.9353 33.6592 38.7704 33.7004C38.5643 33.7417 38.3994 33.8241 38.1933 33.8241C38.1108 33.8241 37.946 33.7829 37.9047 33.7004C37.8635 33.6592 37.946 33.4943 37.9872 33.4119C38.1933 33.1646 38.3994 32.9173 38.6467 32.6699C39.1414 32.1753 39.5948 31.6806 40.2131 31.3509C40.8726 30.9799 41.5734 30.8562 42.2741 31.186C42.7275 31.3921 43.0161 31.2272 43.3458 31.0211C43.3458 30.9799 43.3458 30.9799 43.3458 30.9387C42.7275 30.7738 42.068 30.6089 41.4085 30.4853C40.9138 30.4028 40.378 30.2792 39.8833 30.2792C39.3062 30.2792 38.7291 30.3204 38.2345 30.6914C38.0284 30.815 37.7811 30.9387 37.575 30.6914C37.4513 30.5677 37.4513 30.5265 37.575 30.444C37.4101 30.4853 37.4513 30.444 37.5338 30.4028C37.8635 30.2792 38.1933 30.1555 38.4818 29.9494C38.8528 29.7021 39.3887 29.7021 39.8833 29.6196C40.1719 29.5784 40.4604 29.6196 40.7902 29.6196C40.7902 29.5784 40.8314 29.5784 40.8314 29.5372C40.5428 29.2074 40.2543 28.8777 39.9245 28.5891C39.5123 28.1769 39.0589 27.8059 38.6467 27.3937C38.3994 27.1464 38.1108 26.9403 37.8635 26.6518C37.6162 26.3632 37.4101 26.0335 37.1628 25.7449C37.0391 25.58 36.8742 25.4564 36.7094 25.3327C36.4208 25.1266 36.1323 24.9617 35.8437 24.7968C35.6788 24.6732 35.6788 24.5083 35.8025 24.3434C35.9262 24.1785 36.0498 24.1785 36.2147 24.261C37.0391 24.632 37.6986 25.209 38.1521 25.951C38.4406 26.4457 38.9353 26.7342 39.3475 27.064C39.4711 27.064 39.4711 27.0227 39.4711 27.0227ZM57.1134 26.5281C57.1547 26.6105 57.1959 26.693 57.2371 26.7342C57.402 26.9403 57.3608 27.1052 57.1134 27.1876C57.1959 27.5586 57.1134 27.9296 56.9486 28.2594C56.7837 28.5479 56.4951 28.754 56.2478 29.0425C56.289 29.0425 56.3715 29.0425 56.4127 29.0013C56.6188 28.8777 56.8249 28.754 56.9898 28.5479C57.2783 28.1357 57.9791 28.0533 57.773 27.3113C57.773 27.2701 57.8142 27.2288 57.8142 27.1876C57.8142 27.1464 57.8554 27.064 57.8142 27.0227C57.6493 26.7754 57.8142 26.6105 57.8966 26.4457C57.9378 26.3632 57.9791 26.2808 58.0203 26.2396C57.8554 25.951 57.7317 26.1983 57.5669 26.2808C57.5256 25.8686 57.4432 25.4976 56.9898 25.3739C56.9486 25.3739 56.9073 25.2503 56.8661 25.209C56.7837 25.1266 56.7012 25.0854 56.6188 25.0442C56.289 24.9205 56.0005 24.7968 55.6707 24.6732C55.4646 24.5907 55.2585 24.4259 55.0524 24.3434C54.97 24.2198 54.8875 24.0137 54.8463 23.9312C54.6402 24.0137 54.4753 24.1373 54.3105 24.1373C53.8158 24.0549 53.3212 23.9312 52.8265 23.8488C52.3731 23.7663 51.8785 23.7251 51.3838 23.6427C51.3014 23.6427 51.2601 23.6427 51.1365 23.6839C51.1365 23.8076 51.1777 23.89 51.1777 23.9312C50.8479 23.9312 50.5182 23.9724 50.1884 23.9724C50.1884 24.0137 50.1884 24.0549 50.1884 24.0961C50.5594 24.1373 50.9716 24.1373 51.3426 24.0961C52.0433 24.0137 52.7029 23.9312 53.2799 24.4671C53.3624 24.5495 53.486 24.5907 53.6097 24.5907C53.857 24.5907 53.8982 24.7556 53.9395 24.9617C53.8158 24.9617 53.7334 24.9617 53.5685 24.9617C54.0219 25.3327 54.4753 25.6625 54.8875 25.9922L54.9288 25.951C54.8463 25.8686 54.7639 25.7861 54.6402 25.7037C54.7227 25.6625 54.8051 25.58 54.8463 25.58C55.1349 25.6212 55.4234 25.7037 55.7532 25.7861C55.5471 25.4564 55.2585 25.3327 54.9288 25.2503C54.6402 25.1678 54.3105 25.1266 54.0219 25.0854C54.0631 24.9617 54.1456 24.8381 54.1868 24.7144C54.3517 24.7556 54.5166 24.7968 54.7227 24.8381C55.5058 25.0029 56.0829 25.3739 56.4951 26.1159C56.5776 26.2396 56.7012 26.322 56.8249 26.4457C57.031 26.4044 57.0722 26.4457 57.1134 26.5281ZM48.2511 28.7952V28.754C48.4572 28.754 48.7045 28.7128 48.9106 28.7128C49.1579 28.7128 49.364 28.6716 49.6113 28.6716C49.6938 28.6716 49.7762 28.5891 49.8174 28.5479C50.0648 28.2181 50.106 27.3113 49.9411 26.9815C49.6938 26.4869 49.1579 26.322 48.622 26.4869C48.4572 26.5281 48.3335 26.6105 48.1686 26.6105C47.3854 26.693 46.9732 27.2701 46.6022 27.8884C46.4374 28.1769 46.5198 28.383 46.8496 28.5067C47.3442 28.6303 47.7976 28.6716 48.2511 28.7952ZM56.2478 28.6303C56.2066 28.5891 56.2066 28.5891 56.1654 28.5479C56.1242 28.5479 56.0829 28.5479 56.0417 28.5479C55.7532 28.6716 55.5058 28.8364 55.2173 28.9189C54.5578 29.1662 53.857 29.2074 53.1563 29.2486C52.9914 29.2486 52.8677 29.3311 52.7029 29.3311C52.3319 29.2899 52.0021 29.125 51.6311 29.1662C50.8479 29.1662 50.0648 29.0013 49.3228 29.2074C49.1579 29.2486 48.993 29.3311 48.8281 29.3311C48.1686 29.3311 47.5503 29.3311 46.8908 29.3311C46.6847 29.3311 46.4374 29.2074 46.2313 29.125C46.0252 29.0425 45.8191 28.9601 45.613 28.8777C45.2007 28.754 45.0771 28.4655 45.3244 28.2181C45.2007 28.0945 45.1183 27.9296 44.9946 27.8471C44.7061 27.5998 44.5412 27.064 44.7061 26.7342C44.871 26.4044 45.0359 26.1159 45.242 25.7861C45.2007 25.7861 45.2007 25.7449 45.1595 25.7449C44.871 26.1159 44.6237 26.4457 44.3351 26.8166C44.2939 26.8166 44.2939 26.8166 44.2527 26.7754C44.3351 26.5281 44.3763 26.322 44.4588 26.0747C44.2527 26.1983 44.0878 26.3632 43.9641 26.5281C43.758 26.7342 43.7168 26.8991 43.8817 27.1464C44.0878 27.4349 44.2527 27.6823 44.4588 27.9708C44.6649 28.3006 44.8298 28.7128 45.2832 28.8364C45.3656 28.8364 45.4893 28.9189 45.5717 29.0013C46.2725 29.5372 47.0969 29.7021 47.9625 29.8257C48.1686 29.8669 48.3335 29.9494 48.5396 29.9906C48.6633 30.0318 48.8281 30.0318 48.9518 30.0731V30.0318C48.8694 29.9906 48.7869 29.9494 48.7045 29.9082C50.2296 29.2486 51.8372 29.5784 53.4036 29.6608C53.3212 29.7021 53.2387 29.7433 53.1563 29.7433C53.6921 29.9906 53.7334 30.0318 54.1044 29.7021C54.3929 29.4547 54.6814 29.4547 55.0112 29.3723C55.0936 29.3311 55.2173 29.2899 55.2997 29.2486C55.5058 29.125 55.6707 29.0013 55.8356 28.8777C56.0005 28.8364 56.1242 28.7128 56.2478 28.6303ZM54.5166 28.6303C54.3105 28.1357 54.0631 27.6823 53.5685 27.4349C53.1151 27.2288 52.7029 27.0227 52.167 26.9815C51.425 26.8991 50.8892 27.1876 50.7655 27.9296C50.7243 28.1769 50.8067 28.4655 50.9304 28.7128C50.9716 28.7952 51.2189 28.7952 51.3838 28.8364C51.796 28.8777 52.2082 28.8364 52.5792 28.9189C53.3212 29.0425 53.8983 28.754 54.5166 28.6303ZM50.5594 27.0227C50.8892 26.8991 51.1777 26.8166 51.5075 26.7342C51.7136 26.693 51.9197 26.693 52.1258 26.6105C52.4143 26.5281 52.6204 26.6105 52.8677 26.693C52.9502 26.7342 53.0326 26.7754 53.0738 26.8166C53.3212 26.9403 53.6097 27.0227 53.8158 27.1464C54.1044 27.3113 54.3929 27.2288 54.4753 26.8991C54.599 26.3632 54.4753 26.0747 54.0219 25.7861C53.7746 25.6212 53.4448 25.4976 53.1563 25.3739C52.6204 25.1678 52.0433 25.209 51.5075 25.3327C51.054 25.4151 50.7655 25.7449 50.477 26.0335C50.3533 26.1571 50.2709 26.3632 50.3945 26.5693C50.4357 26.7342 50.5182 26.8991 50.5594 27.0227ZM50.2296 15.0688C49.5701 15.6459 49.6526 17.7894 50.3121 18.4077C51.0953 17.7069 51.2189 16.594 50.2296 15.0688ZM42.1092 24.5907C42.1504 24.5907 42.1504 24.5495 42.1917 24.5495C42.3565 23.4778 41.697 22.8183 41.0375 22.3236C40.5841 21.9526 39.9658 21.829 39.3887 21.6641C39.3062 21.6641 39.265 21.6229 39.1826 21.6229C39.6772 22.1587 40.2543 22.5709 40.7489 23.0656C41.2848 23.4778 41.697 24.0549 42.1092 24.5907ZM55.3822 20.5099C55.8768 19.8916 56.3303 19.3145 56.3715 18.5726C56.3715 17.6657 56.2478 16.8001 56.2066 15.852C56.0417 16.0169 55.9593 16.1406 55.8356 16.223C55.7944 16.2642 55.7944 16.3054 55.7944 16.3467C55.7944 16.4291 55.8356 16.5115 55.8356 16.594C55.8356 16.7589 55.7532 16.9237 55.7532 17.0886C55.7119 17.8306 55.6707 18.5313 55.5883 19.2733C55.5471 19.6855 55.4646 20.0565 55.3822 20.5099ZM44.5412 15.3162C45.1183 16.5528 46.4374 17.4596 47.674 17.2123C46.7259 16.3054 45.6542 15.8108 44.5412 15.3162ZM38.894 21.6641C39.0589 22.9007 40.5428 24.3434 41.5734 24.261C40.8726 23.148 39.7597 22.5297 38.894 21.6641ZM57.2783 23.2305C58.3501 23.3541 59.5454 21.3755 59.3393 19.8916C58.8859 21.1694 57.9791 22.1175 57.2783 23.2305ZM42.1917 31.8455C40.9963 31.8867 40.2131 32.6699 39.3062 33.247C40.5016 33.3707 41.7795 32.7936 42.1917 31.8455ZM45.2007 20.3863C46.3961 20.3038 47.4266 19.8092 48.4572 19.1909C47.7564 18.8199 46.0252 19.4794 45.2007 20.3863ZM41.8619 31.557C41.4085 31.186 40.9551 31.3509 40.5428 31.5158C39.8421 31.8043 39.265 32.299 38.7704 32.876C38.6055 33.0409 38.4818 33.2058 38.3169 33.3707C38.3582 33.4119 38.3582 33.4119 38.3994 33.4531C39.4711 32.7524 40.4604 31.8043 41.8619 31.557ZM44.6237 15.0688C45.0771 15.3162 45.4481 15.481 45.8603 15.6871C46.5198 16.0169 47.1793 16.3879 47.674 16.9237C47.7976 17.0474 47.9213 17.1299 48.0862 17.2123C47.7976 16.0993 45.7366 15.0276 44.6237 15.0688ZM57.0722 22.8595C57.1959 22.7358 57.2783 22.6946 57.3608 22.6122C57.5256 22.3648 57.6905 22.1175 57.8554 21.829C58.1852 21.3343 58.5149 20.8397 58.8859 20.345C58.9684 20.2626 59.0096 20.1389 59.092 20.0153C57.6905 21.0046 57.1547 21.7878 57.0722 22.8595ZM53.7746 30.3616C53.7746 30.3204 53.7746 30.2792 53.7746 30.2379C53.5273 30.2379 53.2387 30.2379 52.9914 30.1967C52.6204 30.1143 52.2907 29.9906 51.8372 29.8669C51.9609 29.9906 52.0433 30.0731 52.167 30.1555C51.425 30.2792 50.6831 30.4028 49.8999 30.5265C50.0648 30.5677 50.3121 30.5265 50.3945 30.6089C50.5594 30.7326 50.6831 30.6914 50.8067 30.6501C51.425 30.444 52.0433 30.444 52.6616 30.5677C53.0738 30.6914 53.486 30.6501 53.7746 30.3616ZM51.9197 30.9387C51.8372 31.0623 51.796 31.186 51.7548 31.186C51.3426 31.2684 50.9716 31.3509 50.5594 31.4333C50.3121 31.4745 50.0235 31.557 49.7762 31.6394C49.7762 31.6806 49.7762 31.7219 49.8174 31.7219C49.8999 31.7219 50.0235 31.6806 50.106 31.6806C50.6418 31.557 51.2189 31.3509 51.796 31.557C51.8372 31.557 51.9197 31.557 52.0021 31.5158C52.4143 31.3921 52.8265 31.3097 53.2387 31.186C53.486 31.1448 53.6921 31.0211 53.8158 30.7738C53.486 30.815 53.1975 30.9387 52.8677 30.9799C52.4968 31.0623 52.167 30.9799 51.9197 30.9387ZM55.0112 30.3616C55.9593 30.1967 56.0417 30.1555 56.6188 29.6608C56.66 29.6608 56.66 29.6608 56.7012 29.6196C56.7837 29.5372 56.8661 29.4135 56.9486 29.2899C56.9898 29.2486 56.9898 29.1662 57.031 29.1662C57.4844 29.0013 57.6493 28.5067 57.9791 28.2181C57.9791 28.2181 57.9791 28.1769 57.9791 28.0945C57.8142 28.1357 57.6493 28.1357 57.6081 28.2594C57.3195 28.6716 57.1134 29.1662 56.5364 29.3311C56.289 29.4135 56.0417 29.6196 55.8356 29.7433C55.9593 29.9082 55.8768 30.0318 55.7532 30.1143C55.6295 30.1967 55.4234 30.1967 55.2997 30.2379C55.1349 30.2379 55.0936 30.3204 55.0112 30.3616ZM55.2997 19.8092C55.3822 18.7374 55.5058 17.6657 55.5883 16.594C55.1349 17.0474 54.8051 19.1909 55.2997 19.8092ZM46.3137 20.4687C46.8908 20.5924 47.4679 20.5511 47.9625 20.1802C48.1686 20.0153 48.4159 19.8916 48.3747 19.5206C48.0037 19.7267 47.674 19.8916 47.3442 20.0565C47.0144 20.2214 46.6435 20.345 46.3137 20.4687ZM45.8191 29.6608C45.5717 29.2486 43.9229 28.7128 43.4283 28.8777C43.5519 29.0838 45.3244 29.6608 45.8191 29.6608ZM46.6435 30.0731C47.1381 30.9387 49.0342 31.5158 49.6938 31.0211C49.1579 30.9387 48.5808 30.9387 48.0862 30.7738C47.5915 30.6089 47.0969 30.2792 46.6435 30.0731ZM47.9213 25.1266C48.3335 24.9617 48.7045 24.8381 49.0755 24.7144C48.2511 24.7144 47.3854 24.5907 46.6435 25.1678C47.0144 25.0442 47.3854 24.9617 47.8389 24.7968C47.7564 25.0442 47.674 25.209 47.5915 25.4151C47.7976 25.3327 47.9625 25.2915 48.2511 25.209C48.0862 25.1678 48.0037 25.1266 47.9213 25.1266ZM47.8389 23.7251C48.5396 23.9724 49.1991 23.9312 49.8587 23.7251C49.1991 23.3953 48.5396 23.5602 47.8389 23.7251ZM46.0252 24.9205C45.0359 25.2915 44.0466 25.6213 43.4283 26.5281C43.6344 26.4044 43.758 26.2396 43.9641 26.1159C44.2939 25.9098 44.7061 25.7861 45.0359 25.58C45.3656 25.3739 45.6954 25.1266 46.0252 24.9205ZM49.5701 24.0137C49.2816 24.0137 48.993 23.89 48.8281 24.2198C48.8281 24.261 48.7045 24.261 48.6633 24.261C48.5396 24.261 48.4159 24.3022 48.2511 24.3434C48.993 24.3846 49.6526 24.4671 50.3121 24.5083C50.4357 24.5083 50.5594 24.4671 50.6831 24.4671C50.6831 24.4259 50.6831 24.3846 50.6831 24.3846C50.3945 24.3846 50.106 24.3434 49.7762 24.3434C49.6526 24.3022 49.5289 24.261 49.5701 24.0137ZM56.1654 26.693C55.7532 26.5693 55.3822 26.4869 54.9288 26.3632C55.1349 26.5281 55.2997 26.6518 55.4646 26.8166C55.4646 26.8166 55.4234 26.8991 55.4234 26.9815C55.5883 27.0227 55.7532 27.064 55.8768 27.064V27.0227C55.8356 26.9815 55.7532 26.8991 55.7119 26.8579C55.8768 26.8166 56.0417 26.8579 56.1654 26.8166C56.2478 26.8166 56.289 26.6518 56.3715 26.6105C56.3715 26.6105 56.3715 26.6105 56.3303 26.5693C56.289 26.6518 56.2478 26.693 56.1654 26.693ZM49.364 31.5158C49.0342 31.4333 48.7045 31.3097 48.4159 31.3097C48.1274 31.3097 47.8801 30.9387 47.5503 31.186C48.2511 31.5982 49.0755 31.7631 49.364 31.5158ZM47.1793 26.1159C47.1381 26.0747 47.1381 25.9922 47.0969 25.951C46.932 25.9922 46.6847 25.9922 46.6847 26.0335C46.6847 26.322 46.4786 26.3632 46.2725 26.3632C46.2313 26.2808 46.19 26.1983 46.19 26.1159C46.1488 26.1159 46.1488 26.1159 46.1076 26.1159C46.0664 26.2808 46.0664 26.4044 46.0252 26.5693C46.561 26.6518 46.8083 26.2396 47.1793 26.1159ZM60.6584 31.8455C60.6172 31.8455 60.6172 31.8867 60.576 31.8867C60.6172 32.0104 60.6584 32.1341 60.7821 32.2165C60.9057 32.3402 61.0706 32.4226 61.2355 32.5463C61.4416 32.7112 61.524 32.6287 61.524 32.4226C61.1943 32.2165 60.9057 32.0516 60.6584 31.8455ZM51.0128 24.8381C51.3426 24.8381 51.6723 24.7968 51.9609 24.7968C51.8785 24.6732 51.7136 24.6732 51.7136 24.5907C51.6311 24.3022 51.425 24.3846 51.2189 24.3846C51.5487 24.7144 50.9716 24.632 51.0128 24.8381ZM54.0219 30.7326C54.0219 30.7738 54.0219 30.815 54.0219 30.8562C54.3105 30.8562 54.6402 30.8562 54.9288 30.8562C54.97 30.8562 55.0112 30.7738 55.0524 30.7326C55.0524 30.7326 55.0112 30.6501 54.97 30.6501C54.6814 30.6914 54.3517 30.7326 54.0219 30.7326ZM50.1884 23.2717C50.1884 23.4366 50.1472 23.5602 50.1472 23.6839C50.3945 23.6427 50.6831 23.6015 50.9716 23.5602C50.9716 23.519 50.9716 23.519 50.9716 23.4778C50.6831 23.4366 50.4357 23.3541 50.1884 23.2717ZM54.1868 31.5982C54.0631 31.3097 53.857 31.3097 53.6509 31.2684C53.6097 31.3509 53.5685 31.4745 53.486 31.5982C53.7334 31.5982 53.9395 31.5982 54.1868 31.5982ZM44.1702 28.3418L44.2115 28.3006C43.9641 28.1357 43.758 28.012 43.5107 27.8471C43.4283 28.012 43.3871 28.1769 43.5932 28.2181C43.758 28.2181 43.9641 28.2594 44.1702 28.3418ZM59.6691 31.2272C59.7103 31.186 59.7103 31.1448 59.7515 31.1036C59.463 30.8975 59.1745 30.7326 58.8859 30.5265C58.8447 30.5677 58.8447 30.6089 58.8035 30.6089C59.1332 30.8562 59.3806 31.0211 59.6691 31.2272ZM48.7045 25.0029C48.7045 25.1678 48.6633 25.2503 48.6633 25.3739C48.8281 25.3739 48.993 25.3327 49.1579 25.3327C49.1167 25.2503 49.0342 25.1678 48.9518 25.0442C48.9106 25.0442 48.8281 25.0442 48.7045 25.0029ZM61.4828 31.3097C61.4828 31.7219 61.6477 31.8043 62.1011 31.5982C61.8538 31.4745 61.6889 31.3921 61.4828 31.3097ZM50.1472 32.9173C50.1472 32.876 50.106 32.876 50.106 32.8348C49.9411 32.9173 49.735 32.9585 49.5701 33.0409C49.8587 33.2882 49.9823 33.0409 50.1472 32.9173ZM46.6022 30.5265C46.4786 30.1555 46.19 30.1555 45.8191 30.1967C46.1488 30.3204 46.3549 30.444 46.6022 30.5265ZM58.4737 29.9906C58.721 30.1143 58.9271 30.1967 59.1332 30.3204C59.1332 30.2792 59.1745 30.2792 59.1745 30.2379C59.0096 30.1143 58.8035 29.9906 58.6386 29.9082C58.5974 29.8669 58.5149 29.9494 58.4737 29.9906ZM46.2313 30.815C46.2313 30.7738 46.2313 30.7326 46.2725 30.7326C46.0252 30.6501 45.7778 30.5677 45.5305 30.5265C45.5305 30.5677 45.4893 30.6089 45.4893 30.6501C45.7366 30.6914 45.9839 30.7738 46.2313 30.815ZM40.4604 29.9494C40.4604 29.9082 40.4604 29.8669 40.4604 29.8669C40.1306 29.9082 39.8421 29.9082 39.4711 29.9494C39.8421 29.9494 40.1306 29.9494 40.4604 29.9494Z" fill="#6A2C70"/>
<path d="M56.9896 26.3633C56.9484 26.2396 56.8659 26.116 56.8247 25.9923C56.9896 26.0335 57.1545 26.116 57.2781 26.1984C57.3606 26.2396 57.3606 26.3633 57.4018 26.4457C57.3194 26.487 57.2369 26.5282 57.1132 26.5282C57.072 26.4457 57.0308 26.4045 56.9896 26.3633Z" fill="#6A2C70"/>
<path d="M7.46773 59.0532C7.20535 59.0532 7.01744 58.9965 6.90398 58.883C6.79052 58.7624 6.73379 58.5391 6.73379 58.2129C6.73379 57.9931 6.75506 57.713 6.79761 57.3726C6.84725 57.0251 6.92525 56.55 7.03162 55.9473C7.21599 54.8339 7.36136 53.8695 7.46773 53.0541C7.53155 52.5435 7.56346 52.118 7.56346 51.7776C7.56346 51.4585 7.44645 51.299 7.21244 51.299C7.02807 51.299 6.8047 51.3947 6.54233 51.5862C6.28705 51.7706 6.0034 52.0684 5.69139 52.4797C5.59211 52.6144 5.4822 52.6818 5.36165 52.6818C5.26237 52.6818 5.17373 52.6357 5.09573 52.5435C5.02482 52.4442 4.98936 52.3343 4.98936 52.2138C4.98936 52.1003 5.01064 51.9868 5.05318 51.8734C5.10282 51.7528 5.18082 51.6181 5.28719 51.4692C5.62757 50.9941 6.00695 50.6289 6.42533 50.3736C6.8437 50.1112 7.26208 49.98 7.68046 49.98C8.07048 49.98 8.36831 50.1041 8.57395 50.3523C8.78668 50.6005 8.89305 50.9622 8.89305 51.4373C8.89305 51.6287 8.87532 51.8556 8.83987 52.118C8.80441 52.3733 8.7725 52.5825 8.74414 52.7456C8.71577 52.9087 8.6945 53.0221 8.68032 53.086C9.08451 51.9301 9.53835 51.1253 10.0418 50.6714C10.5453 50.2105 11.0984 49.98 11.7012 49.98C12.1621 49.98 12.5237 50.1431 12.7861 50.4693C13.0556 50.7955 13.1903 51.2564 13.1903 51.8521C13.1903 52.0861 13.1584 52.3768 13.0946 52.7243C13.4491 51.7457 13.864 51.0437 14.3391 50.6182C14.8142 50.1928 15.3602 49.98 15.9771 49.98C16.4735 49.98 16.8529 50.1396 17.1153 50.4587C17.3847 50.7778 17.5195 51.2245 17.5195 51.7989C17.5195 52.1109 17.4734 52.4903 17.3812 52.937L16.7323 55.9792C16.6614 56.3337 16.626 56.6386 16.626 56.8939C16.626 57.1918 16.6933 57.4151 16.8281 57.564C16.9699 57.713 17.1649 57.7874 17.4131 57.7874C17.6471 57.7874 17.874 57.7094 18.0938 57.5534C18.3208 57.3974 18.5867 57.1386 18.8916 56.7769C18.9767 56.6776 19.0724 56.628 19.1788 56.628C19.271 56.628 19.3419 56.6706 19.3915 56.7556C19.4483 56.8407 19.4766 56.9577 19.4766 57.1067C19.4766 57.3832 19.4093 57.603 19.2745 57.7661C18.9058 58.2129 18.5406 58.5391 18.1789 58.7447C17.8173 58.9504 17.4379 59.0532 17.0408 59.0532C16.4381 59.0532 15.9665 58.8759 15.6261 58.5213C15.2857 58.1597 15.1156 57.6775 15.1156 57.0747C15.1156 56.6564 15.2006 56.0501 15.3708 55.2559L15.7963 53.3093C15.8105 53.2455 15.8353 53.1321 15.8708 52.969C15.9062 52.8059 15.9346 52.6534 15.9559 52.5116C15.9771 52.3627 15.9878 52.2173 15.9878 52.0755C15.9878 51.8273 15.9381 51.6429 15.8389 51.5224C15.7467 51.3947 15.6119 51.3309 15.4347 51.3309C15.1014 51.3309 14.7504 51.5472 14.3816 51.9797C14.02 52.4052 13.6725 53.1143 13.3392 54.1071C13.013 55.0999 12.7471 56.3904 12.5415 57.9789C12.4918 58.4043 12.4032 58.6915 12.2755 58.8404C12.155 58.9823 11.9564 59.0532 11.6799 59.0532C11.4388 59.0532 11.2615 58.9965 11.148 58.883C11.0417 58.7695 10.9885 58.5568 10.9885 58.2448C10.9885 57.9541 11.0275 57.5747 11.1055 57.1067C11.1835 56.6315 11.2828 56.0749 11.4033 55.4367C11.7295 53.7206 11.8926 52.6144 11.8926 52.118C11.8926 51.8486 11.8394 51.65 11.7331 51.5224C11.6338 51.3947 11.4813 51.3309 11.2757 51.3309C10.9282 51.3309 10.5701 51.5295 10.2014 51.9266C9.83263 52.3166 9.47098 53.0151 9.11642 54.022C8.76896 55.0219 8.47822 56.3763 8.24421 58.0852C8.19457 58.4469 8.12011 58.6986 8.02084 58.8404C7.92865 58.9823 7.74428 59.0532 7.46773 59.0532ZM19.9279 59.0532C19.4882 59.0532 19.1372 58.8936 18.8748 58.5745C18.6124 58.2554 18.4813 57.837 18.4813 57.3194C18.4813 56.7521 18.6124 56.2167 18.8748 55.7132C19.1372 55.2027 19.4847 54.7949 19.9172 54.49C20.3569 54.178 20.8213 54.022 21.3106 54.022C21.4666 54.022 21.5695 54.0539 21.6191 54.1177C21.6758 54.1745 21.7219 54.2808 21.7574 54.4368C21.9063 54.4085 22.0623 54.3943 22.2254 54.3943C22.5729 54.3943 22.7466 54.5184 22.7466 54.7666C22.7466 54.9155 22.6934 55.27 22.587 55.8302C22.4239 56.6457 22.3424 57.213 22.3424 57.5321C22.3424 57.6385 22.3672 57.7236 22.4169 57.7874C22.4736 57.8512 22.5445 57.8831 22.6296 57.8831C22.7643 57.8831 22.9274 57.798 23.1189 57.6279C23.3103 57.4506 23.5692 57.1669 23.8954 56.7769C23.9805 56.6776 24.0762 56.628 24.1826 56.628C24.2747 56.628 24.3457 56.6706 24.3953 56.7556C24.452 56.8407 24.4804 56.9577 24.4804 57.1067C24.4804 57.3903 24.413 57.6101 24.2783 57.7661C23.9875 58.1278 23.6791 58.4327 23.3529 58.6809C23.0267 58.9291 22.7111 59.0532 22.4062 59.0532C22.1722 59.0532 21.9559 58.9752 21.7574 58.8192C21.5659 58.6561 21.4205 58.4363 21.3213 58.1597C20.9525 58.7554 20.4881 59.0532 19.9279 59.0532ZM20.3108 57.9789C20.4668 57.9789 20.6157 57.8867 20.7575 57.7023C20.8993 57.5179 21.0022 57.2733 21.066 56.9684L21.4595 55.0112C21.1617 55.0183 20.8852 55.1318 20.6299 55.3516C20.3817 55.5643 20.1831 55.848 20.0342 56.2025C19.8853 56.5571 19.8108 56.9329 19.8108 57.33C19.8108 57.5499 19.8534 57.713 19.9385 57.8193C20.0307 57.9257 20.1548 57.9789 20.3108 57.9789ZM24.3711 59.0532C24.1016 59.0532 23.9102 58.9114 23.7967 58.6277C23.6904 58.3441 23.6372 57.8902 23.6372 57.2662C23.6372 56.3444 23.7684 55.4686 24.0307 54.6389C24.0946 54.4333 24.1974 54.2844 24.3392 54.1922C24.4881 54.0929 24.6938 54.0433 24.9561 54.0433C25.098 54.0433 25.1972 54.061 25.254 54.0965C25.3107 54.1319 25.3391 54.1993 25.3391 54.2986C25.3391 54.412 25.2859 54.6673 25.1795 55.0644C25.1086 55.348 25.0519 55.5962 25.0093 55.809C24.9668 56.0217 24.9313 56.2841 24.9029 56.5961C25.137 55.9863 25.3993 55.4899 25.6901 55.1069C25.9808 54.724 26.2645 54.451 26.541 54.2879C26.8247 54.1248 27.0835 54.0433 27.3175 54.0433C27.7784 54.0433 28.0089 54.2737 28.0089 54.7347C28.0089 55.0112 27.9309 55.5111 27.7749 56.2344C27.6401 56.8514 27.5728 57.2591 27.5728 57.4577C27.5728 57.7413 27.6756 57.8831 27.8812 57.8831C28.0231 57.8831 28.1897 57.798 28.3812 57.6279C28.5797 57.4506 28.8421 57.1669 29.1683 56.7769C29.2534 56.6776 29.3491 56.628 29.4555 56.628C29.5477 56.628 29.6186 56.6706 29.6682 56.7556C29.7249 56.8407 29.7533 56.9577 29.7533 57.1067C29.7533 57.3903 29.6859 57.6101 29.5512 57.7661C29.2463 58.142 28.9165 58.4504 28.562 58.6915C28.2145 58.9326 27.8174 59.0532 27.3707 59.0532C27.009 59.0532 26.736 58.9504 26.5516 58.7447C26.3673 58.532 26.2751 58.2271 26.2751 57.83C26.2751 57.6314 26.3247 57.2768 26.424 56.7663C26.5162 56.3195 26.5623 56.0111 26.5623 55.8409C26.5623 55.7274 26.5233 55.6707 26.4453 55.6707C26.3531 55.6707 26.2219 55.7912 26.0517 56.0323C25.8886 56.2664 25.7184 56.5784 25.5412 56.9684C25.371 57.3584 25.2327 57.7697 25.1263 58.2022C25.0483 58.5355 24.9561 58.7624 24.8498 58.883C24.7505 58.9965 24.5909 59.0532 24.3711 59.0532ZM29.9777 59.0532C29.6586 59.0532 29.3962 58.9078 29.1906 58.6171C28.992 58.3192 28.8927 57.9505 28.8927 57.5109C28.8927 56.979 28.9282 56.4933 28.9991 56.0536C29.07 55.6069 29.187 55.1353 29.3501 54.6389C29.421 54.4262 29.5203 54.2737 29.6479 54.1816C29.7756 54.0894 29.9777 54.0433 30.2542 54.0433C30.4102 54.0433 30.5166 54.0681 30.5733 54.1177C30.6372 54.1674 30.6691 54.2418 30.6691 54.3411C30.6691 54.3978 30.6301 54.5893 30.5521 54.9155C30.4811 55.1779 30.4244 55.4154 30.3819 55.6281C30.24 56.3727 30.1691 56.8691 30.1691 57.1173C30.1691 57.2662 30.1869 57.3726 30.2223 57.4364C30.2578 57.4931 30.3145 57.5215 30.3925 57.5215C30.4989 57.5215 30.6301 57.4151 30.7861 57.2024C30.9492 56.9897 31.1194 56.667 31.2966 56.2344C31.481 55.8019 31.6583 55.27 31.8285 54.6389C31.8852 54.4262 31.9703 54.2737 32.0838 54.1816C32.2043 54.0894 32.3816 54.0433 32.6156 54.0433C32.7787 54.0433 32.8921 54.0645 32.956 54.1071C33.0198 54.1425 33.0517 54.2135 33.0517 54.3198C33.0517 54.4971 32.9631 54.9829 32.7858 55.7771C32.5872 56.6847 32.4879 57.2449 32.4879 57.4577C32.4879 57.5924 32.5163 57.6988 32.573 57.7768C32.6298 57.8477 32.7042 57.8831 32.7964 57.8831C32.9382 57.8831 33.1049 57.798 33.2963 57.6279C33.4949 57.4506 33.7573 57.1669 34.0835 56.7769C34.1686 56.6776 34.2643 56.628 34.3707 56.628C34.4628 56.628 34.5338 56.6706 34.5834 56.7556C34.6401 56.8407 34.6685 56.9577 34.6685 57.1067C34.6685 57.3903 34.6011 57.6101 34.4664 57.7661C34.1615 58.142 33.8317 58.4504 33.4772 58.6915C33.1297 58.9326 32.7326 59.0532 32.2859 59.0532C31.9455 59.0532 31.6937 58.922 31.5306 58.6596C31.3746 58.3973 31.2966 58.0285 31.2966 57.5534C31.1761 58.0356 30.9953 58.4079 30.7542 58.6703C30.5131 58.9255 30.2542 59.0532 29.9777 59.0532ZM35.1143 59.0532C34.6747 59.0532 34.3236 58.8936 34.0613 58.5745C33.7989 58.2554 33.6677 57.837 33.6677 57.3194C33.6677 56.7521 33.7989 56.2167 34.0613 55.7132C34.3236 55.2027 34.6711 54.7949 35.1037 54.49C35.5433 54.178 36.0078 54.022 36.4971 54.022C36.6531 54.022 36.7559 54.0539 36.8056 54.1177C36.8623 54.1745 36.9084 54.2808 36.9438 54.4368C37.0928 54.4085 37.2488 54.3943 37.4119 54.3943C37.7593 54.3943 37.9331 54.5184 37.9331 54.7666C37.9331 54.9155 37.8799 55.27 37.7735 55.8302C37.6104 56.6457 37.5289 57.213 37.5289 57.5321C37.5289 57.6385 37.5537 57.7236 37.6033 57.7874C37.66 57.8512 37.731 57.8831 37.816 57.8831C37.9508 57.8831 38.1139 57.798 38.3053 57.6279C38.4968 57.4506 38.7556 57.1669 39.0818 56.7769C39.1669 56.6776 39.2626 56.628 39.369 56.628C39.4612 56.628 39.5321 56.6706 39.5818 56.7556C39.6385 56.8407 39.6668 56.9577 39.6668 57.1067C39.6668 57.3903 39.5995 57.6101 39.4647 57.7661C39.174 58.1278 38.8655 58.4327 38.5393 58.6809C38.2132 58.9291 37.8976 59.0532 37.5927 59.0532C37.3587 59.0532 37.1424 58.9752 36.9438 58.8192C36.7524 58.6561 36.607 58.4363 36.5077 58.1597C36.139 58.7554 35.6745 59.0532 35.1143 59.0532ZM35.4972 57.9789C35.6532 57.9789 35.8022 57.8867 35.944 57.7023C36.0858 57.5179 36.1886 57.2733 36.2524 56.9684L36.646 55.0112C36.3482 55.0183 36.0716 55.1318 35.8163 55.3516C35.5681 55.5643 35.3696 55.848 35.2207 56.2025C35.0718 56.5571 34.9973 56.9329 34.9973 57.33C34.9973 57.5499 35.0399 57.713 35.125 57.8193C35.2171 57.9257 35.3412 57.9789 35.4972 57.9789ZM41.8764 57.5002C41.9544 57.4293 42.0324 57.3939 42.1104 57.3939C42.1955 57.3939 42.2628 57.4435 42.3125 57.5428C42.3692 57.6349 42.3976 57.7484 42.3976 57.8831C42.3976 58.181 42.2912 58.4185 42.0785 58.5958C41.7097 58.9007 41.2914 59.0532 40.8233 59.0532C40.1497 59.0532 39.6568 58.7731 39.3448 58.2129C39.0328 57.6456 38.8768 56.9081 38.8768 56.0004C38.8768 55.1353 38.9867 54.1496 39.2066 53.0434C39.4335 51.9372 39.7632 50.987 40.1958 50.1928C40.6354 49.3986 41.1566 49.0015 41.7594 49.0015C42.0998 49.0015 42.3657 49.161 42.5571 49.4801C42.7557 49.7921 42.855 50.2424 42.855 50.831C42.855 51.6748 42.621 52.6534 42.1529 53.7667C41.692 54.88 41.0609 55.9792 40.2596 57.0641C40.3092 57.3548 40.3979 57.564 40.5255 57.6917C40.6532 57.8193 40.8269 57.8831 41.0467 57.8831C41.1673 57.8831 41.302 57.8477 41.4509 57.7768C41.6069 57.7059 41.7487 57.6137 41.8764 57.5002ZM41.5254 50.0545C41.3623 50.0545 41.1779 50.3488 40.9723 50.9373C40.7666 51.5259 40.5858 52.2563 40.4298 53.1285C40.2738 54.0007 40.1887 54.8375 40.1745 55.6388C40.678 54.8091 41.0786 53.9795 41.3765 53.1498C41.6743 52.313 41.8232 51.5507 41.8232 50.8629C41.8232 50.324 41.7239 50.0545 41.5254 50.0545ZM51.5751 56.628C51.6673 56.628 51.7382 56.6706 51.7878 56.7556C51.8446 56.8407 51.8729 56.9577 51.8729 57.1067C51.8729 57.3903 51.8056 57.6101 51.6708 57.7661C51.3801 58.1207 51.061 58.4256 50.7135 58.6809C50.3661 58.9291 50.0221 59.0532 49.6818 59.0532C49.1428 59.0532 48.7315 58.7376 48.4479 58.1065C48.1501 58.4823 47.8877 58.7341 47.6608 58.8617C47.441 58.9894 47.1821 59.0532 46.8843 59.0532C46.4517 59.0532 46.0936 58.8936 45.81 58.5745C45.5334 58.2483 45.3952 57.8264 45.3952 57.3088C45.3952 56.7415 45.5157 56.2167 45.7568 55.7345C45.9979 55.2452 46.3276 54.8481 46.746 54.5432C47.1715 54.2312 47.6466 54.0468 48.1713 53.9901C48.3061 52.6144 48.5614 51.4408 48.9372 50.4693C49.3201 49.4907 49.82 49.0015 50.437 49.0015C50.7419 49.0015 50.9936 49.1397 51.1922 49.4163C51.3978 49.6928 51.5006 50.1112 51.5006 50.6714C51.5006 51.4656 51.3056 52.3946 50.9156 53.4583C50.5256 54.5219 50.0044 55.614 49.352 56.7344C49.3804 57.1457 49.4407 57.4399 49.5328 57.6172C49.6321 57.7945 49.7562 57.8831 49.9051 57.8831C50.0966 57.8831 50.2916 57.798 50.4902 57.6279C50.6887 57.4577 50.9546 57.174 51.2879 56.7769C51.373 56.6776 51.4687 56.628 51.5751 56.628ZM50.32 50.0439C50.1852 50.0439 50.0505 50.285 49.9158 50.7672C49.781 51.2423 49.664 51.8663 49.5648 52.6392C49.4726 53.4122 49.4052 54.2206 49.3627 55.0644C50.1569 53.3342 50.554 51.9443 50.554 50.8948C50.554 50.6253 50.5292 50.4161 50.4795 50.2672C50.437 50.1183 50.3838 50.0439 50.32 50.0439ZM47.2566 57.9789C47.3913 57.9789 47.526 57.9257 47.6608 57.8193C47.7955 57.7059 47.9657 57.5002 48.1713 57.2024C48.1004 56.8195 48.065 56.3904 48.065 55.9153C48.065 55.7452 48.0721 55.4686 48.0863 55.0857C47.6962 55.2062 47.37 55.4686 47.1077 55.8728C46.8524 56.2699 46.7247 56.7131 46.7247 57.2024C46.7247 57.72 46.902 57.9789 47.2566 57.9789ZM52.8052 59.0532C52.3869 59.0532 52.0287 58.9504 51.7309 58.7447C51.4402 58.532 51.2204 58.2554 51.0714 57.9151C50.9225 57.5747 50.8481 57.2095 50.8481 56.8195C50.8481 56.2805 50.9473 55.8019 51.1459 55.3835C51.3515 54.958 51.6281 54.6283 51.9756 54.3943C52.323 54.1532 52.713 54.0326 53.1456 54.0326C53.564 54.0326 53.9221 54.139 54.2199 54.3517C54.5177 54.5574 54.7411 54.8304 54.89 55.1708C55.0389 55.5111 55.1134 55.8763 55.1134 56.2664C55.1134 56.8053 55.0106 57.2875 54.8049 57.713C54.5993 58.1313 54.3192 58.4611 53.9646 58.7022C53.6172 58.9362 53.2307 59.0532 52.8052 59.0532ZM52.9222 57.9044C53.1633 57.9044 53.3654 57.7732 53.5285 57.5109C53.6987 57.2485 53.7838 56.8656 53.7838 56.3621C53.7838 55.9721 53.7129 55.6778 53.5711 55.4792C53.4293 55.2807 53.2591 55.1814 53.0605 55.1814C52.8052 55.1814 52.5925 55.3126 52.4223 55.575C52.2592 55.8302 52.1777 56.2132 52.1777 56.7237C52.1777 57.1279 52.2486 57.4258 52.3904 57.6172C52.5322 57.8087 52.7095 57.9044 52.9222 57.9044ZM62.9503 59.0532C62.1064 59.0532 61.3725 58.9007 60.7485 58.5958C60.1245 58.2838 59.6458 57.8441 59.3125 57.2768C58.9792 56.7096 58.8126 56.0501 58.8126 55.2984C58.8126 54.256 59.0076 53.3306 59.3976 52.5222C59.7947 51.7138 60.3301 51.0898 61.0038 50.6501C61.6774 50.2034 62.4255 49.98 63.2481 49.98C64.014 49.98 64.5954 50.1786 64.9925 50.5757C65.3896 50.9657 65.5882 51.4834 65.5882 52.1287C65.5882 52.5612 65.5102 52.9087 65.3542 53.1711C65.2053 53.4334 64.989 53.5646 64.7053 53.5646C64.5068 53.5646 64.3508 53.5185 64.2373 53.4263C64.1239 53.3342 64.0671 53.1994 64.0671 53.0221C64.0671 52.9583 64.0813 52.8413 64.1097 52.6711C64.1522 52.4584 64.1735 52.2882 64.1735 52.1606C64.1735 51.5153 63.8296 51.1926 63.1417 51.1926C62.6737 51.1926 62.227 51.3451 61.8015 51.65C61.376 51.9549 61.0321 52.4052 60.7697 53.0009C60.5074 53.5894 60.3762 54.2915 60.3762 55.1069C60.3762 55.9579 60.6137 56.6174 61.0889 57.0854C61.564 57.5463 62.266 57.7768 63.1949 57.7768C63.6559 57.7768 64.1203 57.72 64.5883 57.6066C65.0635 57.486 65.5882 57.3052 66.1626 57.0641C66.2689 57.0216 66.3576 57.0003 66.4285 57.0003C66.542 57.0003 66.6271 57.0428 66.6838 57.1279C66.7405 57.213 66.7689 57.3229 66.7689 57.4577C66.7689 57.8902 66.5349 58.2093 66.0669 58.415C65.5634 58.6348 65.0386 58.7979 64.4926 58.9043C63.9537 59.0035 63.4396 59.0532 62.9503 59.0532ZM66.6896 59.0532C66.4201 59.0532 66.2287 58.9114 66.1152 58.6277C66.0088 58.3441 65.9557 57.8902 65.9557 57.2662C65.9557 56.3444 66.0869 55.4686 66.3492 54.6389C66.413 54.4333 66.5159 54.2844 66.6577 54.1922C66.8066 54.0929 67.0123 54.0433 67.2746 54.0433C67.4164 54.0433 67.5157 54.061 67.5725 54.0965C67.6292 54.1319 67.6575 54.1993 67.6575 54.2986C67.6575 54.412 67.6044 54.6673 67.498 55.0644C67.4271 55.348 67.3704 55.5962 67.3278 55.809C67.2853 56.0217 67.2498 56.2841 67.2214 56.5961C67.4554 55.9863 67.7178 55.4899 68.0086 55.1069C68.2993 54.724 68.5829 54.451 68.8595 54.2879C69.1431 54.1248 69.402 54.0433 69.636 54.0433C70.0969 54.0433 70.3274 54.2737 70.3274 54.7347C70.3274 54.8268 70.2955 55.0502 70.2316 55.4048C70.1749 55.6884 70.1465 55.8657 70.1465 55.9366C70.1465 56.1848 70.2352 56.3089 70.4125 56.3089C70.611 56.3089 70.8663 56.1529 71.1783 55.8409C71.2705 55.7487 71.3662 55.7026 71.4655 55.7026C71.5577 55.7026 71.6286 55.7452 71.6782 55.8302C71.735 55.9083 71.7633 56.0146 71.7633 56.1493C71.7633 56.4117 71.6924 56.6174 71.5506 56.7663C71.352 56.9719 71.118 57.1492 70.8486 57.2981C70.5862 57.4399 70.3061 57.5109 70.0083 57.5109C69.6324 57.5109 69.3452 57.4151 69.1467 57.2237C68.9552 57.0322 68.8595 56.7734 68.8595 56.4472C68.8595 56.3408 68.8701 56.2344 68.8914 56.1281C68.9056 55.9863 68.9127 55.8905 68.9127 55.8409C68.9127 55.7274 68.8737 55.6707 68.7957 55.6707C68.6893 55.6707 68.5475 55.7912 68.3702 56.0323C68.2 56.2664 68.0298 56.5784 67.8596 56.9684C67.6895 57.3584 67.5512 57.7697 67.4448 58.2022C67.3668 58.5355 67.2746 58.7624 67.1683 58.883C67.069 58.9965 66.9094 59.0532 66.6896 59.0532ZM75.5189 56.628C75.6111 56.628 75.682 56.6706 75.7317 56.7556C75.7884 56.8407 75.8168 56.9577 75.8168 57.1067C75.8168 57.3903 75.7494 57.6101 75.6147 57.7661C75.3523 58.0852 74.98 58.3795 74.4978 58.649C74.0227 58.9185 73.5121 59.0532 72.9661 59.0532C72.2215 59.0532 71.6436 58.8511 71.2323 58.4469C70.821 58.0427 70.6154 57.4896 70.6154 56.7876C70.6154 56.2983 70.7182 55.8444 70.9239 55.4261C71.1295 55.0006 71.4132 54.6637 71.7748 54.4156C72.1435 54.1674 72.5584 54.0433 73.0193 54.0433C73.4306 54.0433 73.7603 54.1674 74.0085 54.4156C74.2567 54.6567 74.3808 54.9864 74.3808 55.4048C74.3808 55.8941 74.2035 56.316 73.849 56.6706C73.5015 57.018 72.9094 57.2946 72.0726 57.5002C72.2499 57.8264 72.5867 57.9895 73.0831 57.9895C73.4022 57.9895 73.7639 57.8796 74.1681 57.6598C74.5794 57.4329 74.9339 57.1386 75.2317 56.7769C75.3168 56.6776 75.4126 56.628 75.5189 56.628ZM72.8385 55.0857C72.5761 55.0857 72.3527 55.2381 72.1684 55.5431C71.9911 55.848 71.9024 56.2167 71.9024 56.6493V56.6706C72.3208 56.5713 72.6506 56.4224 72.8917 56.2238C73.1328 56.0253 73.2533 55.7948 73.2533 55.5324C73.2533 55.3977 73.2143 55.2913 73.1363 55.2133C73.0654 55.1282 72.9661 55.0857 72.8385 55.0857ZM76.9291 59.2872C76.5604 59.2872 76.2768 59.2021 76.0782 59.0319C75.8867 58.8617 75.791 58.6703 75.791 58.4575C75.791 58.2732 75.8584 58.1136 75.9931 57.9789C76.1278 57.8441 76.3264 57.7768 76.5888 57.7768C76.6809 57.7768 76.7873 57.7874 76.9079 57.8087C77.0355 57.8229 77.1312 57.8335 77.1951 57.8406C77.188 57.6562 77.1454 57.4825 77.0674 57.3194C76.9965 57.1563 76.9043 57.0003 76.7909 56.8514C76.6774 56.6954 76.571 56.5606 76.4718 56.4472C76.2519 56.8656 76.0321 57.213 75.8123 57.4896C75.5995 57.7661 75.3655 58.0285 75.1103 58.2767C74.9826 58.4043 74.8479 58.4682 74.7061 58.4682C74.5926 58.4682 74.5004 58.4292 74.4295 58.3512C74.3586 58.2661 74.3231 58.1632 74.3231 58.0427C74.3231 57.9009 74.3728 57.7697 74.4721 57.6491L74.6103 57.4789C75.0003 56.9967 75.2946 56.5996 75.4932 56.2876C75.6137 56.082 75.7556 55.809 75.9186 55.4686C76.0817 55.1211 76.2413 54.763 76.3973 54.3943C76.532 54.0823 76.8121 53.9263 77.2376 53.9263C77.4362 53.9263 77.5744 53.944 77.6524 53.9795C77.7304 54.0149 77.7694 54.0716 77.7694 54.1496C77.7694 54.1922 77.7553 54.2596 77.7269 54.3517C77.6985 54.4439 77.6595 54.5361 77.6099 54.6283C77.4823 54.8836 77.4184 55.0999 77.4184 55.2771C77.4184 55.3835 77.4539 55.5005 77.5248 55.6281C77.6028 55.7558 77.7198 55.9153 77.8758 56.1068C78.1027 56.4046 78.2729 56.6599 78.3864 56.8726C78.5069 57.0783 78.5672 57.3052 78.5672 57.5534C78.5672 57.6243 78.5601 57.7236 78.5459 57.8512C78.8934 57.7165 79.3011 57.3584 79.7692 56.7769C79.8542 56.6776 79.95 56.628 80.0563 56.628C80.1485 56.628 80.2194 56.6706 80.2691 56.7556C80.3258 56.8407 80.3542 56.9577 80.3542 57.1067C80.3542 57.3761 80.2868 57.5959 80.1521 57.7661C79.7975 58.2058 79.4571 58.5072 79.1309 58.6703C78.8118 58.8263 78.4147 58.9114 77.9396 58.9255C77.656 59.1666 77.3192 59.2872 76.9291 59.2872ZM81.5216 59.0532C80.8267 59.0532 80.2842 58.8582 79.8942 58.4682C79.5113 58.0711 79.3198 57.5499 79.3198 56.9046C79.3198 56.3302 79.4333 55.8267 79.6602 55.3941C79.8871 54.9616 80.1814 54.6283 80.5431 54.3943C80.9047 54.1603 81.2841 54.0433 81.6812 54.0433C82.0712 54.0433 82.3726 54.1603 82.5853 54.3943C82.8051 54.6212 82.9151 54.9155 82.9151 55.2771C82.9151 55.575 82.8477 55.8267 82.713 56.0323C82.5853 56.238 82.4151 56.3408 82.2024 56.3408C82.0677 56.3408 81.9577 56.3089 81.8727 56.2451C81.7946 56.1813 81.7556 56.0926 81.7556 55.9792C81.7556 55.9295 81.7627 55.8728 81.7769 55.809C81.7911 55.7452 81.8017 55.6991 81.8088 55.6707C81.8443 55.5643 81.862 55.4651 81.862 55.3729C81.862 55.2807 81.8372 55.2098 81.7876 55.1601C81.745 55.1105 81.6812 55.0857 81.5961 55.0857C81.433 55.0857 81.2805 55.1601 81.1387 55.309C80.9969 55.4509 80.8834 55.6459 80.7983 55.8941C80.7132 56.1423 80.6707 56.4153 80.6707 56.7131C80.6707 57.5357 81.0288 57.947 81.745 57.947C82.0357 57.947 82.3478 57.8512 82.681 57.6598C83.0214 57.4612 83.3547 57.1669 83.6809 56.7769C83.766 56.6776 83.8617 56.628 83.9681 56.628C84.0603 56.628 84.1312 56.6706 84.1808 56.7556C84.2376 56.8407 84.2659 56.9577 84.2659 57.1067C84.2659 57.3761 84.1986 57.5959 84.0638 57.7661C83.7305 58.1774 83.3299 58.4965 82.8619 58.7234C82.4009 58.9433 81.9542 59.0532 81.5216 59.0532ZM88.1501 56.628C88.2423 56.628 88.3132 56.6706 88.3628 56.7556C88.4195 56.8407 88.4479 56.9577 88.4479 57.1067C88.4479 57.3903 88.3805 57.6101 88.2458 57.7661C87.9834 58.0852 87.6112 58.3795 87.129 58.649C86.6538 58.9185 86.1433 59.0532 85.5973 59.0532C84.8527 59.0532 84.2748 58.8511 83.8635 58.4469C83.4522 58.0427 83.2465 57.4896 83.2465 56.7876C83.2465 56.2983 83.3494 55.8444 83.555 55.4261C83.7606 55.0006 84.0443 54.6637 84.4059 54.4156C84.7747 54.1674 85.1895 54.0433 85.6504 54.0433C86.0617 54.0433 86.3915 54.1674 86.6397 54.4156C86.8879 54.6567 87.0119 54.9864 87.0119 55.4048C87.0119 55.8941 86.8347 56.316 86.4801 56.6706C86.1326 57.018 85.5405 57.2946 84.7038 57.5002C84.8811 57.8264 85.2179 57.9895 85.7143 57.9895C86.0334 57.9895 86.395 57.8796 86.7992 57.6598C87.2105 57.4329 87.5651 57.1386 87.8629 56.7769C87.948 56.6776 88.0437 56.628 88.1501 56.628ZM85.4696 55.0857C85.2072 55.0857 84.9839 55.2381 84.7995 55.5431C84.6222 55.848 84.5336 56.2167 84.5336 56.6493V56.6706C84.952 56.5713 85.2817 56.4224 85.5228 56.2238C85.7639 56.0253 85.8845 55.7948 85.8845 55.5324C85.8845 55.3977 85.8454 55.2913 85.7674 55.2133C85.6965 55.1282 85.5973 55.0857 85.4696 55.0857ZM91.8791 55.5005C92.0351 55.5005 92.1663 55.5572 92.2727 55.6707C92.3861 55.7771 92.4428 55.9118 92.4428 56.0749C92.4428 56.1671 92.4216 56.2664 92.379 56.3727C92.2656 56.6351 92.106 56.8549 91.9004 57.0322C91.6947 57.2095 91.4678 57.2981 91.2196 57.2981C91.0211 57.2981 90.8509 57.2272 90.7091 57.0854C90.5743 56.9436 90.507 56.7521 90.507 56.511C90.507 56.3763 90.514 56.2309 90.5282 56.0749C90.5424 55.9614 90.5495 55.8834 90.5495 55.8409C90.5495 55.7842 90.5353 55.7416 90.507 55.7132C90.4857 55.6849 90.4573 55.6707 90.4219 55.6707C90.3226 55.6707 90.1879 55.7912 90.0177 56.0323C89.8475 56.2664 89.6773 56.5784 89.5071 56.9684C89.3369 57.3584 89.1986 57.7697 89.0923 58.2022C89.0143 58.5426 88.9256 58.7695 88.8263 58.883C88.7271 58.9965 88.564 59.0532 88.3371 59.0532C88.0676 59.0532 87.8761 58.9114 87.7627 58.6277C87.6563 58.3441 87.6031 57.8902 87.6031 57.2662C87.6031 56.3444 87.7343 55.4686 87.9967 54.6389C88.0605 54.4333 88.1633 54.2844 88.3051 54.1922C88.4541 54.0929 88.6597 54.0433 88.9221 54.0433C89.0639 54.0433 89.1632 54.061 89.2199 54.0965C89.2766 54.1319 89.305 54.1993 89.305 54.2986C89.305 54.412 89.2518 54.6673 89.1454 55.0644C89.0745 55.348 89.0178 55.5962 88.9753 55.809C88.9327 56.0217 88.8973 56.2841 88.8689 56.5961C89.1029 55.9863 89.3653 55.4899 89.656 55.1069C89.9468 54.724 90.2304 54.451 90.507 54.2879C90.7835 54.1248 91.0352 54.0433 91.2622 54.0433C91.4678 54.0433 91.6238 54.1035 91.7302 54.2241C91.8436 54.3376 91.9004 54.5077 91.9004 54.7347C91.9004 54.8694 91.8614 55.1247 91.7834 55.5005H91.8791Z" fill="#6A2C70"/>
</g>
<defs>
<clipPath id="clip0_24_150">
<rect width="100" height="76.2857" fill="white"/>
</clipPath>
</defs>
</svg>
