<svg width="48" height="48" viewBox="0 0 48 48" fill="none" xmlns="http://www.w3.org/2000/svg">
<path d="M44.3077 35.0769C44.3077 36.0965 45.1342 36.9231 46.1538 36.9231C47.1734 36.9231 48 36.0965 48 35.0769C48 34.0573 47.1734 33.2308 46.1538 33.2308C45.1342 33.2308 44.3077 34.0573 44.3077 35.0769Z" fill="#DDF6FE"/>
<path d="M44.3077 46.1538C44.3077 47.1734 45.1342 48 46.1538 48C47.1734 48 48 47.1734 48 46.1538C48 45.1342 47.1734 44.3077 46.1538 44.3077C45.1342 44.3077 44.3077 45.1342 44.3077 46.1538Z" fill="#DDF6FE"/>
<path d="M33.2308 12.9231C33.2308 13.9427 34.0573 14.7692 35.0769 14.7692C36.0965 14.7692 36.9231 13.9427 36.9231 12.9231C36.9231 11.9035 36.0965 11.0769 35.0769 11.0769C34.0573 11.0769 33.2308 11.9035 33.2308 12.9231Z" fill="#DDF6FE"/>
<path d="M33.2308 24C33.2308 25.0196 34.0573 25.8462 35.0769 25.8462C36.0965 25.8462 36.9231 25.0196 36.9231 24C36.9231 22.9804 36.0965 22.1538 35.0769 22.1538C34.0573 22.1538 33.2308 22.9804 33.2308 24Z" fill="#DDF6FE"/>
<path d="M33.2308 35.0769C33.2308 36.0965 34.0573 36.9231 35.0769 36.9231C36.0965 36.9231 36.9231 36.0965 36.9231 35.0769C36.9231 34.0573 36.0965 33.2308 35.0769 33.2308C34.0573 33.2308 33.2308 34.0573 33.2308 35.0769Z" fill="#DDF6FE"/>
<path d="M33.2308 46.1538C33.2308 47.1734 34.0573 48 35.0769 48C36.0965 48 36.9231 47.1734 36.9231 46.1538C36.9231 45.1342 36.0965 44.3077 35.0769 44.3077C34.0573 44.3077 33.2308 45.1342 33.2308 46.1538Z" fill="#DDF6FE"/>
<path d="M22.1538 12.9231C22.1538 13.9427 22.9804 14.7692 24 14.7692C25.0196 14.7692 25.8462 13.9427 25.8462 12.9231C25.8462 11.9035 25.0196 11.0769 24 11.0769C22.9804 11.0769 22.1538 11.9035 22.1538 12.9231Z" fill="#DDF6FE"/>
<path d="M22.1538 24C22.1538 25.0196 22.9804 25.8462 24 25.8462C25.0196 25.8462 25.8462 25.0196 25.8462 24C25.8462 22.9804 25.0196 22.1538 24 22.1538C22.9804 22.1538 22.1538 22.9804 22.1538 24Z" fill="#DDF6FE"/>
<path d="M22.1538 35.0769C22.1538 36.0965 22.9804 36.9231 24 36.9231C25.0196 36.9231 25.8462 36.0965 25.8462 35.0769C25.8462 34.0573 25.0196 33.2308 24 33.2308C22.9804 33.2308 22.1538 34.0573 22.1538 35.0769Z" fill="#DDF6FE"/>
<path d="M22.1538 46.1538C22.1538 47.1734 22.9804 48 24 48C25.0196 48 25.8462 47.1734 25.8462 46.1538C25.8462 45.1342 25.0196 44.3077 24 44.3077C22.9804 44.3077 22.1538 45.1342 22.1538 46.1538Z" fill="#DDF6FE"/>
<path d="M11.0769 1.84615C11.0769 2.86576 11.9035 3.69231 12.9231 3.69231C13.9427 3.69231 14.7692 2.86576 14.7692 1.84615C14.7692 0.826551 13.9427 0 12.9231 0C11.9035 0 11.0769 0.826551 11.0769 1.84615Z" fill="#DDF6FE"/>
<path d="M11.0769 12.9231C11.0769 13.9427 11.9035 14.7692 12.9231 14.7692C13.9427 14.7692 14.7692 13.9427 14.7692 12.9231C14.7692 11.9035 13.9427 11.0769 12.9231 11.0769C11.9035 11.0769 11.0769 11.9035 11.0769 12.9231Z" fill="#DDF6FE"/>
<path d="M11.0769 24C11.0769 25.0196 11.9035 25.8462 12.9231 25.8462C13.9427 25.8462 14.7692 25.0196 14.7692 24C14.7692 22.9804 13.9427 22.1538 12.9231 22.1538C11.9035 22.1538 11.0769 22.9804 11.0769 24Z" fill="#DDF6FE"/>
<path d="M11.0769 35.0769C11.0769 36.0965 11.9035 36.9231 12.9231 36.9231C13.9427 36.9231 14.7692 36.0965 14.7692 35.0769C14.7692 34.0573 13.9427 33.2308 12.9231 33.2308C11.9035 33.2308 11.0769 34.0573 11.0769 35.0769Z" fill="#DDF6FE"/>
<path d="M11.0769 46.1538C11.0769 47.1734 11.9035 48 12.9231 48C13.9427 48 14.7692 47.1734 14.7692 46.1538C14.7692 45.1342 13.9427 44.3077 12.9231 44.3077C11.9035 44.3077 11.0769 45.1342 11.0769 46.1538Z" fill="#DDF6FE"/>
<path d="M-2.38419e-07 1.84615C-2.38419e-07 2.86576 0.826551 3.69231 1.84615 3.69231C2.86576 3.69231 3.69231 2.86576 3.69231 1.84615C3.69231 0.826551 2.86576 0 1.84615 0C0.826551 0 -2.38419e-07 0.826551 -2.38419e-07 1.84615Z" fill="#DDF6FE"/>
<path d="M-2.38419e-07 12.9231C-2.38419e-07 13.9427 0.826551 14.7692 1.84615 14.7692C2.86576 14.7692 3.69231 13.9427 3.69231 12.9231C3.69231 11.9035 2.86576 11.0769 1.84615 11.0769C0.826551 11.0769 -2.38419e-07 11.9035 -2.38419e-07 12.9231Z" fill="#DDF6FE"/>
<path d="M-2.38419e-07 24C-2.38419e-07 25.0196 0.826551 25.8462 1.84615 25.8462C2.86576 25.8462 3.69231 25.0196 3.69231 24C3.69231 22.9804 2.86576 22.1538 1.84615 22.1538C0.826551 22.1538 -2.38419e-07 22.9804 -2.38419e-07 24Z" fill="#DDF6FE"/>
<path d="M-2.38419e-07 35.0769C-2.38419e-07 36.0965 0.826551 36.9231 1.84615 36.9231C2.86576 36.9231 3.69231 36.0965 3.69231 35.0769C3.69231 34.0573 2.86576 33.2308 1.84615 33.2308C0.826551 33.2308 -2.38419e-07 34.0573 -2.38419e-07 35.0769Z" fill="#DDF6FE"/>
<path d="M-2.38419e-07 46.1538C-2.38419e-07 47.1734 0.826551 48 1.84615 48C2.86576 48 3.69231 47.1734 3.69231 46.1538C3.69231 45.1342 2.86576 44.3077 1.84615 44.3077C0.826551 44.3077 -2.38419e-07 45.1342 -2.38419e-07 46.1538Z" fill="#DDF6FE"/>
</svg>
