<svg width="48" height="48" viewBox="0 0 48 48" fill="none" xmlns="http://www.w3.org/2000/svg">
<path d="M3.69249 35.0769C3.69249 36.0965 2.86594 36.9231 1.84634 36.9231C0.826734 36.9231 0.000183105 36.0965 0.000183105 35.0769C0.000183105 34.0573 0.826734 33.2308 1.84634 33.2308C2.86594 33.2308 3.69249 34.0573 3.69249 35.0769Z" fill="#4BBADD"/>
<path d="M3.69249 46.1538C3.69249 47.1734 2.86594 48 1.84634 48C0.826734 48 0.000183105 47.1734 0.000183105 46.1538C0.000183105 45.1342 0.826734 44.3077 1.84634 44.3077C2.86594 44.3077 3.69249 45.1342 3.69249 46.1538Z" fill="#4BBADD"/>
<path d="M14.7694 12.9231C14.7694 13.9427 13.9429 14.7692 12.9233 14.7692C11.9037 14.7692 11.0771 13.9427 11.0771 12.9231C11.0771 11.9035 11.9037 11.0769 12.9233 11.0769C13.9429 11.0769 14.7694 11.9035 14.7694 12.9231Z" fill="#4BBADD"/>
<path d="M14.7694 24C14.7694 25.0196 13.9429 25.8462 12.9233 25.8462C11.9037 25.8462 11.0771 25.0196 11.0771 24C11.0771 22.9804 11.9037 22.1538 12.9233 22.1538C13.9429 22.1538 14.7694 22.9804 14.7694 24Z" fill="#4BBADD"/>
<path d="M14.7694 35.0769C14.7694 36.0965 13.9429 36.9231 12.9233 36.9231C11.9037 36.9231 11.0771 36.0965 11.0771 35.0769C11.0771 34.0573 11.9037 33.2308 12.9233 33.2308C13.9429 33.2308 14.7694 34.0573 14.7694 35.0769Z" fill="#4BBADD"/>
<path d="M14.7694 46.1538C14.7694 47.1734 13.9429 48 12.9233 48C11.9037 48 11.0771 47.1734 11.0771 46.1538C11.0771 45.1342 11.9037 44.3077 12.9233 44.3077C13.9429 44.3077 14.7694 45.1342 14.7694 46.1538Z" fill="#4BBADD"/>
<path d="M25.8463 12.9231C25.8463 13.9427 25.0198 14.7692 24.0002 14.7692C22.9806 14.7692 22.154 13.9427 22.154 12.9231C22.154 11.9035 22.9806 11.0769 24.0002 11.0769C25.0198 11.0769 25.8463 11.9035 25.8463 12.9231Z" fill="#4BBADD"/>
<path d="M25.8463 24C25.8463 25.0196 25.0198 25.8462 24.0002 25.8462C22.9806 25.8462 22.154 25.0196 22.154 24C22.154 22.9804 22.9806 22.1538 24.0002 22.1538C25.0198 22.1538 25.8463 22.9804 25.8463 24Z" fill="#4BBADD"/>
<path d="M25.8463 35.0769C25.8463 36.0965 25.0198 36.9231 24.0002 36.9231C22.9806 36.9231 22.154 36.0965 22.154 35.0769C22.154 34.0573 22.9806 33.2308 24.0002 33.2308C25.0198 33.2308 25.8463 34.0573 25.8463 35.0769Z" fill="#4BBADD"/>
<path d="M25.8463 46.1538C25.8463 47.1734 25.0198 48 24.0002 48C22.9806 48 22.154 47.1734 22.154 46.1538C22.154 45.1342 22.9806 44.3077 24.0002 44.3077C25.0198 44.3077 25.8463 45.1342 25.8463 46.1538Z" fill="#4BBADD"/>
<path d="M36.9233 1.84615C36.9233 2.86576 36.0967 3.69231 35.0771 3.69231C34.0575 3.69231 33.231 2.86576 33.231 1.84615C33.231 0.826551 34.0575 0 35.0771 0C36.0967 0 36.9233 0.826551 36.9233 1.84615Z" fill="#4BBADD"/>
<path d="M36.9233 12.9231C36.9233 13.9427 36.0967 14.7692 35.0771 14.7692C34.0575 14.7692 33.231 13.9427 33.231 12.9231C33.231 11.9035 34.0575 11.0769 35.0771 11.0769C36.0967 11.0769 36.9233 11.9035 36.9233 12.9231Z" fill="#4BBADD"/>
<path d="M36.9233 24C36.9233 25.0196 36.0967 25.8462 35.0771 25.8462C34.0575 25.8462 33.231 25.0196 33.231 24C33.231 22.9804 34.0575 22.1538 35.0771 22.1538C36.0967 22.1538 36.9233 22.9804 36.9233 24Z" fill="#4BBADD"/>
<path d="M36.9233 35.0769C36.9233 36.0965 36.0967 36.9231 35.0771 36.9231C34.0575 36.9231 33.231 36.0965 33.231 35.0769C33.231 34.0573 34.0575 33.2308 35.0771 33.2308C36.0967 33.2308 36.9233 34.0573 36.9233 35.0769Z" fill="#4BBADD"/>
<path d="M36.9233 46.1538C36.9233 47.1734 36.0967 48 35.0771 48C34.0575 48 33.231 47.1734 33.231 46.1538C33.231 45.1342 34.0575 44.3077 35.0771 44.3077C36.0967 44.3077 36.9233 45.1342 36.9233 46.1538Z" fill="#4BBADD"/>
<path d="M48.0002 1.84615C48.0002 2.86576 47.1736 3.69231 46.154 3.69231C45.1344 3.69231 44.3079 2.86576 44.3079 1.84615C44.3079 0.826551 45.1344 0 46.154 0C47.1736 0 48.0002 0.826551 48.0002 1.84615Z" fill="#4BBADD"/>
<path d="M48.0002 12.9231C48.0002 13.9427 47.1736 14.7692 46.154 14.7692C45.1344 14.7692 44.3079 13.9427 44.3079 12.9231C44.3079 11.9035 45.1344 11.0769 46.154 11.0769C47.1736 11.0769 48.0002 11.9035 48.0002 12.9231Z" fill="#4BBADD"/>
<path d="M48.0002 24C48.0002 25.0196 47.1736 25.8462 46.154 25.8462C45.1344 25.8462 44.3079 25.0196 44.3079 24C44.3079 22.9804 45.1344 22.1538 46.154 22.1538C47.1736 22.1538 48.0002 22.9804 48.0002 24Z" fill="#4BBADD"/>
<path d="M48.0002 35.0769C48.0002 36.0965 47.1736 36.9231 46.154 36.9231C45.1344 36.9231 44.3079 36.0965 44.3079 35.0769C44.3079 34.0573 45.1344 33.2308 46.154 33.2308C47.1736 33.2308 48.0002 34.0573 48.0002 35.0769Z" fill="#4BBADD"/>
<path d="M48.0002 46.1538C48.0002 47.1734 47.1736 48 46.154 48C45.1344 48 44.3079 47.1734 44.3079 46.1538C44.3079 45.1342 45.1344 44.3077 46.154 44.3077C47.1736 44.3077 48.0002 45.1342 48.0002 46.1538Z" fill="#4BBADD"/>
</svg>
